<?xml version="1.0" encoding="UTF-8" standalone="no"?><svg xmlns="http://www.w3.org/2000/svg" xmlns:xlink="http://www.w3.org/1999/xlink" contentScriptType="application/ecmascript" contentStyleType="text/css" height="910px" preserveAspectRatio="none" style="width:328px;height:910px;background:#00000000;" version="1.1" viewBox="0 0 328 910" width="328px" zoomAndPan="magnify"><defs><filter height="300%" id="f6pyac1csrkpt" width="300%" x="-1" y="-1"><feGaussianBlur result="blurOut" stdDeviation="2.0"/><feColorMatrix in="blurOut" result="blurOut2" type="matrix" values="0 0 0 0 0 0 0 0 0 0 0 0 0 0 0 0 0 0 .4 0"/><feOffset dx="4.0" dy="4.0" in="blurOut2" result="blurOut3"/><feBlend in="SourceGraphic" in2="blurOut3" mode="normal"/></filter></defs><g><!--MD5=[322322ff1f1b812a623fdee1a571c9e1]
cluster app1--><rect fill="#FEFECE" filter="url(#f6pyac1csrkpt)" height="172" rx="12.5" ry="12.5" style="stroke:#A80036;stroke-width:1.5;" width="82" x="128" y="7"/><rect height="139.7031" rx="12.5" ry="12.5" style="stroke:#00000000;stroke-width:1.0;fill:none;" width="76" x="131" y="36.2969"/><line style="stroke:#A80036;stroke-width:1.5;fill:none;" x1="128" x2="210" y1="33.2969" y2="33.2969"/><text fill="#000000" font-family="sans-serif" font-size="14" lengthAdjust="spacing" textLength="48" x="145" y="23.9951">AppVM</text><!--MD5=[dbca0685c89fa085bd9c3bb1e86763ff]
cluster proxy1--><rect fill="#FEFECE" filter="url(#f6pyac1csrkpt)" height="192" rx="12.5" ry="12.5" style="stroke:#A80036;stroke-width:1.5;" width="207" x="27" y="228"/><rect height="159.7031" rx="12.5" ry="12.5" style="stroke:#00000000;stroke-width:1.0;fill:none;" width="201" x="30" y="257.2969"/><line style="stroke:#A80036;stroke-width:1.5;fill:none;" x1="27" x2="234" y1="254.2969" y2="254.2969"/><text fill="#000000" font-family="sans-serif" font-size="14" lengthAdjust="spacing" textLength="58" x="101.5" y="244.9951">ProxyVM</text><!--MD5=[95df5f9c79c363c9434bbd1af1ff1bcf]
cluster proxy2--><rect fill="#FEFECE" filter="url(#f6pyac1csrkpt)" height="192" rx="12.5" ry="12.5" style="stroke:#A80036;stroke-width:1.5;" width="207" x="7" y="586"/><rect height="159.7031" rx="12.5" ry="12.5" style="stroke:#00000000;stroke-width:1.0;fill:none;" width="201" x="10" y="615.2969"/><line style="stroke:#A80036;stroke-width:1.5;fill:none;" x1="7" x2="214" y1="612.2969" y2="612.2969"/><text fill="#000000" font-family="sans-serif" font-size="14" lengthAdjust="spacing" textLength="58" x="81.5" y="602.9951">ProxyVM</text><!--MD5=[33e0f2330565fb626ee122e5c50707d7]
cluster app2--><rect fill="#FEFECE" filter="url(#f6pyac1csrkpt)" height="71" rx="12.5" ry="12.5" style="stroke:#A80036;stroke-width:1.5;" width="64" x="36" y="827"/><rect height="38.7031" rx="12.5" ry="12.5" style="stroke:#00000000;stroke-width:1.0;fill:none;" width="58" x="39" y="856.2969"/><line style="stroke:#A80036;stroke-width:1.5;fill:none;" x1="36" x2="100" y1="853.2969" y2="853.2969"/><text fill="#000000" font-family="sans-serif" font-size="14" lengthAdjust="spacing" textLength="48" x="44" y="843.9951">AppVM</text><rect fill="#FEFECE" filter="url(#f6pyac1csrkpt)" height="40" rx="12.5" ry="12.5" style="stroke:#A80036;stroke-width:1.5;" width="50" x="144" y="123"/><text fill="#000000" font-family="sans-serif" font-size="14" lengthAdjust="spacing" textLength="37" x="150.5" y="147.8467">route</text><ellipse cx="169" cy="52" fill="#000000" filter="url(#f6pyac1csrkpt)" rx="10" ry="10" style="stroke:none;stroke-width:1.0;"/><rect fill="#FEFECE" filter="url(#f6pyac1csrkpt)" height="40" rx="12.5" ry="12.5" style="stroke:#A80036;stroke-width:1.5;" width="50" x="43" y="364"/><text fill="#000000" font-family="sans-serif" font-size="14" lengthAdjust="spacing" textLength="37" x="49.5" y="388.8467">route</text><rect fill="#FEFECE" filter="url(#f6pyac1csrkpt)" height="40" rx="12.5" ry="12.5" style="stroke:#A80036;stroke-width:1.5;" width="82" x="128" y="263"/><text fill="#000000" font-family="sans-serif" font-size="14" lengthAdjust="spacing" textLength="72" x="133" y="287.8467">prerouting</text><rect fill="#FEFECE" filter="url(#f6pyac1csrkpt)" height="40" rx="12.5" ry="12.5" style="stroke:#A80036;stroke-width:1.5;" width="50" x="43" y="263"/><text fill="#000000" font-family="sans-serif" font-size="14" lengthAdjust="spacing" textLength="29" x="53.5" y="287.8467">filter</text><rect fill="#FEFECE" filter="url(#f6pyac1csrkpt)" height="40" rx="12.5" ry="12.5" style="stroke:#A80036;stroke-width:1.5;" width="90" x="128" y="364"/><text fill="#000000" font-family="sans-serif" font-size="14" lengthAdjust="spacing" textLength="80" x="133" y="388.8467">postrouting</text><rect fill="#FEFECE" filter="url(#f6pyac1csrkpt)" height="40" rx="12.5" ry="12.5" style="stroke:#A80036;stroke-width:1.5;" width="50" x="148" y="722"/><text fill="#000000" font-family="sans-serif" font-size="14" lengthAdjust="spacing" textLength="37" x="154.5" y="746.8467">route</text><rect fill="#FEFECE" filter="url(#f6pyac1csrkpt)" height="40" rx="12.5" ry="12.5" style="stroke:#A80036;stroke-width:1.5;" width="50" x="148" y="621"/><text fill="#000000" font-family="sans-serif" font-size="14" lengthAdjust="spacing" textLength="29" x="158.5" y="645.8467">filter</text><rect fill="#FEFECE" filter="url(#f6pyac1csrkpt)" height="40" rx="12.5" ry="12.5" style="stroke:#A80036;stroke-width:1.5;" width="90" x="23" y="722"/><text fill="#000000" font-family="sans-serif" font-size="14" lengthAdjust="spacing" textLength="80" x="28" y="746.8467">postrouting</text><ellipse cx="68" cy="872" filter="url(#f6pyac1csrkpt)" rx="10" ry="10" style="stroke:#000000;stroke-width:1.0;fill:none;"/><ellipse cx="68.5" cy="872.5" fill="#000000" rx="6" ry="6" style="stroke:none;stroke-width:1.0;"/><rect fill="#FEFECE" filter="url(#f6pyac1csrkpt)" height="40" rx="12.5" ry="12.5" style="stroke:#A80036;stroke-width:1.5;" width="76" x="135" y="483"/><text fill="#000000" font-family="sans-serif" font-size="14" lengthAdjust="spacing" textLength="66" x="140" y="507.8467">upstream</text><!--MD5=[0ea70c31daed3128f17267aa6faf77b8]
link *start*app1 to route--><path d="M169,62.19 C169,75.18 169,99.38 169,117.73 " fill="none" id="*start*app1-to-route" style="stroke:#A80036;stroke-width:1.0;"/><polygon fill="#A80036" points="169,122.74,173,113.74,169,117.74,165,113.74,169,122.74" style="stroke:#A80036;stroke-width:1.0;"/><!--MD5=[286459fe5198f66889982794a2e4379a]
link route to prerouting--><path d="M169,163.19 C169,187.91 169,230.88 169,257.81 " fill="none" id="route-to-prerouting" style="stroke:#A80036;stroke-width:1.0;stroke-dasharray:7.0,7.0;"/><polygon fill="#A80036" points="169,262.97,173,253.97,169,257.97,165,253.97,169,262.97" style="stroke:#A80036;stroke-width:1.0;"/><text fill="#000000" font-family="sans-serif" font-size="13" lengthAdjust="spacing" textLength="142" x="170" y="208.0669">ping from .7.27 to .8.8</text><!--MD5=[47f8f23170c63a171f20d462cdc7b1f1]
reverse link filter to prerouting--><path d="M98.39,283 C108.22,283 118.04,283 127.87,283 " fill="none" id="filter-backto-prerouting" style="stroke:#A80036;stroke-width:1.0;"/><polygon fill="#A80036" points="93.25,283,102.25,287,98.25,283,102.25,279,93.25,283" style="stroke:#A80036;stroke-width:1.0;"/><!--MD5=[b88b2d1c89dfc52d32c11d1fbc055972]
link filter to route2--><path d="M68,303.09 C68,318.98 68,341.69 68,358.84 " fill="none" id="filter-to-route2" style="stroke:#A80036;stroke-width:1.0;"/><polygon fill="#A80036" points="68,363.97,72,354.97,68,358.97,64,354.97,68,363.97" style="stroke:#A80036;stroke-width:1.0;"/><!--MD5=[b56da5d9c8c24b2481eeca7f8c81ac60]
link route2 to postrouting--><path d="M93.02,384 C102.86,384 112.71,384 122.55,384 " fill="none" id="route2-to-postrouting" style="stroke:#A80036;stroke-width:1.0;"/><polygon fill="#A80036" points="127.7,384,118.7,380,122.7,384,118.7,388,127.7,384" style="stroke:#A80036;stroke-width:1.0;"/><!--MD5=[6b8971d718f0af3dac93458dfb64a9de]
link postrouting to upstream--><path d="M173,404.06 C173,424.2 173,456.02 173,477.89 " fill="none" id="postrouting-to-upstream" style="stroke:#A80036;stroke-width:1.0;stroke-dasharray:7.0,7.0;"/><polygon fill="#A80036" points="173,482.95,177,473.95,173,477.95,169,473.95,173,482.95" style="stroke:#A80036;stroke-width:1.0;"/><text fill="#000000" font-family="sans-serif" font-size="13" lengthAdjust="spacing" textLength="142" x="174" y="449.0669">ping from .7.26 to .8.8</text><!--MD5=[c5b9e9aba2aea4ad8d91fcf5bc82e99c]
link upstream to filter2--><path d="M173,523.2 C173,547.5 173,589.37 173,615.82 " fill="none" id="upstream-to-filter2" style="stroke:#A80036;stroke-width:1.0;stroke-dasharray:7.0,7.0;"/><polygon fill="#A80036" points="173,620.9,177,611.9,173,615.9,169,611.9,173,620.9" style="stroke:#A80036;stroke-width:1.0;"/><text fill="#000000" font-family="sans-serif" font-size="13" lengthAdjust="spacing" textLength="146" x="174" y="566.0669">reply from .8.8 to .7.26</text><!--MD5=[808c97b75e889265fac61f0fb6d9ce28]
link filter2 to route3--><path d="M173,661.09 C173,676.98 173,699.69 173,716.84 " fill="none" id="filter2-to-route3" style="stroke:#A80036;stroke-width:1.0;"/><polygon fill="#A80036" points="173,721.97,177,712.97,173,716.97,169,712.97,173,721.97" style="stroke:#A80036;stroke-width:1.0;"/><!--MD5=[34784f6782f27e38277961dd64762449]
reverse link postrouting2 to route3--><path d="M118.26,742 C128.08,742 137.91,742 147.74,742 " fill="none" id="postrouting2-backto-route3" style="stroke:#A80036;stroke-width:1.0;"/><polygon fill="#A80036" points="113.12,742,122.12,746,118.12,742,122.12,738,113.12,742" style="stroke:#A80036;stroke-width:1.0;"/><!--MD5=[05ba19d880227fbb5229d0aae4790e35]
link postrouting2 to *end*app2--><path d="M68,762.16 C68,788.12 68,833.85 68,856.89 " fill="none" id="postrouting2-to-*end*app2" style="stroke:#A80036;stroke-width:1.0;stroke-dasharray:7.0,7.0;"/><polygon fill="#A80036" points="68,861.97,72,852.97,68,856.97,64,852.97,68,861.97" style="stroke:#A80036;stroke-width:1.0;"/><text fill="#000000" font-family="sans-serif" font-size="13" lengthAdjust="spacing" textLength="146" x="69" y="807.0669">reply from .8.8 to .7.27</text></g></svg>