<?xml version="1.0" encoding="UTF-8" standalone="no"?><svg xmlns="http://www.w3.org/2000/svg" xmlns:xlink="http://www.w3.org/1999/xlink" contentScriptType="application/ecmascript" contentStyleType="text/css" height="910px" preserveAspectRatio="none" style="width:306px;height:910px;background:#00000000;" version="1.1" viewBox="0 0 306 910" width="306px" zoomAndPan="magnify"><defs><filter height="300%" id="f6pyac1csrkpt" width="300%" x="-1" y="-1"><feGaussianBlur result="blurOut" stdDeviation="2.0"/><feColorMatrix in="blurOut" result="blurOut2" type="matrix" values="0 0 0 0 0 0 0 0 0 0 0 0 0 0 0 0 0 0 .4 0"/><feOffset dx="4.0" dy="4.0" in="blurOut2" result="blurOut3"/><feBlend in="SourceGraphic" in2="blurOut3" mode="normal"/></filter></defs><g><!--MD5=[322322ff1f1b812a623fdee1a571c9e1]
cluster app1--><rect fill="#FEFECE" filter="url(#f6pyac1csrkpt)" height="172" rx="12.5" ry="12.5" style="stroke:#A80036;stroke-width:1.5;" width="82" x="121" y="7"/><rect height="139.2001" rx="12.5" ry="12.5" style="stroke:#00000000;stroke-width:1.0;fill:none;" width="76" x="124" y="36.7999"/><line style="stroke:#A80036;stroke-width:1.5;fill:none;" x1="121" x2="203" y1="33.7999" y2="33.7999"/><text fill="#000000" font-family="sans-serif" font-size="14" lengthAdjust="spacing" textLength="46" x="139" y="24.0059">AppVM</text><!--MD5=[dbca0685c89fa085bd9c3bb1e86763ff]
cluster proxy1--><rect fill="#FEFECE" filter="url(#f6pyac1csrkpt)" height="192" rx="12.5" ry="12.5" style="stroke:#A80036;stroke-width:1.5;" width="199" x="23" y="228"/><rect height="159.2001" rx="12.5" ry="12.5" style="stroke:#00000000;stroke-width:1.0;fill:none;" width="193" x="26" y="257.7999"/><line style="stroke:#A80036;stroke-width:1.5;fill:none;" x1="23" x2="222" y1="254.7999" y2="254.7999"/><text fill="#000000" font-family="sans-serif" font-size="14" lengthAdjust="spacing" textLength="57" x="94" y="245.0059">ProxyVM</text><!--MD5=[95df5f9c79c363c9434bbd1af1ff1bcf]
cluster proxy2--><rect fill="#FEFECE" filter="url(#f6pyac1csrkpt)" height="192" rx="12.5" ry="12.5" style="stroke:#A80036;stroke-width:1.5;" width="199" x="7" y="586"/><rect height="159.2001" rx="12.5" ry="12.5" style="stroke:#00000000;stroke-width:1.0;fill:none;" width="193" x="10" y="615.7999"/><line style="stroke:#A80036;stroke-width:1.5;fill:none;" x1="7" x2="206" y1="612.7999" y2="612.7999"/><text fill="#000000" font-family="sans-serif" font-size="14" lengthAdjust="spacing" textLength="57" x="78" y="603.0059">ProxyVM</text><!--MD5=[33e0f2330565fb626ee122e5c50707d7]
cluster app2--><rect fill="#FEFECE" filter="url(#f6pyac1csrkpt)" height="71" rx="12.5" ry="12.5" style="stroke:#A80036;stroke-width:1.5;" width="62" x="33" y="827"/><rect height="38.2001" rx="12.5" ry="12.5" style="stroke:#00000000;stroke-width:1.0;fill:none;" width="56" x="36" y="856.7999"/><line style="stroke:#A80036;stroke-width:1.5;fill:none;" x1="33" x2="95" y1="853.7999" y2="853.7999"/><text fill="#000000" font-family="sans-serif" font-size="14" lengthAdjust="spacing" textLength="46" x="41" y="844.0059">AppVM</text><rect fill="#FEFECE" filter="url(#f6pyac1csrkpt)" height="40" rx="12.5" ry="12.5" style="stroke:#A80036;stroke-width:1.5;" width="50" x="137" y="123"/><text fill="#000000" font-family="sans-serif" font-size="14" lengthAdjust="spacing" textLength="33" x="145.5" y="147.606">route</text><ellipse cx="162" cy="52" fill="#000000" filter="url(#f6pyac1csrkpt)" rx="10" ry="10" style="stroke:none;stroke-width:1.0;"/><rect fill="#FEFECE" filter="url(#f6pyac1csrkpt)" height="40" rx="12.5" ry="12.5" style="stroke:#A80036;stroke-width:1.5;" width="50" x="39" y="364"/><text fill="#000000" font-family="sans-serif" font-size="14" lengthAdjust="spacing" textLength="33" x="47.5" y="388.606">route</text><rect fill="#FEFECE" filter="url(#f6pyac1csrkpt)" height="40" rx="12.5" ry="12.5" style="stroke:#A80036;stroke-width:1.5;" width="75" x="124.5" y="263"/><text fill="#000000" font-family="sans-serif" font-size="14" lengthAdjust="spacing" textLength="65" x="129.5" y="287.606">prerouting</text><rect fill="#FEFECE" filter="url(#f6pyac1csrkpt)" height="40" rx="12.5" ry="12.5" style="stroke:#A80036;stroke-width:1.5;" width="50" x="39" y="263"/><text fill="#000000" font-family="sans-serif" font-size="14" lengthAdjust="spacing" textLength="27" x="50.5" y="287.606">filter</text><rect fill="#FEFECE" filter="url(#f6pyac1csrkpt)" height="40" rx="12.5" ry="12.5" style="stroke:#A80036;stroke-width:1.5;" width="81" x="124.5" y="364"/><text fill="#000000" font-family="sans-serif" font-size="14" lengthAdjust="spacing" textLength="71" x="129.5" y="388.606">postrouting</text><rect fill="#FEFECE" filter="url(#f6pyac1csrkpt)" height="40" rx="12.5" ry="12.5" style="stroke:#A80036;stroke-width:1.5;" width="50" x="140" y="722"/><text fill="#000000" font-family="sans-serif" font-size="14" lengthAdjust="spacing" textLength="33" x="148.5" y="746.606">route</text><rect fill="#FEFECE" filter="url(#f6pyac1csrkpt)" height="40" rx="12.5" ry="12.5" style="stroke:#A80036;stroke-width:1.5;" width="50" x="140" y="621"/><text fill="#000000" font-family="sans-serif" font-size="14" lengthAdjust="spacing" textLength="27" x="151.5" y="645.606">filter</text><rect fill="#FEFECE" filter="url(#f6pyac1csrkpt)" height="40" rx="12.5" ry="12.5" style="stroke:#A80036;stroke-width:1.5;" width="81" x="23.5" y="722"/><text fill="#000000" font-family="sans-serif" font-size="14" lengthAdjust="spacing" textLength="71" x="28.5" y="746.606">postrouting</text><ellipse cx="64" cy="872" filter="url(#f6pyac1csrkpt)" rx="10" ry="10" style="stroke:#000000;stroke-width:1.0;fill:none;"/><ellipse cx="64.5" cy="872.5" fill="#000000" rx="6" ry="6" style="stroke:none;stroke-width:1.0;"/><rect fill="#FEFECE" filter="url(#f6pyac1csrkpt)" height="40" rx="12.5" ry="12.5" style="stroke:#A80036;stroke-width:1.5;" width="70" x="130" y="483"/><text fill="#000000" font-family="sans-serif" font-size="14" lengthAdjust="spacing" textLength="60" x="135" y="507.606">upstream</text><!--MD5=[0ea70c31daed3128f17267aa6faf77b8]
link *start*app1 to route--><path d="M162,62.19 C162,75.18 162,99.38 162,117.73 " fill="none" id="*start*app1-to-route" style="stroke:#A80036;stroke-width:1.0;"/><polygon fill="#A80036" points="162,122.74,166,113.74,162,117.74,158,113.74,162,122.74" style="stroke:#A80036;stroke-width:1.0;"/><!--MD5=[286459fe5198f66889982794a2e4379a]
link route to prerouting--><path d="M162,163.19 C162,187.91 162,230.88 162,257.81 " fill="none" id="route-to-prerouting" style="stroke:#A80036;stroke-width:1.0;stroke-dasharray:7.0,7.0;"/><polygon fill="#A80036" points="162,262.97,166,253.97,162,257.97,158,253.97,162,262.97" style="stroke:#A80036;stroke-width:1.0;"/><text fill="#000000" font-family="sans-serif" font-size="13" lengthAdjust="spacing" textLength="128" x="163" y="208.077">ping from .7.27 to .8.8</text><!--MD5=[47f8f23170c63a171f20d462cdc7b1f1]
reverse link filter to prerouting--><path d="M94.5,283 C104.5,283 114.5,283 124.5,283 " fill="none" id="filter-backto-prerouting" style="stroke:#A80036;stroke-width:1.0;"/><polygon fill="#A80036" points="89.27,283,98.27,287,94.27,283,98.27,279,89.27,283" style="stroke:#A80036;stroke-width:1.0;"/><!--MD5=[b88b2d1c89dfc52d32c11d1fbc055972]
link filter to route2--><path d="M64,303.09 C64,318.98 64,341.69 64,358.84 " fill="none" id="filter-to-route2" style="stroke:#A80036;stroke-width:1.0;"/><polygon fill="#A80036" points="64,363.97,68,354.97,64,358.97,60,354.97,64,363.97" style="stroke:#A80036;stroke-width:1.0;"/><!--MD5=[b56da5d9c8c24b2481eeca7f8c81ac60]
link route2 to postrouting--><path d="M89.25,384 C99.25,384 109.24,384 119.24,384 " fill="none" id="route2-to-postrouting" style="stroke:#A80036;stroke-width:1.0;"/><polygon fill="#A80036" points="124.46,384,115.46,380,119.46,384,115.46,388,124.46,384" style="stroke:#A80036;stroke-width:1.0;"/><!--MD5=[6b8971d718f0af3dac93458dfb64a9de]
link postrouting to upstream--><path d="M165,404.06 C165,424.2 165,456.02 165,477.89 " fill="none" id="postrouting-to-upstream" style="stroke:#A80036;stroke-width:1.0;stroke-dasharray:7.0,7.0;"/><polygon fill="#A80036" points="165,482.95,169,473.95,165,477.95,161,473.95,165,482.95" style="stroke:#A80036;stroke-width:1.0;"/><text fill="#000000" font-family="sans-serif" font-size="13" lengthAdjust="spacing" textLength="128" x="166" y="449.077">ping from .7.26 to .8.8</text><!--MD5=[c5b9e9aba2aea4ad8d91fcf5bc82e99c]
link upstream to filter2--><path d="M165,523.2 C165,547.5 165,589.37 165,615.82 " fill="none" id="upstream-to-filter2" style="stroke:#A80036;stroke-width:1.0;stroke-dasharray:7.0,7.0;"/><polygon fill="#A80036" points="165,620.9,169,611.9,165,615.9,161,611.9,165,620.9" style="stroke:#A80036;stroke-width:1.0;"/><text fill="#000000" font-family="sans-serif" font-size="13" lengthAdjust="spacing" textLength="132" x="166" y="566.077">reply from .8.8 to .7.26</text><!--MD5=[808c97b75e889265fac61f0fb6d9ce28]
link filter2 to route3--><path d="M165,661.09 C165,676.98 165,699.69 165,716.84 " fill="none" id="filter2-to-route3" style="stroke:#A80036;stroke-width:1.0;"/><polygon fill="#A80036" points="165,721.97,169,712.97,165,716.97,161,712.97,165,721.97" style="stroke:#A80036;stroke-width:1.0;"/><!--MD5=[34784f6782f27e38277961dd64762449]
reverse link postrouting2 to route3--><path d="M109.82,742 C119.72,742 129.63,742 139.53,742 " fill="none" id="postrouting2-backto-route3" style="stroke:#A80036;stroke-width:1.0;"/><polygon fill="#A80036" points="104.64,742,113.64,746,109.64,742,113.64,738,104.64,742" style="stroke:#A80036;stroke-width:1.0;"/><!--MD5=[05ba19d880227fbb5229d0aae4790e35]
link postrouting2 to *end*app2--><path d="M64,762.16 C64,788.12 64,833.85 64,856.89 " fill="none" id="postrouting2-to-*end*app2" style="stroke:#A80036;stroke-width:1.0;stroke-dasharray:7.0,7.0;"/><polygon fill="#A80036" points="64,861.97,68,852.97,64,856.97,60,852.97,64,861.97" style="stroke:#A80036;stroke-width:1.0;"/><text fill="#000000" font-family="sans-serif" font-size="13" lengthAdjust="spacing" textLength="132" x="65" y="807.077">reply from .8.8 to .7.27</text></g></svg>