<?xml version="1.0" encoding="UTF-8" standalone="no"?><svg xmlns="http://www.w3.org/2000/svg" xmlns:xlink="http://www.w3.org/1999/xlink" contentScriptType="application/ecmascript" contentStyleType="text/css" height="508px" preserveAspectRatio="none" style="width:323px;height:508px;background:#00000000;" version="1.1" viewBox="0 0 323 508" width="323px" zoomAndPan="magnify"><defs><filter height="300%" id="fnzq8xu504795" width="300%" x="-1" y="-1"><feGaussianBlur result="blurOut" stdDeviation="2.0"/><feColorMatrix in="blurOut" result="blurOut2" type="matrix" values="0 0 0 0 0 0 0 0 0 0 0 0 0 0 0 0 0 0 .4 0"/><feOffset dx="4.0" dy="4.0" in="blurOut2" result="blurOut3"/><feBlend in="SourceGraphic" in2="blurOut3" mode="normal"/></filter></defs><g><!--MD5=[4b1943330811241b39549f0db8d9ffdb]
cluster X--><rect fill="#FEFECE" filter="url(#fnzq8xu504795)" height="489" rx="12.5" ry="12.5" style="stroke:#A80036;stroke-width:1.5;" width="203" x="108" y="7"/><rect height="456.2001" rx="12.5" ry="12.5" style="stroke:#00000000;stroke-width:1.0;fill:none;" width="197" x="111" y="36.7999"/><line style="stroke:#A80036;stroke-width:1.5;fill:none;" x1="108" x2="311" y1="33.7999" y2="33.7999"/><text fill="#000000" font-family="sans-serif" font-size="14" lengthAdjust="spacing" textLength="8" x="205.5" y="24.0059">_</text><rect fill="#FEFECE" filter="url(#fnzq8xu504795)" height="40" rx="12.5" ry="12.5" style="stroke:#A80036;stroke-width:1.5;" width="57" x="140.5" y="183"/><text fill="#000000" font-family="sans-serif" font-size="14" lengthAdjust="spacing" textLength="47" x="145.5" y="207.606">domain</text><rect fill="#FEFECE" filter="url(#fnzq8xu504795)" height="40" rx="12.5" ry="12.5" style="stroke:#A80036;stroke-width:1.5;" width="101" x="177.5" y="331"/><text fill="#000000" font-family="sans-serif" font-size="14" lengthAdjust="spacing" textLength="91" x="182.5" y="355.606">domain invalid</text><rect fill="#FEFECE" filter="url(#fnzq8xu504795)" height="40" rx="12.5" ry="12.5" style="stroke:#A80036;stroke-width:1.5;" width="118" x="151" y="50"/><text fill="#000000" font-family="sans-serif" font-size="14" lengthAdjust="spacing" textLength="108" x="156" y="74.606">domain threaded</text><rect fill="#FEFECE" filter="url(#fnzq8xu504795)" height="40" rx="12.5" ry="12.5" style="stroke:#A80036;stroke-width:1.5;" width="67" x="167.5" y="432"/><text fill="#000000" font-family="sans-serif" font-size="14" lengthAdjust="spacing" textLength="57" x="172.5" y="456.606">threaded</text><ellipse cx="38" cy="203" fill="#000000" filter="url(#fnzq8xu504795)" rx="10" ry="10" style="stroke:none;stroke-width:1.0;"/><ellipse cx="16" cy="70" filter="url(#fnzq8xu504795)" rx="10" ry="10" style="stroke:#000000;stroke-width:1.0;fill:none;"/><ellipse cx="16.5" cy="70.5" fill="#000000" rx="6" ry="6" style="stroke:none;stroke-width:1.0;"/><!--MD5=[7210e289b446f8b2af38b1f5f93b7b3a]
link *start to D--><path d="M48.28,203 C66.73,203 106.24,203 135.05,203 " fill="none" id="*start-to-D" style="stroke:#A80036;stroke-width:1.0;"/><polygon fill="#A80036" points="140.3,203,131.3,199,135.3,203,131.3,207,140.3,203" style="stroke:#A80036;stroke-width:1.0;"/><text fill="#000000" font-family="sans-serif" font-size="13" lengthAdjust="spacing" textLength="56" x="66.25" y="196.077">call mkdir</text><!--MD5=[21dafa7ad8f9e8da18490b59e4d58aa0]
link D to DI--><path d="M159.12,223.04 C149.99,243.5 139.68,276.38 153,301 C159.01,312.11 168.76,321.1 179.26,328.2 " fill="none" id="D-to-DI" style="stroke:#A80036;stroke-width:1.0;"/><polygon fill="#A80036" points="183.48,330.93,178.105,322.6771,179.2848,328.2096,173.7524,329.3894,183.48,330.93" style="stroke:#A80036;stroke-width:1.0;"/><!--MD5=[414813f89f5d761e31b5790ddf7bd60e]
link DI to D--><path d="M220.28,330.91 C209.59,304.46 190.28,256.67 178.65,227.88 " fill="none" id="DI-to-D" style="stroke:#A80036;stroke-width:1.0;"/><polygon fill="#A80036" points="176.71,223.09,176.3647,232.9328,178.5792,227.7274,183.7846,229.942,176.71,223.09" style="stroke:#A80036;stroke-width:1.0;"/><text fill="#000000" font-family="sans-serif" font-size="13" lengthAdjust="spacing" textLength="70" x="221" y="266.077">when parent</text><text fill="#000000" font-family="sans-serif" font-size="13" lengthAdjust="spacing" textLength="71" x="220.5" y="281.677">not longer is</text><text fill="#000000" font-family="sans-serif" font-size="13" lengthAdjust="spacing" textLength="96" x="208" y="297.277">domain threaded</text><!--MD5=[180857d63e962378308da28f6e876cee]
reverse link DT to D--><path d="M176.49,93.54 C168.24,100.91 160.49,109.85 156,120 C147.01,140.3 153.54,165.85 160.17,182.99 " fill="none" id="DT-backto-D" style="stroke:#A80036;stroke-width:1.0;"/><polygon fill="#A80036" points="180.56,90.04,171.1235,92.8601,176.7637,93.294,176.3299,98.9341,180.56,90.04" style="stroke:#A80036;stroke-width:1.0;"/><!--MD5=[e3e0458c48d35ed9f6d0bdfd9ae23505]
link DT to D--><path d="M204.04,90.05 C196.75,113.33 184.41,152.75 176.49,178.06 " fill="none" id="DT-to-D" style="stroke:#A80036;stroke-width:1.0;"/><polygon fill="#A80036" points="174.97,182.93,181.485,175.5439,176.4695,178.1601,173.8532,173.1447,174.97,182.93" style="stroke:#A80036;stroke-width:1.0;"/><text fill="#000000" font-family="sans-serif" font-size="13" lengthAdjust="spacing" textLength="93" x="195" y="133.077">when no child is</text><text fill="#000000" font-family="sans-serif" font-size="13" lengthAdjust="spacing" textLength="50" x="216.5" y="148.677">threaded</text><!--MD5=[8b1c6fc9bb4c2f6231a07e542016d9fb]
link D to T--><path d="M157.53,223.32 C152.98,232.06 148.29,242.73 146,253 C141.36,273.82 143.9,279.77 146,301 C149.13,332.57 149.55,341.04 160,371 C166.89,390.77 177.82,411.78 186.66,427.31 " fill="none" id="D-to-T" style="stroke:#A80036;stroke-width:1.0;"/><polygon fill="#A80036" points="189.33,431.94,188.3308,422.142,186.8462,427.6005,181.3877,426.116,189.33,431.94" style="stroke:#A80036;stroke-width:1.0;"/><!--MD5=[cc713f66e028bf99f1bb900a530bb5a1]
link DI to T--><path d="M222.79,371.09 C218.46,386.98 212.27,409.69 207.59,426.84 " fill="none" id="DI-to-T" style="stroke:#A80036;stroke-width:1.0;"/><polygon fill="#A80036" points="206.19,431.97,212.419,424.3412,207.5068,427.1465,204.7014,422.2343,206.19,431.97" style="stroke:#A80036;stroke-width:1.0;"/><!--MD5=[84a74cac7fd6671f8cdcf466e009a341]
reverse link *end to X--><path d="M31.61,70 C44.97,70 64.6775,70 81.6888,70 C90.1944,70 98.0259,70 104.053,70 C104.8063,70 105.5315,70 106.2263,70 C106.5737,70 106.9135,70 107.2454,70 C107.4114,70 107.5753,70 107.7373,70 C107.8183,70 107.8988,70 107.9788,70 " fill="none" id="*end-backto-X" style="stroke:#A80036;stroke-width:1.0;"/><polygon fill="#A80036" points="26.33,70,35.33,74,31.33,70,35.33,66,26.33,70" style="stroke:#A80036;stroke-width:1.0;"/><text fill="#000000" font-family="sans-serif" font-size="13" lengthAdjust="spacing" textLength="53" x="44.32" y="63.077">call rmdir</text></g></svg>