<?xml version="1.0" encoding="UTF-8" standalone="no"?><svg xmlns="http://www.w3.org/2000/svg" xmlns:xlink="http://www.w3.org/1999/xlink" contentScriptType="application/ecmascript" contentStyleType="text/css" height="506px" preserveAspectRatio="none" style="width:343px;height:506px;background:#00000000;" version="1.1" viewBox="0 0 343 506" width="343px" zoomAndPan="magnify"><defs><filter height="300%" id="fnzq8xu504795" width="300%" x="-1" y="-1"><feGaussianBlur result="blurOut" stdDeviation="2.0"/><feColorMatrix in="blurOut" result="blurOut2" type="matrix" values="0 0 0 0 0 0 0 0 0 0 0 0 0 0 0 0 0 0 .4 0"/><feOffset dx="4.0" dy="4.0" in="blurOut2" result="blurOut3"/><feBlend in="SourceGraphic" in2="blurOut3" mode="normal"/></filter></defs><g><!--MD5=[4b1943330811241b39549f0db8d9ffdb]
cluster X--><rect fill="#FEFECE" filter="url(#fnzq8xu504795)" height="487" rx="12.5" ry="12.5" style="stroke:#A80036;stroke-width:1.5;" width="217" x="114" y="7"/><rect height="454.7031" rx="12.5" ry="12.5" style="stroke:#00000000;stroke-width:1.0;fill:none;" width="211" x="117" y="36.2969"/><line style="stroke:#A80036;stroke-width:1.5;fill:none;" x1="114" x2="331" y1="33.2969" y2="33.2969"/><text fill="#000000" font-family="sans-serif" font-size="14" lengthAdjust="spacing" textLength="7" x="219" y="23.9951">_</text><rect fill="#FEFECE" filter="url(#fnzq8xu504795)" height="40" rx="12.5" ry="12.5" style="stroke:#A80036;stroke-width:1.5;" width="61" x="146.5" y="182"/><text fill="#000000" font-family="sans-serif" font-size="14" lengthAdjust="spacing" textLength="51" x="151.5" y="206.8467">domain</text><rect fill="#FEFECE" filter="url(#fnzq8xu504795)" height="40" rx="12.5" ry="12.5" style="stroke:#A80036;stroke-width:1.5;" width="107" x="183.5" y="329"/><text fill="#000000" font-family="sans-serif" font-size="14" lengthAdjust="spacing" textLength="97" x="188.5" y="353.8467">domain invalid</text><rect fill="#FEFECE" filter="url(#fnzq8xu504795)" height="40" rx="12.5" ry="12.5" style="stroke:#A80036;stroke-width:1.5;" width="128" x="157" y="50"/><text fill="#000000" font-family="sans-serif" font-size="14" lengthAdjust="spacing" textLength="118" x="162" y="74.8467">domain threaded</text><rect fill="#FEFECE" filter="url(#fnzq8xu504795)" height="40" rx="12.5" ry="12.5" style="stroke:#A80036;stroke-width:1.5;" width="73" x="173.5" y="430"/><text fill="#000000" font-family="sans-serif" font-size="14" lengthAdjust="spacing" textLength="63" x="178.5" y="454.8467">threaded</text><ellipse cx="39" cy="202" fill="#000000" filter="url(#fnzq8xu504795)" rx="10" ry="10" style="stroke:none;stroke-width:1.0;"/><ellipse cx="16" cy="70" filter="url(#fnzq8xu504795)" rx="10" ry="10" style="stroke:#000000;stroke-width:1.0;fill:none;"/><ellipse cx="16.5" cy="70.5" fill="#000000" rx="6" ry="6" style="stroke:none;stroke-width:1.0;"/><!--MD5=[7210e289b446f8b2af38b1f5f93b7b3a]
link *start to D--><path d="M49.37,202 C68.57,202 110.47,202 141.04,202 " fill="none" id="*start-to-D" style="stroke:#A80036;stroke-width:1.0;"/><polygon fill="#A80036" points="146.23,202,137.23,198,141.23,202,137.23,206,146.23,202" style="stroke:#A80036;stroke-width:1.0;"/><text fill="#000000" font-family="sans-serif" font-size="13" lengthAdjust="spacing" textLength="61" x="67.25" y="195.0669">call mkdir</text><!--MD5=[21dafa7ad8f9e8da18490b59e4d58aa0]
link D to DI--><path d="M166.31,222.23 C156.58,242.5 145.63,274.81 159,299 C165.15,310.12 174.99,319.06 185.65,326.1 " fill="none" id="D-to-DI" style="stroke:#A80036;stroke-width:1.0;"/><polygon fill="#A80036" points="189.93,328.8,184.4576,320.6114,185.7029,326.1295,180.1848,327.3748,189.93,328.8" style="stroke:#A80036;stroke-width:1.0;"/><!--MD5=[414813f89f5d761e31b5790ddf7bd60e]
link DI to D--><path d="M229,328.67 C218.13,302.41 198.72,255.49 186.93,227.01 " fill="none" id="DI-to-D" style="stroke:#A80036;stroke-width:1.0;"/><polygon fill="#A80036" points="184.97,222.25,184.6873,232.0948,186.8687,226.8755,192.0881,229.0568,184.97,222.25" style="stroke:#A80036;stroke-width:1.0;"/><text fill="#000000" font-family="sans-serif" font-size="13" lengthAdjust="spacing" textLength="79" x="231.5" y="265.0669">when parent</text><text fill="#000000" font-family="sans-serif" font-size="13" lengthAdjust="spacing" textLength="79" x="231.5" y="280.1997">not longer is</text><text fill="#000000" font-family="sans-serif" font-size="13" lengthAdjust="spacing" textLength="110" x="216" y="295.3325">domain threaded</text><!--MD5=[180857d63e962378308da28f6e876cee]
reverse link DT to D--><path d="M188.94,93.53 C180.91,100.95 173.35,109.92 169,120 C160.43,139.85 164.96,164.91 170,181.85 " fill="none" id="DT-backto-D" style="stroke:#A80036;stroke-width:1.0;"/><polygon fill="#A80036" points="192.91,90.02,183.5266,93.0119,189.1737,93.3427,188.8429,98.9899,192.91,90.02" style="stroke:#A80036;stroke-width:1.0;"/><!--MD5=[e3e0458c48d35ed9f6d0bdfd9ae23505]
link DT to D--><path d="M214.51,90.18 C206.71,113.22 193.62,151.9 185.15,176.92 " fill="none" id="DT-to-D" style="stroke:#A80036;stroke-width:1.0;"/><polygon fill="#A80036" points="183.52,181.74,190.187,174.4908,185.1183,177.0023,182.6067,171.9336,183.52,181.74" style="stroke:#A80036;stroke-width:1.0;"/><text fill="#000000" font-family="sans-serif" font-size="13" lengthAdjust="spacing" textLength="100" x="205" y="133.0669">when no child is</text><text fill="#000000" font-family="sans-serif" font-size="13" lengthAdjust="spacing" textLength="58" x="226" y="148.1997">threaded</text><!--MD5=[8b1c6fc9bb4c2f6231a07e542016d9fb]
link D to T--><path d="M164.54,222.2 C159.6,230.92 154.5,241.6 152,252 C147.12,272.31 149.94,278.21 152,299 C155.13,330.57 155.12,339.2 166,369 C173.24,388.84 184.86,409.69 194.34,425.13 " fill="none" id="D-to-T" style="stroke:#A80036;stroke-width:1.0;"/><polygon fill="#A80036" points="197.21,429.74,195.8615,419.9839,194.5728,425.492,189.0647,424.2034,197.21,429.74" style="stroke:#A80036;stroke-width:1.0;"/><!--MD5=[cc713f66e028bf99f1bb900a530bb5a1]
link DI to T--><path d="M231.79,369.09 C227.46,384.98 221.27,407.69 216.59,424.84 " fill="none" id="DI-to-T" style="stroke:#A80036;stroke-width:1.0;"/><polygon fill="#A80036" points="215.19,429.97,221.419,422.3412,216.5068,425.1465,213.7014,420.2343,215.19,429.97" style="stroke:#A80036;stroke-width:1.0;"/><!--MD5=[84a74cac7fd6671f8cdcf466e009a341]
reverse link *end to X--><path d="M31.34,70 C45.29,70 66.4475,70 84.815,70 C93.9988,70 102.485,70 109.0241,70 C110.6588,70 112.1719,70 113.5437,70 C113.6295,70 113.7147,70 113.7993,70 " fill="none" id="*end-backto-X" style="stroke:#A80036;stroke-width:1.0;"/><polygon fill="#A80036" points="26.16,70,35.16,74,31.16,70,35.16,66,26.16,70" style="stroke:#A80036;stroke-width:1.0;"/><text fill="#000000" font-family="sans-serif" font-size="13" lengthAdjust="spacing" textLength="59" x="44.32" y="63.0669">call rmdir</text></g></svg>