<?xml version="1.0" encoding="UTF-8" standalone="no"?><svg xmlns="http://www.w3.org/2000/svg" xmlns:xlink="http://www.w3.org/1999/xlink" contentScriptType="application/ecmascript" contentStyleType="text/css" height="237px" preserveAspectRatio="none" style="width:158px;height:237px;background:#00000000;" version="1.1" viewBox="0 0 158 237" width="158px" zoomAndPan="magnify"><defs><filter height="300%" id="f19afxan30j1lr" width="300%" x="-1" y="-1"><feGaussianBlur result="blurOut" stdDeviation="2.0"/><feColorMatrix in="blurOut" result="blurOut2" type="matrix" values="0 0 0 0 0 0 0 0 0 0 0 0 0 0 0 0 0 0 .4 0"/><feOffset dx="4.0" dy="4.0" in="blurOut2" result="blurOut3"/><feBlend in="SourceGraphic" in2="blurOut3" mode="normal"/></filter></defs><g><!--MD5=[a33636a53cea5b95dc036c6cb3a420d2]
class domain--><rect fill="#FEFECE" filter="url(#f19afxan30j1lr)" height="24.4001" id="domain" style="stroke:#A80036;stroke-width:1.5;" width="47" x="69" y="31.5824"/><text fill="#000000" font-family="sans-serif" font-size="12" lengthAdjust="spacing" textLength="41" x="72" y="47.7305">domain</text><!--MD5=[bc5ef837d278f0a01a94f0db05deb048]
class domain threaded--><rect fill="#FEFECE" filter="url(#f19afxan30j1lr)" height="24.4001" id="domain threaded" style="stroke:#A80036;stroke-width:1.5;" width="99" x="43" y="115.5824"/><text fill="#000000" font-family="sans-serif" font-size="12" lengthAdjust="spacing" textLength="93" x="46" y="131.7305">domain threaded</text><!--MD5=[16ff4d0c3fa052007d47eeb031e1d8de]
class threaded--><rect fill="#FEFECE" filter="url(#f19afxan30j1lr)" height="24.4001" id="threaded" style="stroke:#A80036;stroke-width:1.5;" width="55" x="13" y="199.5824"/><text fill="#000000" font-family="sans-serif" font-size="12" lengthAdjust="spacing" textLength="49" x="16" y="215.7305">threaded</text><!--MD5=[a0df8ea36e1182d0aa60a00e8ca7d6c5]
class root--><rect fill="#FEFECE" filter="url(#f19afxan30j1lr)" height="24.4001" id="root" style="stroke:#A80036;stroke-width:1.5;" width="27" x="7" y="31.5824"/><text fill="#000000" font-family="sans-serif" font-size="12" lengthAdjust="spacing" textLength="21" x="10" y="47.7305">root</text><!--MD5=[a821f668acb6d66e28561ea31e4c0b5c]
reverse link domain to domain--><path codeLine="6" d="M123.07,28.2324 C137.89,26.2924 151,31.4024 151,43.5824 C151,59.1724 129.52,63.1824 110.47,55.6324 " fill="none" id="domain-backto-domain" style="stroke:#A80036;stroke-width:1.0;"/><polygon fill="#A80036" points="110.47,31.5324,117.289,33.8779,122.0768,28.4856,115.2578,26.1401,110.47,31.5324" style="stroke:#A80036;stroke-width:1.0;"/><text fill="#000000" font-family="sans-serif" font-size="13" lengthAdjust="spacing" textLength="7" x="109.8006" y="20.1">1</text><text fill="#000000" font-family="sans-serif" font-size="13" lengthAdjust="spacing" textLength="20" x="122.0076" y="75.815">0..*</text><!--MD5=[0e1e1e8219165d089e462ce5c2461f1c]
reverse link domain to domain threaded--><path codeLine="8" d="M92.5,68.9024 C92.5,84.3224 92.5,103.5424 92.5,115.4324 " fill="none" id="domain-backto-domain threaded" style="stroke:#A80036;stroke-width:1.0;"/><polygon fill="#A80036" points="92.5,55.6424,88.5,61.6424,92.5,67.6424,96.5,61.6424,92.5,55.6424" style="stroke:#A80036;stroke-width:1.0;"/><text fill="#000000" font-family="sans-serif" font-size="13" lengthAdjust="spacing" textLength="7" x="84.0563" y="75.8291">1</text><text fill="#000000" font-family="sans-serif" font-size="13" lengthAdjust="spacing" textLength="20" x="96.875" y="103.9563">0..*</text><!--MD5=[d5a171cb8101b4b14dfab8b4c5c667e8]
reverse link domain threaded to threaded--><path codeLine="10" d="M78.28,151.0124 C68.31,166.7224 55.42,187.0524 47.57,199.4324 " fill="none" id="domain threaded-backto-threaded" style="stroke:#A80036;stroke-width:1.0;"/><polygon fill="#A80036" points="85.49,139.6424,78.9005,142.5713,79.0697,149.7804,85.6592,146.8515,85.49,139.6424" style="stroke:#A80036;stroke-width:1.0;"/><text fill="#000000" font-family="sans-serif" font-size="13" lengthAdjust="spacing" textLength="7" x="74.1546" y="159.8291">1</text><text fill="#000000" font-family="sans-serif" font-size="13" lengthAdjust="spacing" textLength="20" x="55.0381" y="187.9563">1..*</text><!--MD5=[b8e1a225a2da562156a421570a92cf5e]
reverse link root to domain--><path codeLine="12" d="M47.51,43.5824 C54.63,43.5824 61.74,43.5824 68.85,43.5824 " fill="none" id="root-backto-domain" style="stroke:#A80036;stroke-width:1.0;"/><polygon fill="#A80036" points="34.28,43.5824,40.28,47.5824,46.28,43.5824,40.28,39.5824,34.28,43.5824" style="stroke:#A80036;stroke-width:1.0;"/><text fill="#000000" font-family="sans-serif" font-size="13" lengthAdjust="spacing" textLength="20" x="41.9759" y="38.6777">0..*</text><!--MD5=[e87d31761b375061ef6ae9483e3e2a58]
reverse link root to domain threaded--><path codeLine="13" d="M38.98,65.6224 C52.93,81.5124 71.51,102.6824 82.71,115.4324 " fill="none" id="root-backto-domain threaded" style="stroke:#A80036;stroke-width:1.0;"/><polygon fill="#A80036" points="30.21,55.6424,31.1596,62.7907,38.1233,64.6635,37.1737,57.5152,30.21,55.6424" style="stroke:#A80036;stroke-width:1.0;"/><text fill="#000000" font-family="sans-serif" font-size="13" lengthAdjust="spacing" textLength="20" x="54.0519" y="103.9563">0..*</text><!--MD5=[545f2e8324e468b779c7dd88a69e0acd]
reverse link root to threaded--><path codeLine="14" d="M20.74,68.9224 C21.18,88.1724 22.37,115.6924 25.5,139.5824 C28.28,160.8224 33.99,185.1624 37.5,199.1224 " fill="none" id="root-backto-threaded" style="stroke:#A80036;stroke-width:1.0;"/><polygon fill="#A80036" points="20.53,55.7524,16.6294,61.8175,20.7278,67.7508,24.6283,61.6857,20.53,55.7524" style="stroke:#A80036;stroke-width:1.0;"/><text fill="#000000" font-family="sans-serif" font-size="13" lengthAdjust="spacing" textLength="20" x="12.1375" y="188.0071">0..*</text></g></svg>