<?xml version="1.0" encoding="UTF-8" standalone="no"?><svg xmlns="http://www.w3.org/2000/svg" xmlns:xlink="http://www.w3.org/1999/xlink" contentScriptType="application/ecmascript" contentStyleType="text/css" height="236px" preserveAspectRatio="none" style="width:171px;height:236px;background:#00000000;" version="1.1" viewBox="0 0 171 236" width="171px" zoomAndPan="magnify"><defs><filter height="300%" id="f19afxan30j1lr" width="300%" x="-1" y="-1"><feGaussianBlur result="blurOut" stdDeviation="2.0"/><feColorMatrix in="blurOut" result="blurOut2" type="matrix" values="0 0 0 0 0 0 0 0 0 0 0 0 0 0 0 0 0 0 .4 0"/><feOffset dx="4.0" dy="4.0" in="blurOut2" result="blurOut3"/><feBlend in="SourceGraphic" in2="blurOut3" mode="normal"/></filter></defs><g><!--MD5=[a33636a53cea5b95dc036c6cb3a420d2]
class domain--><rect fill="#FEFECE" filter="url(#f19afxan30j1lr)" height="23.9688" id="domain" style="stroke:#A80036;stroke-width:1.5;" width="52" x="74" y="30.6465"/><text fill="#000000" font-family="sans-serif" font-size="12" lengthAdjust="spacing" textLength="46" x="77" y="46.7851">domain</text><!--MD5=[bc5ef837d278f0a01a94f0db05deb048]
class domain threaded--><rect fill="#FEFECE" filter="url(#f19afxan30j1lr)" height="23.9688" id="domain threaded" style="stroke:#A80036;stroke-width:1.5;" width="114" x="43" y="114.6465"/><text fill="#000000" font-family="sans-serif" font-size="12" lengthAdjust="spacing" textLength="108" x="46" y="130.7851">domain threaded</text><!--MD5=[16ff4d0c3fa052007d47eeb031e1d8de]
class threaded--><rect fill="#FEFECE" filter="url(#f19afxan30j1lr)" height="23.9688" id="threaded" style="stroke:#A80036;stroke-width:1.5;" width="64" x="13" y="198.6465"/><text fill="#000000" font-family="sans-serif" font-size="12" lengthAdjust="spacing" textLength="58" x="16" y="214.7851">threaded</text><!--MD5=[a0df8ea36e1182d0aa60a00e8ca7d6c5]
class root--><rect fill="#FEFECE" filter="url(#f19afxan30j1lr)" height="23.9688" id="root" style="stroke:#A80036;stroke-width:1.5;" width="32" x="7" y="30.6465"/><text fill="#000000" font-family="sans-serif" font-size="12" lengthAdjust="spacing" textLength="26" x="10" y="46.7851">root</text><!--MD5=[a821f668acb6d66e28561ea31e4c0b5c]
reverse link domain to domain--><path codeLine="6" d="M131.41,27.3565 C147.05,25.2565 161,30.3465 161,42.6465 C161,58.2365 138.6,62.2465 118.74,54.6965 " fill="none" id="domain-backto-domain" style="stroke:#A80036;stroke-width:1.0;"/><polygon fill="#A80036" points="118.74,30.5965,125.5426,32.9892,130.3676,27.6302,123.5651,25.2375,118.74,30.5965" style="stroke:#A80036;stroke-width:1.0;"/><text fill="#000000" font-family="sans-serif" font-size="13" lengthAdjust="spacing" textLength="8" x="116.8202" y="19.6328">1</text><text fill="#000000" font-family="sans-serif" font-size="13" lengthAdjust="spacing" textLength="23" x="131.214" y="74.8616">0..*</text><!--MD5=[0e1e1e8219165d089e462ce5c2461f1c]
reverse link domain to domain threaded--><path codeLine="8" d="M100,67.9665 C100,83.3865 100,102.6065 100,114.4965 " fill="none" id="domain-backto-domain threaded" style="stroke:#A80036;stroke-width:1.0;"/><polygon fill="#A80036" points="100,54.7065,96,60.7065,100,66.7065,104,60.7065,100,54.7065" style="stroke:#A80036;stroke-width:1.0;"/><text fill="#000000" font-family="sans-serif" font-size="13" lengthAdjust="spacing" textLength="8" x="90.35" y="74.8757">1</text><text fill="#000000" font-family="sans-serif" font-size="13" lengthAdjust="spacing" textLength="23" x="104.7438" y="103.4916">0..*</text><!--MD5=[d5a171cb8101b4b14dfab8b4c5c667e8]
reverse link domain threaded to threaded--><path codeLine="10" d="M85.27,149.6165 C74.69,165.3865 60.87,185.9965 52.48,198.4965 " fill="none" id="domain threaded-backto-threaded" style="stroke:#A80036;stroke-width:1.0;"/><polygon fill="#A80036" points="92.58,138.7065,85.916,141.4617,85.8962,148.6728,92.5602,145.9175,92.58,138.7065" style="stroke:#A80036;stroke-width:1.0;"/><text fill="#000000" font-family="sans-serif" font-size="13" lengthAdjust="spacing" textLength="8" x="79.8693" y="158.8757">1</text><text fill="#000000" font-family="sans-serif" font-size="13" lengthAdjust="spacing" textLength="23" x="60.3093" y="187.4916">1..*</text><!--MD5=[b8e1a225a2da562156a421570a92cf5e]
reverse link root to domain--><path codeLine="12" d="M52.51,42.6465 C59.64,42.6465 66.76,42.6465 73.89,42.6465 " fill="none" id="root-backto-domain" style="stroke:#A80036;stroke-width:1.0;"/><polygon fill="#A80036" points="39.24,42.6465,45.24,46.6465,51.24,42.6465,45.24,38.6465,39.24,42.6465" style="stroke:#A80036;stroke-width:1.0;"/><text fill="#000000" font-family="sans-serif" font-size="13" lengthAdjust="spacing" textLength="23" x="46.9882" y="37.0929">0..*</text><!--MD5=[e87d31761b375061ef6ae9483e3e2a58]
reverse link root to domain threaded--><path codeLine="13" d="M42.33,64.2365 C57.29,80.1665 77.44,101.6265 89.53,114.4965 " fill="none" id="root-backto-domain threaded" style="stroke:#A80036;stroke-width:1.0;"/><polygon fill="#A80036" points="33.38,54.7065,34.5737,61.8181,41.5974,63.4514,40.4037,56.3398,33.38,54.7065" style="stroke:#A80036;stroke-width:1.0;"/><text fill="#000000" font-family="sans-serif" font-size="13" lengthAdjust="spacing" textLength="23" x="57.4674" y="103.4916">0..*</text><!--MD5=[545f2e8324e468b779c7dd88a69e0acd]
reverse link root to threaded--><path codeLine="14" d="M22.24,68.0265 C22,87.2965 22.48,114.8265 26,138.6465 C29.17,160.1065 36.51,184.3765 41.08,198.2565 " fill="none" id="root-backto-threaded" style="stroke:#A80036;stroke-width:1.0;"/><polygon fill="#A80036" points="22.53,54.8365,18.3991,60.7471,22.2663,66.8336,26.3972,60.9229,22.53,54.8365" style="stroke:#A80036;stroke-width:1.0;"/><text fill="#000000" font-family="sans-serif" font-size="13" lengthAdjust="spacing" textLength="23" x="12.0084" y="187.524">0..*</text></g></svg>