<?xml version="1.0" encoding="UTF-8" standalone="no"?><svg xmlns="http://www.w3.org/2000/svg" xmlns:xlink="http://www.w3.org/1999/xlink" contentScriptType="application/ecmascript" contentStyleType="text/css" height="540px" preserveAspectRatio="none" style="width:497px;height:540px;background:#00000000;" version="1.1" viewBox="0 0 497 540" width="497px" zoomAndPan="magnify"><defs><filter height="300%" id="f6r01lyieg53x" width="300%" x="-1" y="-1"><feGaussianBlur result="blurOut" stdDeviation="2.0"/><feColorMatrix in="blurOut" result="blurOut2" type="matrix" values="0 0 0 0 0 0 0 0 0 0 0 0 0 0 0 0 0 0 .4 0"/><feOffset dx="4.0" dy="4.0" in="blurOut2" result="blurOut3"/><feBlend in="SourceGraphic" in2="blurOut3" mode="normal"/></filter></defs><g><ellipse cx="250" cy="20" fill="#000000" filter="url(#f6r01lyieg53x)" rx="10" ry="10" style="stroke:none;stroke-width:1.0;"/><rect fill="#FEFECE" filter="url(#f6r01lyieg53x)" height="33.9688" rx="12.5" ry="12.5" style="stroke:#A80036;stroke-width:1.5;" width="146" x="288.5" y="74"/><text fill="#000000" font-family="sans-serif" font-size="12" lengthAdjust="spacing" textLength="126" x="298.5" y="95.1387">fail with "write error"</text><ellipse cx="361.5" cy="137.9688" filter="url(#f6r01lyieg53x)" rx="10" ry="10" style="stroke:#000000;stroke-width:1.5;fill:none;"/><line style="stroke:#000000;stroke-width:2.5;fill:none;" x1="355.3128" x2="367.6872" y1="131.7816" y2="144.1559"/><line style="stroke:#000000;stroke-width:2.5;fill:none;" x1="367.6872" x2="355.3128" y1="131.7816" y2="144.1559"/><rect fill="#FEFECE" filter="url(#f6r01lyieg53x)" height="33.9688" rx="12.5" ry="12.5" style="stroke:#A80036;stroke-width:1.5;" width="232" x="245.5" y="191.9688"/><text fill="#000000" font-family="sans-serif" font-size="12" lengthAdjust="spacing" textLength="212" x="255.5" y="213.1074">fail with "Device or resource busy"</text><ellipse cx="361.5" cy="255.9375" filter="url(#f6r01lyieg53x)" rx="10" ry="10" style="stroke:#000000;stroke-width:1.5;fill:none;"/><line style="stroke:#000000;stroke-width:2.5;fill:none;" x1="355.3128" x2="367.6872" y1="249.7503" y2="262.1247"/><line style="stroke:#000000;stroke-width:2.5;fill:none;" x1="367.6872" x2="355.3128" y1="249.7503" y2="262.1247"/><rect fill="#FEFECE" filter="url(#f6r01lyieg53x)" height="33.9688" rx="12.5" ry="12.5" style="stroke:#A80036;stroke-width:1.5;" width="237" x="243" y="309.9375"/><text fill="#000000" font-family="sans-serif" font-size="12" lengthAdjust="spacing" textLength="217" x="253" y="331.0762">fail with "Operation not supported"</text><ellipse cx="361.5" cy="373.9063" filter="url(#f6r01lyieg53x)" rx="10" ry="10" style="stroke:#000000;stroke-width:1.5;fill:none;"/><line style="stroke:#000000;stroke-width:2.5;fill:none;" x1="355.3128" x2="367.6872" y1="367.7191" y2="380.0934"/><line style="stroke:#000000;stroke-width:2.5;fill:none;" x1="367.6872" x2="355.3128" y1="367.7191" y2="380.0934"/><polygon fill="#FEFECE" filter="url(#f6r01lyieg53x)" points="32,50,221,50,233,62,221,74,32,74,20,62,32,50" style="stroke:#A80036;stroke-width:1.5;"/><text fill="#000000" font-family="sans-serif" font-size="11" lengthAdjust="spacing" textLength="189" x="32" y="65.8081">is controller available on cgroup?</text><text fill="#000000" font-family="sans-serif" font-size="11" lengthAdjust="spacing" textLength="14" x="233" y="59.4058">no</text><polygon fill="#FEFECE" filter="url(#f6r01lyieg53x)" points="33.5,167.9688,219.5,167.9688,231.5,179.9688,219.5,191.9688,33.5,191.9688,21.5,179.9688,33.5,167.9688" style="stroke:#A80036;stroke-width:1.5;"/><text fill="#000000" font-family="sans-serif" font-size="11" lengthAdjust="spacing" textLength="186" x="33.5" y="183.7769">is subtree and cgroup occupied?</text><text fill="#000000" font-family="sans-serif" font-size="11" lengthAdjust="spacing" textLength="20" x="231.5" y="177.3745">yes</text><polygon fill="#FEFECE" filter="url(#f6r01lyieg53x)" points="39.5,285.9375,213.5,285.9375,225.5,297.9375,213.5,309.9375,39.5,309.9375,27.5,297.9375,39.5,285.9375" style="stroke:#A80036;stroke-width:1.5;"/><text fill="#000000" font-family="sans-serif" font-size="11" lengthAdjust="spacing" textLength="174" x="39.5" y="301.7456">is a non-root parent occupied?</text><text fill="#000000" font-family="sans-serif" font-size="11" lengthAdjust="spacing" textLength="20" x="225.5" y="295.3433">yes</text><polygon fill="#FEFECE" filter="url(#f6r01lyieg53x)" points="250,403.9063,262,415.9063,250,427.9063,238,415.9063,250,403.9063" style="stroke:#A80036;stroke-width:1.5;"/><rect fill="#FEFECE" filter="url(#f6r01lyieg53x)" height="33.9688" rx="12.5" ry="12.5" style="stroke:#A80036;stroke-width:1.5;" width="308" x="96" y="447.9063"/><text fill="#000000" font-family="sans-serif" font-size="12" lengthAdjust="spacing" textLength="288" x="106" y="469.0449">enable the controller on the cgroup's subtree</text><ellipse cx="250" cy="512.875" filter="url(#f6r01lyieg53x)" rx="11" ry="11" style="stroke:#000000;stroke-width:1.0;fill:none;"/><ellipse cx="250" cy="512.875" fill="#000000" rx="6" ry="6" style="stroke:#000000;stroke-width:1.0;"/><line style="stroke:#A80036;stroke-width:1.5;" x1="361.5" x2="361.5" y1="107.9688" y2="127.9688"/><polygon fill="#A80036" points="357.5,117.9688,361.5,127.9688,365.5,117.9688,361.5,121.9688" style="stroke:#A80036;stroke-width:1.0;"/><line style="stroke:#A80036;stroke-width:1.5;" x1="361.5" x2="361.5" y1="225.9375" y2="245.9375"/><polygon fill="#A80036" points="357.5,235.9375,361.5,245.9375,365.5,235.9375,361.5,239.9375" style="stroke:#A80036;stroke-width:1.0;"/><line style="stroke:#A80036;stroke-width:1.5;" x1="361.5" x2="361.5" y1="343.9063" y2="363.9063"/><polygon fill="#A80036" points="357.5,353.9063,361.5,363.9063,365.5,353.9063,361.5,357.9063" style="stroke:#A80036;stroke-width:1.0;"/><line style="stroke:#A80036;stroke-width:1.5;" x1="233" x2="361.5" y1="62" y2="62"/><line style="stroke:#A80036;stroke-width:1.5;" x1="361.5" x2="361.5" y1="62" y2="74"/><polygon fill="#A80036" points="357.5,64,361.5,74,365.5,64,361.5,68" style="stroke:#A80036;stroke-width:1.0;"/><line style="stroke:#A80036;stroke-width:1.5;" x1="231.5" x2="361.5" y1="179.9688" y2="179.9688"/><line style="stroke:#A80036;stroke-width:1.5;" x1="361.5" x2="361.5" y1="179.9688" y2="191.9688"/><polygon fill="#A80036" points="357.5,181.9688,361.5,191.9688,365.5,181.9688,361.5,185.9688" style="stroke:#A80036;stroke-width:1.0;"/><line style="stroke:#A80036;stroke-width:1.5;" x1="225.5" x2="361.5" y1="297.9375" y2="297.9375"/><line style="stroke:#A80036;stroke-width:1.5;" x1="361.5" x2="361.5" y1="297.9375" y2="309.9375"/><polygon fill="#A80036" points="357.5,299.9375,361.5,309.9375,365.5,299.9375,361.5,303.9375" style="stroke:#A80036;stroke-width:1.0;"/><line style="stroke:#A80036;stroke-width:1.5;" x1="126.5" x2="126.5" y1="74" y2="167.9688"/><polygon fill="#A80036" points="122.5,157.9688,126.5,167.9688,130.5,157.9688,126.5,161.9688" style="stroke:#A80036;stroke-width:1.0;"/><line style="stroke:#A80036;stroke-width:1.5;" x1="126.5" x2="126.5" y1="191.9688" y2="285.9375"/><polygon fill="#A80036" points="122.5,275.9375,126.5,285.9375,130.5,275.9375,126.5,279.9375" style="stroke:#A80036;stroke-width:1.0;"/><line style="stroke:#A80036;stroke-width:1.5;" x1="250" x2="250" y1="30" y2="35"/><line style="stroke:#A80036;stroke-width:1.5;" x1="250" x2="126.5" y1="35" y2="35"/><line style="stroke:#A80036;stroke-width:1.5;" x1="126.5" x2="126.5" y1="35" y2="50"/><polygon fill="#A80036" points="122.5,40,126.5,50,130.5,40,126.5,44" style="stroke:#A80036;stroke-width:1.0;"/><line style="stroke:#A80036;stroke-width:1.5;" x1="126.5" x2="126.5" y1="309.9375" y2="388.9063"/><line style="stroke:#A80036;stroke-width:1.5;" x1="126.5" x2="250" y1="388.9063" y2="388.9063"/><line style="stroke:#A80036;stroke-width:1.5;" x1="250" x2="250" y1="388.9063" y2="403.9063"/><polygon fill="#A80036" points="246,393.9063,250,403.9063,254,393.9063,250,397.9063" style="stroke:#A80036;stroke-width:1.0;"/><line style="stroke:#A80036;stroke-width:1.5;" x1="250" x2="250" y1="427.9063" y2="447.9063"/><polygon fill="#A80036" points="246,437.9063,250,447.9063,254,437.9063,250,441.9063" style="stroke:#A80036;stroke-width:1.0;"/><line style="stroke:#A80036;stroke-width:1.5;" x1="250" x2="250" y1="481.875" y2="501.875"/><polygon fill="#A80036" points="246,491.875,250,501.875,254,491.875,250,495.875" style="stroke:#A80036;stroke-width:1.0;"/></g></svg>