<?xml version="1.0" encoding="UTF-8" standalone="no"?><svg xmlns="http://www.w3.org/2000/svg" xmlns:xlink="http://www.w3.org/1999/xlink" contentScriptType="application/ecmascript" contentStyleType="text/css" height="542px" preserveAspectRatio="none" style="width:434px;height:542px;background:#00000000;" version="1.1" viewBox="0 0 434 542" width="434px" zoomAndPan="magnify"><defs><filter height="300%" id="f6r01lyieg53x" width="300%" x="-1" y="-1"><feGaussianBlur result="blurOut" stdDeviation="2.0"/><feColorMatrix in="blurOut" result="blurOut2" type="matrix" values="0 0 0 0 0 0 0 0 0 0 0 0 0 0 0 0 0 0 .4 0"/><feOffset dx="4.0" dy="4.0" in="blurOut2" result="blurOut3"/><feBlend in="SourceGraphic" in2="blurOut3" mode="normal"/></filter></defs><g><ellipse cx="218.5" cy="20" fill="#000000" filter="url(#f6r01lyieg53x)" rx="10" ry="10" style="stroke:none;stroke-width:1.0;"/><rect fill="#FEFECE" filter="url(#f6r01lyieg53x)" height="34.4001" rx="12.5" ry="12.5" style="stroke:#A80036;stroke-width:1.5;" width="127" x="251.5" y="74"/><text fill="#000000" font-family="sans-serif" font-size="12" lengthAdjust="spacing" textLength="107" x="261.5" y="95.1481">fail with "write error"</text><ellipse cx="315" cy="138.4001" filter="url(#f6r01lyieg53x)" rx="10" ry="10" style="stroke:#000000;stroke-width:1.5;fill:none;"/><line style="stroke:#000000;stroke-width:2.5;fill:none;" x1="308.8128" x2="321.1872" y1="132.2129" y2="144.5873"/><line style="stroke:#000000;stroke-width:2.5;fill:none;" x1="321.1872" x2="308.8128" y1="132.2129" y2="144.5873"/><rect fill="#FEFECE" filter="url(#f6r01lyieg53x)" height="34.4001" rx="12.5" ry="12.5" style="stroke:#A80036;stroke-width:1.5;" width="204" x="213" y="192.4001"/><text fill="#000000" font-family="sans-serif" font-size="12" lengthAdjust="spacing" textLength="184" x="223" y="213.5482">fail with "Device or resource busy"</text><ellipse cx="315" cy="256.8002" filter="url(#f6r01lyieg53x)" rx="10" ry="10" style="stroke:#000000;stroke-width:1.5;fill:none;"/><line style="stroke:#000000;stroke-width:2.5;fill:none;" x1="308.8128" x2="321.1872" y1="250.613" y2="262.9874"/><line style="stroke:#000000;stroke-width:2.5;fill:none;" x1="321.1872" x2="308.8128" y1="250.613" y2="262.9874"/><rect fill="#FEFECE" filter="url(#f6r01lyieg53x)" height="34.4001" rx="12.5" ry="12.5" style="stroke:#A80036;stroke-width:1.5;" width="204" x="213" y="310.8002"/><text fill="#000000" font-family="sans-serif" font-size="12" lengthAdjust="spacing" textLength="184" x="223" y="331.9483">fail with "Operation not supported"</text><ellipse cx="315" cy="375.2003" filter="url(#f6r01lyieg53x)" rx="10" ry="10" style="stroke:#000000;stroke-width:1.5;fill:none;"/><line style="stroke:#000000;stroke-width:2.5;fill:none;" x1="308.8128" x2="321.1872" y1="369.0131" y2="381.3875"/><line style="stroke:#000000;stroke-width:2.5;fill:none;" x1="321.1872" x2="308.8128" y1="369.0131" y2="381.3875"/><polygon fill="#FEFECE" filter="url(#f6r01lyieg53x)" points="32,50,191,50,203,62,191,74,32,74,20,62,32,50" style="stroke:#A80036;stroke-width:1.5;"/><text fill="#000000" font-family="sans-serif" font-size="11" lengthAdjust="spacing" textLength="159" x="32" y="65.619">is controller available on cgroup?</text><text fill="#000000" font-family="sans-serif" font-size="11" lengthAdjust="spacing" textLength="12" x="203" y="59.019">no</text><polygon fill="#FEFECE" filter="url(#f6r01lyieg53x)" points="32,168.4001,191,168.4001,203,180.4001,191,192.4001,32,192.4001,20,180.4001,32,168.4001" style="stroke:#A80036;stroke-width:1.5;"/><text fill="#000000" font-family="sans-serif" font-size="11" lengthAdjust="spacing" textLength="159" x="32" y="184.0191">is subtree and cgroup occupied?</text><text fill="#000000" font-family="sans-serif" font-size="11" lengthAdjust="spacing" textLength="18" x="203" y="177.4191">yes</text><polygon fill="#FEFECE" filter="url(#f6r01lyieg53x)" points="37.5,286.8002,185.5,286.8002,197.5,298.8002,185.5,310.8002,37.5,310.8002,25.5,298.8002,37.5,286.8002" style="stroke:#A80036;stroke-width:1.5;"/><text fill="#000000" font-family="sans-serif" font-size="11" lengthAdjust="spacing" textLength="148" x="37.5" y="302.4192">is a non-root parent occupied?</text><text fill="#000000" font-family="sans-serif" font-size="11" lengthAdjust="spacing" textLength="18" x="197.5" y="295.8192">yes</text><polygon fill="#FEFECE" filter="url(#f6r01lyieg53x)" points="218.5,405.2003,230.5,417.2003,218.5,429.2003,206.5,417.2003,218.5,405.2003" style="stroke:#A80036;stroke-width:1.5;"/><rect fill="#FEFECE" filter="url(#f6r01lyieg53x)" height="34.4001" rx="12.5" ry="12.5" style="stroke:#A80036;stroke-width:1.5;" width="262" x="87.5" y="449.2003"/><text fill="#000000" font-family="sans-serif" font-size="12" lengthAdjust="spacing" textLength="242" x="97.5" y="470.3484">enable the controller on the cgroup's subtree</text><ellipse cx="218.5" cy="514.6004" filter="url(#f6r01lyieg53x)" rx="11" ry="11" style="stroke:#000000;stroke-width:1.0;fill:none;"/><ellipse cx="218.5" cy="514.6004" fill="#000000" rx="6" ry="6" style="stroke:#000000;stroke-width:1.0;"/><line style="stroke:#A80036;stroke-width:1.5;" x1="315" x2="315" y1="108.4001" y2="128.4001"/><polygon fill="#A80036" points="311,118.4001,315,128.4001,319,118.4001,315,122.4001" style="stroke:#A80036;stroke-width:1.0;"/><line style="stroke:#A80036;stroke-width:1.5;" x1="315" x2="315" y1="226.8002" y2="246.8002"/><polygon fill="#A80036" points="311,236.8002,315,246.8002,319,236.8002,315,240.8002" style="stroke:#A80036;stroke-width:1.0;"/><line style="stroke:#A80036;stroke-width:1.5;" x1="315" x2="315" y1="345.2003" y2="365.2003"/><polygon fill="#A80036" points="311,355.2003,315,365.2003,319,355.2003,315,359.2003" style="stroke:#A80036;stroke-width:1.0;"/><line style="stroke:#A80036;stroke-width:1.5;" x1="203" x2="315" y1="62" y2="62"/><line style="stroke:#A80036;stroke-width:1.5;" x1="315" x2="315" y1="62" y2="74"/><polygon fill="#A80036" points="311,64,315,74,319,64,315,68" style="stroke:#A80036;stroke-width:1.0;"/><line style="stroke:#A80036;stroke-width:1.5;" x1="203" x2="315" y1="180.4001" y2="180.4001"/><line style="stroke:#A80036;stroke-width:1.5;" x1="315" x2="315" y1="180.4001" y2="192.4001"/><polygon fill="#A80036" points="311,182.4001,315,192.4001,319,182.4001,315,186.4001" style="stroke:#A80036;stroke-width:1.0;"/><line style="stroke:#A80036;stroke-width:1.5;" x1="197.5" x2="315" y1="298.8002" y2="298.8002"/><line style="stroke:#A80036;stroke-width:1.5;" x1="315" x2="315" y1="298.8002" y2="310.8002"/><polygon fill="#A80036" points="311,300.8002,315,310.8002,319,300.8002,315,304.8002" style="stroke:#A80036;stroke-width:1.0;"/><line style="stroke:#A80036;stroke-width:1.5;" x1="111.5" x2="111.5" y1="74" y2="168.4001"/><polygon fill="#A80036" points="107.5,158.4001,111.5,168.4001,115.5,158.4001,111.5,162.4001" style="stroke:#A80036;stroke-width:1.0;"/><line style="stroke:#A80036;stroke-width:1.5;" x1="111.5" x2="111.5" y1="192.4001" y2="286.8002"/><polygon fill="#A80036" points="107.5,276.8002,111.5,286.8002,115.5,276.8002,111.5,280.8002" style="stroke:#A80036;stroke-width:1.0;"/><line style="stroke:#A80036;stroke-width:1.5;" x1="218.5" x2="218.5" y1="30" y2="35"/><line style="stroke:#A80036;stroke-width:1.5;" x1="218.5" x2="111.5" y1="35" y2="35"/><line style="stroke:#A80036;stroke-width:1.5;" x1="111.5" x2="111.5" y1="35" y2="50"/><polygon fill="#A80036" points="107.5,40,111.5,50,115.5,40,111.5,44" style="stroke:#A80036;stroke-width:1.0;"/><line style="stroke:#A80036;stroke-width:1.5;" x1="111.5" x2="111.5" y1="310.8002" y2="390.2003"/><line style="stroke:#A80036;stroke-width:1.5;" x1="111.5" x2="218.5" y1="390.2003" y2="390.2003"/><line style="stroke:#A80036;stroke-width:1.5;" x1="218.5" x2="218.5" y1="390.2003" y2="405.2003"/><polygon fill="#A80036" points="214.5,395.2003,218.5,405.2003,222.5,395.2003,218.5,399.2003" style="stroke:#A80036;stroke-width:1.0;"/><line style="stroke:#A80036;stroke-width:1.5;" x1="218.5" x2="218.5" y1="429.2003" y2="449.2003"/><polygon fill="#A80036" points="214.5,439.2003,218.5,449.2003,222.5,439.2003,218.5,443.2003" style="stroke:#A80036;stroke-width:1.0;"/><line style="stroke:#A80036;stroke-width:1.5;" x1="218.5" x2="218.5" y1="483.6004" y2="503.6004"/><polygon fill="#A80036" points="214.5,493.6004,218.5,503.6004,222.5,493.6004,218.5,497.6004" style="stroke:#A80036;stroke-width:1.0;"/></g></svg>