<?xml version="1.0" encoding="UTF-8" standalone="no"?><svg xmlns="http://www.w3.org/2000/svg" xmlns:xlink="http://www.w3.org/1999/xlink" contentScriptType="application/ecmascript" contentStyleType="text/css" height="517px" preserveAspectRatio="none" style="width:423px;height:517px;background:#00000000;" version="1.1" viewBox="0 0 423 517" width="423px" zoomAndPan="magnify"><defs><filter height="300%" id="fbdm4kzl80hsu" width="300%" x="-1" y="-1"><feGaussianBlur result="blurOut" stdDeviation="2.0"/><feColorMatrix in="blurOut" result="blurOut2" type="matrix" values="0 0 0 0 0 0 0 0 0 0 0 0 0 0 0 0 0 0 .4 0"/><feOffset dx="4.0" dy="4.0" in="blurOut2" result="blurOut3"/><feBlend in="SourceGraphic" in2="blurOut3" mode="normal"/></filter></defs><g><ellipse cx="213" cy="20" fill="#000000" filter="url(#fbdm4kzl80hsu)" rx="10" ry="10" style="stroke:none;stroke-width:1.0;"/><rect fill="#FEFECE" filter="url(#fbdm4kzl80hsu)" height="34.4001" rx="12.5" ry="12.5" style="stroke:#A80036;stroke-width:1.5;" width="144" x="232" y="74"/><text fill="#000000" font-family="sans-serif" font-size="12" lengthAdjust="spacing" textLength="124" x="242" y="95.1481">add the process to root</text><rect fill="#FEFECE" filter="url(#fbdm4kzl80hsu)" height="34.4001" rx="12.5" ry="12.5" style="stroke:#A80036;stroke-width:1.5;" width="204" x="202" y="152.4001"/><text fill="#000000" font-family="sans-serif" font-size="12" lengthAdjust="spacing" textLength="184" x="212" y="173.5482">fail with "Operation not supported"</text><ellipse cx="304" cy="216.8002" filter="url(#fbdm4kzl80hsu)" rx="10" ry="10" style="stroke:#000000;stroke-width:1.5;fill:none;"/><line style="stroke:#000000;stroke-width:2.5;fill:none;" x1="297.8128" x2="310.1872" y1="210.613" y2="222.9874"/><line style="stroke:#000000;stroke-width:2.5;fill:none;" x1="310.1872" x2="297.8128" y1="210.613" y2="222.9874"/><rect fill="#FEFECE" filter="url(#fbdm4kzl80hsu)" height="34.4001" rx="12.5" ry="12.5" style="stroke:#A80036;stroke-width:1.5;" width="204" x="202" y="270.8002"/><text fill="#000000" font-family="sans-serif" font-size="12" lengthAdjust="spacing" textLength="184" x="212" y="291.9483">fail with "Device or resource busy"</text><ellipse cx="304" cy="350.2003" filter="url(#fbdm4kzl80hsu)" rx="10" ry="10" style="stroke:#000000;stroke-width:1.5;fill:none;"/><line style="stroke:#000000;stroke-width:2.5;fill:none;" x1="297.8128" x2="310.1872" y1="344.0131" y2="356.3875"/><line style="stroke:#000000;stroke-width:2.5;fill:none;" x1="310.1872" x2="297.8128" y1="344.0131" y2="356.3875"/><polygon fill="#FEFECE" filter="url(#fbdm4kzl80hsu)" points="88,50,124,50,136,62,124,74,88,74,76,62,88,50" style="stroke:#A80036;stroke-width:1.5;"/><text fill="#000000" font-family="sans-serif" font-size="11" lengthAdjust="spacing" textLength="36" x="88" y="65.619">is root?</text><text fill="#000000" font-family="sans-serif" font-size="11" lengthAdjust="spacing" textLength="18" x="136" y="59.019">yes</text><polygon fill="#FEFECE" filter="url(#fbdm4kzl80hsu)" points="32,128.4001,180,128.4001,192,140.4001,180,152.4001,32,152.4001,20,140.4001,32,128.4001" style="stroke:#A80036;stroke-width:1.5;"/><text fill="#000000" font-family="sans-serif" font-size="11" lengthAdjust="spacing" textLength="148" x="32" y="144.0191">is a non-root parent occupied?</text><text fill="#000000" font-family="sans-serif" font-size="11" lengthAdjust="spacing" textLength="18" x="192" y="137.4191">yes</text><polygon fill="#FEFECE" filter="url(#fbdm4kzl80hsu)" points="55.5,246.8002,156.5,246.8002,168.5,258.8002,156.5,270.8002,55.5,270.8002,43.5,258.8002,55.5,246.8002" style="stroke:#A80036;stroke-width:1.5;"/><text fill="#000000" font-family="sans-serif" font-size="11" lengthAdjust="spacing" textLength="101" x="55.5" y="262.4192">is subtree occupied?</text><text fill="#000000" font-family="sans-serif" font-size="11" lengthAdjust="spacing" textLength="18" x="168.5" y="255.8192">yes</text><rect fill="#FEFECE" filter="url(#fbdm4kzl80hsu)" height="34.4001" rx="12.5" ry="12.5" style="stroke:#A80036;stroke-width:1.5;" width="181" x="122.5" y="380.2003"/><text fill="#000000" font-family="sans-serif" font-size="12" lengthAdjust="spacing" textLength="161" x="132.5" y="401.3484">add the process to the cgroup</text><polygon fill="#FEFECE" filter="url(#fbdm4kzl80hsu)" points="213,434.6004,225,446.6004,213,458.6004,201,446.6004,213,434.6004" style="stroke:#A80036;stroke-width:1.5;"/><ellipse cx="213" cy="489.6004" filter="url(#fbdm4kzl80hsu)" rx="11" ry="11" style="stroke:#000000;stroke-width:1.0;fill:none;"/><ellipse cx="213" cy="489.6004" fill="#000000" rx="6" ry="6" style="stroke:#000000;stroke-width:1.0;"/><line style="stroke:#A80036;stroke-width:1.5;" x1="304" x2="304" y1="186.8002" y2="206.8002"/><polygon fill="#A80036" points="300,196.8002,304,206.8002,308,196.8002,304,200.8002" style="stroke:#A80036;stroke-width:1.0;"/><line style="stroke:#A80036;stroke-width:1.5;" x1="304" x2="304" y1="305.2003" y2="340.2003"/><polygon fill="#A80036" points="300,330.2003,304,340.2003,308,330.2003,304,334.2003" style="stroke:#A80036;stroke-width:1.0;"/><line style="stroke:#A80036;stroke-width:1.5;" x1="136" x2="304" y1="62" y2="62"/><line style="stroke:#A80036;stroke-width:1.5;" x1="304" x2="304" y1="62" y2="74"/><polygon fill="#A80036" points="300,64,304,74,308,64,304,68" style="stroke:#A80036;stroke-width:1.0;"/><line style="stroke:#A80036;stroke-width:1.5;" x1="192" x2="304" y1="140.4001" y2="140.4001"/><line style="stroke:#A80036;stroke-width:1.5;" x1="304" x2="304" y1="140.4001" y2="152.4001"/><polygon fill="#A80036" points="300,142.4001,304,152.4001,308,142.4001,304,146.4001" style="stroke:#A80036;stroke-width:1.0;"/><line style="stroke:#A80036;stroke-width:1.5;" x1="168.5" x2="304" y1="258.8002" y2="258.8002"/><line style="stroke:#A80036;stroke-width:1.5;" x1="304" x2="304" y1="258.8002" y2="270.8002"/><polygon fill="#A80036" points="300,260.8002,304,270.8002,308,260.8002,304,264.8002" style="stroke:#A80036;stroke-width:1.0;"/><line style="stroke:#A80036;stroke-width:1.5;" x1="106" x2="106" y1="74" y2="128.4001"/><polygon fill="#A80036" points="102,118.4001,106,128.4001,110,118.4001,106,122.4001" style="stroke:#A80036;stroke-width:1.0;"/><line style="stroke:#A80036;stroke-width:1.5;" x1="106" x2="106" y1="152.4001" y2="246.8002"/><polygon fill="#A80036" points="102,236.8002,106,246.8002,110,236.8002,106,240.8002" style="stroke:#A80036;stroke-width:1.0;"/><line style="stroke:#A80036;stroke-width:1.5;" x1="304" x2="304" y1="108.4001" y2="123.4001"/><line style="stroke:#A80036;stroke-width:1.5;" x1="304" x2="406" y1="123.4001" y2="123.4001"/><line style="stroke:#A80036;stroke-width:1.5;" x1="406" x2="406" y1="123.4001" y2="446.6004"/><line style="stroke:#A80036;stroke-width:1.5;" x1="406" x2="225" y1="446.6004" y2="446.6004"/><polygon fill="#A80036" points="235,442.6004,225,446.6004,235,450.6004,231,446.6004" style="stroke:#A80036;stroke-width:1.0;"/><line style="stroke:#A80036;stroke-width:1.5;" x1="213" x2="213" y1="30" y2="35"/><line style="stroke:#A80036;stroke-width:1.5;" x1="213" x2="106" y1="35" y2="35"/><line style="stroke:#A80036;stroke-width:1.5;" x1="106" x2="106" y1="35" y2="50"/><polygon fill="#A80036" points="102,40,106,50,110,40,106,44" style="stroke:#A80036;stroke-width:1.0;"/><line style="stroke:#A80036;stroke-width:1.5;" x1="106" x2="106" y1="270.8002" y2="365.2003"/><line style="stroke:#A80036;stroke-width:1.5;" x1="106" x2="213" y1="365.2003" y2="365.2003"/><line style="stroke:#A80036;stroke-width:1.5;" x1="213" x2="213" y1="365.2003" y2="380.2003"/><polygon fill="#A80036" points="209,370.2003,213,380.2003,217,370.2003,213,374.2003" style="stroke:#A80036;stroke-width:1.0;"/><text fill="#000000" font-family="sans-serif" font-size="11" lengthAdjust="spacing" textLength="12" x="106" y="324.1192">no</text><line style="stroke:#A80036;stroke-width:1.5;" x1="213" x2="213" y1="414.6004" y2="419.6004"/><line style="stroke:#A80036;stroke-width:1.5;" x1="213" x2="213" y1="419.6004" y2="434.6004"/><polygon fill="#A80036" points="209,424.6004,213,434.6004,217,424.6004,213,428.6004" style="stroke:#A80036;stroke-width:1.0;"/><line style="stroke:#A80036;stroke-width:1.5;" x1="213" x2="213" y1="458.6004" y2="478.6004"/><polygon fill="#A80036" points="209,468.6004,213,478.6004,217,468.6004,213,472.6004" style="stroke:#A80036;stroke-width:1.0;"/></g></svg>