<?xml version="1.0" encoding="UTF-8" standalone="no"?><svg xmlns="http://www.w3.org/2000/svg" xmlns:xlink="http://www.w3.org/1999/xlink" contentScriptType="application/ecmascript" contentStyleType="text/css" height="515px" preserveAspectRatio="none" style="width:482px;height:515px;background:#00000000;" version="1.1" viewBox="0 0 482 515" width="482px" zoomAndPan="magnify"><defs><filter height="300%" id="fbdm4kzl80hsu" width="300%" x="-1" y="-1"><feGaussianBlur result="blurOut" stdDeviation="2.0"/><feColorMatrix in="blurOut" result="blurOut2" type="matrix" values="0 0 0 0 0 0 0 0 0 0 0 0 0 0 0 0 0 0 .4 0"/><feOffset dx="4.0" dy="4.0" in="blurOut2" result="blurOut3"/><feBlend in="SourceGraphic" in2="blurOut3" mode="normal"/></filter></defs><g><ellipse cx="242.5" cy="20" fill="#000000" filter="url(#fbdm4kzl80hsu)" rx="10" ry="10" style="stroke:none;stroke-width:1.0;"/><rect fill="#FEFECE" filter="url(#fbdm4kzl80hsu)" height="33.9688" rx="12.5" ry="12.5" style="stroke:#A80036;stroke-width:1.5;" width="170" x="261.5" y="74"/><text fill="#000000" font-family="sans-serif" font-size="12" lengthAdjust="spacing" textLength="150" x="271.5" y="95.1387">add the process to root</text><rect fill="#FEFECE" filter="url(#fbdm4kzl80hsu)" height="33.9688" rx="12.5" ry="12.5" style="stroke:#A80036;stroke-width:1.5;" width="237" x="228" y="151.9688"/><text fill="#000000" font-family="sans-serif" font-size="12" lengthAdjust="spacing" textLength="217" x="238" y="173.1074">fail with "Operation not supported"</text><ellipse cx="346.5" cy="215.9375" filter="url(#fbdm4kzl80hsu)" rx="10" ry="10" style="stroke:#000000;stroke-width:1.5;fill:none;"/><line style="stroke:#000000;stroke-width:2.5;fill:none;" x1="340.3128" x2="352.6872" y1="209.7503" y2="222.1247"/><line style="stroke:#000000;stroke-width:2.5;fill:none;" x1="352.6872" x2="340.3128" y1="209.7503" y2="222.1247"/><rect fill="#FEFECE" filter="url(#fbdm4kzl80hsu)" height="33.9688" rx="12.5" ry="12.5" style="stroke:#A80036;stroke-width:1.5;" width="232" x="230.5" y="269.9375"/><text fill="#000000" font-family="sans-serif" font-size="12" lengthAdjust="spacing" textLength="212" x="240.5" y="291.0762">fail with "Device or resource busy"</text><ellipse cx="346.5" cy="348.9063" filter="url(#fbdm4kzl80hsu)" rx="10" ry="10" style="stroke:#000000;stroke-width:1.5;fill:none;"/><line style="stroke:#000000;stroke-width:2.5;fill:none;" x1="340.3128" x2="352.6872" y1="342.7191" y2="355.0934"/><line style="stroke:#000000;stroke-width:2.5;fill:none;" x1="352.6872" x2="340.3128" y1="342.7191" y2="355.0934"/><polygon fill="#FEFECE" filter="url(#fbdm4kzl80hsu)" points="97.5,50,140.5,50,152.5,62,140.5,74,97.5,74,85.5,62,97.5,50" style="stroke:#A80036;stroke-width:1.5;"/><text fill="#000000" font-family="sans-serif" font-size="11" lengthAdjust="spacing" textLength="43" x="97.5" y="65.8081">is root?</text><text fill="#000000" font-family="sans-serif" font-size="11" lengthAdjust="spacing" textLength="20" x="152.5" y="59.4058">yes</text><polygon fill="#FEFECE" filter="url(#fbdm4kzl80hsu)" points="32,127.9688,206,127.9688,218,139.9688,206,151.9688,32,151.9688,20,139.9688,32,127.9688" style="stroke:#A80036;stroke-width:1.5;"/><text fill="#000000" font-family="sans-serif" font-size="11" lengthAdjust="spacing" textLength="174" x="32" y="143.7769">is a non-root parent occupied?</text><text fill="#000000" font-family="sans-serif" font-size="11" lengthAdjust="spacing" textLength="20" x="218" y="137.3745">yes</text><polygon fill="#FEFECE" filter="url(#fbdm4kzl80hsu)" points="60,245.9375,178,245.9375,190,257.9375,178,269.9375,60,269.9375,48,257.9375,60,245.9375" style="stroke:#A80036;stroke-width:1.5;"/><text fill="#000000" font-family="sans-serif" font-size="11" lengthAdjust="spacing" textLength="118" x="60" y="261.7456">is subtree occupied?</text><text fill="#000000" font-family="sans-serif" font-size="11" lengthAdjust="spacing" textLength="20" x="190" y="255.3433">yes</text><rect fill="#FEFECE" filter="url(#fbdm4kzl80hsu)" height="33.9688" rx="12.5" ry="12.5" style="stroke:#A80036;stroke-width:1.5;" width="213" x="136" y="378.9063"/><text fill="#000000" font-family="sans-serif" font-size="12" lengthAdjust="spacing" textLength="193" x="146" y="400.0449">add the process to the cgroup</text><polygon fill="#FEFECE" filter="url(#fbdm4kzl80hsu)" points="242.5,432.875,254.5,444.875,242.5,456.875,230.5,444.875,242.5,432.875" style="stroke:#A80036;stroke-width:1.5;"/><ellipse cx="242.5" cy="487.875" filter="url(#fbdm4kzl80hsu)" rx="11" ry="11" style="stroke:#000000;stroke-width:1.0;fill:none;"/><ellipse cx="242.5" cy="487.875" fill="#000000" rx="6" ry="6" style="stroke:#000000;stroke-width:1.0;"/><line style="stroke:#A80036;stroke-width:1.5;" x1="346.5" x2="346.5" y1="185.9375" y2="205.9375"/><polygon fill="#A80036" points="342.5,195.9375,346.5,205.9375,350.5,195.9375,346.5,199.9375" style="stroke:#A80036;stroke-width:1.0;"/><line style="stroke:#A80036;stroke-width:1.5;" x1="346.5" x2="346.5" y1="303.9063" y2="338.9063"/><polygon fill="#A80036" points="342.5,328.9063,346.5,338.9063,350.5,328.9063,346.5,332.9063" style="stroke:#A80036;stroke-width:1.0;"/><line style="stroke:#A80036;stroke-width:1.5;" x1="152.5" x2="346.5" y1="62" y2="62"/><line style="stroke:#A80036;stroke-width:1.5;" x1="346.5" x2="346.5" y1="62" y2="74"/><polygon fill="#A80036" points="342.5,64,346.5,74,350.5,64,346.5,68" style="stroke:#A80036;stroke-width:1.0;"/><line style="stroke:#A80036;stroke-width:1.5;" x1="218" x2="346.5" y1="139.9688" y2="139.9688"/><line style="stroke:#A80036;stroke-width:1.5;" x1="346.5" x2="346.5" y1="139.9688" y2="151.9688"/><polygon fill="#A80036" points="342.5,141.9688,346.5,151.9688,350.5,141.9688,346.5,145.9688" style="stroke:#A80036;stroke-width:1.0;"/><line style="stroke:#A80036;stroke-width:1.5;" x1="190" x2="346.5" y1="257.9375" y2="257.9375"/><line style="stroke:#A80036;stroke-width:1.5;" x1="346.5" x2="346.5" y1="257.9375" y2="269.9375"/><polygon fill="#A80036" points="342.5,259.9375,346.5,269.9375,350.5,259.9375,346.5,263.9375" style="stroke:#A80036;stroke-width:1.0;"/><line style="stroke:#A80036;stroke-width:1.5;" x1="119" x2="119" y1="74" y2="127.9688"/><polygon fill="#A80036" points="115,117.9688,119,127.9688,123,117.9688,119,121.9688" style="stroke:#A80036;stroke-width:1.0;"/><line style="stroke:#A80036;stroke-width:1.5;" x1="119" x2="119" y1="151.9688" y2="245.9375"/><polygon fill="#A80036" points="115,235.9375,119,245.9375,123,235.9375,119,239.9375" style="stroke:#A80036;stroke-width:1.0;"/><line style="stroke:#A80036;stroke-width:1.5;" x1="346.5" x2="346.5" y1="107.9688" y2="122.9688"/><line style="stroke:#A80036;stroke-width:1.5;" x1="346.5" x2="465" y1="122.9688" y2="122.9688"/><line style="stroke:#A80036;stroke-width:1.5;" x1="465" x2="465" y1="122.9688" y2="444.875"/><line style="stroke:#A80036;stroke-width:1.5;" x1="465" x2="254.5" y1="444.875" y2="444.875"/><polygon fill="#A80036" points="264.5,440.875,254.5,444.875,264.5,448.875,260.5,444.875" style="stroke:#A80036;stroke-width:1.0;"/><line style="stroke:#A80036;stroke-width:1.5;" x1="242.5" x2="242.5" y1="30" y2="35"/><line style="stroke:#A80036;stroke-width:1.5;" x1="242.5" x2="119" y1="35" y2="35"/><line style="stroke:#A80036;stroke-width:1.5;" x1="119" x2="119" y1="35" y2="50"/><polygon fill="#A80036" points="115,40,119,50,123,40,119,44" style="stroke:#A80036;stroke-width:1.0;"/><line style="stroke:#A80036;stroke-width:1.5;" x1="119" x2="119" y1="269.9375" y2="363.9063"/><line style="stroke:#A80036;stroke-width:1.5;" x1="119" x2="242.5" y1="363.9063" y2="363.9063"/><line style="stroke:#A80036;stroke-width:1.5;" x1="242.5" x2="242.5" y1="363.9063" y2="378.9063"/><polygon fill="#A80036" points="238.5,368.9063,242.5,378.9063,246.5,368.9063,242.5,372.9063" style="stroke:#A80036;stroke-width:1.0;"/><text fill="#000000" font-family="sans-serif" font-size="11" lengthAdjust="spacing" textLength="14" x="119" y="323.23">no</text><line style="stroke:#A80036;stroke-width:1.5;" x1="242.5" x2="242.5" y1="412.875" y2="417.875"/><line style="stroke:#A80036;stroke-width:1.5;" x1="242.5" x2="242.5" y1="417.875" y2="432.875"/><polygon fill="#A80036" points="238.5,422.875,242.5,432.875,246.5,422.875,242.5,426.875" style="stroke:#A80036;stroke-width:1.0;"/><line style="stroke:#A80036;stroke-width:1.5;" x1="242.5" x2="242.5" y1="456.875" y2="476.875"/><polygon fill="#A80036" points="238.5,466.875,242.5,476.875,246.5,466.875,242.5,470.875" style="stroke:#A80036;stroke-width:1.0;"/></g></svg>