<?xml version="1.0" encoding="UTF-8" standalone="no"?>
<!DOCTYPE svg PUBLIC "-//W3C//DTD SVG 1.1//EN"
 "http://www.w3.org/Graphics/SVG/1.1/DTD/svg11.dtd">
<!-- Generated by graphviz version 2.43.0 (0)
 -->
<!-- Title: CG Pages: 1 -->
<svg width="214pt" height="476pt"
 viewBox="0.00 0.00 214.00 476.00" xmlns="http://www.w3.org/2000/svg" xmlns:xlink="http://www.w3.org/1999/xlink">
<g id="graph0" class="graph" transform="scale(1 1) rotate(0) translate(4 472)">
<title>CG</title>
<!-- cpu -->
<g id="node1" class="node">
<title>cpu</title>
</g>
<!-- test -->
<g id="node2" class="node">
<title>test</title>
<polygon fill="none" stroke="#000000" points="54,-396 0,-396 0,-360 54,-360 54,-396"/>
<text text-anchor="middle" x="27" y="-374.3" font-family="Times,serif" font-size="14.00">test/</text>
</g>
<!-- cpu&#45;&gt;test -->
<g id="edge1" class="edge">
<title>cpu&#45;&gt;test</title>
<path fill="none" stroke="#620099" stroke-dasharray="5,2" d="M27,-423.64C27,-414.49 27,-404.38 27,-396.1"/>
<ellipse fill="#620099" stroke="#620099" cx="27" cy="-427.7" rx="4" ry="4"/>
</g>
<!-- cg1 -->
<g id="node3" class="node">
<title>cg1</title>
<polygon fill="none" stroke="#000000" points="126,-396 72,-396 72,-360 126,-360 126,-396"/>
<text text-anchor="middle" x="99" y="-374.3" font-family="Times,serif" font-size="14.00">cg1/</text>
</g>
<!-- test&#45;&gt;cg1 -->
<g id="edge2" class="edge">
<title>test&#45;&gt;cg1</title>
<path fill="none" stroke="black" d="M54.28,-378C56.74,-378 59.19,-378 61.65,-378"/>
<polygon fill="black" stroke="black" points="61.75,-381.5 71.75,-378 61.75,-374.5 61.75,-381.5"/>
</g>
<!-- cg2 -->
<g id="node4" class="node">
<title>cg2</title>
<polygon fill="none" stroke="#000000" points="126,-252 72,-252 72,-216 126,-216 126,-252"/>
<text text-anchor="middle" x="99" y="-230.3" font-family="Times,serif" font-size="14.00">cg2/</text>
</g>
<!-- test&#45;&gt;cg2 -->
<g id="edge3" class="edge">
<title>test&#45;&gt;cg2</title>
<path fill="none" stroke="black" d="M35.61,-359.93C44.66,-342.01 59.31,-313.01 72,-288 76.41,-279.3 81.25,-269.81 85.59,-261.29"/>
<polygon fill="black" stroke="black" points="88.81,-262.68 90.23,-252.18 82.57,-259.5 88.81,-262.68"/>
</g>
<!-- cg3 -->
<g id="node5" class="node">
<title>cg3</title>
<polygon fill="none" stroke="#000000" points="126,-108 72,-108 72,-72 126,-72 126,-108"/>
<text text-anchor="middle" x="99" y="-86.3" font-family="Times,serif" font-size="14.00">cg3/</text>
</g>
<!-- test&#45;&gt;cg3 -->
<g id="edge4" class="edge">
<title>test&#45;&gt;cg3</title>
<path fill="none" stroke="black" d="M30.45,-360C36.5,-330.54 49.67,-268.17 63,-216 71.7,-181.96 83.12,-143.13 90.74,-117.9"/>
<polygon fill="black" stroke="black" points="94.1,-118.89 93.66,-108.3 87.4,-116.85 94.1,-118.89"/>
</g>
<!-- cg1_1 -->
<g id="node6" class="node">
<title>cg1_1</title>
<polygon fill="none" stroke="#000000" points="206,-396 144,-396 144,-360 206,-360 206,-396"/>
<text text-anchor="middle" x="175" y="-374.3" font-family="Times,serif" font-size="14.00">cg1_1/</text>
</g>
<!-- cg1&#45;&gt;cg1_1 -->
<g id="edge5" class="edge">
<title>cg1&#45;&gt;cg1_1</title>
<path fill="none" stroke="black" d="M126.02,-378C128.49,-378 130.97,-378 133.44,-378"/>
<polygon fill="black" stroke="black" points="133.62,-381.5 143.62,-378 133.62,-374.5 133.62,-381.5"/>
</g>
<!-- p1 -->
<g id="node9" class="node">
<title>p1</title>
<ellipse fill="none" stroke="#880000" stroke-width="2" cx="99" cy="-306" rx="18" ry="18"/>
<text text-anchor="middle" x="99" y="-302.3" font-family="Times,serif" font-size="14.00">p1</text>
</g>
<!-- cg1&#45;&gt;p1 -->
<g id="edge6" class="edge">
<title>cg1&#45;&gt;p1</title>
<path fill="none" stroke="black" d="M99,-359.7C99,-351.98 99,-342.71 99,-334.11"/>
<polygon fill="black" stroke="black" points="102.5,-334.1 99,-324.1 95.5,-334.1 102.5,-334.1"/>
</g>
<!-- cg2&#45;&gt;cg3 -->
<!-- cg2_1 -->
<g id="node7" class="node">
<title>cg2_1</title>
<polygon fill="none" stroke="#000000" points="206,-252 144,-252 144,-216 206,-216 206,-252"/>
<text text-anchor="middle" x="175" y="-230.3" font-family="Times,serif" font-size="14.00">cg2_1/</text>
</g>
<!-- cg2&#45;&gt;cg2_1 -->
<g id="edge9" class="edge">
<title>cg2&#45;&gt;cg2_1</title>
<path fill="none" stroke="black" d="M126.02,-234C128.49,-234 130.97,-234 133.44,-234"/>
<polygon fill="black" stroke="black" points="133.62,-237.5 143.62,-234 133.62,-230.5 133.62,-237.5"/>
</g>
<!-- cg3_1 -->
<g id="node8" class="node">
<title>cg3_1</title>
<polygon fill="none" stroke="#000000" points="206,-108 144,-108 144,-72 206,-72 206,-108"/>
<text text-anchor="middle" x="175" y="-86.3" font-family="Times,serif" font-size="14.00">cg3_1/</text>
</g>
<!-- cg3&#45;&gt;cg3_1 -->
<g id="edge13" class="edge">
<title>cg3&#45;&gt;cg3_1</title>
<path fill="none" stroke="black" d="M126.02,-90C128.49,-90 130.97,-90 133.44,-90"/>
<polygon fill="black" stroke="black" points="133.62,-93.5 143.62,-90 133.62,-86.5 133.62,-93.5"/>
</g>
<!-- p4 -->
<g id="node12" class="node">
<title>p4</title>
<ellipse fill="none" stroke="#880000" stroke-width="2" cx="99" cy="-18" rx="18" ry="18"/>
<text text-anchor="middle" x="99" y="-14.3" font-family="Times,serif" font-size="14.00">p4</text>
</g>
<!-- cg3&#45;&gt;p4 -->
<g id="edge14" class="edge">
<title>cg3&#45;&gt;p4</title>
<path fill="none" stroke="black" d="M99,-71.7C99,-63.98 99,-54.71 99,-46.11"/>
<polygon fill="black" stroke="black" points="102.5,-46.1 99,-36.1 95.5,-46.1 102.5,-46.1"/>
</g>
<!-- p2 -->
<g id="node10" class="node">
<title>p2</title>
<ellipse fill="none" stroke="#880000" stroke-width="2" cx="175" cy="-306" rx="18" ry="18"/>
<text text-anchor="middle" x="175" y="-302.3" font-family="Times,serif" font-size="14.00">p2</text>
</g>
<!-- cg1_1&#45;&gt;p2 -->
<g id="edge8" class="edge">
<title>cg1_1&#45;&gt;p2</title>
<path fill="none" stroke="black" d="M175,-359.7C175,-351.98 175,-342.71 175,-334.11"/>
<polygon fill="black" stroke="black" points="178.5,-334.1 175,-324.1 171.5,-334.1 178.5,-334.1"/>
</g>
<!-- p3 -->
<g id="node11" class="node">
<title>p3</title>
<ellipse fill="none" stroke="#880000" stroke-width="2" cx="175" cy="-162" rx="18" ry="18"/>
<text text-anchor="middle" x="175" y="-158.3" font-family="Times,serif" font-size="14.00">p3</text>
</g>
<!-- cg2_1&#45;&gt;p3 -->
<g id="edge10" class="edge">
<title>cg2_1&#45;&gt;p3</title>
<path fill="none" stroke="black" d="M175,-215.7C175,-207.98 175,-198.71 175,-190.11"/>
<polygon fill="black" stroke="black" points="178.5,-190.1 175,-180.1 171.5,-190.1 178.5,-190.1"/>
</g>
<!-- p1&#45;&gt;cg2 -->
<!-- p3&#45;&gt;cg3_1 -->
</g>
</svg>
