<?xml version="1.0" encoding="UTF-8" standalone="no"?>
<!DOCTYPE svg PUBLIC "-//W3C//DTD SVG 1.1//EN"
 "http://www.w3.org/Graphics/SVG/1.1/DTD/svg11.dtd">
<!-- Generated by graphviz version 2.43.0 (0)
 -->
<!-- Title: CG Pages: 1 -->
<svg width="445pt" height="332pt"
 viewBox="0.00 0.00 445.00 332.00" xmlns="http://www.w3.org/2000/svg" xmlns:xlink="http://www.w3.org/1999/xlink">
<g id="graph0" class="graph" transform="scale(1 1) rotate(0) translate(4 328)">
<title>CG</title>
<!-- pids -->
<g id="node1" class="node">
<title>pids</title>
<text text-anchor="middle" x="43" y="-302.3" font-family="Times,serif" font-size="14.00">pids ≤ max</text>
</g>
<!-- testing -->
<g id="node6" class="node">
<title>testing</title>
<polygon fill="none" stroke="#000000" points="71,-252 15,-252 15,-216 71,-216 71,-252"/>
<text text-anchor="middle" x="43" y="-230.3" font-family="Times,serif" font-size="14.00">testing/</text>
</g>
<!-- pids&#45;&gt;testing -->
<g id="edge1" class="edge">
<title>pids&#45;&gt;testing</title>
<path fill="none" stroke="#620099" stroke-dasharray="5,2" d="M43,-279.64C43,-270.49 43,-260.38 43,-252.1"/>
<ellipse fill="#620099" stroke="#620099" cx="43" cy="-283.7" rx="4" ry="4"/>
</g>
<!-- pids_cg1 -->
<g id="node2" class="node">
<title>pids_cg1</title>
<text text-anchor="middle" x="147" y="-302.3" font-family="Times,serif" font-size="14.00">pids ≤ max</text>
</g>
<!-- cg1 -->
<g id="node7" class="node">
<title>cg1</title>
<polygon fill="none" stroke="#000000" points="174,-252 120,-252 120,-216 174,-216 174,-252"/>
<text text-anchor="middle" x="147" y="-230.3" font-family="Times,serif" font-size="14.00">cg1/</text>
</g>
<!-- pids_cg1&#45;&gt;cg1 -->
<g id="edge2" class="edge">
<title>pids_cg1&#45;&gt;cg1</title>
<path fill="none" stroke="#620099" stroke-dasharray="5,2" d="M147,-279.64C147,-270.49 147,-260.38 147,-252.1"/>
<ellipse fill="#620099" stroke="#620099" cx="147" cy="-283.7" rx="4" ry="4"/>
</g>
<!-- pids_cg2 -->
<g id="node3" class="node">
<title>pids_cg2</title>
<text text-anchor="middle" x="218" y="-158.3" font-family="Times,serif" font-size="14.00">pids ≤ max</text>
</g>
<!-- cg2 -->
<g id="node8" class="node">
<title>cg2</title>
<polygon fill="none" stroke="#000000" points="245,-108 191,-108 191,-72 245,-72 245,-108"/>
<text text-anchor="middle" x="218" y="-86.3" font-family="Times,serif" font-size="14.00">cg2/</text>
</g>
<!-- pids_cg2&#45;&gt;cg2 -->
<g id="edge3" class="edge">
<title>pids_cg2&#45;&gt;cg2</title>
<path fill="none" stroke="#620099" stroke-dasharray="5,2" d="M218,-135.64C218,-126.49 218,-116.38 218,-108.1"/>
<ellipse fill="#620099" stroke="#620099" cx="218" cy="-139.7" rx="4" ry="4"/>
</g>
<!-- pids_cg1_1 -->
<g id="node4" class="node">
<title>pids_cg1_1</title>
<text text-anchor="middle" x="394" y="-230.3" font-family="Times,serif" font-size="14.00">pids ≤ max</text>
</g>
<!-- pids_cg1_2 -->
<g id="node5" class="node">
<title>pids_cg1_2</title>
<text text-anchor="middle" x="394" y="-158.3" font-family="Times,serif" font-size="14.00">pids ≤ max</text>
</g>
<!-- testing&#45;&gt;cg1 -->
<g id="edge4" class="edge">
<title>testing&#45;&gt;cg1</title>
<path fill="none" stroke="black" d="M71.03,-234C83.91,-234 96.79,-234 109.67,-234"/>
<polygon fill="black" stroke="black" points="110,-237.5 120,-234 110,-230.5 110,-237.5"/>
</g>
<!-- testing&#45;&gt;cg2 -->
<g id="edge5" class="edge">
<title>testing&#45;&gt;cg2</title>
<path fill="none" stroke="black" d="M63.35,-215.74C84.76,-197.67 119.51,-168.55 150,-144 162.2,-134.18 175.78,-123.54 187.58,-114.38"/>
<polygon fill="black" stroke="black" points="190.04,-116.9 195.81,-108.01 185.76,-111.36 190.04,-116.9"/>
</g>
<!-- cg1&#45;&gt;cg2 -->
<!-- cg1_1 -->
<g id="node9" class="node">
<title>cg1_1</title>
<polygon fill="none" stroke="#000000" points="333,-252 279,-252 279,-216 333,-216 333,-252"/>
<text text-anchor="middle" x="306" y="-230.3" font-family="Times,serif" font-size="14.00">cg1_1/</text>
</g>
<!-- cg1&#45;&gt;cg1_1 -->
<g id="edge6" class="edge">
<title>cg1&#45;&gt;cg1_1</title>
<path fill="none" stroke="black" d="M174.02,-234C205.57,-234 237.13,-234 268.69,-234"/>
<polygon fill="black" stroke="black" points="268.93,-237.5 278.93,-234 268.93,-230.5 268.93,-237.5"/>
</g>
<!-- cg1_2 -->
<g id="node10" class="node">
<title>cg1_2</title>
<polygon fill="none" stroke="#000000" points="333,-180 279,-180 279,-144 333,-144 333,-180"/>
<text text-anchor="middle" x="306" y="-158.3" font-family="Times,serif" font-size="14.00">cg1_2/</text>
</g>
<!-- cg1&#45;&gt;cg1_2 -->
<g id="edge7" class="edge">
<title>cg1&#45;&gt;cg1_2</title>
<path fill="none" stroke="black" d="M174.48,-221.48C197.63,-211.7 231.81,-197.1 269.73,-180.06"/>
<polygon fill="black" stroke="black" points="271.24,-183.21 278.92,-175.91 268.36,-176.83 271.24,-183.21"/>
</g>
<!-- cg2_1 -->
<g id="node11" class="node">
<title>cg2_1</title>
<polygon fill="none" stroke="#000000" points="333,-108 279,-108 279,-72 333,-72 333,-108"/>
<text text-anchor="middle" x="306" y="-86.3" font-family="Times,serif" font-size="14.00">cg2_1/</text>
</g>
<!-- cg2&#45;&gt;cg2_1 -->
<g id="edge10" class="edge">
<title>cg2&#45;&gt;cg2_1</title>
<path fill="none" stroke="black" d="M245.16,-90C253.07,-90 260.98,-90 268.89,-90"/>
<polygon fill="black" stroke="black" points="268.91,-93.5 278.91,-90 268.91,-86.5 268.91,-93.5"/>
</g>
<!-- cg2_2 -->
<g id="node12" class="node">
<title>cg2_2</title>
<polygon fill="none" stroke="#000000" points="333,-36 279,-36 279,0 333,0 333,-36"/>
<text text-anchor="middle" x="306" y="-14.3" font-family="Times,serif" font-size="14.00">cg2_2/</text>
</g>
<!-- cg2&#45;&gt;cg2_2 -->
<g id="edge11" class="edge">
<title>cg2&#45;&gt;cg2_2</title>
<path fill="none" stroke="black" d="M239.75,-71.7C250.84,-62.88 264.47,-52.03 276.49,-42.47"/>
<polygon fill="black" stroke="black" points="278.85,-45.07 284.5,-36.1 274.49,-39.59 278.85,-45.07"/>
</g>
<!-- cg1_1&#45;&gt;pids_cg1_1 -->
<g id="edge8" class="edge">
<title>cg1_1&#45;&gt;pids_cg1_1</title>
<path fill="none" stroke="#620099" stroke-dasharray="5,2" d="M333.16,-234C336.27,-234 339.39,-234 342.5,-234"/>
<ellipse fill="#620099" stroke="#620099" cx="346.74" cy="-234" rx="4" ry="4"/>
</g>
<!-- cg1_1&#45;&gt;cg1_2 -->
<!-- cg1_2&#45;&gt;pids_cg1_2 -->
<g id="edge9" class="edge">
<title>cg1_2&#45;&gt;pids_cg1_2</title>
<path fill="none" stroke="#620099" stroke-dasharray="5,2" d="M333.16,-162C336.27,-162 339.39,-162 342.5,-162"/>
<ellipse fill="#620099" stroke="#620099" cx="346.74" cy="-162" rx="4" ry="4"/>
</g>
<!-- cg1_2&#45;&gt;cg2_1 -->
<!-- cg2_1&#45;&gt;cg2_2 -->
</g>
</svg>
