<?xml version="1.0" encoding="UTF-8" standalone="no"?>
<!DOCTYPE svg PUBLIC "-//W3C//DTD SVG 1.1//EN"
 "http://www.w3.org/Graphics/SVG/1.1/DTD/svg11.dtd">
<!-- Generated by graphviz version 2.43.0 (0)
 -->
<!-- Title: CG Pages: 1 -->
<svg width="436pt" height="332pt"
 viewBox="0.00 0.00 436.00 332.00" xmlns="http://www.w3.org/2000/svg" xmlns:xlink="http://www.w3.org/1999/xlink">
<g id="graph0" class="graph" transform="scale(1 1) rotate(0) translate(4 328)">
<title>CG</title>
<!-- cpu -->
<g id="node1" class="node">
<title>cpu</title>
<text text-anchor="middle" x="41.5" y="-302.3" font-family="Times,serif" font-size="14.00">cpu ≤ max</text>
</g>
<!-- test -->
<g id="node6" class="node">
<title>test</title>
<polygon fill="none" stroke="#000000" points="68.5,-252 14.5,-252 14.5,-216 68.5,-216 68.5,-252"/>
<text text-anchor="middle" x="41.5" y="-230.3" font-family="Times,serif" font-size="14.00">test/</text>
</g>
<!-- cpu&#45;&gt;test -->
<g id="edge1" class="edge">
<title>cpu&#45;&gt;test</title>
<path fill="none" stroke="#620099" stroke-dasharray="5,2" d="M41.5,-279.64C41.5,-270.49 41.5,-260.38 41.5,-252.1"/>
<ellipse fill="#620099" stroke="#620099" cx="41.5" cy="-283.7" rx="4" ry="4"/>
</g>
<!-- cpu_cg1 -->
<g id="node2" class="node">
<title>cpu_cg1</title>
<text text-anchor="middle" x="142.5" y="-302.3" font-family="Times,serif" font-size="14.00">cpu ≤ max</text>
</g>
<!-- cg1 -->
<g id="node7" class="node">
<title>cg1</title>
<polygon fill="none" stroke="#000000" points="169.5,-252 115.5,-252 115.5,-216 169.5,-216 169.5,-252"/>
<text text-anchor="middle" x="142.5" y="-230.3" font-family="Times,serif" font-size="14.00">cg1/</text>
</g>
<!-- cpu_cg1&#45;&gt;cg1 -->
<g id="edge2" class="edge">
<title>cpu_cg1&#45;&gt;cg1</title>
<path fill="none" stroke="#620099" stroke-dasharray="5,2" d="M142.5,-279.64C142.5,-270.49 142.5,-260.38 142.5,-252.1"/>
<ellipse fill="#620099" stroke="#620099" cx="142.5" cy="-283.7" rx="4" ry="4"/>
</g>
<!-- cpu_cg2 -->
<g id="node3" class="node">
<title>cpu_cg2</title>
<text text-anchor="middle" x="212.5" y="-158.3" font-family="Times,serif" font-size="14.00">cpu ≤ max</text>
</g>
<!-- cg2 -->
<g id="node8" class="node">
<title>cg2</title>
<polygon fill="none" stroke="#000000" points="239.5,-108 185.5,-108 185.5,-72 239.5,-72 239.5,-108"/>
<text text-anchor="middle" x="212.5" y="-86.3" font-family="Times,serif" font-size="14.00">cg2/</text>
</g>
<!-- cpu_cg2&#45;&gt;cg2 -->
<g id="edge3" class="edge">
<title>cpu_cg2&#45;&gt;cg2</title>
<path fill="none" stroke="#620099" stroke-dasharray="5,2" d="M212.5,-135.64C212.5,-126.49 212.5,-116.38 212.5,-108.1"/>
<ellipse fill="#620099" stroke="#620099" cx="212.5" cy="-139.7" rx="4" ry="4"/>
</g>
<!-- cpu_cg1_1 -->
<g id="node4" class="node">
<title>cpu_cg1_1</title>
<text text-anchor="middle" x="386.5" y="-230.3" font-family="Times,serif" font-size="14.00">cpu ≤ max</text>
</g>
<!-- cpu_cg1_2 -->
<g id="node5" class="node">
<title>cpu_cg1_2</title>
<text text-anchor="middle" x="386.5" y="-158.3" font-family="Times,serif" font-size="14.00">cpu ≤ max</text>
</g>
<!-- test&#45;&gt;cg1 -->
<g id="edge4" class="edge">
<title>test&#45;&gt;cg1</title>
<path fill="none" stroke="black" d="M68.72,-234C80.88,-234 93.04,-234 105.2,-234"/>
<polygon fill="black" stroke="black" points="105.41,-237.5 115.41,-234 105.41,-230.5 105.41,-237.5"/>
</g>
<!-- test&#45;&gt;cg2 -->
<g id="edge5" class="edge">
<title>test&#45;&gt;cg2</title>
<path fill="none" stroke="black" d="M61.24,-215.71C82.02,-197.6 115.77,-168.46 145.5,-144 157.39,-134.22 170.65,-123.65 182.22,-114.55"/>
<polygon fill="black" stroke="black" points="184.59,-117.14 190.3,-108.21 180.27,-111.63 184.59,-117.14"/>
</g>
<!-- cg1&#45;&gt;cg2 -->
<!-- cg1_1 -->
<g id="node9" class="node">
<title>cg1_1</title>
<polygon fill="none" stroke="#000000" points="326.5,-252 272.5,-252 272.5,-216 326.5,-216 326.5,-252"/>
<text text-anchor="middle" x="299.5" y="-230.3" font-family="Times,serif" font-size="14.00">cg1_1/</text>
</g>
<!-- cg1&#45;&gt;cg1_1 -->
<g id="edge6" class="edge">
<title>cg1&#45;&gt;cg1_1</title>
<path fill="none" stroke="black" d="M169.79,-234C200.65,-234 231.51,-234 262.37,-234"/>
<polygon fill="black" stroke="black" points="262.39,-237.5 272.39,-234 262.39,-230.5 262.39,-237.5"/>
</g>
<!-- cg1_2 -->
<g id="node10" class="node">
<title>cg1_2</title>
<polygon fill="none" stroke="#000000" points="326.5,-180 272.5,-180 272.5,-144 326.5,-144 326.5,-180"/>
<text text-anchor="middle" x="299.5" y="-158.3" font-family="Times,serif" font-size="14.00">cg1_2/</text>
</g>
<!-- cg1&#45;&gt;cg1_2 -->
<g id="edge7" class="edge">
<title>cg1&#45;&gt;cg1_2</title>
<path fill="none" stroke="black" d="M169.72,-221.12C194.07,-210.45 230.73,-194.31 262.5,-180 262.7,-179.91 262.9,-179.82 263.11,-179.73"/>
<polygon fill="black" stroke="black" points="264.78,-182.81 272.44,-175.49 261.89,-176.43 264.78,-182.81"/>
</g>
<!-- cg2_1 -->
<g id="node11" class="node">
<title>cg2_1</title>
<polygon fill="none" stroke="#000000" points="326.5,-108 272.5,-108 272.5,-72 326.5,-72 326.5,-108"/>
<text text-anchor="middle" x="299.5" y="-86.3" font-family="Times,serif" font-size="14.00">cg2_1/</text>
</g>
<!-- cg2&#45;&gt;cg2_1 -->
<g id="edge10" class="edge">
<title>cg2&#45;&gt;cg2_1</title>
<path fill="none" stroke="black" d="M239.69,-90C247.18,-90 254.68,-90 262.18,-90"/>
<polygon fill="black" stroke="black" points="262.4,-93.5 272.4,-90 262.4,-86.5 262.4,-93.5"/>
</g>
<!-- cg2_2 -->
<g id="node12" class="node">
<title>cg2_2</title>
<polygon fill="none" stroke="#000000" points="326.5,-36 272.5,-36 272.5,0 326.5,0 326.5,-36"/>
<text text-anchor="middle" x="299.5" y="-14.3" font-family="Times,serif" font-size="14.00">cg2_2/</text>
</g>
<!-- cg2&#45;&gt;cg2_2 -->
<g id="edge11" class="edge">
<title>cg2&#45;&gt;cg2_2</title>
<path fill="none" stroke="black" d="M234.01,-71.7C244.96,-62.88 258.45,-52.03 270.32,-42.47"/>
<polygon fill="black" stroke="black" points="272.64,-45.1 278.24,-36.1 268.26,-39.65 272.64,-45.1"/>
</g>
<!-- cg1_1&#45;&gt;cpu_cg1_1 -->
<g id="edge8" class="edge">
<title>cg1_1&#45;&gt;cpu_cg1_1</title>
<path fill="none" stroke="#620099" stroke-dasharray="5,2" d="M326.69,-234C330.01,-234 333.33,-234 336.65,-234"/>
<ellipse fill="#620099" stroke="#620099" cx="340.91" cy="-234" rx="4" ry="4"/>
</g>
<!-- cg1_1&#45;&gt;cg1_2 -->
<!-- cg1_2&#45;&gt;cpu_cg1_2 -->
<g id="edge9" class="edge">
<title>cg1_2&#45;&gt;cpu_cg1_2</title>
<path fill="none" stroke="#620099" stroke-dasharray="5,2" d="M326.69,-162C330.01,-162 333.33,-162 336.65,-162"/>
<ellipse fill="#620099" stroke="#620099" cx="340.91" cy="-162" rx="4" ry="4"/>
</g>
<!-- cg1_2&#45;&gt;cg2_1 -->
<!-- cg2_1&#45;&gt;cg2_2 -->
</g>
</svg>
