<?xml version="1.0" encoding="UTF-8" standalone="no"?>
<!DOCTYPE svg PUBLIC "-//W3C//DTD SVG 1.1//EN"
 "http://www.w3.org/Graphics/SVG/1.1/DTD/svg11.dtd">
<!-- Generated by graphviz version 2.43.0 (0)
 -->
<!-- Title: CG Pages: 1 -->
<svg width="479pt" height="332pt"
 viewBox="0.00 0.00 479.00 332.00" xmlns="http://www.w3.org/2000/svg" xmlns:xlink="http://www.w3.org/1999/xlink">
<g id="graph0" class="graph" transform="scale(1 1) rotate(0) translate(4 328)">
<title>CG</title>
<!-- cpu -->
<g id="node1" class="node">
<title>cpu</title>
<text text-anchor="middle" x="46.5" y="-302.3" font-family="Times,serif" font-size="14.00">cpu ≤ max</text>
</g>
<!-- test -->
<g id="node6" class="node">
<title>test</title>
<polygon fill="none" stroke="#000000" points="73.5,-252 19.5,-252 19.5,-216 73.5,-216 73.5,-252"/>
<text text-anchor="middle" x="46.5" y="-230.3" font-family="Times,serif" font-size="14.00">test/</text>
</g>
<!-- cpu&#45;&gt;test -->
<g id="edge1" class="edge">
<title>cpu&#45;&gt;test</title>
<path fill="none" stroke="#620099" stroke-dasharray="5,2" d="M46.5,-279.64C46.5,-270.49 46.5,-260.38 46.5,-252.1"/>
<ellipse fill="#620099" stroke="#620099" cx="46.5" cy="-283.7" rx="4" ry="4"/>
</g>
<!-- cpu_cg1 -->
<g id="node2" class="node">
<title>cpu_cg1</title>
<text text-anchor="middle" x="157.5" y="-302.3" font-family="Times,serif" font-size="14.00">cpu ≤ max</text>
</g>
<!-- cg1 -->
<g id="node7" class="node">
<title>cg1</title>
<polygon fill="none" stroke="#000000" points="184.5,-252 130.5,-252 130.5,-216 184.5,-216 184.5,-252"/>
<text text-anchor="middle" x="157.5" y="-230.3" font-family="Times,serif" font-size="14.00">cg1/</text>
</g>
<!-- cpu_cg1&#45;&gt;cg1 -->
<g id="edge2" class="edge">
<title>cpu_cg1&#45;&gt;cg1</title>
<path fill="none" stroke="#620099" stroke-dasharray="5,2" d="M157.5,-279.64C157.5,-270.49 157.5,-260.38 157.5,-252.1"/>
<ellipse fill="#620099" stroke="#620099" cx="157.5" cy="-283.7" rx="4" ry="4"/>
</g>
<!-- cpu_cg2 -->
<g id="node3" class="node">
<title>cpu_cg2</title>
<text text-anchor="middle" x="232.5" y="-158.3" font-family="Times,serif" font-size="14.00">cpu ≤ max</text>
</g>
<!-- cg2 -->
<g id="node8" class="node">
<title>cg2</title>
<polygon fill="none" stroke="#000000" points="259.5,-108 205.5,-108 205.5,-72 259.5,-72 259.5,-108"/>
<text text-anchor="middle" x="232.5" y="-86.3" font-family="Times,serif" font-size="14.00">cg2/</text>
</g>
<!-- cpu_cg2&#45;&gt;cg2 -->
<g id="edge3" class="edge">
<title>cpu_cg2&#45;&gt;cg2</title>
<path fill="none" stroke="#620099" stroke-dasharray="5,2" d="M232.5,-135.64C232.5,-126.49 232.5,-116.38 232.5,-108.1"/>
<ellipse fill="#620099" stroke="#620099" cx="232.5" cy="-139.7" rx="4" ry="4"/>
</g>
<!-- cpu_cg1_1 -->
<g id="node4" class="node">
<title>cpu_cg1_1</title>
<text text-anchor="middle" x="424.5" y="-230.3" font-family="Times,serif" font-size="14.00">cpu ≤ max</text>
</g>
<!-- cpu_cg1_2 -->
<g id="node5" class="node">
<title>cpu_cg1_2</title>
<text text-anchor="middle" x="424.5" y="-158.3" font-family="Times,serif" font-size="14.00">cpu ≤ max</text>
</g>
<!-- test&#45;&gt;cg1 -->
<g id="edge4" class="edge">
<title>test&#45;&gt;cg1</title>
<path fill="none" stroke="black" d="M73.82,-234C89.28,-234 104.74,-234 120.21,-234"/>
<polygon fill="black" stroke="black" points="120.37,-237.5 130.37,-234 120.37,-230.5 120.37,-237.5"/>
</g>
<!-- test&#45;&gt;cg2 -->
<g id="edge5" class="edge">
<title>test&#45;&gt;cg2</title>
<path fill="none" stroke="black" d="M68.21,-215.75C91.04,-197.69 128.09,-168.57 160.5,-144 173.56,-134.1 188.1,-123.34 200.68,-114.12"/>
<polygon fill="black" stroke="black" points="203.02,-116.75 209.03,-108.02 198.89,-111.1 203.02,-116.75"/>
</g>
<!-- cg1&#45;&gt;cg2 -->
<!-- cg1_1 -->
<g id="node9" class="node">
<title>cg1_1</title>
<polygon fill="none" stroke="#000000" points="359.5,-252 297.5,-252 297.5,-216 359.5,-216 359.5,-252"/>
<text text-anchor="middle" x="328.5" y="-230.3" font-family="Times,serif" font-size="14.00">cg1_1/</text>
</g>
<!-- cg1&#45;&gt;cg1_1 -->
<g id="edge6" class="edge">
<title>cg1&#45;&gt;cg1_1</title>
<path fill="none" stroke="black" d="M184.55,-234C218.76,-234 252.96,-234 287.16,-234"/>
<polygon fill="black" stroke="black" points="287.29,-237.5 297.29,-234 287.29,-230.5 287.29,-237.5"/>
</g>
<!-- cg1_2 -->
<g id="node10" class="node">
<title>cg1_2</title>
<polygon fill="none" stroke="#000000" points="359.5,-180 297.5,-180 297.5,-144 359.5,-144 359.5,-180"/>
<text text-anchor="middle" x="328.5" y="-158.3" font-family="Times,serif" font-size="14.00">cg1_2/</text>
</g>
<!-- cg1&#45;&gt;cg1_2 -->
<g id="edge7" class="edge">
<title>cg1&#45;&gt;cg1_2</title>
<path fill="none" stroke="black" d="M184.66,-221.98C210.97,-211.29 252,-194.6 287.5,-180 287.6,-179.96 287.7,-179.92 287.79,-179.88"/>
<polygon fill="black" stroke="black" points="289.26,-183.06 297.17,-176.01 286.59,-176.59 289.26,-183.06"/>
</g>
<!-- cg2_1 -->
<g id="node11" class="node">
<title>cg2_1</title>
<polygon fill="none" stroke="#000000" points="359.5,-108 297.5,-108 297.5,-72 359.5,-72 359.5,-108"/>
<text text-anchor="middle" x="328.5" y="-86.3" font-family="Times,serif" font-size="14.00">cg2_1/</text>
</g>
<!-- cg2&#45;&gt;cg2_1 -->
<g id="edge10" class="edge">
<title>cg2&#45;&gt;cg2_1</title>
<path fill="none" stroke="black" d="M259.88,-90C268.96,-90 278.05,-90 287.14,-90"/>
<polygon fill="black" stroke="black" points="287.4,-93.5 297.4,-90 287.4,-86.5 287.4,-93.5"/>
</g>
<!-- cg2_2 -->
<g id="node12" class="node">
<title>cg2_2</title>
<polygon fill="none" stroke="#000000" points="359.5,-36 297.5,-36 297.5,0 359.5,0 359.5,-36"/>
<text text-anchor="middle" x="328.5" y="-14.3" font-family="Times,serif" font-size="14.00">cg2_2/</text>
</g>
<!-- cg2&#45;&gt;cg2_2 -->
<g id="edge11" class="edge">
<title>cg2&#45;&gt;cg2_2</title>
<path fill="none" stroke="black" d="M256.23,-71.7C268.44,-62.8 283.49,-51.82 296.68,-42.2"/>
<polygon fill="black" stroke="black" points="299.02,-44.82 305.04,-36.1 294.9,-39.17 299.02,-44.82"/>
</g>
<!-- cg1_1&#45;&gt;cpu_cg1_1 -->
<g id="edge8" class="edge">
<title>cg1_1&#45;&gt;cpu_cg1_1</title>
<path fill="none" stroke="#620099" stroke-dasharray="5,2" d="M359.62,-234C362.95,-234 366.28,-234 369.6,-234"/>
<ellipse fill="#620099" stroke="#620099" cx="373.87" cy="-234" rx="4" ry="4"/>
</g>
<!-- cg1_1&#45;&gt;cg1_2 -->
<!-- cg1_2&#45;&gt;cpu_cg1_2 -->
<g id="edge9" class="edge">
<title>cg1_2&#45;&gt;cpu_cg1_2</title>
<path fill="none" stroke="#620099" stroke-dasharray="5,2" d="M359.62,-162C362.95,-162 366.28,-162 369.6,-162"/>
<ellipse fill="#620099" stroke="#620099" cx="373.87" cy="-162" rx="4" ry="4"/>
</g>
<!-- cg1_2&#45;&gt;cg2_1 -->
<!-- cg2_1&#45;&gt;cg2_2 -->
</g>
</svg>
