<?xml version="1.0" encoding="utf-8" standalone="no"?>
<!DOCTYPE svg PUBLIC "-//W3C//DTD SVG 1.1//EN"
  "http://www.w3.org/Graphics/SVG/1.1/DTD/svg11.dtd">
<svg xmlns:xlink="http://www.w3.org/1999/xlink" width="493.92pt" height="304.159286pt" viewBox="0 0 493.92 304.159286" xmlns="http://www.w3.org/2000/svg" version="1.1">
 <metadata>
  <rdf:RDF xmlns:dc="http://purl.org/dc/elements/1.1/" xmlns:cc="http://creativecommons.org/ns#" xmlns:rdf="http://www.w3.org/1999/02/22-rdf-syntax-ns#">
   <cc:Work>
    <dc:type rdf:resource="http://purl.org/dc/dcmitype/StillImage"/>
    <dc:date>2023-01-14T01:05:18.197851</dc:date>
    <dc:format>image/svg+xml</dc:format>
    <dc:creator>
     <cc:Agent>
      <dc:title>Matplotlib v3.6.2, https://matplotlib.org/</dc:title>
     </cc:Agent>
    </dc:creator>
   </cc:Work>
  </rdf:RDF>
 </metadata>
 <defs>
  <style type="text/css">*{stroke-linejoin: round; stroke-linecap: butt}</style>
 </defs>
 <g id="figure_1">
  <g id="patch_1">
   <path d="M 0 304.159286 
L 493.92 304.159286 
L 493.92 0 
L 0 0 
L 0 304.159286 
z
" style="fill: none"/>
  </g>
  <g id="axes_1">
   <g id="patch_2">
    <path d="M 30.554872 140.067369 
L 486.72 140.067369 
L 486.72 7.2 
L 30.554872 7.2 
z
" style="fill: #eaeaf2"/>
   </g>
   <g id="matplotlib.axis_1">
    <g id="xtick_1">
     <g id="line2d_1">
      <path d="M 40.656431 140.067369 
L 40.656431 7.2 
" clip-path="url(#p6c01f4028d)" style="fill: none; stroke: #ffffff; stroke-width: 0.8; stroke-linecap: round"/>
     </g>
    </g>
    <g id="xtick_2">
     <g id="line2d_2">
      <path d="M 93.82253 140.067369 
L 93.82253 7.2 
" clip-path="url(#p6c01f4028d)" style="fill: none; stroke: #ffffff; stroke-width: 0.8; stroke-linecap: round"/>
     </g>
    </g>
    <g id="xtick_3">
     <g id="line2d_3">
      <path d="M 146.988629 140.067369 
L 146.988629 7.2 
" clip-path="url(#p6c01f4028d)" style="fill: none; stroke: #ffffff; stroke-width: 0.8; stroke-linecap: round"/>
     </g>
    </g>
    <g id="xtick_4">
     <g id="line2d_4">
      <path d="M 200.154728 140.067369 
L 200.154728 7.2 
" clip-path="url(#p6c01f4028d)" style="fill: none; stroke: #ffffff; stroke-width: 0.8; stroke-linecap: round"/>
     </g>
    </g>
    <g id="xtick_5">
     <g id="line2d_5">
      <path d="M 253.320826 140.067369 
L 253.320826 7.2 
" clip-path="url(#p6c01f4028d)" style="fill: none; stroke: #ffffff; stroke-width: 0.8; stroke-linecap: round"/>
     </g>
    </g>
    <g id="xtick_6">
     <g id="line2d_6">
      <path d="M 306.486925 140.067369 
L 306.486925 7.2 
" clip-path="url(#p6c01f4028d)" style="fill: none; stroke: #ffffff; stroke-width: 0.8; stroke-linecap: round"/>
     </g>
    </g>
    <g id="xtick_7">
     <g id="line2d_7">
      <path d="M 359.653024 140.067369 
L 359.653024 7.2 
" clip-path="url(#p6c01f4028d)" style="fill: none; stroke: #ffffff; stroke-width: 0.8; stroke-linecap: round"/>
     </g>
    </g>
    <g id="xtick_8">
     <g id="line2d_8">
      <path d="M 412.819123 140.067369 
L 412.819123 7.2 
" clip-path="url(#p6c01f4028d)" style="fill: none; stroke: #ffffff; stroke-width: 0.8; stroke-linecap: round"/>
     </g>
    </g>
    <g id="xtick_9">
     <g id="line2d_9">
      <path d="M 465.985221 140.067369 
L 465.985221 7.2 
" clip-path="url(#p6c01f4028d)" style="fill: none; stroke: #ffffff; stroke-width: 0.8; stroke-linecap: round"/>
     </g>
    </g>
   </g>
   <g id="matplotlib.axis_2">
    <g id="ytick_1">
     <g id="line2d_10">
      <path d="M 30.554872 109.793396 
L 486.72 109.793396 
" clip-path="url(#p6c01f4028d)" style="fill: none; stroke: #ffffff; stroke-width: 0.8; stroke-linecap: round"/>
     </g>
     <g id="text_1">
      <!-- $\mathdefault{0.52}$ -->
      <g style="fill: #262626" transform="translate(7.2 112.560797) scale(0.08 -0.08)">
       <defs>
        <path id="CMR17-30" d="M 2688 2025 
C 2688 2416 2682 3080 2413 3591 
C 2176 4039 1798 4198 1466 4198 
C 1158 4198 768 4058 525 3597 
C 269 3118 243 2524 243 2025 
C 243 1661 250 1106 448 619 
C 723 -39 1216 -128 1466 -128 
C 1760 -128 2208 -7 2470 600 
C 2662 1042 2688 1559 2688 2025 
z
M 1466 -26 
C 1056 -26 813 325 723 812 
C 653 1188 653 1738 653 2096 
C 653 2588 653 2997 736 3387 
C 858 3929 1216 4096 1466 4096 
C 1728 4096 2067 3923 2189 3400 
C 2272 3036 2278 2607 2278 2096 
C 2278 1680 2278 1169 2202 792 
C 2067 95 1690 -26 1466 -26 
z
" transform="scale(0.015625)"/>
        <path id="CMMI12-3a" d="M 1178 307 
C 1178 492 1024 619 870 619 
C 685 619 557 466 557 313 
C 557 128 710 0 864 0 
C 1050 0 1178 153 1178 307 
z
" transform="scale(0.015625)"/>
        <path id="CMR17-35" d="M 730 3692 
C 794 3666 1056 3584 1325 3584 
C 1920 3584 2246 3911 2432 4100 
C 2432 4157 2432 4192 2394 4192 
C 2387 4192 2374 4192 2323 4163 
C 2099 4058 1837 3973 1517 3973 
C 1325 3973 1037 3999 723 4139 
C 653 4171 640 4171 634 4171 
C 602 4171 595 4164 595 4037 
L 595 2203 
C 595 2089 595 2057 659 2057 
C 691 2057 704 2070 736 2114 
C 941 2401 1222 2522 1542 2522 
C 1766 2522 2246 2382 2246 1289 
C 2246 1085 2246 715 2054 421 
C 1894 159 1645 25 1370 25 
C 947 25 518 320 403 814 
C 429 807 480 795 506 795 
C 589 795 749 840 749 1038 
C 749 1210 627 1280 506 1280 
C 358 1280 262 1190 262 1011 
C 262 454 704 -128 1382 -128 
C 2042 -128 2669 440 2669 1264 
C 2669 2030 2170 2624 1549 2624 
C 1222 2624 947 2503 730 2274 
L 730 3692 
z
" transform="scale(0.015625)"/>
        <path id="CMR17-32" d="M 2669 989 
L 2554 989 
C 2490 536 2438 459 2413 420 
C 2381 369 1920 369 1830 369 
L 602 369 
C 832 619 1280 1072 1824 1597 
C 2214 1967 2669 2402 2669 3035 
C 2669 3790 2067 4224 1395 4224 
C 691 4224 262 3604 262 3030 
C 262 2780 448 2748 525 2748 
C 589 2748 781 2787 781 3010 
C 781 3207 614 3264 525 3264 
C 486 3264 448 3258 422 3245 
C 544 3790 915 4058 1306 4058 
C 1862 4058 2227 3617 2227 3035 
C 2227 2479 1901 2000 1536 1584 
L 262 146 
L 262 0 
L 2515 0 
L 2669 989 
z
" transform="scale(0.015625)"/>
       </defs>
       <use xlink:href="#CMR17-30" transform="scale(0.996264)"/>
       <use xlink:href="#CMMI12-3a" transform="translate(45.690477 0) scale(0.996264)"/>
       <use xlink:href="#CMR17-35" transform="translate(72.787654 0) scale(0.996264)"/>
       <use xlink:href="#CMR17-32" transform="translate(118.478131 0) scale(0.996264)"/>
      </g>
     </g>
    </g>
    <g id="ytick_2">
     <g id="line2d_11">
      <path d="M 30.554872 78.594899 
L 486.72 78.594899 
" clip-path="url(#p6c01f4028d)" style="fill: none; stroke: #ffffff; stroke-width: 0.8; stroke-linecap: round"/>
     </g>
     <g id="text_2">
      <!-- $\mathdefault{0.54}$ -->
      <g style="fill: #262626" transform="translate(7.2 81.3623) scale(0.08 -0.08)">
       <defs>
        <path id="CMR17-34" d="M 2150 4122 
C 2150 4256 2144 4256 2029 4256 
L 128 1254 
L 128 1088 
L 1779 1088 
L 1779 457 
C 1779 224 1766 160 1318 160 
L 1197 160 
L 1197 0 
C 1402 0 1747 0 1965 0 
C 2182 0 2528 0 2733 0 
L 2733 160 
L 2611 160 
C 2163 160 2150 224 2150 457 
L 2150 1088 
L 2803 1088 
L 2803 1254 
L 2150 1254 
L 2150 4122 
z
M 1798 3703 
L 1798 1254 
L 256 1254 
L 1798 3703 
z
" transform="scale(0.015625)"/>
       </defs>
       <use xlink:href="#CMR17-30" transform="scale(0.996264)"/>
       <use xlink:href="#CMMI12-3a" transform="translate(45.690477 0) scale(0.996264)"/>
       <use xlink:href="#CMR17-35" transform="translate(72.787654 0) scale(0.996264)"/>
       <use xlink:href="#CMR17-34" transform="translate(118.478131 0) scale(0.996264)"/>
      </g>
     </g>
    </g>
    <g id="ytick_3">
     <g id="line2d_12">
      <path d="M 30.554872 47.396401 
L 486.72 47.396401 
" clip-path="url(#p6c01f4028d)" style="fill: none; stroke: #ffffff; stroke-width: 0.8; stroke-linecap: round"/>
     </g>
     <g id="text_3">
      <!-- $\mathdefault{0.56}$ -->
      <g style="fill: #262626" transform="translate(7.2 50.163802) scale(0.08 -0.08)">
       <defs>
        <path id="CMR17-36" d="M 678 2176 
C 678 3690 1395 4032 1811 4032 
C 1946 4032 2272 4009 2400 3776 
C 2298 3776 2106 3776 2106 3553 
C 2106 3381 2246 3323 2336 3323 
C 2394 3323 2566 3348 2566 3560 
C 2566 3954 2246 4179 1805 4179 
C 1043 4179 243 3390 243 1984 
C 243 253 966 -128 1478 -128 
C 2099 -128 2688 427 2688 1283 
C 2688 2081 2170 2662 1517 2662 
C 1126 2662 838 2407 678 1960 
L 678 2176 
z
M 1478 25 
C 691 25 691 1200 691 1436 
C 691 1896 909 2560 1504 2560 
C 1613 2560 1926 2560 2138 2120 
C 2253 1870 2253 1609 2253 1289 
C 2253 944 2253 690 2118 434 
C 1978 171 1773 25 1478 25 
z
" transform="scale(0.015625)"/>
       </defs>
       <use xlink:href="#CMR17-30" transform="scale(0.996264)"/>
       <use xlink:href="#CMMI12-3a" transform="translate(45.690477 0) scale(0.996264)"/>
       <use xlink:href="#CMR17-35" transform="translate(72.787654 0) scale(0.996264)"/>
       <use xlink:href="#CMR17-36" transform="translate(118.478131 0) scale(0.996264)"/>
      </g>
     </g>
    </g>
    <g id="ytick_4">
     <g id="line2d_13">
      <path d="M 30.554872 16.197904 
L 486.72 16.197904 
" clip-path="url(#p6c01f4028d)" style="fill: none; stroke: #ffffff; stroke-width: 0.8; stroke-linecap: round"/>
     </g>
     <g id="text_4">
      <!-- $\mathdefault{0.58}$ -->
      <g style="fill: #262626" transform="translate(7.2 18.965305) scale(0.08 -0.08)">
       <defs>
        <path id="CMR17-38" d="M 1741 2264 
C 2144 2467 2554 2773 2554 3263 
C 2554 3841 1990 4179 1472 4179 
C 890 4179 378 3759 378 3180 
C 378 3021 416 2747 666 2505 
C 730 2442 998 2251 1171 2130 
C 883 1983 211 1634 211 934 
C 211 279 838 -128 1459 -128 
C 2144 -128 2720 362 2720 1010 
C 2720 1590 2330 1857 2074 2029 
L 1741 2264 
z
M 902 2822 
C 851 2854 595 3051 595 3351 
C 595 3739 998 4032 1459 4032 
C 1965 4032 2336 3676 2336 3262 
C 2336 2669 1670 2331 1638 2331 
C 1632 2331 1626 2331 1574 2370 
L 902 2822 
z
M 2080 1519 
C 2176 1449 2483 1240 2483 851 
C 2483 381 2010 25 1472 25 
C 890 25 448 438 448 940 
C 448 1443 838 1862 1280 2060 
L 2080 1519 
z
" transform="scale(0.015625)"/>
       </defs>
       <use xlink:href="#CMR17-30" transform="scale(0.996264)"/>
       <use xlink:href="#CMMI12-3a" transform="translate(45.690477 0) scale(0.996264)"/>
       <use xlink:href="#CMR17-35" transform="translate(72.787654 0) scale(0.996264)"/>
       <use xlink:href="#CMR17-38" transform="translate(118.478131 0) scale(0.996264)"/>
      </g>
     </g>
    </g>
   </g>
   <g id="line2d_14">
    <defs>
     <path id="meb828441a4" d="M 0 1.5 
C 0.397805 1.5 0.77937 1.341951 1.06066 1.06066 
C 1.341951 0.77937 1.5 0.397805 1.5 0 
C 1.5 -0.397805 1.341951 -0.77937 1.06066 -1.06066 
C 0.77937 -1.341951 0.397805 -1.5 0 -1.5 
C -0.397805 -1.5 -0.77937 -1.341951 -1.06066 -1.06066 
C -1.341951 -0.77937 -1.5 -0.397805 -1.5 0 
C -1.5 0.397805 -1.341951 0.77937 -1.06066 1.06066 
C -0.77937 1.341951 -0.397805 1.5 0 1.5 
z
" style="stroke: #4c72b0"/>
    </defs>
    <g clip-path="url(#p6c01f4028d)">
     <use xlink:href="#meb828441a4" x="210.787947" y="128.80498" style="fill: #4c72b0; stroke: #4c72b0"/>
     <use xlink:href="#meb828441a4" x="232.054387" y="130.159082" style="fill: #4c72b0; stroke: #4c72b0"/>
     <use xlink:href="#meb828441a4" x="242.687607" y="110.203903" style="fill: #4c72b0; stroke: #4c72b0"/>
     <use xlink:href="#meb828441a4" x="253.320826" y="111.743302" style="fill: #4c72b0; stroke: #4c72b0"/>
     <use xlink:href="#meb828441a4" x="274.587266" y="96.675846" style="fill: #4c72b0; stroke: #4c72b0"/>
     <use xlink:href="#meb828441a4" x="285.220486" y="132.514041" style="fill: #4c72b0; stroke: #4c72b0"/>
     <use xlink:href="#meb828441a4" x="295.853705" y="132.867285" style="fill: #4c72b0; stroke: #4c72b0"/>
     <use xlink:href="#meb828441a4" x="306.486925" y="86.394523" style="fill: #4c72b0; stroke: #4c72b0"/>
     <use xlink:href="#meb828441a4" x="317.120145" y="103.4937" style="fill: #4c72b0; stroke: #4c72b0"/>
     <use xlink:href="#meb828441a4" x="327.753365" y="112.104396" style="fill: #4c72b0; stroke: #4c72b0"/>
     <use xlink:href="#meb828441a4" x="338.386584" y="134.027943" style="fill: #4c72b0; stroke: #4c72b0"/>
     <use xlink:href="#meb828441a4" x="349.019804" y="13.239426" style="fill: #4c72b0; stroke: #4c72b0"/>
     <use xlink:href="#meb828441a4" x="359.653024" y="121.492833" style="fill: #4c72b0; stroke: #4c72b0"/>
     <use xlink:href="#meb828441a4" x="370.286244" y="90.671736" style="fill: #4c72b0; stroke: #4c72b0"/>
     <use xlink:href="#meb828441a4" x="380.919463" y="98.337698" style="fill: #4c72b0; stroke: #4c72b0"/>
     <use xlink:href="#meb828441a4" x="391.552683" y="93.721443" style="fill: #4c72b0; stroke: #4c72b0"/>
     <use xlink:href="#meb828441a4" x="402.185903" y="106.581786" style="fill: #4c72b0; stroke: #4c72b0"/>
     <use xlink:href="#meb828441a4" x="412.819123" y="85.280291" style="fill: #4c72b0; stroke: #4c72b0"/>
     <use xlink:href="#meb828441a4" x="423.452342" y="75.995024" style="fill: #4c72b0; stroke: #4c72b0"/>
     <use xlink:href="#meb828441a4" x="434.085562" y="114.641811" style="fill: #4c72b0; stroke: #4c72b0"/>
     <use xlink:href="#meb828441a4" x="444.718782" y="84.547244" style="fill: #4c72b0; stroke: #4c72b0"/>
     <use xlink:href="#meb828441a4" x="455.352002" y="105.993579" style="fill: #4c72b0; stroke: #4c72b0"/>
     <use xlink:href="#meb828441a4" x="465.985221" y="62.99565" style="fill: #4c72b0; stroke: #4c72b0"/>
    </g>
   </g>
   <g id="patch_3">
    <path d="M 30.554872 140.067369 
L 30.554872 7.2 
" style="fill: none; stroke: #ffffff; stroke-linejoin: miter; stroke-linecap: square"/>
   </g>
   <g id="patch_4">
    <path d="M 486.72 140.067369 
L 486.72 7.2 
" style="fill: none; stroke: #ffffff; stroke-linejoin: miter; stroke-linecap: square"/>
   </g>
   <g id="patch_5">
    <path d="M 30.554872 140.067369 
L 486.72 140.067369 
" style="fill: none; stroke: #ffffff; stroke-linejoin: miter; stroke-linecap: square"/>
   </g>
   <g id="patch_6">
    <path d="M 30.554872 7.2 
L 486.72 7.2 
" style="fill: none; stroke: #ffffff; stroke-linejoin: miter; stroke-linecap: square"/>
   </g>
   <g id="legend_1">
    <g id="patch_7">
     <path d="M 384.79807 24.749746 
L 481.12 24.749746 
Q 482.72 24.749746 482.72 23.149746 
L 482.72 12.8 
Q 482.72 11.2 481.12 11.2 
L 384.79807 11.2 
Q 383.19807 11.2 383.19807 12.8 
L 383.19807 23.149746 
Q 383.19807 24.749746 384.79807 24.749746 
z
" style="fill: #eaeaf2; opacity: 0.8; stroke: #cccccc; stroke-width: 0.8; stroke-linejoin: miter"/>
    </g>
    <g id="line2d_15">
     <g>
      <use xlink:href="#meb828441a4" x="394.39807" y="17.2" style="fill: #4c72b0; stroke: #4c72b0"/>
     </g>
    </g>
    <g id="text_5">
     <!-- Hamming Distance -->
     <g style="fill: #262626" transform="translate(408.79807 20) scale(0.08 -0.08)">
      <defs>
       <path id="CMR17-48" d="M 3590 3905 
C 3590 4192 3661 4192 4102 4192 
L 4102 4352 
C 3917 4352 3578 4352 3379 4352 
C 3181 4352 2842 4352 2656 4352 
L 2656 4192 
C 3098 4192 3168 4192 3168 3904 
L 3168 2341 
L 1261 2341 
L 1261 3904 
C 1261 4192 1331 4192 1773 4192 
L 1773 4352 
C 1587 4352 1248 4352 1050 4352 
C 851 4352 512 4352 326 4352 
L 326 4192 
C 768 4192 838 4192 838 3905 
L 838 447 
C 838 160 768 160 326 160 
L 326 0 
C 512 0 851 0 1050 0 
C 1248 0 1587 0 1773 0 
L 1773 160 
C 1331 160 1261 160 1261 446 
L 1261 2176 
L 3168 2176 
L 3168 446 
C 3168 160 3098 160 2656 160 
L 2656 0 
C 2842 0 3181 0 3379 0 
C 3578 0 3917 0 4102 0 
L 4102 160 
C 3661 160 3590 160 3590 447 
L 3590 3905 
z
" transform="scale(0.015625)"/>
       <path id="CMR17-61" d="M 2304 1653 
C 2304 2072 2304 2294 2035 2543 
C 1798 2752 1523 2816 1306 2816 
C 800 2816 435 2407 435 1971 
C 435 1728 627 1728 666 1728 
C 749 1728 896 1778 896 1954 
C 896 2112 774 2181 666 2181 
C 640 2181 608 2174 589 2168 
C 723 2592 1069 2714 1293 2714 
C 1613 2714 1965 2429 1965 1885 
L 1965 1600 
C 1587 1600 1133 1549 774 1357 
C 371 1133 256 813 256 570 
C 256 77 832 -64 1171 -64 
C 1523 -64 1850 139 1990 511 
C 2003 233 2182 -18 2464 -18 
C 2598 -18 2938 70 2938 567 
L 2938 920 
L 2822 920 
L 2822 562 
C 2822 178 2650 128 2566 128 
C 2304 128 2304 458 2304 738 
L 2304 1653 
z
M 1965 870 
C 1965 317 1568 38 1216 38 
C 896 38 646 275 646 570 
C 646 761 730 1100 1101 1305 
C 1408 1478 1760 1504 1965 1504 
L 1965 870 
z
" transform="scale(0.015625)"/>
       <path id="CMR17-6d" d="M 4326 1933 
C 4326 2252 4269 2790 3507 2790 
C 3072 2790 2771 2496 2656 2151 
L 2650 2151 
C 2573 2676 2195 2790 1837 2790 
C 1331 2790 1069 2400 973 2144 
L 966 2144 
L 966 2790 
L 211 2720 
L 211 2554 
C 589 2554 646 2515 646 2208 
L 646 428 
C 646 184 621 153 211 153 
L 211 -13 
C 365 0 646 0 813 0 
C 979 0 1267 0 1421 -13 
L 1421 153 
C 1011 153 986 178 986 428 
L 986 1658 
C 986 2247 1344 2688 1792 2688 
C 2266 2688 2317 2266 2317 1958 
L 2317 428 
C 2317 184 2291 153 1882 153 
L 1882 -13 
C 2035 0 2317 0 2483 0 
C 2650 0 2938 0 3091 -13 
L 3091 153 
C 2682 153 2656 178 2656 428 
L 2656 1658 
C 2656 2247 3014 2688 3462 2688 
C 3936 2688 3987 2266 3987 1958 
L 3987 428 
C 3987 184 3962 153 3552 153 
L 3552 -13 
C 3706 0 3987 0 4154 0 
C 4320 0 4608 0 4762 -13 
L 4762 153 
C 4352 153 4326 178 4326 428 
L 4326 1933 
z
" transform="scale(0.015625)"/>
       <path id="CMR17-69" d="M 992 3909 
C 992 4049 877 4170 730 4170 
C 589 4170 467 4056 467 3909 
C 467 3769 582 3648 730 3648 
C 870 3648 992 3763 992 3909 
z
M 243 2706 
L 243 2541 
C 602 2541 653 2502 653 2197 
L 653 427 
C 653 184 627 153 218 153 
L 218 -13 
C 371 0 646 0 806 0 
C 960 0 1222 0 1370 -13 
L 1370 153 
C 992 153 979 191 979 420 
L 979 2776 
L 243 2706 
z
" transform="scale(0.015625)"/>
       <path id="CMR17-6e" d="M 2656 1933 
C 2656 2259 2592 2790 1837 2790 
C 1331 2790 1069 2400 973 2144 
L 966 2144 
L 966 2790 
L 211 2720 
L 211 2554 
C 589 2554 646 2515 646 2208 
L 646 428 
C 646 184 621 153 211 153 
L 211 -13 
C 365 0 646 0 813 0 
C 979 0 1267 0 1421 -13 
L 1421 153 
C 1011 153 986 178 986 428 
L 986 1658 
C 986 2247 1344 2688 1792 2688 
C 2266 2688 2317 2266 2317 1958 
L 2317 428 
C 2317 184 2291 153 1882 153 
L 1882 -13 
C 2035 0 2317 0 2483 0 
C 2650 0 2938 0 3091 -13 
L 3091 153 
C 2682 153 2656 178 2656 428 
L 2656 1933 
z
" transform="scale(0.015625)"/>
       <path id="CMR17-67" d="M 710 1164 
C 832 1068 1043 960 1299 960 
C 1805 960 2240 1357 2240 1888 
C 2240 2054 2189 2310 1997 2509 
C 2176 2692 2438 2752 2586 2752 
C 2611 2752 2650 2752 2682 2734 
C 2656 2728 2598 2703 2598 2605 
C 2598 2527 2656 2471 2739 2471 
C 2835 2471 2886 2533 2886 2614 
C 2886 2731 2790 2854 2586 2854 
C 2330 2854 2106 2738 1926 2580 
C 1734 2753 1504 2816 1299 2816 
C 794 2816 358 2419 358 1888 
C 358 1522 570 1292 634 1228 
C 442 1004 442 743 442 711 
C 442 545 506 302 723 168 
C 390 85 128 -169 128 -486 
C 128 -943 736 -1280 1466 -1280 
C 2170 -1280 2803 -956 2803 -479 
C 2803 384 1856 384 1363 384 
C 1216 384 954 384 922 391 
C 723 423 589 602 589 826 
C 589 883 589 1024 710 1164 
z
M 1299 1068 
C 736 1068 736 1760 736 1889 
C 736 2016 736 2708 1299 2708 
C 1862 2708 1862 2016 1862 1889 
C 1862 1760 1862 1068 1299 1068 
z
M 1466 -1171 
C 826 -1171 384 -835 384 -486 
C 384 -289 493 -105 634 -4 
C 794 104 858 104 1293 104 
C 1818 104 2547 104 2547 -486 
C 2547 -835 2106 -1171 1466 -1171 
z
" transform="scale(0.015625)"/>
       <path id="CMR17-44" d="M 333 4352 
L 333 4186 
C 774 4186 845 4186 845 3900 
L 845 452 
C 845 166 774 166 333 166 
L 333 0 
L 2368 0 
C 3398 0 4224 943 4224 2141 
C 4224 3346 3411 4352 2368 4352 
L 333 4352 
z
M 1523 166 
C 1267 166 1254 197 1254 414 
L 1254 3938 
C 1254 4155 1267 4186 1523 4186 
L 2240 4186 
C 2771 4186 3750 3874 3750 2141 
C 3750 1242 3488 879 3366 707 
C 3213 510 2848 166 2240 166 
L 1523 166 
z
" transform="scale(0.015625)"/>
       <path id="CMR17-73" d="M 1978 2697 
C 1978 2813 1971 2819 1933 2819 
C 1907 2819 1901 2813 1824 2717 
C 1805 2691 1747 2626 1728 2601 
C 1523 2819 1235 2819 1126 2819 
C 416 2819 160 2447 160 2076 
C 160 1498 813 1365 998 1325 
C 1402 1243 1542 1217 1677 1101 
C 1760 1025 1901 884 1901 654 
C 1901 384 1747 38 1158 38 
C 602 38 403 460 288 1021 
C 269 1110 269 1117 218 1117 
C 166 1117 160 1110 160 983 
L 160 63 
C 160 -51 166 -58 205 -58 
C 237 -58 243 -51 275 0 
C 314 57 410 211 448 276 
C 576 103 800 -64 1158 -64 
C 1792 -64 2131 283 2131 784 
C 2131 1112 1958 1285 1875 1362 
C 1683 1561 1459 1606 1190 1657 
C 838 1735 390 1825 390 2217 
C 390 2383 480 2737 1126 2737 
C 1811 2737 1850 2094 1862 1888 
C 1869 1856 1901 1849 1920 1849 
C 1978 1849 1978 1869 1978 1978 
L 1978 2697 
z
" transform="scale(0.015625)"/>
       <path id="CMR17-74" d="M 966 2560 
L 1862 2560 
L 1862 2725 
L 966 2725 
L 966 3904 
L 851 3904 
C 838 3245 614 2668 70 2668 
L 70 2560 
L 627 2560 
L 627 771 
C 627 650 627 -64 1370 -64 
C 1747 -64 1965 306 1965 777 
L 1965 1140 
L 1850 1140 
L 1850 783 
C 1850 344 1677 51 1408 51 
C 1222 51 966 178 966 758 
L 966 2560 
z
" transform="scale(0.015625)"/>
       <path id="CMR17-63" d="M 2234 2240 
C 2112 2240 1933 2240 1933 2017 
C 1933 1838 2080 1787 2163 1787 
C 2208 1787 2394 1807 2394 2024 
C 2394 2467 1958 2803 1466 2803 
C 787 2803 211 2178 211 1363 
C 211 516 813 -64 1466 -64 
C 2259 -64 2458 677 2458 748 
C 2458 774 2451 793 2406 793 
C 2362 793 2355 787 2330 703 
C 2163 180 1798 51 1523 51 
C 1114 51 621 427 621 1369 
C 621 2338 1094 2688 1472 2688 
C 1722 2688 2093 2573 2234 2240 
z
" transform="scale(0.015625)"/>
       <path id="CMR17-65" d="M 2438 1472 
C 2464 1498 2464 1511 2464 1576 
C 2464 2238 2118 2816 1389 2816 
C 710 2816 173 2169 173 1383 
C 173 551 781 -64 1459 -64 
C 2176 -64 2458 607 2458 740 
C 2458 784 2419 784 2406 784 
C 2362 784 2355 771 2330 696 
C 2189 265 1837 51 1504 51 
C 1229 51 954 203 781 480 
C 582 803 582 1176 582 1472 
L 2438 1472 
z
M 589 1568 
C 634 2505 1126 2714 1382 2714 
C 1818 2714 2112 2297 2118 1568 
L 589 1568 
z
" transform="scale(0.015625)"/>
      </defs>
      <use xlink:href="#CMR17-48" transform="scale(0.996264)"/>
      <use xlink:href="#CMR17-61" transform="translate(69.07243 0) scale(0.996264)"/>
      <use xlink:href="#CMR17-6d" transform="translate(114.762907 0) scale(0.996264)"/>
      <use xlink:href="#CMR17-6d" transform="translate(191.682497 0) scale(0.996264)"/>
      <use xlink:href="#CMR17-69" transform="translate(268.602087 0) scale(0.996264)"/>
      <use xlink:href="#CMR17-6e" transform="translate(293.473145 0) scale(0.996264)"/>
      <use xlink:href="#CMR17-67" transform="translate(344.368515 0) scale(0.996264)"/>
      <use xlink:href="#CMR17-44" transform="translate(420.134958 0) scale(0.996264)"/>
      <use xlink:href="#CMR17-69" transform="translate(490.528514 0) scale(0.996264)"/>
      <use xlink:href="#CMR17-73" transform="translate(515.399573 0) scale(0.996264)"/>
      <use xlink:href="#CMR17-74" transform="translate(551.20091 0) scale(0.996264)"/>
      <use xlink:href="#CMR17-61" transform="translate(586.481678 0) scale(0.996264)"/>
      <use xlink:href="#CMR17-6e" transform="translate(632.172155 0) scale(0.996264)"/>
      <use xlink:href="#CMR17-63" transform="translate(683.067525 0) scale(0.996264)"/>
      <use xlink:href="#CMR17-65" transform="translate(723.553186 0) scale(0.996264)"/>
     </g>
    </g>
   </g>
  </g>
  <g id="axes_2">
   <g id="patch_8">
    <path d="M 30.554872 281.574738 
L 486.72 281.574738 
L 486.72 148.707369 
L 30.554872 148.707369 
z
" style="fill: #eaeaf2"/>
   </g>
   <g id="matplotlib.axis_3">
    <g id="xtick_10">
     <g id="line2d_16">
      <path d="M 40.656431 281.574738 
L 40.656431 148.707369 
" clip-path="url(#p40a7144a76)" style="fill: none; stroke: #ffffff; stroke-width: 0.8; stroke-linecap: round"/>
     </g>
     <g id="text_6">
      <!-- $\mathdefault{0}$ -->
      <g style="fill: #262626" transform="translate(38.53934 295.40954) scale(0.08 -0.08)">
       <use xlink:href="#CMR17-30" transform="scale(0.996264)"/>
      </g>
     </g>
    </g>
    <g id="xtick_11">
     <g id="line2d_17">
      <path d="M 93.82253 281.574738 
L 93.82253 148.707369 
" clip-path="url(#p40a7144a76)" style="fill: none; stroke: #ffffff; stroke-width: 0.8; stroke-linecap: round"/>
     </g>
     <g id="text_7">
      <!-- $\mathdefault{5}$ -->
      <g style="fill: #262626" transform="translate(91.705438 295.40954) scale(0.08 -0.08)">
       <use xlink:href="#CMR17-35" transform="scale(0.996264)"/>
      </g>
     </g>
    </g>
    <g id="xtick_12">
     <g id="line2d_18">
      <path d="M 146.988629 281.574738 
L 146.988629 148.707369 
" clip-path="url(#p40a7144a76)" style="fill: none; stroke: #ffffff; stroke-width: 0.8; stroke-linecap: round"/>
     </g>
     <g id="text_8">
      <!-- $\mathdefault{10}$ -->
      <g style="fill: #262626" transform="translate(142.754446 295.40954) scale(0.08 -0.08)">
       <defs>
        <path id="CMR17-31" d="M 1702 4058 
C 1702 4192 1696 4192 1606 4192 
C 1357 3916 979 3827 621 3827 
C 602 3827 570 3827 563 3808 
C 557 3795 557 3782 557 3648 
C 755 3648 1088 3686 1344 3839 
L 1344 461 
C 1344 236 1331 160 781 160 
L 589 160 
L 589 0 
C 896 0 1216 0 1523 0 
C 1830 0 2150 0 2458 0 
L 2458 160 
L 2266 160 
C 1715 160 1702 230 1702 458 
L 1702 4058 
z
" transform="scale(0.015625)"/>
       </defs>
       <use xlink:href="#CMR17-31" transform="scale(0.996264)"/>
       <use xlink:href="#CMR17-30" transform="translate(45.690477 0) scale(0.996264)"/>
      </g>
     </g>
    </g>
    <g id="xtick_13">
     <g id="line2d_19">
      <path d="M 200.154728 281.574738 
L 200.154728 148.707369 
" clip-path="url(#p40a7144a76)" style="fill: none; stroke: #ffffff; stroke-width: 0.8; stroke-linecap: round"/>
     </g>
     <g id="text_9">
      <!-- $\mathdefault{15}$ -->
      <g style="fill: #262626" transform="translate(195.920545 295.40954) scale(0.08 -0.08)">
       <use xlink:href="#CMR17-31" transform="scale(0.996264)"/>
       <use xlink:href="#CMR17-35" transform="translate(45.690477 0) scale(0.996264)"/>
      </g>
     </g>
    </g>
    <g id="xtick_14">
     <g id="line2d_20">
      <path d="M 253.320826 281.574738 
L 253.320826 148.707369 
" clip-path="url(#p40a7144a76)" style="fill: none; stroke: #ffffff; stroke-width: 0.8; stroke-linecap: round"/>
     </g>
     <g id="text_10">
      <!-- $\mathdefault{20}$ -->
      <g style="fill: #262626" transform="translate(249.086643 295.40954) scale(0.08 -0.08)">
       <use xlink:href="#CMR17-32" transform="scale(0.996264)"/>
       <use xlink:href="#CMR17-30" transform="translate(45.690477 0) scale(0.996264)"/>
      </g>
     </g>
    </g>
    <g id="xtick_15">
     <g id="line2d_21">
      <path d="M 306.486925 281.574738 
L 306.486925 148.707369 
" clip-path="url(#p40a7144a76)" style="fill: none; stroke: #ffffff; stroke-width: 0.8; stroke-linecap: round"/>
     </g>
     <g id="text_11">
      <!-- $\mathdefault{25}$ -->
      <g style="fill: #262626" transform="translate(302.252742 295.40954) scale(0.08 -0.08)">
       <use xlink:href="#CMR17-32" transform="scale(0.996264)"/>
       <use xlink:href="#CMR17-35" transform="translate(45.690477 0) scale(0.996264)"/>
      </g>
     </g>
    </g>
    <g id="xtick_16">
     <g id="line2d_22">
      <path d="M 359.653024 281.574738 
L 359.653024 148.707369 
" clip-path="url(#p40a7144a76)" style="fill: none; stroke: #ffffff; stroke-width: 0.8; stroke-linecap: round"/>
     </g>
     <g id="text_12">
      <!-- $\mathdefault{30}$ -->
      <g style="fill: #262626" transform="translate(355.418841 295.40954) scale(0.08 -0.08)">
       <defs>
        <path id="CMR17-33" d="M 1414 2157 
C 1984 2157 2234 1662 2234 1090 
C 2234 320 1824 25 1453 25 
C 1114 25 563 194 390 693 
C 422 680 454 680 486 680 
C 640 680 755 782 755 948 
C 755 1133 614 1216 486 1216 
C 378 1216 211 1165 211 926 
C 211 335 787 -128 1466 -128 
C 2176 -128 2720 430 2720 1085 
C 2720 1707 2208 2157 1600 2227 
C 2086 2328 2554 2756 2554 3329 
C 2554 3820 2048 4179 1472 4179 
C 890 4179 378 3829 378 3329 
C 378 3110 544 3072 627 3072 
C 762 3072 877 3155 877 3321 
C 877 3486 762 3569 627 3569 
C 602 3569 570 3569 544 3557 
C 730 3959 1235 4032 1459 4032 
C 1683 4032 2106 3925 2106 3320 
C 2106 3143 2080 2828 1862 2550 
C 1670 2304 1453 2304 1242 2284 
C 1210 2284 1062 2269 1037 2269 
C 992 2263 966 2257 966 2208 
C 966 2163 973 2157 1101 2157 
L 1414 2157 
z
" transform="scale(0.015625)"/>
       </defs>
       <use xlink:href="#CMR17-33" transform="scale(0.996264)"/>
       <use xlink:href="#CMR17-30" transform="translate(45.690477 0) scale(0.996264)"/>
      </g>
     </g>
    </g>
    <g id="xtick_17">
     <g id="line2d_23">
      <path d="M 412.819123 281.574738 
L 412.819123 148.707369 
" clip-path="url(#p40a7144a76)" style="fill: none; stroke: #ffffff; stroke-width: 0.8; stroke-linecap: round"/>
     </g>
     <g id="text_13">
      <!-- $\mathdefault{35}$ -->
      <g style="fill: #262626" transform="translate(408.58494 295.40954) scale(0.08 -0.08)">
       <use xlink:href="#CMR17-33" transform="scale(0.996264)"/>
       <use xlink:href="#CMR17-35" transform="translate(45.690477 0) scale(0.996264)"/>
      </g>
     </g>
    </g>
    <g id="xtick_18">
     <g id="line2d_24">
      <path d="M 465.985221 281.574738 
L 465.985221 148.707369 
" clip-path="url(#p40a7144a76)" style="fill: none; stroke: #ffffff; stroke-width: 0.8; stroke-linecap: round"/>
     </g>
     <g id="text_14">
      <!-- $\mathdefault{40}$ -->
      <g style="fill: #262626" transform="translate(461.751039 295.40954) scale(0.08 -0.08)">
       <use xlink:href="#CMR17-34" transform="scale(0.996264)"/>
       <use xlink:href="#CMR17-30" transform="translate(45.690477 0) scale(0.996264)"/>
      </g>
     </g>
    </g>
   </g>
   <g id="matplotlib.axis_4">
    <g id="ytick_5">
     <g id="line2d_25">
      <path d="M 30.554872 256.80528 
L 486.72 256.80528 
" clip-path="url(#p40a7144a76)" style="fill: none; stroke: #ffffff; stroke-width: 0.8; stroke-linecap: round"/>
     </g>
     <g id="text_15">
      <!-- $\mathdefault{0.02}$ -->
      <g style="fill: #262626" transform="translate(7.2 259.57268) scale(0.08 -0.08)">
       <use xlink:href="#CMR17-30" transform="scale(0.996264)"/>
       <use xlink:href="#CMMI12-3a" transform="translate(45.690477 0) scale(0.996264)"/>
       <use xlink:href="#CMR17-30" transform="translate(72.787654 0) scale(0.996264)"/>
       <use xlink:href="#CMR17-32" transform="translate(118.478131 0) scale(0.996264)"/>
      </g>
     </g>
    </g>
    <g id="ytick_6">
     <g id="line2d_26">
      <path d="M 30.554872 231.161143 
L 486.72 231.161143 
" clip-path="url(#p40a7144a76)" style="fill: none; stroke: #ffffff; stroke-width: 0.8; stroke-linecap: round"/>
     </g>
     <g id="text_16">
      <!-- $\mathdefault{0.03}$ -->
      <g style="fill: #262626" transform="translate(7.2 233.928543) scale(0.08 -0.08)">
       <use xlink:href="#CMR17-30" transform="scale(0.996264)"/>
       <use xlink:href="#CMMI12-3a" transform="translate(45.690477 0) scale(0.996264)"/>
       <use xlink:href="#CMR17-30" transform="translate(72.787654 0) scale(0.996264)"/>
       <use xlink:href="#CMR17-33" transform="translate(118.478131 0) scale(0.996264)"/>
      </g>
     </g>
    </g>
    <g id="ytick_7">
     <g id="line2d_27">
      <path d="M 30.554872 205.517006 
L 486.72 205.517006 
" clip-path="url(#p40a7144a76)" style="fill: none; stroke: #ffffff; stroke-width: 0.8; stroke-linecap: round"/>
     </g>
     <g id="text_17">
      <!-- $\mathdefault{0.04}$ -->
      <g style="fill: #262626" transform="translate(7.2 208.284406) scale(0.08 -0.08)">
       <use xlink:href="#CMR17-30" transform="scale(0.996264)"/>
       <use xlink:href="#CMMI12-3a" transform="translate(45.690477 0) scale(0.996264)"/>
       <use xlink:href="#CMR17-30" transform="translate(72.787654 0) scale(0.996264)"/>
       <use xlink:href="#CMR17-34" transform="translate(118.478131 0) scale(0.996264)"/>
      </g>
     </g>
    </g>
    <g id="ytick_8">
     <g id="line2d_28">
      <path d="M 30.554872 179.872869 
L 486.72 179.872869 
" clip-path="url(#p40a7144a76)" style="fill: none; stroke: #ffffff; stroke-width: 0.8; stroke-linecap: round"/>
     </g>
     <g id="text_18">
      <!-- $\mathdefault{0.05}$ -->
      <g style="fill: #262626" transform="translate(7.2 182.640269) scale(0.08 -0.08)">
       <use xlink:href="#CMR17-30" transform="scale(0.996264)"/>
       <use xlink:href="#CMMI12-3a" transform="translate(45.690477 0) scale(0.996264)"/>
       <use xlink:href="#CMR17-30" transform="translate(72.787654 0) scale(0.996264)"/>
       <use xlink:href="#CMR17-35" transform="translate(118.478131 0) scale(0.996264)"/>
      </g>
     </g>
    </g>
    <g id="ytick_9">
     <g id="line2d_29">
      <path d="M 30.554872 154.228732 
L 486.72 154.228732 
" clip-path="url(#p40a7144a76)" style="fill: none; stroke: #ffffff; stroke-width: 0.8; stroke-linecap: round"/>
     </g>
     <g id="text_19">
      <!-- $\mathdefault{0.06}$ -->
      <g style="fill: #262626" transform="translate(7.2 156.996132) scale(0.08 -0.08)">
       <use xlink:href="#CMR17-30" transform="scale(0.996264)"/>
       <use xlink:href="#CMMI12-3a" transform="translate(45.690477 0) scale(0.996264)"/>
       <use xlink:href="#CMR17-30" transform="translate(72.787654 0) scale(0.996264)"/>
       <use xlink:href="#CMR17-36" transform="translate(118.478131 0) scale(0.996264)"/>
      </g>
     </g>
    </g>
   </g>
   <g id="line2d_30">
    <defs>
     <path id="m5044893f12" d="M 0 1.5 
C 0.397805 1.5 0.77937 1.341951 1.06066 1.06066 
C 1.341951 0.77937 1.5 0.397805 1.5 0 
C 1.5 -0.397805 1.341951 -0.77937 1.06066 -1.06066 
C 0.77937 -1.341951 0.397805 -1.5 0 -1.5 
C -0.397805 -1.5 -0.77937 -1.341951 -1.06066 -1.06066 
C -1.341951 -0.77937 -1.5 -0.397805 -1.5 0 
C -1.5 0.397805 -1.341951 0.77937 -1.06066 1.06066 
C -0.77937 1.341951 -0.397805 1.5 0 1.5 
z
" style="stroke: #dd8452"/>
    </defs>
    <g clip-path="url(#p40a7144a76)">
     <use xlink:href="#m5044893f12" x="210.787947" y="264.955372" style="fill: #dd8452; stroke: #dd8452"/>
     <use xlink:href="#m5044893f12" x="232.054387" y="266.764559" style="fill: #dd8452; stroke: #dd8452"/>
     <use xlink:href="#m5044893f12" x="242.687607" y="262.28449" style="fill: #dd8452; stroke: #dd8452"/>
     <use xlink:href="#m5044893f12" x="253.320826" y="253.796527" style="fill: #dd8452; stroke: #dd8452"/>
     <use xlink:href="#m5044893f12" x="274.587266" y="255.992136" style="fill: #dd8452; stroke: #dd8452"/>
     <use xlink:href="#m5044893f12" x="285.220486" y="256.9681" style="fill: #dd8452; stroke: #dd8452"/>
     <use xlink:href="#m5044893f12" x="295.853705" y="268.58578" style="fill: #dd8452; stroke: #dd8452"/>
     <use xlink:href="#m5044893f12" x="306.486925" y="251.19202" style="fill: #dd8452; stroke: #dd8452"/>
     <use xlink:href="#m5044893f12" x="317.120145" y="250.966565" style="fill: #dd8452; stroke: #dd8452"/>
     <use xlink:href="#m5044893f12" x="327.753365" y="275.535312" style="fill: #dd8452; stroke: #dd8452"/>
     <use xlink:href="#m5044893f12" x="338.386584" y="259.275474" style="fill: #dd8452; stroke: #dd8452"/>
     <use xlink:href="#m5044893f12" x="349.019804" y="154.746795" style="fill: #dd8452; stroke: #dd8452"/>
     <use xlink:href="#m5044893f12" x="359.653024" y="248.482182" style="fill: #dd8452; stroke: #dd8452"/>
     <use xlink:href="#m5044893f12" x="370.286244" y="263.734831" style="fill: #dd8452; stroke: #dd8452"/>
     <use xlink:href="#m5044893f12" x="380.919463" y="269.675371" style="fill: #dd8452; stroke: #dd8452"/>
     <use xlink:href="#m5044893f12" x="391.552683" y="263.879524" style="fill: #dd8452; stroke: #dd8452"/>
     <use xlink:href="#m5044893f12" x="402.185903" y="254.219316" style="fill: #dd8452; stroke: #dd8452"/>
     <use xlink:href="#m5044893f12" x="412.819123" y="264.386238" style="fill: #dd8452; stroke: #dd8452"/>
     <use xlink:href="#m5044893f12" x="423.452342" y="263.459771" style="fill: #dd8452; stroke: #dd8452"/>
     <use xlink:href="#m5044893f12" x="434.085562" y="265.396023" style="fill: #dd8452; stroke: #dd8452"/>
     <use xlink:href="#m5044893f12" x="444.718782" y="255.905485" style="fill: #dd8452; stroke: #dd8452"/>
     <use xlink:href="#m5044893f12" x="455.352002" y="259.672562" style="fill: #dd8452; stroke: #dd8452"/>
     <use xlink:href="#m5044893f12" x="465.985221" y="247.896049" style="fill: #dd8452; stroke: #dd8452"/>
     <use xlink:href="#m5044893f12" x="51.289651" y="260.500318" style="fill: #dd8452; stroke: #dd8452"/>
     <use xlink:href="#m5044893f12" x="61.922871" y="258.324415" style="fill: #dd8452; stroke: #dd8452"/>
     <use xlink:href="#m5044893f12" x="72.55609" y="260.083475" style="fill: #dd8452; stroke: #dd8452"/>
     <use xlink:href="#m5044893f12" x="83.18931" y="259.680647" style="fill: #dd8452; stroke: #dd8452"/>
     <use xlink:href="#m5044893f12" x="93.82253" y="256.69688" style="fill: #dd8452; stroke: #dd8452"/>
     <use xlink:href="#m5044893f12" x="104.45575" y="260.713467" style="fill: #dd8452; stroke: #dd8452"/>
     <use xlink:href="#m5044893f12" x="115.088969" y="263.413009" style="fill: #dd8452; stroke: #dd8452"/>
     <use xlink:href="#m5044893f12" x="125.722189" y="262.376986" style="fill: #dd8452; stroke: #dd8452"/>
     <use xlink:href="#m5044893f12" x="136.355409" y="264.683416" style="fill: #dd8452; stroke: #dd8452"/>
     <use xlink:href="#m5044893f12" x="146.988629" y="249.083744" style="fill: #dd8452; stroke: #dd8452"/>
     <use xlink:href="#m5044893f12" x="157.621848" y="261.366937" style="fill: #dd8452; stroke: #dd8452"/>
     <use xlink:href="#m5044893f12" x="168.255068" y="262.223811" style="fill: #dd8452; stroke: #dd8452"/>
     <use xlink:href="#m5044893f12" x="178.888288" y="257.183706" style="fill: #dd8452; stroke: #dd8452"/>
     <use xlink:href="#m5044893f12" x="189.521508" y="259.877961" style="fill: #dd8452; stroke: #dd8452"/>
     <use xlink:href="#m5044893f12" x="200.154728" y="252.989987" style="fill: #dd8452; stroke: #dd8452"/>
     <use xlink:href="#m5044893f12" x="221.421167" y="262.571417" style="fill: #dd8452; stroke: #dd8452"/>
     <use xlink:href="#m5044893f12" x="263.954046" y="263.224572" style="fill: #dd8452; stroke: #dd8452"/>
    </g>
   </g>
   <g id="patch_9">
    <path d="M 30.554872 281.574738 
L 30.554872 148.707369 
" style="fill: none; stroke: #ffffff; stroke-linejoin: miter; stroke-linecap: square"/>
   </g>
   <g id="patch_10">
    <path d="M 486.72 281.574738 
L 486.72 148.707369 
" style="fill: none; stroke: #ffffff; stroke-linejoin: miter; stroke-linecap: square"/>
   </g>
   <g id="patch_11">
    <path d="M 30.554872 281.574738 
L 486.72 281.574738 
" style="fill: none; stroke: #ffffff; stroke-linejoin: miter; stroke-linecap: square"/>
   </g>
   <g id="patch_12">
    <path d="M 30.554872 148.707369 
L 486.72 148.707369 
" style="fill: none; stroke: #ffffff; stroke-linejoin: miter; stroke-linecap: square"/>
   </g>
   <g id="legend_2">
    <g id="patch_13">
     <path d="M 378.136847 166.257115 
L 481.12 166.257115 
Q 482.72 166.257115 482.72 164.657115 
L 482.72 154.307369 
Q 482.72 152.707369 481.12 152.707369 
L 378.136847 152.707369 
Q 376.536847 152.707369 376.536847 154.307369 
L 376.536847 164.657115 
Q 376.536847 166.257115 378.136847 166.257115 
z
" style="fill: #eaeaf2; opacity: 0.8; stroke: #cccccc; stroke-width: 0.8; stroke-linejoin: miter"/>
    </g>
    <g id="line2d_31">
     <g>
      <use xlink:href="#m5044893f12" x="387.736847" y="158.707369" style="fill: #dd8452; stroke: #dd8452"/>
     </g>
    </g>
    <g id="text_20">
     <!-- Index of Coincidence -->
     <g style="fill: #262626" transform="translate(402.136847 161.507369) scale(0.08 -0.08)">
      <defs>
       <path id="CMR17-49" d="M 1261 3905 
C 1261 4192 1338 4192 1798 4192 
L 1798 4352 
C 1594 4352 1267 4352 1050 4352 
C 832 4352 506 4352 301 4352 
L 301 4192 
C 762 4192 838 4192 838 3905 
L 838 447 
C 838 160 762 160 301 160 
L 301 0 
C 506 0 832 0 1050 0 
C 1267 0 1594 0 1798 0 
L 1798 160 
C 1338 160 1261 160 1261 447 
L 1261 3905 
z
" transform="scale(0.015625)"/>
       <path id="CMR17-64" d="M 1869 4326 
L 1869 4160 
C 2246 4160 2304 4122 2304 3820 
L 2304 2345 
C 2278 2377 2016 2790 1498 2790 
C 845 2790 211 2208 211 1364 
C 211 525 806 -64 1434 -64 
C 1978 -64 2259 337 2291 380 
L 2291 -63 
L 3066 -63 
L 3066 128 
C 2688 128 2630 166 2630 473 
L 2630 4396 
L 1869 4326 
z
M 2291 755 
C 2291 563 2176 390 2029 262 
C 1811 70 1594 38 1472 38 
C 1286 38 621 134 621 1356 
C 621 2612 1363 2688 1530 2688 
C 1824 2688 2061 2522 2208 2291 
C 2291 2157 2291 2138 2291 2023 
L 2291 755 
z
" transform="scale(0.015625)"/>
       <path id="CMR17-78" d="M 1664 1477 
C 1856 1726 2074 2006 2253 2216 
C 2464 2458 2707 2560 2989 2560 
L 2989 2726 
C 2880 2726 2656 2726 2541 2726 
C 2368 2726 2170 2726 2022 2732 
L 2022 2566 
C 2112 2553 2163 2489 2163 2400 
C 2163 2285 2099 2215 2067 2171 
L 1594 1573 
L 1030 2306 
C 973 2376 973 2388 973 2420 
C 973 2497 1037 2560 1146 2560 
L 1146 2732 
C 992 2726 717 2726 557 2726 
C 384 2726 179 2726 38 2732 
L 38 2560 
C 384 2560 461 2534 614 2343 
L 1350 1395 
C 1363 1382 1395 1344 1395 1325 
C 1395 1299 838 619 768 530 
C 480 185 179 160 6 160 
L 6 0 
C 115 0 339 0 454 0 
C 582 0 864 0 979 -6 
L 979 160 
C 941 166 838 179 838 325 
C 838 440 890 510 947 586 
L 1478 1236 
L 2035 512 
C 2086 442 2163 346 2163 301 
C 2163 211 2086 160 1984 160 
L 1984 -6 
C 2138 0 2413 0 2573 0 
C 2746 0 2950 0 3091 -6 
L 3091 160 
C 2771 160 2675 172 2522 370 
L 1664 1477 
z
" transform="scale(0.015625)"/>
       <path id="CMR17-6f" d="M 2758 1356 
C 2758 2176 2163 2816 1466 2816 
C 768 2816 173 2176 173 1356 
C 173 551 768 -64 1466 -64 
C 2163 -64 2758 551 2758 1356 
z
M 1466 51 
C 1165 51 909 230 762 480 
C 602 767 582 1126 582 1408 
C 582 1677 595 2010 762 2298 
C 890 2509 1139 2714 1466 2714 
C 1754 2714 1997 2554 2150 2330 
C 2349 2029 2349 1607 2349 1408 
C 2349 1158 2336 775 2163 467 
C 1984 173 1709 51 1466 51 
z
" transform="scale(0.015625)"/>
       <path id="CMR17-66" d="M 979 2560 
L 1709 2560 
L 1709 2725 
L 966 2725 
L 966 3494 
C 966 4022 1235 4352 1510 4352 
C 1594 4352 1690 4327 1754 4282 
C 1702 4269 1568 4225 1568 4067 
C 1568 3901 1696 3850 1786 3850 
C 1875 3850 2003 3901 2003 4067 
C 2003 4308 1773 4454 1517 4454 
C 1152 4454 653 4156 653 3481 
L 653 2725 
L 141 2725 
L 141 2560 
L 653 2560 
L 653 427 
C 653 184 627 153 218 153 
L 218 -13 
C 371 0 666 0 832 0 
C 1018 0 1344 0 1517 -13 
L 1517 153 
C 1056 153 979 153 979 439 
L 979 2560 
z
" transform="scale(0.015625)"/>
       <path id="CMR17-43" d="M 3974 4289 
C 3974 4403 3968 4410 3930 4410 
C 3904 4410 3898 4403 3853 4327 
L 3571 3792 
C 3258 4187 2874 4416 2381 4416 
C 1286 4416 294 3456 294 2148 
C 294 826 1286 -128 2387 -128 
C 3366 -128 3974 730 3974 1461 
C 3974 1524 3974 1550 3917 1550 
C 3866 1550 3866 1531 3859 1474 
C 3808 585 3168 38 2477 38 
C 1824 38 781 495 781 2147 
C 781 3805 1843 4250 2464 4250 
C 3187 4250 3712 3628 3834 2745 
C 3846 2668 3846 2655 3904 2655 
C 3974 2655 3974 2668 3974 2783 
L 3974 4289 
z
" transform="scale(0.015625)"/>
      </defs>
      <use xlink:href="#CMR17-49" transform="scale(0.996264)"/>
      <use xlink:href="#CMR17-6e" transform="translate(32.638409 0) scale(0.996264)"/>
      <use xlink:href="#CMR17-64" transform="translate(83.533779 0) scale(0.996264)"/>
      <use xlink:href="#CMR17-65" transform="translate(134.429149 0) scale(0.996264)"/>
      <use xlink:href="#CMR17-78" transform="translate(174.914809 0) scale(0.996264)"/>
      <use xlink:href="#CMR17-6f" transform="translate(253.283691 0) scale(0.996264)"/>
      <use xlink:href="#CMR17-66" transform="translate(298.974169 0) scale(0.996264)"/>
      <use xlink:href="#CMR17-43" transform="translate(356.523647 0) scale(0.996264)"/>
      <use xlink:href="#CMR17-6f" transform="translate(423.033528 0) scale(0.996264)"/>
      <use xlink:href="#CMR17-69" transform="translate(468.724005 0) scale(0.996264)"/>
      <use xlink:href="#CMR17-6e" transform="translate(493.595063 0) scale(0.996264)"/>
      <use xlink:href="#CMR17-63" transform="translate(544.490433 0) scale(0.996264)"/>
      <use xlink:href="#CMR17-69" transform="translate(584.976094 0) scale(0.996264)"/>
      <use xlink:href="#CMR17-64" transform="translate(609.847152 0) scale(0.996264)"/>
      <use xlink:href="#CMR17-65" transform="translate(660.742522 0) scale(0.996264)"/>
      <use xlink:href="#CMR17-6e" transform="translate(701.228182 0) scale(0.996264)"/>
      <use xlink:href="#CMR17-63" transform="translate(752.123552 0) scale(0.996264)"/>
      <use xlink:href="#CMR17-65" transform="translate(792.609213 0) scale(0.996264)"/>
     </g>
    </g>
   </g>
  </g>
 </g>
 <defs>
  <clipPath id="p6c01f4028d">
   <rect x="30.554872" y="7.2" width="456.165128" height="132.867369"/>
  </clipPath>
  <clipPath id="p40a7144a76">
   <rect x="30.554872" y="148.707369" width="456.165128" height="132.867369"/>
  </clipPath>
 </defs>
</svg>
