<?xml version="1.0" encoding="UTF-8" standalone="no"?>
<!DOCTYPE svg PUBLIC "-//W3C//DTD SVG 1.1//EN"
 "http://www.w3.org/Graphics/SVG/1.1/DTD/svg11.dtd">
<!-- Generated by graphviz version 2.40.1 (20161225.0304)
 -->
<!-- Title: G Pages: 1 -->
<svg width="378pt" height="260pt"
 viewBox="0.00 0.00 378.00 260.00" xmlns="http://www.w3.org/2000/svg" xmlns:xlink="http://www.w3.org/1999/xlink">
<g id="graph0" class="graph" transform="scale(1 1) rotate(0) translate(4 256)">
<title>G</title>
<polygon fill="#ffffff" stroke="transparent" points="-4,4 -4,-256 374,-256 374,4 -4,4"/>
<!-- g1 -->
<g id="node1" class="node">
<title>g1</title>
<ellipse fill="none" stroke="#000000" cx="99" cy="-234" rx="27" ry="18"/>
<text text-anchor="middle" x="99" y="-230.3" font-family="Times,serif" font-size="14.00" fill="#000000">g1</text>
</g>
<!-- g6 -->
<g id="node6" class="node">
<title>g6</title>
<ellipse fill="none" stroke="#000000" cx="84" cy="-162" rx="27" ry="18"/>
<text text-anchor="middle" x="84" y="-158.3" font-family="Times,serif" font-size="14.00" fill="#000000">g6</text>
</g>
<!-- g1&#45;&gt;g6 -->
<g id="edge1" class="edge">
<title>g1&#45;&gt;g6</title>
<path fill="none" stroke="#000000" d="M95.2149,-215.8314C93.568,-207.9266 91.6015,-198.4872 89.7784,-189.7365"/>
<polygon fill="#000000" stroke="#000000" points="93.198,-188.9894 87.732,-179.9134 86.3452,-190.4171 93.198,-188.9894"/>
</g>
<!-- g2 -->
<g id="node2" class="node">
<title>g2</title>
<ellipse fill="none" stroke="#000000" cx="27" cy="-234" rx="27" ry="18"/>
<text text-anchor="middle" x="27" y="-230.3" font-family="Times,serif" font-size="14.00" fill="#000000">g2</text>
</g>
<!-- g2&#45;&gt;g6 -->
<g id="edge2" class="edge">
<title>g2&#45;&gt;g6</title>
<path fill="none" stroke="#000000" d="M39.6501,-218.0209C47.1035,-208.6061 56.6775,-196.5126 65.0214,-185.973"/>
<polygon fill="#000000" stroke="#000000" points="67.9223,-187.9474 71.3852,-177.9345 62.434,-183.6025 67.9223,-187.9474"/>
</g>
<!-- g3 -->
<g id="node3" class="node">
<title>g3</title>
<ellipse fill="none" stroke="#000000" cx="199" cy="-234" rx="27" ry="18"/>
<text text-anchor="middle" x="199" y="-230.3" font-family="Times,serif" font-size="14.00" fill="#000000">g3</text>
</g>
<!-- g7 -->
<g id="node7" class="node">
<title>g7</title>
<ellipse fill="none" stroke="#000000" cx="199" cy="-162" rx="27" ry="18"/>
<text text-anchor="middle" x="199" y="-158.3" font-family="Times,serif" font-size="14.00" fill="#000000">g7</text>
</g>
<!-- g3&#45;&gt;g7 -->
<g id="edge3" class="edge">
<title>g3&#45;&gt;g7</title>
<path fill="none" stroke="#000000" d="M199,-215.8314C199,-208.131 199,-198.9743 199,-190.4166"/>
<polygon fill="#000000" stroke="#000000" points="202.5001,-190.4132 199,-180.4133 195.5001,-190.4133 202.5001,-190.4132"/>
</g>
<!-- g8 -->
<g id="node8" class="node">
<title>g8</title>
<ellipse fill="none" stroke="#000000" cx="271" cy="-162" rx="27" ry="18"/>
<text text-anchor="middle" x="271" y="-158.3" font-family="Times,serif" font-size="14.00" fill="#000000">g8</text>
</g>
<!-- g3&#45;&gt;g8 -->
<g id="edge4" class="edge">
<title>g3&#45;&gt;g8</title>
<path fill="none" stroke="#000000" d="M214.2693,-218.7307C224.197,-208.803 237.3153,-195.6847 248.4363,-184.5637"/>
<polygon fill="#000000" stroke="#000000" points="251.1564,-186.7933 255.7527,-177.2473 246.2067,-181.8436 251.1564,-186.7933"/>
</g>
<!-- g4 -->
<g id="node4" class="node">
<title>g4</title>
<ellipse fill="none" stroke="#000000" cx="271" cy="-234" rx="27" ry="18"/>
<text text-anchor="middle" x="271" y="-230.3" font-family="Times,serif" font-size="14.00" fill="#000000">g4</text>
</g>
<!-- g4&#45;&gt;g7 -->
<g id="edge5" class="edge">
<title>g4&#45;&gt;g7</title>
<path fill="none" stroke="#000000" d="M255.7307,-218.7307C245.803,-208.803 232.6847,-195.6847 221.5637,-184.5637"/>
<polygon fill="#000000" stroke="#000000" points="223.7933,-181.8436 214.2473,-177.2473 218.8436,-186.7933 223.7933,-181.8436"/>
</g>
<!-- g4&#45;&gt;g8 -->
<g id="edge6" class="edge">
<title>g4&#45;&gt;g8</title>
<path fill="none" stroke="#000000" d="M271,-215.8314C271,-208.131 271,-198.9743 271,-190.4166"/>
<polygon fill="#000000" stroke="#000000" points="274.5001,-190.4132 271,-180.4133 267.5001,-190.4133 274.5001,-190.4132"/>
</g>
<!-- g5 -->
<g id="node5" class="node">
<title>g5</title>
<ellipse fill="none" stroke="#000000" cx="343" cy="-234" rx="27" ry="18"/>
<text text-anchor="middle" x="343" y="-230.3" font-family="Times,serif" font-size="14.00" fill="#000000">g5</text>
</g>
<!-- g14 -->
<g id="node9" class="node">
<title>g14</title>
<ellipse fill="none" stroke="#000000" cx="308" cy="-18" rx="28.6953" ry="18"/>
<text text-anchor="middle" x="308" y="-14.3" font-family="Times,serif" font-size="14.00" fill="#000000">g14</text>
</g>
<!-- g5&#45;&gt;g14 -->
<g id="edge7" class="edge">
<title>g5&#45;&gt;g14</title>
<path fill="none" stroke="#000000" d="M340.0761,-215.9555C333.9769,-178.3144 319.859,-91.1867 312.5572,-46.1246"/>
<polygon fill="#000000" stroke="#000000" points="315.9947,-45.4565 310.9402,-36.1451 309.0848,-46.5762 315.9947,-45.4565"/>
</g>
<!-- g9 -->
<g id="node10" class="node">
<title>g9</title>
<ellipse fill="none" stroke="#000000" cx="125" cy="-90" rx="27" ry="18"/>
<text text-anchor="middle" x="125" y="-86.3" font-family="Times,serif" font-size="14.00" fill="#000000">g9</text>
</g>
<!-- g6&#45;&gt;g9 -->
<g id="edge8" class="edge">
<title>g6&#45;&gt;g9</title>
<path fill="none" stroke="#000000" d="M93.7164,-144.937C98.6693,-136.2393 104.7961,-125.4799 110.3113,-115.7948"/>
<polygon fill="#000000" stroke="#000000" points="113.4463,-117.3623 115.3533,-106.9405 107.3634,-113.8984 113.4463,-117.3623"/>
</g>
<!-- g12 -->
<g id="node11" class="node">
<title>g12</title>
<ellipse fill="none" stroke="#000000" cx="118" cy="-18" rx="28.6953" ry="18"/>
<text text-anchor="middle" x="118" y="-14.3" font-family="Times,serif" font-size="14.00" fill="#000000">g12</text>
</g>
<!-- g6&#45;&gt;g12 -->
<g id="edge9" class="edge">
<title>g6&#45;&gt;g12</title>
<path fill="none" stroke="#000000" d="M82.7221,-143.6921C81.9626,-125.2338 82.2209,-96.1034 89,-72 91.7506,-62.2202 96.4827,-52.2248 101.336,-43.5346"/>
<polygon fill="#000000" stroke="#000000" points="104.4887,-45.0791 106.5618,-34.6891 98.4618,-41.5185 104.4887,-45.0791"/>
</g>
<!-- g10 -->
<g id="node12" class="node">
<title>g10</title>
<ellipse fill="none" stroke="#000000" cx="199" cy="-90" rx="28.6953" ry="18"/>
<text text-anchor="middle" x="199" y="-86.3" font-family="Times,serif" font-size="14.00" fill="#000000">g10</text>
</g>
<!-- g7&#45;&gt;g10 -->
<g id="edge10" class="edge">
<title>g7&#45;&gt;g10</title>
<path fill="none" stroke="#000000" d="M199,-143.8314C199,-136.131 199,-126.9743 199,-118.4166"/>
<polygon fill="#000000" stroke="#000000" points="202.5001,-118.4132 199,-108.4133 195.5001,-118.4133 202.5001,-118.4132"/>
</g>
<!-- g11 -->
<g id="node13" class="node">
<title>g11</title>
<ellipse fill="none" stroke="#000000" cx="274" cy="-90" rx="28.6953" ry="18"/>
<text text-anchor="middle" x="274" y="-86.3" font-family="Times,serif" font-size="14.00" fill="#000000">g11</text>
</g>
<!-- g7&#45;&gt;g11 -->
<g id="edge11" class="edge">
<title>g7&#45;&gt;g11</title>
<path fill="none" stroke="#000000" d="M214.54,-147.0816C225.0286,-137.0125 239.0559,-123.5463 250.852,-112.2221"/>
<polygon fill="#000000" stroke="#000000" points="253.4318,-114.5973 258.2218,-105.147 248.5841,-109.5475 253.4318,-114.5973"/>
</g>
<!-- g13 -->
<g id="node14" class="node">
<title>g13</title>
<ellipse fill="none" stroke="#000000" cx="220" cy="-18" rx="28.6953" ry="18"/>
<text text-anchor="middle" x="220" y="-14.3" font-family="Times,serif" font-size="14.00" fill="#000000">g13</text>
</g>
<!-- g9&#45;&gt;g13 -->
<g id="edge12" class="edge">
<title>g9&#45;&gt;g13</title>
<path fill="none" stroke="#000000" d="M142.8688,-76.4574C157.1491,-65.6344 177.3785,-50.3026 193.5374,-38.0559"/>
<polygon fill="#000000" stroke="#000000" points="195.7077,-40.8027 201.5634,-31.973 191.4796,-35.2239 195.7077,-40.8027"/>
</g>
<!-- g10&#45;&gt;g12 -->
<g id="edge13" class="edge">
<title>g10&#45;&gt;g12</title>
<path fill="none" stroke="#000000" d="M182.2167,-75.0816C170.7045,-64.8484 155.2447,-51.1064 142.3789,-39.6701"/>
<polygon fill="#000000" stroke="#000000" points="144.5612,-36.9271 134.7618,-32.8993 139.9106,-42.1589 144.5612,-36.9271"/>
</g>
<!-- g11&#45;&gt;g14 -->
<g id="edge15" class="edge">
<title>g11&#45;&gt;g14</title>
<path fill="none" stroke="#000000" d="M282.2305,-72.5708C286.1979,-64.1691 291.0429,-53.9091 295.4567,-44.5623"/>
<polygon fill="#000000" stroke="#000000" points="298.7401,-45.8057 299.8453,-35.2687 292.4104,-42.8166 298.7401,-45.8057"/>
</g>
<!-- g11&#45;&gt;g13 -->
<g id="edge14" class="edge">
<title>g11&#45;&gt;g13</title>
<path fill="none" stroke="#000000" d="M261.7466,-73.6621C254.9396,-64.5861 246.3287,-53.1049 238.6979,-42.9306"/>
<polygon fill="#000000" stroke="#000000" points="241.3797,-40.6729 232.5797,-34.7729 235.7797,-44.8729 241.3797,-40.6729"/>
</g>
</g>
</svg>
