<?xml version="1.0" encoding="UTF-8" standalone="no"?><svg xmlns="http://www.w3.org/2000/svg" xmlns:xlink="http://www.w3.org/1999/xlink" contentScriptType="application/ecmascript" contentStyleType="text/css" height="530px" preserveAspectRatio="none" style="width:303px;height:530px;" version="1.1" viewBox="0 0 303 530" width="303px" zoomAndPan="magnify"><defs><filter height="300%" id="f1ix9uk22kr4qs" width="300%" x="-1" y="-1"><feGaussianBlur result="blurOut" stdDeviation="2.0"/><feColorMatrix in="blurOut" result="blurOut2" type="matrix" values="0 0 0 0 0 0 0 0 0 0 0 0 0 0 0 0 0 0 .4 0"/><feOffset dx="4.0" dy="4.0" in="blurOut2" result="blurOut3"/><feBlend in="SourceGraphic" in2="blurOut3" mode="normal"/></filter></defs><g><!--cluster app1--><rect fill="#FEFECE" filter="url(#f1ix9uk22kr4qs)" height="218" rx="12.5" ry="12.5" style="stroke: #A80036; stroke-width: 1.5;" width="66" x="115" y="16"/><rect fill="#FFFFFF" height="185.7031" rx="12.5" ry="12.5" style="stroke: #FFFFFF; stroke-width: 1.0;" width="60" x="118" y="45.2969"/><line style="stroke: #A80036; stroke-width: 1.5;" x1="115" x2="181" y1="42.2969" y2="42.2969"/><text fill="#000000" font-family="sans-serif" font-size="14" lengthAdjust="spacingAndGlyphs" textLength="48" x="124" y="32.9951">AppVM</text><!--cluster proxy1--><rect fill="#FEFECE" filter="url(#f1ix9uk22kr4qs)" height="238" rx="12.5" ry="12.5" style="stroke: #A80036; stroke-width: 1.5;" width="191" x="14" y="281"/><rect fill="#FFFFFF" height="205.7031" rx="12.5" ry="12.5" style="stroke: #FFFFFF; stroke-width: 1.0;" width="185" x="17" y="310.2969"/><line style="stroke: #A80036; stroke-width: 1.5;" x1="14" x2="205" y1="307.2969" y2="307.2969"/><text fill="#000000" font-family="sans-serif" font-size="14" lengthAdjust="spacingAndGlyphs" textLength="58" x="80.5" y="297.9951">ProxyVM</text><rect fill="#FEFECE" filter="url(#f1ix9uk22kr4qs)" height="40" rx="12.5" ry="12.5" style="stroke: #A80036; stroke-width: 1.5;" width="50" x="123" y="186"/><text fill="#000000" font-family="sans-serif" font-size="14" lengthAdjust="spacingAndGlyphs" textLength="37" x="129.5" y="210.8467">route</text><ellipse cx="148" cy="53" fill="#000000" filter="url(#f1ix9uk22kr4qs)" rx="10" ry="10" style="stroke: none; stroke-width: 1.0;"/><rect fill="#FEFECE" filter="url(#f1ix9uk22kr4qs)" height="40" rx="12.5" ry="12.5" style="stroke: #A80036; stroke-width: 1.5;" width="50" x="22" y="471"/><text fill="#000000" font-family="sans-serif" font-size="14" lengthAdjust="spacingAndGlyphs" textLength="37" x="28.5" y="495.8467">route</text><rect fill="#FEFECE" filter="url(#f1ix9uk22kr4qs)" height="40" rx="12.5" ry="12.5" style="stroke: #A80036; stroke-width: 1.5;" width="82" x="107" y="308"/><text fill="#000000" font-family="sans-serif" font-size="14" lengthAdjust="spacingAndGlyphs" textLength="72" x="112" y="332.8467">prerouting</text><rect fill="#FEFECE" filter="url(#f1ix9uk22kr4qs)" height="40" rx="12.5" ry="12.5" style="stroke: #A80036; stroke-width: 1.5;" width="50" x="22" y="308"/><text fill="#000000" font-family="sans-serif" font-size="14" lengthAdjust="spacingAndGlyphs" textLength="29" x="32.5" y="332.8467">filter</text><rect fill="#FEFECE" filter="url(#f1ix9uk22kr4qs)" height="40" rx="12.5" ry="12.5" style="stroke: #A80036; stroke-width: 1.5;" width="90" x="107" y="471"/><text fill="#000000" font-family="sans-serif" font-size="14" lengthAdjust="spacingAndGlyphs" textLength="80" x="112" y="495.8467">postrouting</text><!--link *start*app1 to route--><path d="M148,63.0388 C148,86.6401 148,146.2436 148,180.5764 " fill="none" id="*start*app1-route" style="stroke: #A80036; stroke-width: 1.0;"/><polygon fill="#A80036" points="148,185.8603,152,176.8603,148,180.8603,144,176.8603,148,185.8603" style="stroke: #A80036; stroke-width: 1.0;"/><!--link route to prerouting--><path d="M148,226.1458 C148,247.0728 148,279.8721 148,302.5711 " fill="none" id="route-prerouting" style="stroke: #A80036; stroke-width: 1.0; stroke-dasharray: 7.0,7.0;"/><polygon fill="#A80036" points="148,307.8243,152,298.8243,148,302.8243,144,298.8243,148,307.8243" style="stroke: #A80036; stroke-width: 1.0;"/><text fill="#000000" font-family="sans-serif" font-size="13" lengthAdjust="spacingAndGlyphs" textLength="142" x="149" y="269.0669">ping from .7.27 to .8.8</text><!--link filter to prerouting--><path d="M77.3889,328 C87.216,328 97.0431,328 106.8701,328 " fill="none" id="filter-prerouting" style="stroke: #A80036; stroke-width: 1.0;"/><polygon fill="#A80036" points="72.25,328,81.25,332,77.25,328,81.25,324,72.25,328" style="stroke: #A80036; stroke-width: 1.0;"/><!--link filter to route2--><path d="M47,348.3145 C47,378.0028 47,433.2179 47,465.5663 " fill="none" id="filter-route2" style="stroke: #A80036; stroke-width: 1.0;"/><polygon fill="#A80036" points="47,470.9415,51,461.9415,47,465.9415,43,461.9415,47,470.9415" style="stroke: #A80036; stroke-width: 1.0;"/><!--link route2 to postrouting--><path d="M72.0195,491 C81.8633,491 91.7071,491 101.5509,491 " fill="none" id="route2-postrouting" style="stroke: #A80036; stroke-width: 1.0;"/><polygon fill="#A80036" points="106.6986,491,97.6986,487,101.6986,491,97.6986,495,106.6986,491" style="stroke: #A80036; stroke-width: 1.0;"/><!--
@startuml
hide empty description


state "AppVM" as app1 {
state "route" as route

[*] - -> route
}

state "ProxyVM" as proxy1 {
state "route" as route2

route -down[dashed]-> prerouting : ping from .7.27 to .8.8
prerouting -left-> filter
filter -down-> route2
route2 -right-> postrouting
}

@enduml

PlantUML version 1.2019.07(Mon Jun 24 21:59:20 CEST 2019)
(GPL source distribution)
Java Runtime: OpenJDK Runtime Environment
JVM: OpenJDK 64-Bit Server VM
Java Version: 1.8.0_151-b12
Operating System: Linux
OS Version: 4.4.14-11.pvops.qubes.x86_64
Default Encoding: UTF-8
Language: en
Country: US
--></g></svg>