<?xml version="1.0" encoding="UTF-8" standalone="no"?>
<!DOCTYPE svg PUBLIC "-//W3C//DTD SVG 1.1//EN"
 "http://www.w3.org/Graphics/SVG/1.1/DTD/svg11.dtd">
<!-- Generated by graphviz version 2.40.1 (20161225.0304)
 -->
<!-- Title: G Pages: 1 -->
<svg width="166pt" height="77pt"
 viewBox="0.00 0.00 166.00 77.00" xmlns="http://www.w3.org/2000/svg" xmlns:xlink="http://www.w3.org/1999/xlink">
<g id="graph0" class="graph" transform="scale(1 1) rotate(0) translate(4 73)">
<title>G</title>
<polygon fill="#ffffff" stroke="transparent" points="-4,4 -4,-73 162,-73 162,4 -4,4"/>
<!-- 00 -->
<g id="node1" class="node">
<title>00</title>
<ellipse fill="none" stroke="#000000" cx="27" cy="-18" rx="27" ry="18"/>
<text text-anchor="middle" x="27" y="-14.3" font-family="Times,serif" font-size="14.00" fill="#000000">00</text>
</g>
<!-- 00&#45;&gt;00 -->
<g id="edge2" class="edge">
<title>00&#45;&gt;00</title>
<path fill="none" stroke="#000000" d="M17.7856,-35.0373C15.9051,-44.8579 18.9766,-54 27,-54 32.0146,-54 35.0949,-50.4289 36.2409,-45.3529"/>
<polygon fill="#000000" stroke="#000000" points="39.7401,-45.0283 36.2144,-35.0373 32.7402,-45.0463 39.7401,-45.0283"/>
<text text-anchor="middle" x="27" y="-57.8" font-family="Times,serif" font-size="14.00" fill="#000000"> 0</text>
</g>
<!-- 01 -->
<g id="node2" class="node">
<title>01</title>
<ellipse fill="none" stroke="#000000" cx="131" cy="-18" rx="27" ry="18"/>
<text text-anchor="middle" x="131" y="-14.3" font-family="Times,serif" font-size="14.00" fill="#000000">01</text>
</g>
<!-- 00&#45;&gt;01 -->
<g id="edge1" class="edge">
<title>00&#45;&gt;01</title>
<path fill="none" stroke="#000000" d="M54.0533,-18C66.1157,-18 80.5252,-18 93.5959,-18"/>
<polygon fill="#000000" stroke="#000000" points="93.7209,-21.5001 103.7209,-18 93.7208,-14.5001 93.7209,-21.5001"/>
<text text-anchor="middle" x="79" y="-21.8" font-family="Times,serif" font-size="14.00" fill="#000000"> 1</text>
</g>
</g>
</svg>
