<?xml version="1.0" encoding="UTF-8" standalone="no"?><svg xmlns="http://www.w3.org/2000/svg" xmlns:xlink="http://www.w3.org/1999/xlink" contentScriptType="application/ecmascript" contentStyleType="text/css" height="257px" preserveAspectRatio="none" style="width:156px;height:257px;" version="1.1" viewBox="0 0 156 257" width="156px" zoomAndPan="magnify"><defs><filter height="300%" id="f1c9claxtazkuz" width="300%" x="-1" y="-1"><feGaussianBlur result="blurOut" stdDeviation="2.0"/><feColorMatrix in="blurOut" result="blurOut2" type="matrix" values="0 0 0 0 0 0 0 0 0 0 0 0 0 0 0 0 0 0 .4 0"/><feOffset dx="4.0" dy="4.0" in="blurOut2" result="blurOut3"/><feBlend in="SourceGraphic" in2="blurOut3" mode="normal"/></filter></defs><g><rect fill="#FEFECE" filter="url(#f1c9claxtazkuz)" height="40" rx="12.5" ry="12.5" style="stroke: #A80036; stroke-width: 1.5;" width="52" x="6" y="107"/><svg x="11" y="117"><!--Generated by the Batik Graphics2D SVG Generator--><defs id="genericDefs"
  /><g
  ><g transform="scale(20,20) translate(0.2,0.6306)" style="font-size:1; text-rendering:geometricPrecision; color-rendering:optimizeQuality; image-rendering:optimizeQuality; font-family:&apos;jlm_cmmi10&apos;; color-interpolation:linearRGB;"
    ><path style="stroke:none;" d="M0.3906 -0.375 L0.3906 -0.375 Q0.375 -0.4219 0.2969 -0.4219 Q0.2188 -0.4219 0.1875 -0.3594 Q0.1875 -0.3438 0.1875 -0.3281 Q0.1875 -0.2969 0.2344 -0.2812 L0.2344 -0.2812 L0.2344 -0.2812 Q0.25 -0.2812 0.2656 -0.2656 Q0.3281 -0.25 0.3438 -0.2344 Q0.3594 -0.2344 0.3594 -0.2344 Q0.3906 -0.2031 0.3906 -0.1562 Q0.3906 -0.1094 0.3594 -0.0625 Q0.2969 0.0156 0.1875 0.0156 Q0.1094 0.0156 0.0625 -0.0469 Q0.0469 -0.0625 0.0469 -0.0938 Q0.0469 -0.1406 0.0938 -0.1562 Q0.0938 -0.1562 0.1094 -0.1562 Q0.1406 -0.1406 0.1406 -0.1094 Q0.1406 -0.0938 0.125 -0.0781 Q0.1094 -0.0625 0.0781 -0.0625 Q0.1094 -0.0156 0.2031 -0.0156 Q0.2969 -0.0156 0.3281 -0.0938 Q0.3438 -0.1094 0.3438 -0.125 Q0.3438 -0.1719 0.2812 -0.1875 L0.2812 -0.1875 L0.2812 -0.1875 Q0.2656 -0.1875 0.2344 -0.2031 Q0.1406 -0.2188 0.1406 -0.2812 Q0.125 -0.2812 0.125 -0.2969 Q0.125 -0.3438 0.1719 -0.3906 Q0.2188 -0.4375 0.2969 -0.4375 Q0.375 -0.4375 0.4062 -0.3906 Q0.4219 -0.375 0.4219 -0.3594 Q0.4219 -0.3125 0.3906 -0.2969 Q0.375 -0.2969 0.375 -0.2969 Q0.3438 -0.2969 0.3438 -0.3281 Q0.3438 -0.3594 0.375 -0.375 Q0.375 -0.375 0.3906 -0.375 Z"
    /></g
    ><g transform="matrix(20,0,0,20,0,0) translate(0.6687,0.6306)" style="font-size:1; text-rendering:geometricPrecision; color-rendering:optimizeQuality; image-rendering:optimizeQuality; font-family:&apos;jlm_cmmi10&apos;; color-interpolation:linearRGB;"
    ><path style="stroke:none;" d="M0.0938 -0.0625 L0.0938 -0.0625 L0.1406 -0.2969 Q0.1562 -0.3594 0.1562 -0.375 Q0.1562 -0.4219 0.125 -0.4219 Q0.0938 -0.4219 0.0625 -0.3281 Q0.0625 -0.3125 0.0625 -0.2969 Q0.0469 -0.2812 0.0469 -0.2812 Q0.0312 -0.2812 0.0312 -0.2812 Q0.0312 -0.2969 0.0469 -0.3594 Q0.0469 -0.375 0.0625 -0.3906 Q0.0781 -0.4375 0.125 -0.4375 Q0.125 -0.4375 0.1406 -0.4375 Q0.1875 -0.4375 0.2188 -0.3906 Q0.2188 -0.375 0.2188 -0.3594 Q0.2969 -0.4375 0.375 -0.4375 Q0.4375 -0.4375 0.4688 -0.4219 Q0.4844 -0.3906 0.5 -0.3438 Q0.5625 -0.4375 0.6562 -0.4375 Q0.75 -0.4375 0.7656 -0.375 L0.7656 -0.375 Q0.7812 -0.3594 0.7812 -0.3281 Q0.7812 -0.2812 0.7188 -0.1094 Q0.6875 -0.0781 0.6875 -0.0469 Q0.6875 -0.0156 0.7188 -0.0156 Q0.7812 -0.0156 0.8125 -0.125 L0.8281 -0.1406 Q0.8281 -0.1562 0.8281 -0.1562 L0.8281 -0.1562 L0.8438 -0.1562 Q0.8438 -0.1562 0.8438 -0.1406 Q0.8438 -0.125 0.8281 -0.0781 Q0.7812 0.0156 0.7188 0.0156 Q0.6719 0.0156 0.6406 -0.0312 Q0.6406 -0.0469 0.6406 -0.0781 Q0.6406 -0.0938 0.6406 -0.125 Q0.7031 -0.2969 0.7031 -0.3438 Q0.7031 -0.4219 0.6562 -0.4219 Q0.5625 -0.4219 0.5156 -0.3281 Q0.5 -0.2969 0.4844 -0.2812 Q0.4844 -0.2812 0.4375 -0.0469 Q0.4219 0 0.4062 0 L0.4062 0 L0.4062 0 Q0.3906 0.0156 0.3906 0.0156 Q0.3594 0 0.3594 -0.0156 L0.375 -0.0781 L0.3906 -0.1562 L0.4219 -0.2656 Q0.4375 -0.3281 0.4375 -0.3438 Q0.4375 -0.4219 0.375 -0.4219 Q0.2812 -0.4219 0.2344 -0.3125 Q0.2188 -0.3125 0.2188 -0.2969 L0.2031 -0.25 Q0.2031 -0.2188 0.1875 -0.1875 L0.1562 -0.0938 Q0.1406 -0.0156 0.1406 -0.0156 Q0.1406 0.0156 0.1094 0.0156 Q0.0781 0 0.0781 -0.0156 Q0.0781 -0.0156 0.0938 -0.0625 Z"
    /></g
    ><g transform="matrix(20,0,0,20,0,0) translate(1.5468,0.7806) scale(0.7,0.7)" style="font-size:1; text-rendering:geometricPrecision; color-rendering:optimizeQuality; image-rendering:optimizeQuality; font-family:&apos;jlm_cmr10&apos;; color-interpolation:linearRGB;"
    ><path style="stroke:none;" d="M0.2969 -0.6406 L0.2969 -0.0781 Q0.2969 -0.0469 0.3125 -0.0469 Q0.3281 -0.0312 0.3906 -0.0312 L0.4219 -0.0312 L0.4219 0 Q0.3906 0 0.25 0 Q0.125 0 0.0938 0 L0.0938 -0.0312 L0.125 -0.0312 Q0.2031 -0.0312 0.2188 -0.0469 L0.2188 -0.0469 Q0.2188 -0.0625 0.2188 -0.0781 L0.2188 -0.5938 Q0.1719 -0.5781 0.0938 -0.5781 L0.0938 -0.6094 Q0.2031 -0.6094 0.2656 -0.6719 Q0.2969 -0.6719 0.2969 -0.6562 L0.2969 -0.6562 L0.2969 -0.6562 Q0.2969 -0.6562 0.2969 -0.6406 Z"
    /></g
  ></g
></svg
>
<rect fill="#FEFECE" filter="url(#f1c9claxtazkuz)" height="40" rx="12.5" ry="12.5" style="stroke: #A80036; stroke-width: 1.5;" width="52" x="93" y="107"/><svg x="98" y="117"><!--Generated by the Batik Graphics2D SVG Generator--><defs id="genericDefs"
  /><g
  ><g transform="scale(20,20) translate(0.2,0.6306)" style="font-size:1; text-rendering:geometricPrecision; color-rendering:optimizeQuality; image-rendering:optimizeQuality; font-family:&apos;jlm_cmmi10&apos;; color-interpolation:linearRGB;"
    ><path style="stroke:none;" d="M0.3906 -0.375 L0.3906 -0.375 Q0.375 -0.4219 0.2969 -0.4219 Q0.2188 -0.4219 0.1875 -0.3594 Q0.1875 -0.3438 0.1875 -0.3281 Q0.1875 -0.2969 0.2344 -0.2812 L0.2344 -0.2812 L0.2344 -0.2812 Q0.25 -0.2812 0.2656 -0.2656 Q0.3281 -0.25 0.3438 -0.2344 Q0.3594 -0.2344 0.3594 -0.2344 Q0.3906 -0.2031 0.3906 -0.1562 Q0.3906 -0.1094 0.3594 -0.0625 Q0.2969 0.0156 0.1875 0.0156 Q0.1094 0.0156 0.0625 -0.0469 Q0.0469 -0.0625 0.0469 -0.0938 Q0.0469 -0.1406 0.0938 -0.1562 Q0.0938 -0.1562 0.1094 -0.1562 Q0.1406 -0.1406 0.1406 -0.1094 Q0.1406 -0.0938 0.125 -0.0781 Q0.1094 -0.0625 0.0781 -0.0625 Q0.1094 -0.0156 0.2031 -0.0156 Q0.2969 -0.0156 0.3281 -0.0938 Q0.3438 -0.1094 0.3438 -0.125 Q0.3438 -0.1719 0.2812 -0.1875 L0.2812 -0.1875 L0.2812 -0.1875 Q0.2656 -0.1875 0.2344 -0.2031 Q0.1406 -0.2188 0.1406 -0.2812 Q0.125 -0.2812 0.125 -0.2969 Q0.125 -0.3438 0.1719 -0.3906 Q0.2188 -0.4375 0.2969 -0.4375 Q0.375 -0.4375 0.4062 -0.3906 Q0.4219 -0.375 0.4219 -0.3594 Q0.4219 -0.3125 0.3906 -0.2969 Q0.375 -0.2969 0.375 -0.2969 Q0.3438 -0.2969 0.3438 -0.3281 Q0.3438 -0.3594 0.375 -0.375 Q0.375 -0.375 0.3906 -0.375 Z"
    /></g
    ><g transform="matrix(20,0,0,20,0,0) translate(0.6687,0.6306)" style="font-size:1; text-rendering:geometricPrecision; color-rendering:optimizeQuality; image-rendering:optimizeQuality; font-family:&apos;jlm_cmmi10&apos;; color-interpolation:linearRGB;"
    ><path style="stroke:none;" d="M0.0938 -0.0625 L0.0938 -0.0625 L0.1406 -0.2969 Q0.1562 -0.3594 0.1562 -0.375 Q0.1562 -0.4219 0.125 -0.4219 Q0.0938 -0.4219 0.0625 -0.3281 Q0.0625 -0.3125 0.0625 -0.2969 Q0.0469 -0.2812 0.0469 -0.2812 Q0.0312 -0.2812 0.0312 -0.2812 Q0.0312 -0.2969 0.0469 -0.3594 Q0.0469 -0.375 0.0625 -0.3906 Q0.0781 -0.4375 0.125 -0.4375 Q0.125 -0.4375 0.1406 -0.4375 Q0.1875 -0.4375 0.2188 -0.3906 Q0.2188 -0.375 0.2188 -0.3594 Q0.2969 -0.4375 0.375 -0.4375 Q0.4375 -0.4375 0.4688 -0.4219 Q0.4844 -0.3906 0.5 -0.3438 Q0.5625 -0.4375 0.6562 -0.4375 Q0.75 -0.4375 0.7656 -0.375 L0.7656 -0.375 Q0.7812 -0.3594 0.7812 -0.3281 Q0.7812 -0.2812 0.7188 -0.1094 Q0.6875 -0.0781 0.6875 -0.0469 Q0.6875 -0.0156 0.7188 -0.0156 Q0.7812 -0.0156 0.8125 -0.125 L0.8281 -0.1406 Q0.8281 -0.1562 0.8281 -0.1562 L0.8281 -0.1562 L0.8438 -0.1562 Q0.8438 -0.1562 0.8438 -0.1406 Q0.8438 -0.125 0.8281 -0.0781 Q0.7812 0.0156 0.7188 0.0156 Q0.6719 0.0156 0.6406 -0.0312 Q0.6406 -0.0469 0.6406 -0.0781 Q0.6406 -0.0938 0.6406 -0.125 Q0.7031 -0.2969 0.7031 -0.3438 Q0.7031 -0.4219 0.6562 -0.4219 Q0.5625 -0.4219 0.5156 -0.3281 Q0.5 -0.2969 0.4844 -0.2812 Q0.4844 -0.2812 0.4375 -0.0469 Q0.4219 0 0.4062 0 L0.4062 0 L0.4062 0 Q0.3906 0.0156 0.3906 0.0156 Q0.3594 0 0.3594 -0.0156 L0.375 -0.0781 L0.3906 -0.1562 L0.4219 -0.2656 Q0.4375 -0.3281 0.4375 -0.3438 Q0.4375 -0.4219 0.375 -0.4219 Q0.2812 -0.4219 0.2344 -0.3125 Q0.2188 -0.3125 0.2188 -0.2969 L0.2031 -0.25 Q0.2031 -0.2188 0.1875 -0.1875 L0.1562 -0.0938 Q0.1406 -0.0156 0.1406 -0.0156 Q0.1406 0.0156 0.1094 0.0156 Q0.0781 0 0.0781 -0.0156 Q0.0781 -0.0156 0.0938 -0.0625 Z"
    /></g
    ><g transform="matrix(20,0,0,20,0,0) translate(1.5468,0.7806) scale(0.7,0.7)" style="font-size:1; text-rendering:geometricPrecision; color-rendering:optimizeQuality; image-rendering:optimizeQuality; font-family:&apos;jlm_cmr10&apos;; color-interpolation:linearRGB;"
    ><path style="stroke:none;" d="M0.4531 -0.1719 L0.4531 -0.1719 L0.4219 0 L0.0469 0 Q0.0469 -0.0312 0.0625 -0.0312 L0.0625 -0.0312 L0.25 -0.25 Q0.3594 -0.375 0.3594 -0.4688 Q0.3594 -0.5625 0.2969 -0.6094 L0.2969 -0.6094 L0.2969 -0.6094 Q0.2656 -0.6406 0.2188 -0.6406 Q0.1562 -0.6406 0.1094 -0.5781 Q0.0938 -0.5625 0.0938 -0.5312 Q0.0938 -0.5312 0.1094 -0.5312 Q0.1406 -0.5312 0.1562 -0.5 L0.1562 -0.5 Q0.1562 -0.4844 0.1562 -0.4844 Q0.1562 -0.4375 0.1094 -0.4375 Q0.1094 -0.4219 0.1094 -0.4219 Q0.0625 -0.4219 0.0469 -0.4531 Q0.0469 -0.4688 0.0469 -0.4844 Q0.0469 -0.5625 0.1094 -0.6094 Q0.1562 -0.6719 0.2344 -0.6719 Q0.3438 -0.6719 0.4062 -0.5938 Q0.4375 -0.5469 0.4531 -0.4844 Q0.4531 -0.4844 0.4531 -0.4688 Q0.4531 -0.4062 0.3906 -0.3281 Q0.3594 -0.2969 0.2969 -0.25 L0.25 -0.1875 L0.2344 -0.1875 L0.125 -0.0781 L0.3125 -0.0781 Q0.3906 -0.0781 0.4062 -0.0781 Q0.4062 -0.0938 0.4219 -0.1719 L0.4531 -0.1719 Z"
    /></g
  ></g
></svg
>
<ellipse cx="75" cy="18" fill="#000000" filter="url(#f1c9claxtazkuz)" rx="10" ry="10" style="stroke: none; stroke-width: 1.0;"/><ellipse cx="75" cy="236" fill="none" filter="url(#f1c9claxtazkuz)" rx="10" ry="10" style="stroke: #000000; stroke-width: 1.0;"/><ellipse cx="75.5" cy="236.5" fill="#000000" rx="6" ry="6" style="stroke: none; stroke-width: 1.0;"/><!--link *start to sm1--><path d="M71.184,27.673 C64.6597,44.2114 51.1645,78.4203 41.8494,102.0329 " fill="none" id="*start-sm1" style="stroke: #A80036; stroke-width: 1.0;"/><polygon fill="#A80036" points="39.9291,106.9006,46.9528,99.9964,41.764,102.2494,39.5109,97.0606,39.9291,106.9006" style="stroke: #A80036; stroke-width: 1.0;"/><!--link *start to sm2--><path d="M78.7514,27.2933 C85.3481,43.6351 99.2352,78.0371 108.8376,101.8249 " fill="none" id="*start-sm2" style="stroke: #A80036; stroke-width: 1.0;"/><polygon fill="#A80036" points="110.8174,106.7295,111.1575,96.8865,108.9457,102.0931,103.7391,99.8813,110.8174,106.7295" style="stroke: #A80036; stroke-width: 1.0;"/><svg x="99" y="59"><!--Generated by the Batik Graphics2D SVG Generator--><defs id="genericDefs"
  /><g
  ><g transform="scale(20,20) translate(0.2,0.6306)" style="font-size:1; text-rendering:geometricPrecision; color-rendering:optimizeQuality; image-rendering:optimizeQuality; font-family:&apos;jlm_cmmi10&apos;; color-interpolation:linearRGB;"
    ><path style="stroke:none;" d="M0.2969 -0.2188 L0.2969 -0.2188 L0.1406 -0.2188 Q0.125 -0.1875 0.125 -0.1406 Q0.125 -0.0469 0.1875 -0.0156 Q0.2031 -0.0156 0.2344 -0.0156 Q0.2812 -0.0156 0.3281 -0.0469 Q0.3438 -0.0469 0.3438 -0.0469 Q0.3594 -0.0469 0.3594 -0.0469 Q0.3594 -0.0312 0.3125 -0.0156 Q0.2656 0.0156 0.2344 0.0156 Q0.125 0.0156 0.0781 -0.0625 Q0.0469 -0.1094 0.0469 -0.1719 Q0.0469 -0.2969 0.1406 -0.375 Q0.2188 -0.4375 0.3125 -0.4375 L0.3438 -0.4375 Q0.375 -0.4375 0.375 -0.4219 Q0.375 -0.4062 0.3438 -0.4062 L0.3125 -0.4062 Q0.2031 -0.4062 0.1562 -0.2812 Q0.1406 -0.2656 0.1406 -0.25 L0.2969 -0.25 Q0.3281 -0.25 0.3281 -0.25 Q0.3281 -0.2188 0.2969 -0.2188 Z"
    /></g
  ></g
></svg
>
<!--link sm1 to *end--><path d="M39.9872,147.2466 C48.5122,168.8564 61.8037,202.549 69.3199,221.6017 " fill="none" id="sm1-*end" style="stroke: #A80036; stroke-width: 1.0;"/><polygon fill="#A80036" points="71.278,226.5651,71.6962,216.7251,69.4431,221.9139,64.2543,219.6609,71.278,226.5651" style="stroke: #A80036; stroke-width: 1.0;"/><!--link sm2 to *end--><path d="M110.8271,147.2466 C102.1038,168.8564 88.5032,202.549 80.8122,221.6017 " fill="none" id="sm2-*end" style="stroke: #A80036; stroke-width: 1.0;"/><polygon fill="#A80036" points="78.8086,226.5651,85.8867,219.7167,80.6802,221.9286,78.4683,216.7221,78.8086,226.5651" style="stroke: #A80036; stroke-width: 1.0;"/><svg x="99" y="178"><!--Generated by the Batik Graphics2D SVG Generator--><defs id="genericDefs"
  /><g
  ><g transform="scale(20,20) translate(0.2,0.6306)" style="font-size:1; text-rendering:geometricPrecision; color-rendering:optimizeQuality; image-rendering:optimizeQuality; font-family:&apos;jlm_cmmi10&apos;; color-interpolation:linearRGB;"
    ><path style="stroke:none;" d="M0.2969 -0.2188 L0.2969 -0.2188 L0.1406 -0.2188 Q0.125 -0.1875 0.125 -0.1406 Q0.125 -0.0469 0.1875 -0.0156 Q0.2031 -0.0156 0.2344 -0.0156 Q0.2812 -0.0156 0.3281 -0.0469 Q0.3438 -0.0469 0.3438 -0.0469 Q0.3594 -0.0469 0.3594 -0.0469 Q0.3594 -0.0312 0.3125 -0.0156 Q0.2656 0.0156 0.2344 0.0156 Q0.125 0.0156 0.0781 -0.0625 Q0.0469 -0.1094 0.0469 -0.1719 Q0.0469 -0.2969 0.1406 -0.375 Q0.2188 -0.4375 0.3125 -0.4375 L0.3438 -0.4375 Q0.375 -0.4375 0.375 -0.4219 Q0.375 -0.4062 0.3438 -0.4062 L0.3125 -0.4062 Q0.2031 -0.4062 0.1562 -0.2812 Q0.1406 -0.2656 0.1406 -0.25 L0.2969 -0.25 Q0.3281 -0.25 0.3281 -0.25 Q0.3281 -0.2188 0.2969 -0.2188 Z"
    /></g
  ></g
></svg
>
<!--
@startuml
hide empty description

state "<math>sm_1</math>" as sm1
state "<math>sm_2</math>" as sm2

[*] - -> sm1
[*] - -> sm2 : <math>\epsilon</math>
sm1 - -> [*]
sm2 - -> [*] : <math>\epsilon</math>

@enduml

PlantUML version 1.2019.07(Mon Jun 24 21:59:20 CEST 2019)
(GPL source distribution)
Java Runtime: OpenJDK Runtime Environment
JVM: OpenJDK 64-Bit Server VM
Java Version: 1.8.0_151-b12
Operating System: Linux
OS Version: 4.4.14-11.pvops.qubes.x86_64
Default Encoding: UTF-8
Language: en
Country: US
--></g></svg>