<?xml version="1.0" encoding="UTF-8" standalone="no"?>
<!DOCTYPE svg PUBLIC "-//W3C//DTD SVG 1.1//EN"
 "http://www.w3.org/Graphics/SVG/1.1/DTD/svg11.dtd">
<!-- Generated by graphviz version 2.40.1 (20161225.0304)
 -->
<!-- Title: G Pages: 1 -->
<svg width="325pt" height="98pt"
 viewBox="0.00 0.00 325.00 98.00" xmlns="http://www.w3.org/2000/svg" xmlns:xlink="http://www.w3.org/1999/xlink">
<g id="graph0" class="graph" transform="scale(1 1) rotate(0) translate(4 94)">
<title>G</title>
<polygon fill="#ffffff" stroke="transparent" points="-4,4 -4,-94 321,-94 321,4 -4,4"/>
<!-- G -->
<g id="node1" class="node">
<title>G</title>
<ellipse fill="none" stroke="#000000" cx="27" cy="-45" rx="27" ry="18"/>
<text text-anchor="middle" x="27" y="-41.3" font-family="Times,serif" font-size="14.00" fill="#000000">G</text>
</g>
<!-- G1 -->
<g id="node2" class="node">
<title>G1</title>
<ellipse fill="none" stroke="#000000" cx="148" cy="-45" rx="27" ry="18"/>
<text text-anchor="middle" x="148" y="-41.3" font-family="Times,serif" font-size="14.00" fill="#000000">G1</text>
</g>
<!-- G&#45;&gt;G1 -->
<g id="edge1" class="edge">
<title>G&#45;&gt;G1</title>
<path fill="none" stroke="#000000" d="M54.1548,-45C70.8909,-45 92.5781,-45 110.8874,-45"/>
<polygon fill="#000000" stroke="#000000" points="110.9359,-48.5001 120.9359,-45 110.9358,-41.5001 110.9359,-48.5001"/>
<text text-anchor="middle" x="87.5" y="-48.8" font-family="Times,serif" font-size="14.00" fill="#000000">elim</text>
</g>
<!-- G2 -->
<g id="node3" class="node">
<title>G2</title>
<ellipse fill="none" stroke="#000000" cx="290" cy="-72" rx="27" ry="18"/>
<text text-anchor="middle" x="290" y="-68.3" font-family="Times,serif" font-size="14.00" fill="#000000">G2</text>
</g>
<!-- G1&#45;&gt;G2 -->
<g id="edge2" class="edge">
<title>G1&#45;&gt;G2</title>
<path fill="none" stroke="#000000" d="M174.045,-49.9522C196.3236,-54.1883 228.634,-60.3318 253.4927,-65.0585"/>
<polygon fill="#000000" stroke="#000000" points="253.1614,-68.5581 263.6392,-66.9877 254.4691,-61.6813 253.1614,-68.5581"/>
<text text-anchor="middle" x="219" y="-66.8" font-family="Times,serif" font-size="14.00" fill="#000000">split&#45;or</text>
</g>
<!-- G3 -->
<g id="node4" class="node">
<title>G3</title>
<ellipse fill="none" stroke="#000000" cx="290" cy="-18" rx="27" ry="18"/>
<text text-anchor="middle" x="290" y="-14.3" font-family="Times,serif" font-size="14.00" fill="#000000">G3</text>
</g>
<!-- G1&#45;&gt;G3 -->
<g id="edge3" class="edge">
<title>G1&#45;&gt;G3</title>
<path fill="none" stroke="#000000" d="M173.6245,-38.3782C179.9379,-36.8458 186.6963,-35.2884 193,-34 212.9425,-29.924 235.3551,-26.1734 253.6087,-23.3295"/>
<polygon fill="#000000" stroke="#000000" points="254.1974,-26.7802 263.5517,-21.8055 253.1368,-19.861 254.1974,-26.7802"/>
<text text-anchor="middle" x="219" y="-37.8" font-family="Times,serif" font-size="14.00" fill="#000000">split&#45;or</text>
</g>
</g>
</svg>
