<?xml version="1.0" encoding="UTF-8" standalone="no"?><svg xmlns="http://www.w3.org/2000/svg" xmlns:xlink="http://www.w3.org/1999/xlink" contentScriptType="application/ecmascript" contentStyleType="text/css" height="86px" preserveAspectRatio="none" style="width:535px;height:86px;" version="1.1" viewBox="0 0 535 86" width="535px" zoomAndPan="magnify"><defs><filter height="300%" id="fo7l7p2iwl8oa" width="300%" x="-1" y="-1"><feGaussianBlur result="blurOut" stdDeviation="2.0"/><feColorMatrix in="blurOut" result="blurOut2" type="matrix" values="0 0 0 0 0 0 0 0 0 0 0 0 0 0 0 0 0 0 .4 0"/><feOffset dx="4.0" dy="4.0" in="blurOut2" result="blurOut3"/><feBlend in="SourceGraphic" in2="blurOut3" mode="normal"/></filter></defs><g><rect fill="#FEFECE" filter="url(#fo7l7p2iwl8oa)" height="40" rx="12.5" ry="12.5" style="stroke: #A80036; stroke-width: 1.5;" width="52" x="80" y="35"/><svg x="85" y="45"><!--Generated by the Batik Graphics2D SVG Generator--><defs id="genericDefs"
  /><g
  ><g transform="scale(20,20) translate(0.2,0.6306)" style="font-size:1; text-rendering:geometricPrecision; color-rendering:optimizeQuality; image-rendering:optimizeQuality; font-family:&apos;jlm_cmmi10&apos;; color-interpolation:linearRGB;"
    ><path style="stroke:none;" d="M0.3906 -0.375 L0.3906 -0.375 Q0.375 -0.4219 0.2969 -0.4219 Q0.2188 -0.4219 0.1875 -0.3594 Q0.1875 -0.3438 0.1875 -0.3281 Q0.1875 -0.2969 0.2344 -0.2812 L0.2344 -0.2812 L0.2344 -0.2812 Q0.25 -0.2812 0.2656 -0.2656 Q0.3281 -0.25 0.3438 -0.2344 Q0.3594 -0.2344 0.3594 -0.2344 Q0.3906 -0.2031 0.3906 -0.1562 Q0.3906 -0.1094 0.3594 -0.0625 Q0.2969 0.0156 0.1875 0.0156 Q0.1094 0.0156 0.0625 -0.0469 Q0.0469 -0.0625 0.0469 -0.0938 Q0.0469 -0.1406 0.0938 -0.1562 Q0.0938 -0.1562 0.1094 -0.1562 Q0.1406 -0.1406 0.1406 -0.1094 Q0.1406 -0.0938 0.125 -0.0781 Q0.1094 -0.0625 0.0781 -0.0625 Q0.1094 -0.0156 0.2031 -0.0156 Q0.2969 -0.0156 0.3281 -0.0938 Q0.3438 -0.1094 0.3438 -0.125 Q0.3438 -0.1719 0.2812 -0.1875 L0.2812 -0.1875 L0.2812 -0.1875 Q0.2656 -0.1875 0.2344 -0.2031 Q0.1406 -0.2188 0.1406 -0.2812 Q0.125 -0.2812 0.125 -0.2969 Q0.125 -0.3438 0.1719 -0.3906 Q0.2188 -0.4375 0.2969 -0.4375 Q0.375 -0.4375 0.4062 -0.3906 Q0.4219 -0.375 0.4219 -0.3594 Q0.4219 -0.3125 0.3906 -0.2969 Q0.375 -0.2969 0.375 -0.2969 Q0.3438 -0.2969 0.3438 -0.3281 Q0.3438 -0.3594 0.375 -0.375 Q0.375 -0.375 0.3906 -0.375 Z"
    /></g
    ><g transform="matrix(20,0,0,20,0,0) translate(0.6687,0.6306)" style="font-size:1; text-rendering:geometricPrecision; color-rendering:optimizeQuality; image-rendering:optimizeQuality; font-family:&apos;jlm_cmmi10&apos;; color-interpolation:linearRGB;"
    ><path style="stroke:none;" d="M0.0938 -0.0625 L0.0938 -0.0625 L0.1406 -0.2969 Q0.1562 -0.3594 0.1562 -0.375 Q0.1562 -0.4219 0.125 -0.4219 Q0.0938 -0.4219 0.0625 -0.3281 Q0.0625 -0.3125 0.0625 -0.2969 Q0.0469 -0.2812 0.0469 -0.2812 Q0.0312 -0.2812 0.0312 -0.2812 Q0.0312 -0.2969 0.0469 -0.3594 Q0.0469 -0.375 0.0625 -0.3906 Q0.0781 -0.4375 0.125 -0.4375 Q0.125 -0.4375 0.1406 -0.4375 Q0.1875 -0.4375 0.2188 -0.3906 Q0.2188 -0.375 0.2188 -0.3594 Q0.2969 -0.4375 0.375 -0.4375 Q0.4375 -0.4375 0.4688 -0.4219 Q0.4844 -0.3906 0.5 -0.3438 Q0.5625 -0.4375 0.6562 -0.4375 Q0.75 -0.4375 0.7656 -0.375 L0.7656 -0.375 Q0.7812 -0.3594 0.7812 -0.3281 Q0.7812 -0.2812 0.7188 -0.1094 Q0.6875 -0.0781 0.6875 -0.0469 Q0.6875 -0.0156 0.7188 -0.0156 Q0.7812 -0.0156 0.8125 -0.125 L0.8281 -0.1406 Q0.8281 -0.1562 0.8281 -0.1562 L0.8281 -0.1562 L0.8438 -0.1562 Q0.8438 -0.1562 0.8438 -0.1406 Q0.8438 -0.125 0.8281 -0.0781 Q0.7812 0.0156 0.7188 0.0156 Q0.6719 0.0156 0.6406 -0.0312 Q0.6406 -0.0469 0.6406 -0.0781 Q0.6406 -0.0938 0.6406 -0.125 Q0.7031 -0.2969 0.7031 -0.3438 Q0.7031 -0.4219 0.6562 -0.4219 Q0.5625 -0.4219 0.5156 -0.3281 Q0.5 -0.2969 0.4844 -0.2812 Q0.4844 -0.2812 0.4375 -0.0469 Q0.4219 0 0.4062 0 L0.4062 0 L0.4062 0 Q0.3906 0.0156 0.3906 0.0156 Q0.3594 0 0.3594 -0.0156 L0.375 -0.0781 L0.3906 -0.1562 L0.4219 -0.2656 Q0.4375 -0.3281 0.4375 -0.3438 Q0.4375 -0.4219 0.375 -0.4219 Q0.2812 -0.4219 0.2344 -0.3125 Q0.2188 -0.3125 0.2188 -0.2969 L0.2031 -0.25 Q0.2031 -0.2188 0.1875 -0.1875 L0.1562 -0.0938 Q0.1406 -0.0156 0.1406 -0.0156 Q0.1406 0.0156 0.1094 0.0156 Q0.0781 0 0.0781 -0.0156 Q0.0781 -0.0156 0.0938 -0.0625 Z"
    /></g
    ><g transform="matrix(20,0,0,20,0,0) translate(1.5468,0.7806) scale(0.7,0.7)" style="font-size:1; text-rendering:geometricPrecision; color-rendering:optimizeQuality; image-rendering:optimizeQuality; font-family:&apos;jlm_cmr10&apos;; color-interpolation:linearRGB;"
    ><path style="stroke:none;" d="M0.2969 -0.6406 L0.2969 -0.0781 Q0.2969 -0.0469 0.3125 -0.0469 Q0.3281 -0.0312 0.3906 -0.0312 L0.4219 -0.0312 L0.4219 0 Q0.3906 0 0.25 0 Q0.125 0 0.0938 0 L0.0938 -0.0312 L0.125 -0.0312 Q0.2031 -0.0312 0.2188 -0.0469 L0.2188 -0.0469 Q0.2188 -0.0625 0.2188 -0.0781 L0.2188 -0.5938 Q0.1719 -0.5781 0.0938 -0.5781 L0.0938 -0.6094 Q0.2031 -0.6094 0.2656 -0.6719 Q0.2969 -0.6719 0.2969 -0.6562 L0.2969 -0.6562 L0.2969 -0.6562 Q0.2969 -0.6562 0.2969 -0.6406 Z"
    /></g
  ></g
></svg
>
<rect fill="#FEFECE" filter="url(#fo7l7p2iwl8oa)" height="40" rx="12.5" ry="12.5" style="stroke: #A80036; stroke-width: 1.5;" width="52" x="186" y="35"/><svg x="191" y="45"><!--Generated by the Batik Graphics2D SVG Generator--><defs id="genericDefs"
  /><g
  ><g transform="scale(20,20) translate(0.2,0.6306)" style="font-size:1; text-rendering:geometricPrecision; color-rendering:optimizeQuality; image-rendering:optimizeQuality; font-family:&apos;jlm_cmmi10&apos;; color-interpolation:linearRGB;"
    ><path style="stroke:none;" d="M0.3906 -0.375 L0.3906 -0.375 Q0.375 -0.4219 0.2969 -0.4219 Q0.2188 -0.4219 0.1875 -0.3594 Q0.1875 -0.3438 0.1875 -0.3281 Q0.1875 -0.2969 0.2344 -0.2812 L0.2344 -0.2812 L0.2344 -0.2812 Q0.25 -0.2812 0.2656 -0.2656 Q0.3281 -0.25 0.3438 -0.2344 Q0.3594 -0.2344 0.3594 -0.2344 Q0.3906 -0.2031 0.3906 -0.1562 Q0.3906 -0.1094 0.3594 -0.0625 Q0.2969 0.0156 0.1875 0.0156 Q0.1094 0.0156 0.0625 -0.0469 Q0.0469 -0.0625 0.0469 -0.0938 Q0.0469 -0.1406 0.0938 -0.1562 Q0.0938 -0.1562 0.1094 -0.1562 Q0.1406 -0.1406 0.1406 -0.1094 Q0.1406 -0.0938 0.125 -0.0781 Q0.1094 -0.0625 0.0781 -0.0625 Q0.1094 -0.0156 0.2031 -0.0156 Q0.2969 -0.0156 0.3281 -0.0938 Q0.3438 -0.1094 0.3438 -0.125 Q0.3438 -0.1719 0.2812 -0.1875 L0.2812 -0.1875 L0.2812 -0.1875 Q0.2656 -0.1875 0.2344 -0.2031 Q0.1406 -0.2188 0.1406 -0.2812 Q0.125 -0.2812 0.125 -0.2969 Q0.125 -0.3438 0.1719 -0.3906 Q0.2188 -0.4375 0.2969 -0.4375 Q0.375 -0.4375 0.4062 -0.3906 Q0.4219 -0.375 0.4219 -0.3594 Q0.4219 -0.3125 0.3906 -0.2969 Q0.375 -0.2969 0.375 -0.2969 Q0.3438 -0.2969 0.3438 -0.3281 Q0.3438 -0.3594 0.375 -0.375 Q0.375 -0.375 0.3906 -0.375 Z"
    /></g
    ><g transform="matrix(20,0,0,20,0,0) translate(0.6687,0.6306)" style="font-size:1; text-rendering:geometricPrecision; color-rendering:optimizeQuality; image-rendering:optimizeQuality; font-family:&apos;jlm_cmmi10&apos;; color-interpolation:linearRGB;"
    ><path style="stroke:none;" d="M0.0938 -0.0625 L0.0938 -0.0625 L0.1406 -0.2969 Q0.1562 -0.3594 0.1562 -0.375 Q0.1562 -0.4219 0.125 -0.4219 Q0.0938 -0.4219 0.0625 -0.3281 Q0.0625 -0.3125 0.0625 -0.2969 Q0.0469 -0.2812 0.0469 -0.2812 Q0.0312 -0.2812 0.0312 -0.2812 Q0.0312 -0.2969 0.0469 -0.3594 Q0.0469 -0.375 0.0625 -0.3906 Q0.0781 -0.4375 0.125 -0.4375 Q0.125 -0.4375 0.1406 -0.4375 Q0.1875 -0.4375 0.2188 -0.3906 Q0.2188 -0.375 0.2188 -0.3594 Q0.2969 -0.4375 0.375 -0.4375 Q0.4375 -0.4375 0.4688 -0.4219 Q0.4844 -0.3906 0.5 -0.3438 Q0.5625 -0.4375 0.6562 -0.4375 Q0.75 -0.4375 0.7656 -0.375 L0.7656 -0.375 Q0.7812 -0.3594 0.7812 -0.3281 Q0.7812 -0.2812 0.7188 -0.1094 Q0.6875 -0.0781 0.6875 -0.0469 Q0.6875 -0.0156 0.7188 -0.0156 Q0.7812 -0.0156 0.8125 -0.125 L0.8281 -0.1406 Q0.8281 -0.1562 0.8281 -0.1562 L0.8281 -0.1562 L0.8438 -0.1562 Q0.8438 -0.1562 0.8438 -0.1406 Q0.8438 -0.125 0.8281 -0.0781 Q0.7812 0.0156 0.7188 0.0156 Q0.6719 0.0156 0.6406 -0.0312 Q0.6406 -0.0469 0.6406 -0.0781 Q0.6406 -0.0938 0.6406 -0.125 Q0.7031 -0.2969 0.7031 -0.3438 Q0.7031 -0.4219 0.6562 -0.4219 Q0.5625 -0.4219 0.5156 -0.3281 Q0.5 -0.2969 0.4844 -0.2812 Q0.4844 -0.2812 0.4375 -0.0469 Q0.4219 0 0.4062 0 L0.4062 0 L0.4062 0 Q0.3906 0.0156 0.3906 0.0156 Q0.3594 0 0.3594 -0.0156 L0.375 -0.0781 L0.3906 -0.1562 L0.4219 -0.2656 Q0.4375 -0.3281 0.4375 -0.3438 Q0.4375 -0.4219 0.375 -0.4219 Q0.2812 -0.4219 0.2344 -0.3125 Q0.2188 -0.3125 0.2188 -0.2969 L0.2031 -0.25 Q0.2031 -0.2188 0.1875 -0.1875 L0.1562 -0.0938 Q0.1406 -0.0156 0.1406 -0.0156 Q0.1406 0.0156 0.1094 0.0156 Q0.0781 0 0.0781 -0.0156 Q0.0781 -0.0156 0.0938 -0.0625 Z"
    /></g
    ><g transform="matrix(20,0,0,20,0,0) translate(1.5468,0.7806) scale(0.7,0.7)" style="font-size:1; text-rendering:geometricPrecision; color-rendering:optimizeQuality; image-rendering:optimizeQuality; font-family:&apos;jlm_cmr10&apos;; color-interpolation:linearRGB;"
    ><path style="stroke:none;" d="M0.2969 -0.6406 L0.2969 -0.0781 Q0.2969 -0.0469 0.3125 -0.0469 Q0.3281 -0.0312 0.3906 -0.0312 L0.4219 -0.0312 L0.4219 0 Q0.3906 0 0.25 0 Q0.125 0 0.0938 0 L0.0938 -0.0312 L0.125 -0.0312 Q0.2031 -0.0312 0.2188 -0.0469 L0.2188 -0.0469 Q0.2188 -0.0625 0.2188 -0.0781 L0.2188 -0.5938 Q0.1719 -0.5781 0.0938 -0.5781 L0.0938 -0.6094 Q0.2031 -0.6094 0.2656 -0.6719 Q0.2969 -0.6719 0.2969 -0.6562 L0.2969 -0.6562 L0.2969 -0.6562 Q0.2969 -0.6562 0.2969 -0.6406 Z"
    /></g
  ></g
></svg
>
<rect fill="#FEFECE" filter="url(#fo7l7p2iwl8oa)" height="40" rx="12.5" ry="12.5" style="stroke: #A80036; stroke-width: 1.5;" width="52" x="292" y="35"/><svg x="297" y="45"><!--Generated by the Batik Graphics2D SVG Generator--><defs id="genericDefs"
  /><g
  ><g transform="scale(20,20) translate(0.2,0.6306)" style="font-size:1; text-rendering:geometricPrecision; color-rendering:optimizeQuality; image-rendering:optimizeQuality; font-family:&apos;jlm_cmmi10&apos;; color-interpolation:linearRGB;"
    ><path style="stroke:none;" d="M0.3906 -0.375 L0.3906 -0.375 Q0.375 -0.4219 0.2969 -0.4219 Q0.2188 -0.4219 0.1875 -0.3594 Q0.1875 -0.3438 0.1875 -0.3281 Q0.1875 -0.2969 0.2344 -0.2812 L0.2344 -0.2812 L0.2344 -0.2812 Q0.25 -0.2812 0.2656 -0.2656 Q0.3281 -0.25 0.3438 -0.2344 Q0.3594 -0.2344 0.3594 -0.2344 Q0.3906 -0.2031 0.3906 -0.1562 Q0.3906 -0.1094 0.3594 -0.0625 Q0.2969 0.0156 0.1875 0.0156 Q0.1094 0.0156 0.0625 -0.0469 Q0.0469 -0.0625 0.0469 -0.0938 Q0.0469 -0.1406 0.0938 -0.1562 Q0.0938 -0.1562 0.1094 -0.1562 Q0.1406 -0.1406 0.1406 -0.1094 Q0.1406 -0.0938 0.125 -0.0781 Q0.1094 -0.0625 0.0781 -0.0625 Q0.1094 -0.0156 0.2031 -0.0156 Q0.2969 -0.0156 0.3281 -0.0938 Q0.3438 -0.1094 0.3438 -0.125 Q0.3438 -0.1719 0.2812 -0.1875 L0.2812 -0.1875 L0.2812 -0.1875 Q0.2656 -0.1875 0.2344 -0.2031 Q0.1406 -0.2188 0.1406 -0.2812 Q0.125 -0.2812 0.125 -0.2969 Q0.125 -0.3438 0.1719 -0.3906 Q0.2188 -0.4375 0.2969 -0.4375 Q0.375 -0.4375 0.4062 -0.3906 Q0.4219 -0.375 0.4219 -0.3594 Q0.4219 -0.3125 0.3906 -0.2969 Q0.375 -0.2969 0.375 -0.2969 Q0.3438 -0.2969 0.3438 -0.3281 Q0.3438 -0.3594 0.375 -0.375 Q0.375 -0.375 0.3906 -0.375 Z"
    /></g
    ><g transform="matrix(20,0,0,20,0,0) translate(0.6687,0.6306)" style="font-size:1; text-rendering:geometricPrecision; color-rendering:optimizeQuality; image-rendering:optimizeQuality; font-family:&apos;jlm_cmmi10&apos;; color-interpolation:linearRGB;"
    ><path style="stroke:none;" d="M0.0938 -0.0625 L0.0938 -0.0625 L0.1406 -0.2969 Q0.1562 -0.3594 0.1562 -0.375 Q0.1562 -0.4219 0.125 -0.4219 Q0.0938 -0.4219 0.0625 -0.3281 Q0.0625 -0.3125 0.0625 -0.2969 Q0.0469 -0.2812 0.0469 -0.2812 Q0.0312 -0.2812 0.0312 -0.2812 Q0.0312 -0.2969 0.0469 -0.3594 Q0.0469 -0.375 0.0625 -0.3906 Q0.0781 -0.4375 0.125 -0.4375 Q0.125 -0.4375 0.1406 -0.4375 Q0.1875 -0.4375 0.2188 -0.3906 Q0.2188 -0.375 0.2188 -0.3594 Q0.2969 -0.4375 0.375 -0.4375 Q0.4375 -0.4375 0.4688 -0.4219 Q0.4844 -0.3906 0.5 -0.3438 Q0.5625 -0.4375 0.6562 -0.4375 Q0.75 -0.4375 0.7656 -0.375 L0.7656 -0.375 Q0.7812 -0.3594 0.7812 -0.3281 Q0.7812 -0.2812 0.7188 -0.1094 Q0.6875 -0.0781 0.6875 -0.0469 Q0.6875 -0.0156 0.7188 -0.0156 Q0.7812 -0.0156 0.8125 -0.125 L0.8281 -0.1406 Q0.8281 -0.1562 0.8281 -0.1562 L0.8281 -0.1562 L0.8438 -0.1562 Q0.8438 -0.1562 0.8438 -0.1406 Q0.8438 -0.125 0.8281 -0.0781 Q0.7812 0.0156 0.7188 0.0156 Q0.6719 0.0156 0.6406 -0.0312 Q0.6406 -0.0469 0.6406 -0.0781 Q0.6406 -0.0938 0.6406 -0.125 Q0.7031 -0.2969 0.7031 -0.3438 Q0.7031 -0.4219 0.6562 -0.4219 Q0.5625 -0.4219 0.5156 -0.3281 Q0.5 -0.2969 0.4844 -0.2812 Q0.4844 -0.2812 0.4375 -0.0469 Q0.4219 0 0.4062 0 L0.4062 0 L0.4062 0 Q0.3906 0.0156 0.3906 0.0156 Q0.3594 0 0.3594 -0.0156 L0.375 -0.0781 L0.3906 -0.1562 L0.4219 -0.2656 Q0.4375 -0.3281 0.4375 -0.3438 Q0.4375 -0.4219 0.375 -0.4219 Q0.2812 -0.4219 0.2344 -0.3125 Q0.2188 -0.3125 0.2188 -0.2969 L0.2031 -0.25 Q0.2031 -0.2188 0.1875 -0.1875 L0.1562 -0.0938 Q0.1406 -0.0156 0.1406 -0.0156 Q0.1406 0.0156 0.1094 0.0156 Q0.0781 0 0.0781 -0.0156 Q0.0781 -0.0156 0.0938 -0.0625 Z"
    /></g
    ><g transform="matrix(20,0,0,20,0,0) translate(1.5468,0.7806) scale(0.7,0.7)" style="font-size:1; text-rendering:geometricPrecision; color-rendering:optimizeQuality; image-rendering:optimizeQuality; font-family:&apos;jlm_cmr10&apos;; color-interpolation:linearRGB;"
    ><path style="stroke:none;" d="M0.2969 -0.6406 L0.2969 -0.0781 Q0.2969 -0.0469 0.3125 -0.0469 Q0.3281 -0.0312 0.3906 -0.0312 L0.4219 -0.0312 L0.4219 0 Q0.3906 0 0.25 0 Q0.125 0 0.0938 0 L0.0938 -0.0312 L0.125 -0.0312 Q0.2031 -0.0312 0.2188 -0.0469 L0.2188 -0.0469 Q0.2188 -0.0625 0.2188 -0.0781 L0.2188 -0.5938 Q0.1719 -0.5781 0.0938 -0.5781 L0.0938 -0.6094 Q0.2031 -0.6094 0.2656 -0.6719 Q0.2969 -0.6719 0.2969 -0.6562 L0.2969 -0.6562 L0.2969 -0.6562 Q0.2969 -0.6562 0.2969 -0.6406 Z"
    /></g
  ></g
></svg
>
<rect fill="#FEFECE" filter="url(#fo7l7p2iwl8oa)" height="40" rx="12.5" ry="12.5" style="stroke: #A80036; stroke-width: 1.5;" width="52" x="398" y="35"/><svg x="403" y="45"><!--Generated by the Batik Graphics2D SVG Generator--><defs id="genericDefs"
  /><g
  ><g transform="scale(20,20) translate(0.2,0.6306)" style="font-size:1; text-rendering:geometricPrecision; color-rendering:optimizeQuality; image-rendering:optimizeQuality; font-family:&apos;jlm_cmmi10&apos;; color-interpolation:linearRGB;"
    ><path style="stroke:none;" d="M0.3906 -0.375 L0.3906 -0.375 Q0.375 -0.4219 0.2969 -0.4219 Q0.2188 -0.4219 0.1875 -0.3594 Q0.1875 -0.3438 0.1875 -0.3281 Q0.1875 -0.2969 0.2344 -0.2812 L0.2344 -0.2812 L0.2344 -0.2812 Q0.25 -0.2812 0.2656 -0.2656 Q0.3281 -0.25 0.3438 -0.2344 Q0.3594 -0.2344 0.3594 -0.2344 Q0.3906 -0.2031 0.3906 -0.1562 Q0.3906 -0.1094 0.3594 -0.0625 Q0.2969 0.0156 0.1875 0.0156 Q0.1094 0.0156 0.0625 -0.0469 Q0.0469 -0.0625 0.0469 -0.0938 Q0.0469 -0.1406 0.0938 -0.1562 Q0.0938 -0.1562 0.1094 -0.1562 Q0.1406 -0.1406 0.1406 -0.1094 Q0.1406 -0.0938 0.125 -0.0781 Q0.1094 -0.0625 0.0781 -0.0625 Q0.1094 -0.0156 0.2031 -0.0156 Q0.2969 -0.0156 0.3281 -0.0938 Q0.3438 -0.1094 0.3438 -0.125 Q0.3438 -0.1719 0.2812 -0.1875 L0.2812 -0.1875 L0.2812 -0.1875 Q0.2656 -0.1875 0.2344 -0.2031 Q0.1406 -0.2188 0.1406 -0.2812 Q0.125 -0.2812 0.125 -0.2969 Q0.125 -0.3438 0.1719 -0.3906 Q0.2188 -0.4375 0.2969 -0.4375 Q0.375 -0.4375 0.4062 -0.3906 Q0.4219 -0.375 0.4219 -0.3594 Q0.4219 -0.3125 0.3906 -0.2969 Q0.375 -0.2969 0.375 -0.2969 Q0.3438 -0.2969 0.3438 -0.3281 Q0.3438 -0.3594 0.375 -0.375 Q0.375 -0.375 0.3906 -0.375 Z"
    /></g
    ><g transform="matrix(20,0,0,20,0,0) translate(0.6687,0.6306)" style="font-size:1; text-rendering:geometricPrecision; color-rendering:optimizeQuality; image-rendering:optimizeQuality; font-family:&apos;jlm_cmmi10&apos;; color-interpolation:linearRGB;"
    ><path style="stroke:none;" d="M0.0938 -0.0625 L0.0938 -0.0625 L0.1406 -0.2969 Q0.1562 -0.3594 0.1562 -0.375 Q0.1562 -0.4219 0.125 -0.4219 Q0.0938 -0.4219 0.0625 -0.3281 Q0.0625 -0.3125 0.0625 -0.2969 Q0.0469 -0.2812 0.0469 -0.2812 Q0.0312 -0.2812 0.0312 -0.2812 Q0.0312 -0.2969 0.0469 -0.3594 Q0.0469 -0.375 0.0625 -0.3906 Q0.0781 -0.4375 0.125 -0.4375 Q0.125 -0.4375 0.1406 -0.4375 Q0.1875 -0.4375 0.2188 -0.3906 Q0.2188 -0.375 0.2188 -0.3594 Q0.2969 -0.4375 0.375 -0.4375 Q0.4375 -0.4375 0.4688 -0.4219 Q0.4844 -0.3906 0.5 -0.3438 Q0.5625 -0.4375 0.6562 -0.4375 Q0.75 -0.4375 0.7656 -0.375 L0.7656 -0.375 Q0.7812 -0.3594 0.7812 -0.3281 Q0.7812 -0.2812 0.7188 -0.1094 Q0.6875 -0.0781 0.6875 -0.0469 Q0.6875 -0.0156 0.7188 -0.0156 Q0.7812 -0.0156 0.8125 -0.125 L0.8281 -0.1406 Q0.8281 -0.1562 0.8281 -0.1562 L0.8281 -0.1562 L0.8438 -0.1562 Q0.8438 -0.1562 0.8438 -0.1406 Q0.8438 -0.125 0.8281 -0.0781 Q0.7812 0.0156 0.7188 0.0156 Q0.6719 0.0156 0.6406 -0.0312 Q0.6406 -0.0469 0.6406 -0.0781 Q0.6406 -0.0938 0.6406 -0.125 Q0.7031 -0.2969 0.7031 -0.3438 Q0.7031 -0.4219 0.6562 -0.4219 Q0.5625 -0.4219 0.5156 -0.3281 Q0.5 -0.2969 0.4844 -0.2812 Q0.4844 -0.2812 0.4375 -0.0469 Q0.4219 0 0.4062 0 L0.4062 0 L0.4062 0 Q0.3906 0.0156 0.3906 0.0156 Q0.3594 0 0.3594 -0.0156 L0.375 -0.0781 L0.3906 -0.1562 L0.4219 -0.2656 Q0.4375 -0.3281 0.4375 -0.3438 Q0.4375 -0.4219 0.375 -0.4219 Q0.2812 -0.4219 0.2344 -0.3125 Q0.2188 -0.3125 0.2188 -0.2969 L0.2031 -0.25 Q0.2031 -0.2188 0.1875 -0.1875 L0.1562 -0.0938 Q0.1406 -0.0156 0.1406 -0.0156 Q0.1406 0.0156 0.1094 0.0156 Q0.0781 0 0.0781 -0.0156 Q0.0781 -0.0156 0.0938 -0.0625 Z"
    /></g
    ><g transform="matrix(20,0,0,20,0,0) translate(1.5468,0.7806) scale(0.7,0.7)" style="font-size:1; text-rendering:geometricPrecision; color-rendering:optimizeQuality; image-rendering:optimizeQuality; font-family:&apos;jlm_cmr10&apos;; color-interpolation:linearRGB;"
    ><path style="stroke:none;" d="M0.2969 -0.6406 L0.2969 -0.0781 Q0.2969 -0.0469 0.3125 -0.0469 Q0.3281 -0.0312 0.3906 -0.0312 L0.4219 -0.0312 L0.4219 0 Q0.3906 0 0.25 0 Q0.125 0 0.0938 0 L0.0938 -0.0312 L0.125 -0.0312 Q0.2031 -0.0312 0.2188 -0.0469 L0.2188 -0.0469 Q0.2188 -0.0625 0.2188 -0.0781 L0.2188 -0.5938 Q0.1719 -0.5781 0.0938 -0.5781 L0.0938 -0.6094 Q0.2031 -0.6094 0.2656 -0.6719 Q0.2969 -0.6719 0.2969 -0.6562 L0.2969 -0.6562 L0.2969 -0.6562 Q0.2969 -0.6562 0.2969 -0.6406 Z"
    /></g
  ></g
></svg
>
<ellipse cx="16" cy="55" fill="#000000" filter="url(#fo7l7p2iwl8oa)" rx="10" ry="10" style="stroke: none; stroke-width: 1.0;"/><ellipse cx="514" cy="55" fill="none" filter="url(#fo7l7p2iwl8oa)" rx="10" ry="10" style="stroke: #000000; stroke-width: 1.0;"/><ellipse cx="514.5" cy="55.5" fill="#000000" rx="6" ry="6" style="stroke: none; stroke-width: 1.0;"/><!--link *start to sm1a--><path d="M26.3241,55 C38.0403,55 57.7136,55 74.5791,55 " fill="none" id="*start-sm1a" style="stroke: #A80036; stroke-width: 1.0;"/><polygon fill="#A80036" points="79.7112,55,70.7112,51,74.7112,55,70.7112,59,79.7112,55" style="stroke: #A80036; stroke-width: 1.0;"/><svg x="44.5" y="34"><!--Generated by the Batik Graphics2D SVG Generator--><defs id="genericDefs"
  /><g
  ><g transform="scale(20,20) translate(0.2,0.6306)" style="font-size:1; text-rendering:geometricPrecision; color-rendering:optimizeQuality; image-rendering:optimizeQuality; font-family:&apos;jlm_cmmi10&apos;; color-interpolation:linearRGB;"
    ><path style="stroke:none;" d="M0.2969 -0.2188 L0.2969 -0.2188 L0.1406 -0.2188 Q0.125 -0.1875 0.125 -0.1406 Q0.125 -0.0469 0.1875 -0.0156 Q0.2031 -0.0156 0.2344 -0.0156 Q0.2812 -0.0156 0.3281 -0.0469 Q0.3438 -0.0469 0.3438 -0.0469 Q0.3594 -0.0469 0.3594 -0.0469 Q0.3594 -0.0312 0.3125 -0.0156 Q0.2656 0.0156 0.2344 0.0156 Q0.125 0.0156 0.0781 -0.0625 Q0.0469 -0.1094 0.0469 -0.1719 Q0.0469 -0.2969 0.1406 -0.375 Q0.2188 -0.4375 0.3125 -0.4375 L0.3438 -0.4375 Q0.375 -0.4375 0.375 -0.4219 Q0.375 -0.4062 0.3438 -0.4062 L0.3125 -0.4062 Q0.2031 -0.4062 0.1562 -0.2812 Q0.1406 -0.2656 0.1406 -0.25 L0.2969 -0.25 Q0.3281 -0.25 0.3281 -0.25 Q0.3281 -0.2188 0.2969 -0.2188 Z"
    /></g
  ></g
></svg
>
<!--link sm1a to sm1b--><path d="M132.2023,55 C146.8539,55 165.2133,55 180.6271,55 " fill="none" id="sm1a-sm1b" style="stroke: #A80036; stroke-width: 1.0;"/><polygon fill="#A80036" points="185.7318,55,176.7318,51,180.7318,55,176.7318,59,185.7318,55" style="stroke: #A80036; stroke-width: 1.0;"/><svg x="150.5" y="34"><!--Generated by the Batik Graphics2D SVG Generator--><defs id="genericDefs"
  /><g
  ><g transform="scale(20,20) translate(0.2,0.6306)" style="font-size:1; text-rendering:geometricPrecision; color-rendering:optimizeQuality; image-rendering:optimizeQuality; font-family:&apos;jlm_cmmi10&apos;; color-interpolation:linearRGB;"
    ><path style="stroke:none;" d="M0.2969 -0.2188 L0.2969 -0.2188 L0.1406 -0.2188 Q0.125 -0.1875 0.125 -0.1406 Q0.125 -0.0469 0.1875 -0.0156 Q0.2031 -0.0156 0.2344 -0.0156 Q0.2812 -0.0156 0.3281 -0.0469 Q0.3438 -0.0469 0.3438 -0.0469 Q0.3594 -0.0469 0.3594 -0.0469 Q0.3594 -0.0312 0.3125 -0.0156 Q0.2656 0.0156 0.2344 0.0156 Q0.125 0.0156 0.0781 -0.0625 Q0.0469 -0.1094 0.0469 -0.1719 Q0.0469 -0.2969 0.1406 -0.375 Q0.2188 -0.4375 0.3125 -0.4375 L0.3438 -0.4375 Q0.375 -0.4375 0.375 -0.4219 Q0.375 -0.4062 0.3438 -0.4062 L0.3125 -0.4062 Q0.2031 -0.4062 0.1562 -0.2812 Q0.1406 -0.2656 0.1406 -0.25 L0.2969 -0.25 Q0.3281 -0.25 0.3281 -0.25 Q0.3281 -0.2188 0.2969 -0.2188 Z"
    /></g
  ></g
></svg
>
<!--link sm1b to sm1c--><path d="M238.2023,55 C252.8539,55 271.2133,55 286.6271,55 " fill="none" id="sm1b-sm1c" style="stroke: #A80036; stroke-width: 1.0;"/><polygon fill="#A80036" points="291.7318,55,282.7318,51,286.7318,55,282.7318,59,291.7318,55" style="stroke: #A80036; stroke-width: 1.0;"/><svg x="256.5" y="34"><!--Generated by the Batik Graphics2D SVG Generator--><defs id="genericDefs"
  /><g
  ><g transform="scale(20,20) translate(0.2,0.6306)" style="font-size:1; text-rendering:geometricPrecision; color-rendering:optimizeQuality; image-rendering:optimizeQuality; font-family:&apos;jlm_cmmi10&apos;; color-interpolation:linearRGB;"
    ><path style="stroke:none;" d="M0.2969 -0.2188 L0.2969 -0.2188 L0.1406 -0.2188 Q0.125 -0.1875 0.125 -0.1406 Q0.125 -0.0469 0.1875 -0.0156 Q0.2031 -0.0156 0.2344 -0.0156 Q0.2812 -0.0156 0.3281 -0.0469 Q0.3438 -0.0469 0.3438 -0.0469 Q0.3594 -0.0469 0.3594 -0.0469 Q0.3594 -0.0312 0.3125 -0.0156 Q0.2656 0.0156 0.2344 0.0156 Q0.125 0.0156 0.0781 -0.0625 Q0.0469 -0.1094 0.0469 -0.1719 Q0.0469 -0.2969 0.1406 -0.375 Q0.2188 -0.4375 0.3125 -0.4375 L0.3438 -0.4375 Q0.375 -0.4375 0.375 -0.4219 Q0.375 -0.4062 0.3438 -0.4062 L0.3125 -0.4062 Q0.2031 -0.4062 0.1562 -0.2812 Q0.1406 -0.2656 0.1406 -0.25 L0.2969 -0.25 Q0.3281 -0.25 0.3281 -0.25 Q0.3281 -0.2188 0.2969 -0.2188 Z"
    /></g
  ></g
></svg
>
<!--link sm1c to sm1d--><path d="M344.2023,55 C358.8539,55 377.2133,55 392.6271,55 " fill="none" id="sm1c-sm1d" style="stroke: #A80036; stroke-width: 1.0;"/><polygon fill="#A80036" points="397.7318,55,388.7318,51,392.7318,55,388.7318,59,397.7318,55" style="stroke: #A80036; stroke-width: 1.0;"/><svg x="362.5" y="34"><!--Generated by the Batik Graphics2D SVG Generator--><defs id="genericDefs"
  /><g
  ><g transform="scale(20,20) translate(0.2,0.6306)" style="font-size:1; text-rendering:geometricPrecision; color-rendering:optimizeQuality; image-rendering:optimizeQuality; font-family:&apos;jlm_cmmi10&apos;; color-interpolation:linearRGB;"
    ><path style="stroke:none;" d="M0.2969 -0.2188 L0.2969 -0.2188 L0.1406 -0.2188 Q0.125 -0.1875 0.125 -0.1406 Q0.125 -0.0469 0.1875 -0.0156 Q0.2031 -0.0156 0.2344 -0.0156 Q0.2812 -0.0156 0.3281 -0.0469 Q0.3438 -0.0469 0.3438 -0.0469 Q0.3594 -0.0469 0.3594 -0.0469 Q0.3594 -0.0312 0.3125 -0.0156 Q0.2656 0.0156 0.2344 0.0156 Q0.125 0.0156 0.0781 -0.0625 Q0.0469 -0.1094 0.0469 -0.1719 Q0.0469 -0.2969 0.1406 -0.375 Q0.2188 -0.4375 0.3125 -0.4375 L0.3438 -0.4375 Q0.375 -0.4375 0.375 -0.4219 Q0.375 -0.4062 0.3438 -0.4062 L0.3125 -0.4062 Q0.2031 -0.4062 0.1562 -0.2812 Q0.1406 -0.2656 0.1406 -0.25 L0.2969 -0.25 Q0.3281 -0.25 0.3281 -0.25 Q0.3281 -0.2188 0.2969 -0.2188 Z"
    /></g
  ></g
></svg
>
<!--link sm1d to *end--><path d="M450.0317,55 C465.6581,55 485.0197,55 498.324,55 " fill="none" id="sm1d-*end" style="stroke: #A80036; stroke-width: 1.0;"/><polygon fill="#A80036" points="503.6264,55,494.6264,51,498.6264,55,494.6264,59,503.6264,55" style="stroke: #A80036; stroke-width: 1.0;"/><svg x="468.5" y="34"><!--Generated by the Batik Graphics2D SVG Generator--><defs id="genericDefs"
  /><g
  ><g transform="scale(20,20) translate(0.2,0.6306)" style="font-size:1; text-rendering:geometricPrecision; color-rendering:optimizeQuality; image-rendering:optimizeQuality; font-family:&apos;jlm_cmmi10&apos;; color-interpolation:linearRGB;"
    ><path style="stroke:none;" d="M0.2969 -0.2188 L0.2969 -0.2188 L0.1406 -0.2188 Q0.125 -0.1875 0.125 -0.1406 Q0.125 -0.0469 0.1875 -0.0156 Q0.2031 -0.0156 0.2344 -0.0156 Q0.2812 -0.0156 0.3281 -0.0469 Q0.3438 -0.0469 0.3438 -0.0469 Q0.3594 -0.0469 0.3594 -0.0469 Q0.3594 -0.0312 0.3125 -0.0156 Q0.2656 0.0156 0.2344 0.0156 Q0.125 0.0156 0.0781 -0.0625 Q0.0469 -0.1094 0.0469 -0.1719 Q0.0469 -0.2969 0.1406 -0.375 Q0.2188 -0.4375 0.3125 -0.4375 L0.3438 -0.4375 Q0.375 -0.4375 0.375 -0.4219 Q0.375 -0.4062 0.3438 -0.4062 L0.3125 -0.4062 Q0.2031 -0.4062 0.1562 -0.2812 Q0.1406 -0.2656 0.1406 -0.25 L0.2969 -0.25 Q0.3281 -0.25 0.3281 -0.25 Q0.3281 -0.2188 0.2969 -0.2188 Z"
    /></g
  ></g
></svg
>
<!--link sm1b to *end--><path d="M238.2872,40.2971 C253.5915,32.5857 273.5513,23.9411 292.5,20 C361.2509,5.7007 382.4935,2.4992 450.5,20 C469.8262,24.9734 489.5678,37.2091 501.799,45.8054 " fill="none" id="sm1b-*end" style="stroke: #A80036; stroke-width: 1.0;"/><polygon fill="#A80036" points="505.9507,48.7876,500.9746,40.2883,501.8897,45.8706,496.3074,46.7858,505.9507,48.7876" style="stroke: #A80036; stroke-width: 1.0;"/><!--link sm1c to *end--><path d="M344.2872,40.2971 C359.5915,32.5857 379.5513,23.9411 398.5,20 C421.1269,15.2939 428.1181,14.2402 450.5,20 C469.8262,24.9734 489.5678,37.2091 501.799,45.8054 " fill="none" id="sm1c-*end" style="stroke: #A80036; stroke-width: 1.0;"/><polygon fill="#A80036" points="505.9507,48.7876,500.9746,40.2883,501.8897,45.8706,496.3074,46.7858,505.9507,48.7876" style="stroke: #A80036; stroke-width: 1.0;"/><!--
@startuml
hide empty description

state "<math>sm_1</math>" as sm1a
state "<math>sm_1</math>" as sm1b
state "<math>sm_1</math>" as sm1c
state "<math>sm_1</math>" as sm1d

[*]  -> sm1a : <math>\epsilon</math>
sm1a -> sm1b : <math>\epsilon</math>
sm1b -> sm1c : <math>\epsilon</math>
sm1c -> sm1d : <math>\epsilon</math>
sm1d -> [*]  : <math>\epsilon</math>

sm1b -> [*]
sm1c -> [*]

@enduml

PlantUML version 1.2019.07(Mon Jun 24 21:59:20 CEST 2019)
(GPL source distribution)
Java Runtime: OpenJDK Runtime Environment
JVM: OpenJDK 64-Bit Server VM
Java Version: 1.8.0_151-b12
Operating System: Linux
OS Version: 4.4.14-11.pvops.qubes.x86_64
Default Encoding: UTF-8
Language: en
Country: US
--></g></svg>