<?xml version="1.0" encoding="UTF-8" standalone="no"?><svg xmlns="http://www.w3.org/2000/svg" xmlns:xlink="http://www.w3.org/1999/xlink" contentScriptType="application/ecmascript" contentStyleType="text/css" height="195px" preserveAspectRatio="none" style="width:705px;height:195px;" version="1.1" viewBox="0 0 705 195" width="705px" zoomAndPan="magnify"><defs><filter height="300%" id="f1tvuvm2cknhea" width="300%" x="-1" y="-1"><feGaussianBlur result="blurOut" stdDeviation="2.0"/><feColorMatrix in="blurOut" result="blurOut2" type="matrix" values="0 0 0 0 0 0 0 0 0 0 0 0 0 0 0 0 0 0 .4 0"/><feOffset dx="4.0" dy="4.0" in="blurOut2" result="blurOut3"/><feBlend in="SourceGraphic" in2="blurOut3" mode="normal"/></filter></defs><g><!--cluster pandoc--><rect fill="#FEFECE" filter="url(#f1tvuvm2cknhea)" height="75" rx="12.5" ry="12.5" style="stroke: #A80036; stroke-width: 1.5;" width="188" x="265.5" y="16"/><rect fill="#FFFFFF" height="42.7031" rx="12.5" ry="12.5" style="stroke: #FFFFFF; stroke-width: 1.0;" width="182" x="268.5" y="45.2969"/><line style="stroke: #A80036; stroke-width: 1.5;" x1="265.5" x2="453.5" y1="42.2969" y2="42.2969"/><text fill="#000000" font-family="sans-serif" font-size="14" lengthAdjust="spacingAndGlyphs" textLength="52" x="333.5" y="32.9951">Pandoc</text><rect fill="#FEFECE" filter="url(#f1tvuvm2cknhea)" height="40" rx="12.5" ry="12.5" style="stroke: #A80036; stroke-width: 1.5;" width="50" x="273.5" y="43"/><text fill="#000000" font-family="sans-serif" font-size="14" lengthAdjust="spacingAndGlyphs" textLength="29" x="284" y="67.8467">Json</text><rect fill="#FEFECE" filter="url(#f1tvuvm2cknhea)" height="40" rx="12.5" ry="12.5" style="stroke: #A80036; stroke-width: 1.5;" width="50" x="395.5" y="43"/><text fill="#000000" font-family="sans-serif" font-size="14" lengthAdjust="spacingAndGlyphs" textLength="29" x="406" y="67.8467">Json</text><rect fill="#FEFECE" filter="url(#f1tvuvm2cknhea)" height="40" rx="12.5" ry="12.5" style="stroke: #A80036; stroke-width: 1.5;" width="81" x="6" y="43"/><text fill="#000000" font-family="sans-serif" font-size="14" lengthAdjust="spacingAndGlyphs" textLength="71" x="11" y="67.8467">Markdown</text><rect fill="#FEFECE" filter="url(#f1tvuvm2cknhea)" height="40" rx="12.5" ry="12.5" style="stroke: #A80036; stroke-width: 1.5;" width="81" x="157" y="43"/><text fill="#000000" font-family="sans-serif" font-size="14" lengthAdjust="spacingAndGlyphs" textLength="71" x="162" y="67.8467">Markdown</text><rect fill="#FEFECE" filter="url(#f1tvuvm2cknhea)" height="40" rx="12.5" ry="12.5" style="stroke: #A80036; stroke-width: 1.5;" width="76" x="480.5" y="43"/><text fill="#000000" font-family="sans-serif" font-size="14" lengthAdjust="spacingAndGlyphs" textLength="66" x="485.5" y="67.8467">Tex/Latex</text><rect fill="#FEFECE" filter="url(#f1tvuvm2cknhea)" height="40" rx="12.5" ry="12.5" style="stroke: #A80036; stroke-width: 1.5;" width="50" x="395.5" y="144"/><text fill="#000000" font-family="sans-serif" font-size="14" lengthAdjust="spacingAndGlyphs" textLength="30" x="405.5" y="168.8467">html</text><rect fill="#FEFECE" filter="url(#f1tvuvm2cknhea)" height="40" rx="12.5" ry="12.5" style="stroke: #A80036; stroke-width: 1.5;" width="50" x="644.5" y="43"/><text fill="#000000" font-family="sans-serif" font-size="14" lengthAdjust="spacingAndGlyphs" textLength="28" x="655.5" y="67.8467">PDF</text><!--link md1 to md2--><path d="M87.3628,63 C107.2509,63 131.233,63 151.7339,63 " fill="none" id="md1-md2" style="stroke: #A80036; stroke-width: 1.0;"/><polygon fill="#A80036" points="156.8664,63,147.8664,59,151.8664,63,147.8664,67,156.8664,63" style="stroke: #A80036; stroke-width: 1.0;"/><text fill="#000000" font-family="sans-serif" font-size="13" lengthAdjust="spacingAndGlyphs" textLength="33" x="105.5" y="56.0669">Jinja2</text><!--link js1 to js2--><path d="M323.7785,63 C343.0809,63 369.7513,63 390.198,63 " fill="none" id="js1-js2" style="stroke: #A80036; stroke-width: 1.0; stroke-dasharray: 7.0,7.0;"/><polygon fill="#A80036" points="395.2539,63,386.2539,59,390.2539,63,386.2539,67,395.2539,63" style="stroke: #A80036; stroke-width: 1.0;"/><text fill="#000000" font-family="sans-serif" font-size="13" lengthAdjust="spacingAndGlyphs" textLength="35" x="342" y="56.0669">filters</text><!--link md2 to js1--><path d="M238.1367,63 C248.0425,63 257.9483,63 267.8541,63 " fill="none" id="md2-js1" style="stroke: #A80036; stroke-width: 1.0;"/><polygon fill="#A80036" points="273.0342,63,264.0342,59,268.0342,63,264.0342,67,273.0342,63" style="stroke: #A80036; stroke-width: 1.0;"/><!--link js2 to tex--><path d="M445.7656,63 C455.6047,63 465.4438,63 475.2829,63 " fill="none" id="js2-tex" style="stroke: #A80036; stroke-width: 1.0;"/><polygon fill="#A80036" points="480.4281,63,471.4281,59,475.4281,63,471.4281,67,480.4281,63" style="stroke: #A80036; stroke-width: 1.0;"/><!--link js2 to html--><path d="M420.5,83.4389 C420.5,99.4236 420.5,121.7261 420.5,138.8135 " fill="none" id="js2-html" style="stroke: #A80036; stroke-width: 1.0;"/><polygon fill="#A80036" points="420.5,143.9362,424.5,134.9362,420.5,138.9362,416.5,134.9362,420.5,143.9362" style="stroke: #A80036; stroke-width: 1.0;"/><!--link tex to PDF--><path d="M556.6037,63 C582.1084,63 615.2301,63 638.992,63 " fill="none" id="tex-PDF" style="stroke: #A80036; stroke-width: 1.0;"/><polygon fill="#A80036" points="644.2154,63,635.2154,59,639.2154,63,635.2154,67,644.2154,63" style="stroke: #A80036; stroke-width: 1.0;"/><text fill="#000000" font-family="sans-serif" font-size="13" lengthAdjust="spacingAndGlyphs" textLength="51" x="575" y="56.0669">pdflatex</text><!--
@startuml
hide empty description

state "Markdown" as md1
state "Markdown" as md2

md1 -right-> md2 : Jinja2

state "Pandoc" as pandoc {
state "Json" as js1
state "Json" as js2

js1 -right[dashed]-> js2 : filters
}

md2 -right-> js1

state "Tex/Latex" as tex
js2 -> tex
js2 -down-> html

tex -> PDF : pdflatex

@enduml

PlantUML version 1.2019.07(Mon Jun 24 21:59:20 CEST 2019)
(GPL source distribution)
Java Runtime: OpenJDK Runtime Environment
JVM: OpenJDK 64-Bit Server VM
Java Version: 1.8.0_151-b12
Operating System: Linux
OS Version: 4.4.14-11.pvops.qubes.x86_64
Default Encoding: UTF-8
Language: en
Country: US
--></g></svg>