<?xml version="1.0" encoding="UTF-8" standalone="no"?><svg xmlns="http://www.w3.org/2000/svg" xmlns:xlink="http://www.w3.org/1999/xlink" contentScriptType="application/ecmascript" contentStyleType="text/css" height="57px" preserveAspectRatio="none" style="width:111px;height:57px;" version="1.1" viewBox="0 0 111 57" width="111px" zoomAndPan="magnify"><defs><filter height="300%" id="fvwvq8z50m3cu" width="300%" x="-1" y="-1"><feGaussianBlur result="blurOut" stdDeviation="2.0"/><feColorMatrix in="blurOut" result="blurOut2" type="matrix" values="0 0 0 0 0 0 0 0 0 0 0 0 0 0 0 0 0 0 .4 0"/><feOffset dx="4.0" dy="4.0" in="blurOut2" result="blurOut3"/><feBlend in="SourceGraphic" in2="blurOut3" mode="normal"/></filter></defs><g><ellipse cx="16" cy="22" fill="#000000" filter="url(#fvwvq8z50m3cu)" rx="10" ry="10" style="stroke: none; stroke-width: 1.0;"/><ellipse cx="90" cy="22" fill="none" filter="url(#fvwvq8z50m3cu)" rx="10" ry="10" style="stroke: #000000; stroke-width: 1.0;"/><ellipse cx="90.5" cy="22.5" fill="#000000" rx="6" ry="6" style="stroke: none; stroke-width: 1.0;"/><!--link *start to *end--><path d="M26.2894,22 C38.7705,22 59.9344,22 74.4189,22 " fill="none" id="*start-*end" style="stroke: #A80036; stroke-width: 1.0;"/><polygon fill="#A80036" points="79.798,22,70.798,18,74.798,22,70.798,26,79.798,22" style="stroke: #A80036; stroke-width: 1.0;"/><svg x="44.5" y="1"><!--Generated by the Batik Graphics2D SVG Generator--><defs id="genericDefs"
  /><g
  ><g transform="scale(20,20) translate(0.2,0.6306)" style="font-size:1; text-rendering:geometricPrecision; color-rendering:optimizeQuality; image-rendering:optimizeQuality; font-family:&apos;jlm_cmmi10&apos;; color-interpolation:linearRGB;"
    ><path style="stroke:none;" d="M0.2969 -0.2188 L0.2969 -0.2188 L0.1406 -0.2188 Q0.125 -0.1875 0.125 -0.1406 Q0.125 -0.0469 0.1875 -0.0156 Q0.2031 -0.0156 0.2344 -0.0156 Q0.2812 -0.0156 0.3281 -0.0469 Q0.3438 -0.0469 0.3438 -0.0469 Q0.3594 -0.0469 0.3594 -0.0469 Q0.3594 -0.0312 0.3125 -0.0156 Q0.2656 0.0156 0.2344 0.0156 Q0.125 0.0156 0.0781 -0.0625 Q0.0469 -0.1094 0.0469 -0.1719 Q0.0469 -0.2969 0.1406 -0.375 Q0.2188 -0.4375 0.3125 -0.4375 L0.3438 -0.4375 Q0.375 -0.4375 0.375 -0.4219 Q0.375 -0.4062 0.3438 -0.4062 L0.3125 -0.4062 Q0.2031 -0.4062 0.1562 -0.2812 Q0.1406 -0.2656 0.1406 -0.25 L0.2969 -0.25 Q0.3281 -0.25 0.3281 -0.25 Q0.3281 -0.2188 0.2969 -0.2188 Z"
    /></g
  ></g
></svg
>
<!--link *start to *end--><path d="M23.1448,29.0481 C31.2791,36.1893 45.1131,45.6959 58,42 C65.2264,39.9275 72.4039,35.6945 78.1244,31.6544 " fill="none" id="*start-*end-1" style="stroke: #A80036; stroke-width: 1.0;"/><polygon fill="#A80036" points="82.1916,28.6413,72.5788,30.7847,78.174,31.6177,77.341,37.2128,82.1916,28.6413" style="stroke: #A80036; stroke-width: 1.0;"/><text fill="#000000" font-family="sans-serif" font-size="13" lengthAdjust="spacingAndGlyphs" textLength="8" x="49" y="38.0669">a</text><!--
@startuml
hide empty description

[*] -> [*] : <math>\epsilon</math>
[*] -> [*] : a

@enduml

PlantUML version 1.2019.07(Mon Jun 24 21:59:20 CEST 2019)
(GPL source distribution)
Java Runtime: OpenJDK Runtime Environment
JVM: OpenJDK 64-Bit Server VM
Java Version: 1.8.0_151-b12
Operating System: Linux
OS Version: 4.4.14-11.pvops.qubes.x86_64
Default Encoding: UTF-8
Language: en
Country: US
--></g></svg>