<?xml version="1.0" encoding="UTF-8" standalone="no"?>
<!DOCTYPE svg PUBLIC "-//W3C//DTD SVG 1.1//EN"
 "http://www.w3.org/Graphics/SVG/1.1/DTD/svg11.dtd">
<!-- Generated by graphviz version 2.40.1 (20161225.0304)
 -->
<!-- Title: G Pages: 1 -->
<svg width="182pt" height="182pt"
 viewBox="0.00 0.00 181.51 181.51" xmlns="http://www.w3.org/2000/svg" xmlns:xlink="http://www.w3.org/1999/xlink">
<g id="graph0" class="graph" transform="scale(1 1) rotate(0) translate(4 177.5099)">
<title>G</title>
<polygon fill="#ffffff" stroke="transparent" points="-4,4 -4,-177.5099 177.5099,-177.5099 177.5099,4 -4,4"/>
<!-- 11 -->
<g id="node1" class="node">
<title>11</title>
<ellipse fill="none" stroke="#000000" cx="86.7549" cy="-18" rx="18" ry="18"/>
<text text-anchor="middle" x="86.7549" y="-14.3" font-family="Times,serif" font-size="14.00" fill="#000000">11</text>
</g>
<!-- 11&#45;&gt;11 -->
<g id="edge8" class="edge">
<title>11&#45;&gt;11</title>
<path fill="none" stroke="#000000" d="M103.7922,-24.3792C113.6128,-25.6811 122.7549,-23.5547 122.7549,-18 122.7549,-14.5283 119.1838,-12.3958 114.1079,-11.6025"/>
<polygon fill="#000000" stroke="#000000" points="113.786,-8.1029 103.7922,-11.6208 113.7985,-15.1029 113.786,-8.1029"/>
<text text-anchor="middle" x="127.7549" y="-14.3" font-family="Times,serif" font-size="14.00" fill="#000000">1</text>
</g>
<!-- 10 -->
<g id="node2" class="node">
<title>10</title>
<ellipse fill="none" stroke="#000000" cx="18" cy="-86.7549" rx="18" ry="18"/>
<text text-anchor="middle" x="18" y="-83.0549" font-family="Times,serif" font-size="14.00" fill="#000000">10</text>
</g>
<!-- 11&#45;&gt;10 -->
<g id="edge1" class="edge">
<title>11&#45;&gt;10</title>
<path fill="none" stroke="#000000" d="M73.8227,-30.9323C63.7391,-41.0158 49.5571,-55.1978 38.0113,-66.7436"/>
<polygon fill="#000000" stroke="#000000" points="35.4705,-64.3347 30.8743,-73.8806 40.4203,-69.2844 35.4705,-64.3347"/>
<text text-anchor="middle" x="41.917" y="-52.638" font-family="Times,serif" font-size="14.00" fill="#000000">0 &#160;&#160;&#160;</text>
</g>
<!-- 00 -->
<g id="node3" class="node">
<title>00</title>
<ellipse fill="none" stroke="#000000" cx="86.7549" cy="-155.5099" rx="18" ry="18"/>
<text text-anchor="middle" x="86.7549" y="-151.8099" font-family="Times,serif" font-size="14.00" fill="#000000">00</text>
</g>
<!-- 10&#45;&gt;00 -->
<g id="edge2" class="edge">
<title>10&#45;&gt;00</title>
<path fill="none" stroke="#000000" d="M30.9323,-99.6872C41.0158,-109.7707 55.1978,-123.9528 66.7436,-135.4986"/>
<polygon fill="#000000" stroke="#000000" points="64.3347,-138.0394 73.8806,-142.6356 69.2844,-133.0896 64.3347,-138.0394"/>
<text text-anchor="middle" x="43.838" y="-121.3929" font-family="Times,serif" font-size="14.00" fill="#000000">0</text>
</g>
<!-- 01 -->
<g id="node4" class="node">
<title>01</title>
<ellipse fill="none" stroke="#000000" cx="155.5099" cy="-86.7549" rx="18" ry="18"/>
<text text-anchor="middle" x="155.5099" y="-83.0549" font-family="Times,serif" font-size="14.00" fill="#000000">01</text>
</g>
<!-- 10&#45;&gt;01 -->
<g id="edge6" class="edge">
<title>10&#45;&gt;01</title>
<path fill="none" stroke="#000000" d="M35.4157,-91.4281C58.6391,-93.8637 100.0179,-94.157 127.6146,-92.3081"/>
<polygon fill="#000000" stroke="#000000" points="128.1267,-95.7777 137.8012,-91.4586 127.5449,-88.8019 128.1267,-95.7777"/>
<text text-anchor="middle" x="65.5152" y="-95.6681" font-family="Times,serif" font-size="14.00" fill="#000000"> &#160;&#160;1 &#160;</text>
</g>
<!-- 00&#45;&gt;00 -->
<g id="edge7" class="edge">
<title>00&#45;&gt;00</title>
<path fill="none" stroke="#000000" d="M103.7922,-161.8891C113.6128,-163.191 122.7549,-161.0646 122.7549,-155.5099 122.7549,-152.0382 119.1838,-149.9057 114.1079,-149.1124"/>
<polygon fill="#000000" stroke="#000000" points="113.786,-145.6128 103.7922,-149.1307 113.7985,-152.6128 113.786,-145.6128"/>
<text text-anchor="middle" x="127.7549" y="-151.8099" font-family="Times,serif" font-size="14.00" fill="#000000">0</text>
</g>
<!-- 00&#45;&gt;01 -->
<g id="edge3" class="edge">
<title>00&#45;&gt;01</title>
<path fill="none" stroke="#000000" d="M99.6872,-142.5776C109.7707,-132.4941 123.9528,-118.312 135.4986,-106.7662"/>
<polygon fill="#000000" stroke="#000000" points="138.0394,-109.1752 142.6356,-99.6292 133.0896,-104.2254 138.0394,-109.1752"/>
<text text-anchor="middle" x="110.5929" y="-113.4719" font-family="Times,serif" font-size="14.00" fill="#000000">1 </text>
</g>
<!-- 01&#45;&gt;11 -->
<g id="edge4" class="edge">
<title>01&#45;&gt;11</title>
<path fill="none" stroke="#000000" d="M142.5776,-73.8227C132.4941,-63.7391 118.312,-49.5571 106.7662,-38.0113"/>
<polygon fill="#000000" stroke="#000000" points="109.1752,-35.4705 99.6292,-30.8743 104.2254,-40.4203 109.1752,-35.4705"/>
<text text-anchor="middle" x="119.6719" y="-59.717" font-family="Times,serif" font-size="14.00" fill="#000000">1</text>
</g>
<!-- 01&#45;&gt;10 -->
<g id="edge5" class="edge">
<title>01&#45;&gt;10</title>
<path fill="none" stroke="#000000" d="M138.0942,-82.0818C114.8708,-79.6462 73.4919,-79.3528 45.8952,-81.2017"/>
<polygon fill="#000000" stroke="#000000" points="45.3832,-77.7322 35.7087,-82.0513 45.965,-84.708 45.3832,-77.7322"/>
<text text-anchor="middle" x="73.4947" y="-70.4417" font-family="Times,serif" font-size="14.00" fill="#000000"> &#160;&#160;&#160;0 &#160;</text>
</g>
</g>
</svg>
