<?xml version="1.0" encoding="UTF-8" standalone="no"?><svg xmlns="http://www.w3.org/2000/svg" xmlns:xlink="http://www.w3.org/1999/xlink" contentScriptType="application/ecmascript" contentStyleType="text/css" height="337px" preserveAspectRatio="none" style="width:945px;height:337px;" version="1.1" viewBox="0 0 945 337" width="945px" zoomAndPan="magnify"><defs><filter height="300%" id="f1hgywb46ld27b" width="300%" x="-1" y="-1"><feGaussianBlur result="blurOut" stdDeviation="2.0"/><feColorMatrix in="blurOut" result="blurOut2" type="matrix" values="0 0 0 0 0 0 0 0 0 0 0 0 0 0 0 0 0 0 .4 0"/><feOffset dx="4.0" dy="4.0" in="blurOut2" result="blurOut3"/><feBlend in="SourceGraphic" in2="blurOut3" mode="normal"/></filter></defs><g><rect fill="#FEFECE" filter="url(#f1hgywb46ld27b)" height="107.7813" rx="12.5" ry="12.5" style="stroke: #A80036; stroke-width: 1.5;" width="166" x="235.5" y="101"/><text fill="#000000" font-family="sans-serif" font-size="14" lengthAdjust="spacingAndGlyphs" textLength="109" x="264" y="118.9951">0) Create player</text><text fill="#000000" font-family="sans-serif" font-size="14" lengthAdjust="spacingAndGlyphs" textLength="156" x="240.5" y="135.292">1) Update player name</text><text fill="#000000" font-family="sans-serif" font-size="14" lengthAdjust="spacingAndGlyphs" textLength="109" x="264" y="151.5889">2) Delete player</text><text fill="#000000" font-family="sans-serif" font-size="14" lengthAdjust="spacingAndGlyphs" textLength="105" x="266" y="167.8857">3) Player attack</text><text fill="#000000" font-family="sans-serif" font-size="14" lengthAdjust="spacingAndGlyphs" textLength="112" x="262.5" y="184.1826">4) Player defend</text><text fill="#000000" font-family="sans-serif" font-size="14" lengthAdjust="spacingAndGlyphs" textLength="131" x="253" y="200.4795">5) Get current time</text><rect fill="#FEFECE" filter="url(#f1hgywb46ld27b)" height="40" rx="12.5" ry="12.5" style="stroke: #A80036; stroke-width: 1.5;" width="140" x="794.5" y="135"/><text fill="#000000" font-family="sans-serif" font-size="14" lengthAdjust="spacingAndGlyphs" textLength="130" x="799.5" y="159.8467">Enter player name:</text><rect fill="#FEFECE" filter="url(#f1hgywb46ld27b)" height="40" rx="12.5" ry="12.5" style="stroke: #A80036; stroke-width: 1.5;" width="196" x="563.5" y="135"/><text fill="#000000" font-family="sans-serif" font-size="14" lengthAdjust="spacingAndGlyphs" textLength="186" x="568.5" y="159.8467">User created, first delete it.</text><rect fill="#FEFECE" filter="url(#f1hgywb46ld27b)" height="40" rx="12.5" ry="12.5" style="stroke: #A80036; stroke-width: 1.5;" width="293" x="6" y="286"/><text fill="#000000" font-family="sans-serif" font-size="14" lengthAdjust="spacingAndGlyphs" textLength="283" x="11" y="310.8467">Monster %s defends with %d of defense.</text><rect fill="#FEFECE" filter="url(#f1hgywb46ld27b)" height="40" rx="12.5" ry="12.5" style="stroke: #A80036; stroke-width: 1.5;" width="303" x="334" y="286"/><text fill="#000000" font-family="sans-serif" font-size="14" lengthAdjust="spacingAndGlyphs" textLength="293" x="339" y="310.8467">Monster %s attack to %s with %d damage.</text><rect fill="#FEFECE" filter="url(#f1hgywb46ld27b)" height="40" rx="12.5" ry="12.5" style="stroke: #A80036; stroke-width: 1.5;" width="82" x="446.5" y="135"/><text fill="#000000" font-family="sans-serif" font-size="14" font-style="italic" lengthAdjust="spacingAndGlyphs" textLength="72" x="451.5" y="159.8467">timestamp</text><!--link menu to askname--><path d="M401.6705,111.3235 C410.9077,107.4443 420.3019,103.8972 429.5,101 C532.3498,68.6051 563.2954,53.4554 670,69 C719.329,76.1862 732.0319,80.5637 777.5,101 C796.4711,109.5268 816.2738,121.539 832.1853,132.0696 " fill="none" id="menu-askname" style="stroke: #A80036; stroke-width: 1.0;"/><polygon fill="#A80036" points="836.566,134.9964,831.3048,126.6706,832.4086,132.2187,826.8604,133.3225,836.566,134.9964" style="stroke: #A80036; stroke-width: 1.0;"/><text fill="#000000" font-family="sans-serif" font-size="13" lengthAdjust="spacingAndGlyphs" textLength="37" x="632" y="67.0669">0 or 1</text><!--link menu to usercreated--><path d="M392.2593,100.8532 C413.9781,87.8261 438.511,75.736 463,69 C527.8121,51.1726 599.0241,100.3086 636.0078,131.489 " fill="none" id="menu-usercreated" style="stroke: #A80036; stroke-width: 1.0;"/><polygon fill="#A80036" points="639.9122,134.8217,635.6637,125.9363,636.1092,131.5756,630.4699,132.0211,639.9122,134.8217" style="stroke: #A80036; stroke-width: 1.0;"/><text fill="#000000" font-family="sans-serif" font-size="13" lengthAdjust="spacingAndGlyphs" textLength="37" x="464" y="67.0669">0 or 1</text><!--link menu to monsterattack--><path d="M259.0391,209.088 C231.5389,234.1032 200.2804,262.5371 178.7699,282.1039 " fill="none" id="menu-monsterattack" style="stroke: #A80036; stroke-width: 1.0;"/><polygon fill="#A80036" points="174.87,285.6514,184.2192,282.5542,178.5687,282.2869,178.836,276.6363,174.87,285.6514" style="stroke: #A80036; stroke-width: 1.0;"/><text fill="#000000" font-family="sans-serif" font-size="13" lengthAdjust="spacingAndGlyphs" textLength="37" x="227.5" y="252.0669">3 or 4</text><!--link menu to monsterdefend--><path d="M378.3191,209.088 C405.9849,234.1032 437.4317,262.5371 459.0718,282.1039 " fill="none" id="menu-monsterdefend" style="stroke: #A80036; stroke-width: 1.0;"/><polygon fill="#A80036" points="462.9953,285.6514,459.0024,276.6483,459.2866,282.298,453.6369,282.5822,462.9953,285.6514" style="stroke: #A80036; stroke-width: 1.0;"/><text fill="#000000" font-family="sans-serif" font-size="13" lengthAdjust="spacingAndGlyphs" textLength="37" x="427.5" y="252.0669">3 or 4</text><!--link menu to tstmp--><path d="M401.5147,155 C415.1003,155 428.7371,155 441.0198,155 " fill="none" id="menu-tstmp" style="stroke: #A80036; stroke-width: 1.0;"/><polygon fill="#A80036" points="446.1968,155,437.1968,151,441.1968,155,437.1968,159,446.1968,155" style="stroke: #A80036; stroke-width: 1.0;"/><text fill="#000000" font-family="sans-serif" font-size="13" lengthAdjust="spacingAndGlyphs" textLength="8" x="420" y="148.0669">5</text><!--
@startuml
hide empty description

state "0) Create player\n1) Update player name\n2) Delete player\n3) Player attack\n4) Player defend\n5) Get current time" as menu
state "Enter player name:" as askname
state "User created, first delete it." as usercreated
state "Monster %s defends with %d of defense." as monsterattack
state "Monster %s attack to %s with %d damage." as monsterdefend
state "<i>timestamp</i>" as tstmp

menu -> askname : 0 or 1
menu -> usercreated : 0 or 1

menu - -> monsterattack : 3 or 4
menu - -> monsterdefend : 3 or 4

menu -> tstmp : 5

@enduml

PlantUML version 1.2019.07(Mon Jun 24 21:59:20 CEST 2019)
(GPL source distribution)
Java Runtime: OpenJDK Runtime Environment
JVM: OpenJDK 64-Bit Server VM
Java Version: 1.8.0_151-b12
Operating System: Linux
OS Version: 4.4.14-11.pvops.qubes.x86_64
Default Encoding: UTF-8
Language: en
Country: US
--></g></svg>