<?xml version="1.0" encoding="utf-8" standalone="no"?>
<!DOCTYPE svg PUBLIC "-//W3C//DTD SVG 1.1//EN"
  "http://www.w3.org/Graphics/SVG/1.1/DTD/svg11.dtd">
<!-- Created with matplotlib (https://matplotlib.org/) -->
<svg height="716.90625pt" version="1.1" viewBox="0 0 775.93 716.90625" width="775.93pt" xmlns="http://www.w3.org/2000/svg" xmlns:xlink="http://www.w3.org/1999/xlink">
 <metadata>
  <rdf:RDF xmlns:cc="http://creativecommons.org/ns#" xmlns:dc="http://purl.org/dc/elements/1.1/" xmlns:rdf="http://www.w3.org/1999/02/22-rdf-syntax-ns#">
   <cc:Work>
    <dc:type rdf:resource="http://purl.org/dc/dcmitype/StillImage"/>
    <dc:date>2021-06-14T00:59:26.139274</dc:date>
    <dc:format>image/svg+xml</dc:format>
    <dc:creator>
     <cc:Agent>
      <dc:title>Matplotlib v3.3.4, https://matplotlib.org/</dc:title>
     </cc:Agent>
    </dc:creator>
   </cc:Work>
  </rdf:RDF>
 </metadata>
 <defs>
  <style type="text/css">*{stroke-linecap:butt;stroke-linejoin:round;}</style>
 </defs>
 <g id="figure_1">
  <g id="patch_1">
   <path d="M 0 716.90625 
L 775.93 716.90625 
L 775.93 0 
L 0 0 
z
" style="fill:#ffffff;"/>
  </g>
  <g id="axes_1">
   <g id="patch_2">
    <path d="M 50.145 337.66875 
L 387.2725 337.66875 
L 387.2725 19.27875 
L 50.145 19.27875 
z
" style="fill:#eaeaf2;"/>
   </g>
   <g id="matplotlib.axis_1">
    <g id="xtick_1"/>
    <g id="xtick_2"/>
    <g id="xtick_3"/>
    <g id="xtick_4"/>
   </g>
   <g id="matplotlib.axis_2">
    <g id="ytick_1">
     <g id="line2d_1">
      <path clip-path="url(#p4734e62049)" d="M 50.145 337.66875 
L 387.2725 337.66875 
" style="fill:none;stroke:#ffffff;stroke-linecap:round;stroke-width:0.8;"/>
     </g>
     <g id="text_1">
      <!-- 0.000 -->
      <g style="fill:#262626;" transform="translate(18.9425 340.708125)scale(0.08 -0.08)">
       <defs>
        <path d="M 31.78125 3.421875 
Q 39.265625 3.421875 42.96875 11.625 
Q 46.6875 19.828125 46.6875 36.375 
Q 46.6875 52.984375 42.96875 61.1875 
Q 39.265625 69.390625 31.78125 69.390625 
Q 24.3125 69.390625 20.59375 61.1875 
Q 16.890625 52.984375 16.890625 36.375 
Q 16.890625 19.828125 20.59375 11.625 
Q 24.3125 3.421875 31.78125 3.421875 
z
M 31.78125 -1.421875 
Q 19.921875 -1.421875 13.25 8.53125 
Q 6.59375 18.5 6.59375 36.375 
Q 6.59375 54.296875 13.25 64.25 
Q 19.921875 74.21875 31.78125 74.21875 
Q 43.703125 74.21875 50.34375 64.25 
Q 56.984375 54.296875 56.984375 36.375 
Q 56.984375 18.5 50.34375 8.53125 
Q 43.703125 -1.421875 31.78125 -1.421875 
z
" id="DejaVuSerif-48"/>
        <path d="M 9.421875 5.078125 
Q 9.421875 7.8125 11.28125 9.71875 
Q 13.140625 11.625 15.921875 11.625 
Q 18.609375 11.625 20.5 9.71875 
Q 22.40625 7.8125 22.40625 5.078125 
Q 22.40625 2.390625 20.5 0.484375 
Q 18.609375 -1.421875 15.921875 -1.421875 
Q 13.140625 -1.421875 11.28125 0.453125 
Q 9.421875 2.34375 9.421875 5.078125 
z
" id="DejaVuSerif-46"/>
       </defs>
       <use xlink:href="#DejaVuSerif-48"/>
       <use x="63.623047" xlink:href="#DejaVuSerif-46"/>
       <use x="95.410156" xlink:href="#DejaVuSerif-48"/>
       <use x="159.033203" xlink:href="#DejaVuSerif-48"/>
       <use x="222.65625" xlink:href="#DejaVuSerif-48"/>
      </g>
     </g>
    </g>
    <g id="ytick_2">
     <g id="line2d_2">
      <path clip-path="url(#p4734e62049)" d="M 50.145 280.701103 
L 387.2725 280.701103 
" style="fill:none;stroke:#ffffff;stroke-linecap:round;stroke-width:0.8;"/>
     </g>
     <g id="text_2">
      <!-- 0.001 -->
      <g style="fill:#262626;" transform="translate(18.9425 283.740478)scale(0.08 -0.08)">
       <defs>
        <path d="M 14.203125 0 
L 14.203125 5.171875 
L 26.90625 5.171875 
L 26.90625 65.828125 
L 12.203125 56.296875 
L 12.203125 62.703125 
L 29.984375 74.21875 
L 36.71875 74.21875 
L 36.71875 5.171875 
L 49.421875 5.171875 
L 49.421875 0 
z
" id="DejaVuSerif-49"/>
       </defs>
       <use xlink:href="#DejaVuSerif-48"/>
       <use x="63.623047" xlink:href="#DejaVuSerif-46"/>
       <use x="95.410156" xlink:href="#DejaVuSerif-48"/>
       <use x="159.033203" xlink:href="#DejaVuSerif-48"/>
       <use x="222.65625" xlink:href="#DejaVuSerif-49"/>
      </g>
     </g>
    </g>
    <g id="ytick_3">
     <g id="line2d_3">
      <path clip-path="url(#p4734e62049)" d="M 50.145 223.733456 
L 387.2725 223.733456 
" style="fill:none;stroke:#ffffff;stroke-linecap:round;stroke-width:0.8;"/>
     </g>
     <g id="text_3">
      <!-- 0.002 -->
      <g style="fill:#262626;" transform="translate(18.9425 226.772831)scale(0.08 -0.08)">
       <defs>
        <path d="M 12.796875 55.515625 
L 7.328125 55.515625 
L 7.328125 68.5 
Q 12.546875 71.296875 17.84375 72.75 
Q 23.140625 74.21875 28.21875 74.21875 
Q 39.59375 74.21875 46.1875 68.703125 
Q 52.78125 63.1875 52.78125 53.71875 
Q 52.78125 43.015625 37.84375 28.125 
Q 36.671875 27 36.078125 26.421875 
L 17.671875 8.015625 
L 48.09375 8.015625 
L 48.09375 17 
L 53.8125 17 
L 53.8125 0 
L 6.78125 0 
L 6.78125 5.328125 
L 28.90625 27.390625 
Q 36.234375 34.71875 39.359375 40.84375 
Q 42.484375 46.96875 42.484375 53.71875 
Q 42.484375 61.078125 38.640625 65.234375 
Q 34.8125 69.390625 28.078125 69.390625 
Q 21.09375 69.390625 17.28125 65.921875 
Q 13.484375 62.453125 12.796875 55.515625 
z
" id="DejaVuSerif-50"/>
       </defs>
       <use xlink:href="#DejaVuSerif-48"/>
       <use x="63.623047" xlink:href="#DejaVuSerif-46"/>
       <use x="95.410156" xlink:href="#DejaVuSerif-48"/>
       <use x="159.033203" xlink:href="#DejaVuSerif-48"/>
       <use x="222.65625" xlink:href="#DejaVuSerif-50"/>
      </g>
     </g>
    </g>
    <g id="ytick_4">
     <g id="line2d_4">
      <path clip-path="url(#p4734e62049)" d="M 50.145 166.765808 
L 387.2725 166.765808 
" style="fill:none;stroke:#ffffff;stroke-linecap:round;stroke-width:0.8;"/>
     </g>
     <g id="text_4">
      <!-- 0.003 -->
      <g style="fill:#262626;" transform="translate(18.9425 169.805183)scale(0.08 -0.08)">
       <defs>
        <path d="M 9.71875 69.828125 
Q 15.4375 71.96875 20.671875 73.09375 
Q 25.921875 74.21875 30.515625 74.21875 
Q 41.21875 74.21875 47.21875 69.59375 
Q 53.21875 64.984375 53.21875 56.78125 
Q 53.21875 50.203125 49.0625 45.78125 
Q 44.921875 41.359375 37.3125 39.796875 
Q 46.296875 38.53125 51.25 33.28125 
Q 56.203125 28.03125 56.203125 19.671875 
Q 56.203125 9.46875 49.34375 4.015625 
Q 42.484375 -1.421875 29.59375 -1.421875 
Q 23.875 -1.421875 18.421875 -0.1875 
Q 12.984375 1.03125 7.625 3.515625 
L 7.625 17.671875 
L 13.09375 17.671875 
Q 13.578125 10.640625 17.828125 7.03125 
Q 22.078125 3.421875 29.78125 3.421875 
Q 37.25 3.421875 41.578125 7.734375 
Q 45.90625 12.0625 45.90625 19.578125 
Q 45.90625 28.171875 41.453125 32.59375 
Q 37.015625 37.015625 28.421875 37.015625 
L 23.78125 37.015625 
L 23.78125 42 
L 26.21875 42 
Q 34.765625 42 39.03125 45.53125 
Q 43.3125 49.078125 43.3125 56.203125 
Q 43.3125 62.59375 39.796875 65.984375 
Q 36.28125 69.390625 29.6875 69.390625 
Q 23.09375 69.390625 19.453125 66.265625 
Q 15.828125 63.140625 15.1875 56.984375 
L 9.71875 56.984375 
z
" id="DejaVuSerif-51"/>
       </defs>
       <use xlink:href="#DejaVuSerif-48"/>
       <use x="63.623047" xlink:href="#DejaVuSerif-46"/>
       <use x="95.410156" xlink:href="#DejaVuSerif-48"/>
       <use x="159.033203" xlink:href="#DejaVuSerif-48"/>
       <use x="222.65625" xlink:href="#DejaVuSerif-51"/>
      </g>
     </g>
    </g>
    <g id="ytick_5">
     <g id="line2d_5">
      <path clip-path="url(#p4734e62049)" d="M 50.145 109.798161 
L 387.2725 109.798161 
" style="fill:none;stroke:#ffffff;stroke-linecap:round;stroke-width:0.8;"/>
     </g>
     <g id="text_5">
      <!-- 0.004 -->
      <g style="fill:#262626;" transform="translate(18.9425 112.837536)scale(0.08 -0.08)">
       <defs>
        <path d="M 34.90625 24.703125 
L 34.90625 63.484375 
L 10.015625 24.703125 
z
M 56.390625 0 
L 23.1875 0 
L 23.1875 5.171875 
L 34.90625 5.171875 
L 34.90625 19.484375 
L 3.078125 19.484375 
L 3.078125 24.8125 
L 35.015625 74.21875 
L 44.671875 74.21875 
L 44.671875 24.703125 
L 58.59375 24.703125 
L 58.59375 19.484375 
L 44.671875 19.484375 
L 44.671875 5.171875 
L 56.390625 5.171875 
z
" id="DejaVuSerif-52"/>
       </defs>
       <use xlink:href="#DejaVuSerif-48"/>
       <use x="63.623047" xlink:href="#DejaVuSerif-46"/>
       <use x="95.410156" xlink:href="#DejaVuSerif-48"/>
       <use x="159.033203" xlink:href="#DejaVuSerif-48"/>
       <use x="222.65625" xlink:href="#DejaVuSerif-52"/>
      </g>
     </g>
    </g>
    <g id="ytick_6">
     <g id="line2d_6">
      <path clip-path="url(#p4734e62049)" d="M 50.145 52.830514 
L 387.2725 52.830514 
" style="fill:none;stroke:#ffffff;stroke-linecap:round;stroke-width:0.8;"/>
     </g>
     <g id="text_6">
      <!-- 0.005 -->
      <g style="fill:#262626;" transform="translate(18.9425 55.869889)scale(0.08 -0.08)">
       <defs>
        <path d="M 50.296875 72.90625 
L 50.296875 64.890625 
L 16.890625 64.890625 
L 16.890625 44 
Q 19.4375 45.75 22.828125 46.625 
Q 26.21875 47.515625 30.421875 47.515625 
Q 42.234375 47.515625 49.0625 40.96875 
Q 55.90625 34.421875 55.90625 23.09375 
Q 55.90625 11.53125 49 5.046875 
Q 42.09375 -1.421875 29.59375 -1.421875 
Q 24.5625 -1.421875 19.28125 -0.1875 
Q 14.015625 1.03125 8.5 3.515625 
L 8.5 17.671875 
L 14.015625 17.671875 
Q 14.453125 10.75 18.421875 7.078125 
Q 22.40625 3.421875 29.59375 3.421875 
Q 37.3125 3.421875 41.453125 8.5 
Q 45.609375 13.578125 45.609375 23.09375 
Q 45.609375 32.5625 41.484375 37.609375 
Q 37.359375 42.671875 29.59375 42.671875 
Q 25.203125 42.671875 21.84375 41.109375 
Q 18.5 39.546875 15.921875 36.28125 
L 11.71875 36.28125 
L 11.71875 72.90625 
z
" id="DejaVuSerif-53"/>
       </defs>
       <use xlink:href="#DejaVuSerif-48"/>
       <use x="63.623047" xlink:href="#DejaVuSerif-46"/>
       <use x="95.410156" xlink:href="#DejaVuSerif-48"/>
       <use x="159.033203" xlink:href="#DejaVuSerif-48"/>
       <use x="222.65625" xlink:href="#DejaVuSerif-53"/>
      </g>
     </g>
    </g>
    <g id="text_7">
     <!-- check-elapsed -->
     <g style="fill:#262626;" transform="translate(13.27875 207.17625)rotate(-90)scale(0.08 -0.08)">
      <defs>
       <path d="M 51.421875 15.578125 
Q 49.515625 7.28125 44.09375 2.921875 
Q 38.671875 -1.421875 30.078125 -1.421875 
Q 18.75 -1.421875 11.859375 6.078125 
Q 4.984375 13.578125 4.984375 25.984375 
Q 4.984375 38.421875 11.859375 45.875 
Q 18.75 53.328125 30.078125 53.328125 
Q 35.015625 53.328125 39.890625 52.171875 
Q 44.78125 51.03125 49.703125 48.6875 
L 49.703125 35.40625 
L 44.484375 35.40625 
Q 43.453125 42.234375 40.015625 45.359375 
Q 36.578125 48.484375 30.171875 48.484375 
Q 22.90625 48.484375 19.1875 42.84375 
Q 15.484375 37.203125 15.484375 25.984375 
Q 15.484375 14.75 19.171875 9.078125 
Q 22.859375 3.421875 30.171875 3.421875 
Q 35.984375 3.421875 39.453125 6.4375 
Q 42.921875 9.46875 44.1875 15.578125 
z
" id="DejaVuSerif-99"/>
       <path d="M 4.109375 0 
L 4.109375 5.171875 
L 12.203125 5.171875 
L 12.203125 70.796875 
L 3.609375 70.796875 
L 3.609375 75.984375 
L 21.1875 75.984375 
L 21.1875 42.671875 
Q 23.6875 47.953125 27.65625 50.640625 
Q 31.640625 53.328125 36.921875 53.328125 
Q 45.515625 53.328125 49.5625 48.390625 
Q 53.609375 43.453125 53.609375 33.015625 
L 53.609375 5.171875 
L 61.625 5.171875 
L 61.625 0 
L 36.8125 0 
L 36.8125 5.171875 
L 44.578125 5.171875 
L 44.578125 30.171875 
Q 44.578125 39.703125 42.25 43.1875 
Q 39.9375 46.6875 33.984375 46.6875 
Q 27.734375 46.6875 24.453125 42.140625 
Q 21.1875 37.59375 21.1875 28.90625 
L 21.1875 5.171875 
L 29 5.171875 
L 29 0 
z
" id="DejaVuSerif-104"/>
       <path d="M 54.203125 25 
L 15.484375 25 
L 15.484375 24.609375 
Q 15.484375 14.109375 19.4375 8.765625 
Q 23.390625 3.421875 31.109375 3.421875 
Q 37.015625 3.421875 40.796875 6.515625 
Q 44.578125 9.625 46.09375 15.71875 
L 53.328125 15.71875 
Q 51.171875 7.171875 45.375 2.875 
Q 39.59375 -1.421875 30.171875 -1.421875 
Q 18.796875 -1.421875 11.890625 6.078125 
Q 4.984375 13.578125 4.984375 25.984375 
Q 4.984375 38.28125 11.765625 45.796875 
Q 18.5625 53.328125 29.59375 53.328125 
Q 41.359375 53.328125 47.65625 46.0625 
Q 53.953125 38.8125 54.203125 25 
z
M 43.609375 30.171875 
Q 43.3125 39.265625 39.765625 43.875 
Q 36.234375 48.484375 29.59375 48.484375 
Q 23.390625 48.484375 19.828125 43.84375 
Q 16.265625 39.203125 15.484375 30.171875 
z
" id="DejaVuSerif-101"/>
       <path d="M 28.609375 0 
L 3.421875 0 
L 3.421875 5.171875 
L 11.53125 5.171875 
L 11.53125 70.796875 
L 2.875 70.796875 
L 2.875 75.984375 
L 20.515625 75.984375 
L 20.515625 26.515625 
L 42.390625 46.6875 
L 34.90625 46.6875 
L 34.90625 51.90625 
L 58.40625 51.90625 
L 58.40625 46.6875 
L 49.515625 46.6875 
L 34.078125 32.421875 
L 53.8125 5.171875 
L 61.28125 5.171875 
L 61.28125 0 
L 35.6875 0 
L 35.6875 5.171875 
L 43.109375 5.171875 
L 27.59375 26.515625 
L 20.515625 19.921875 
L 20.515625 5.171875 
L 28.609375 5.171875 
z
" id="DejaVuSerif-107"/>
       <path d="M 4.390625 30.609375 
L 29.390625 30.609375 
L 29.390625 23 
L 4.390625 23 
z
" id="DejaVuSerif-45"/>
       <path d="M 20.515625 5.171875 
L 29 5.171875 
L 29 0 
L 2.875 0 
L 2.875 5.171875 
L 11.53125 5.171875 
L 11.53125 70.796875 
L 2.875 70.796875 
L 2.875 75.984375 
L 20.515625 75.984375 
z
" id="DejaVuSerif-108"/>
       <path d="M 39.796875 16.3125 
L 39.796875 27.296875 
L 28.21875 27.296875 
Q 21.53125 27.296875 18.25 24.40625 
Q 14.984375 21.53125 14.984375 15.578125 
Q 14.984375 10.15625 18.296875 6.984375 
Q 21.625 3.8125 27.296875 3.8125 
Q 32.90625 3.8125 36.34375 7.28125 
Q 39.796875 10.75 39.796875 16.3125 
z
M 48.78125 32.421875 
L 48.78125 5.171875 
L 56.78125 5.171875 
L 56.78125 0 
L 39.796875 0 
L 39.796875 5.609375 
Q 36.8125 2 32.90625 0.28125 
Q 29 -1.421875 23.78125 -1.421875 
Q 15.140625 -1.421875 10.0625 3.171875 
Q 4.984375 7.765625 4.984375 15.578125 
Q 4.984375 23.640625 10.796875 28.078125 
Q 16.609375 32.515625 27.203125 32.515625 
L 39.796875 32.515625 
L 39.796875 36.078125 
Q 39.796875 42 36.203125 45.234375 
Q 32.625 48.484375 26.125 48.484375 
Q 20.75 48.484375 17.578125 46.046875 
Q 14.40625 43.609375 13.625 38.8125 
L 8.984375 38.8125 
L 8.984375 49.3125 
Q 13.671875 51.3125 18.09375 52.3125 
Q 22.515625 53.328125 26.703125 53.328125 
Q 37.5 53.328125 43.140625 47.96875 
Q 48.78125 42.625 48.78125 32.421875 
z
" id="DejaVuSerif-97"/>
       <path d="M 20.515625 28.515625 
L 20.515625 23.390625 
Q 20.515625 14.015625 24.09375 9.109375 
Q 27.6875 4.203125 34.515625 4.203125 
Q 41.40625 4.203125 44.9375 9.71875 
Q 48.484375 15.234375 48.484375 25.984375 
Q 48.484375 36.765625 44.9375 42.234375 
Q 41.40625 47.703125 34.515625 47.703125 
Q 27.6875 47.703125 24.09375 42.765625 
Q 20.515625 37.84375 20.515625 28.515625 
z
M 11.53125 46.6875 
L 2.875 46.6875 
L 2.875 51.90625 
L 20.515625 51.90625 
L 20.515625 43.796875 
Q 23.140625 48.6875 27.21875 51 
Q 31.296875 53.328125 37.3125 53.328125 
Q 46.875 53.328125 52.921875 45.75 
Q 58.984375 38.1875 58.984375 25.984375 
Q 58.984375 13.765625 52.921875 6.171875 
Q 46.875 -1.421875 37.3125 -1.421875 
Q 31.296875 -1.421875 27.21875 0.890625 
Q 23.140625 3.21875 20.515625 8.109375 
L 20.515625 -15.578125 
L 29 -15.578125 
L 29 -20.796875 
L 2.875 -20.796875 
L 2.875 -15.578125 
L 11.53125 -15.578125 
z
" id="DejaVuSerif-112"/>
       <path d="M 5.609375 2.875 
L 5.609375 14.984375 
L 10.796875 14.984375 
Q 10.984375 9.1875 14.421875 6.296875 
Q 17.875 3.421875 24.609375 3.421875 
Q 30.671875 3.421875 33.84375 5.6875 
Q 37.015625 7.953125 37.015625 12.3125 
Q 37.015625 15.71875 34.6875 17.8125 
Q 32.375 19.921875 24.90625 22.3125 
L 18.40625 24.515625 
Q 11.71875 26.65625 8.71875 29.875 
Q 5.71875 33.109375 5.71875 38.09375 
Q 5.71875 45.21875 10.9375 49.265625 
Q 16.15625 53.328125 25.390625 53.328125 
Q 29.5 53.328125 34.03125 52.25 
Q 38.578125 51.171875 43.40625 49.125 
L 43.40625 37.796875 
L 38.234375 37.796875 
Q 38.03125 42.828125 34.703125 45.65625 
Q 31.390625 48.484375 25.6875 48.484375 
Q 20.015625 48.484375 17.109375 46.484375 
Q 14.203125 44.484375 14.203125 40.484375 
Q 14.203125 37.203125 16.40625 35.21875 
Q 18.609375 33.25 25.203125 31.203125 
L 32.328125 29 
Q 39.703125 26.703125 42.9375 23.265625 
Q 46.1875 19.828125 46.1875 14.40625 
Q 46.1875 7.03125 40.546875 2.796875 
Q 34.90625 -1.421875 25 -1.421875 
Q 19.96875 -1.421875 15.1875 -0.34375 
Q 10.40625 0.734375 5.609375 2.875 
z
" id="DejaVuSerif-115"/>
       <path d="M 52.484375 5.171875 
L 61.078125 5.171875 
L 61.078125 0 
L 43.5 0 
L 43.5 8.109375 
Q 40.875 3.21875 36.796875 0.890625 
Q 32.71875 -1.421875 26.703125 -1.421875 
Q 17.140625 -1.421875 11.0625 6.171875 
Q 4.984375 13.765625 4.984375 25.984375 
Q 4.984375 38.1875 11.03125 45.75 
Q 17.09375 53.328125 26.703125 53.328125 
Q 32.71875 53.328125 36.796875 51 
Q 40.875 48.6875 43.5 43.796875 
L 43.5 70.796875 
L 35.015625 70.796875 
L 35.015625 75.984375 
L 52.484375 75.984375 
z
M 43.5 23.390625 
L 43.5 28.515625 
Q 43.5 37.84375 39.90625 42.765625 
Q 36.328125 47.703125 29.5 47.703125 
Q 22.5625 47.703125 19.015625 42.234375 
Q 15.484375 36.765625 15.484375 25.984375 
Q 15.484375 15.234375 19.015625 9.71875 
Q 22.5625 4.203125 29.5 4.203125 
Q 36.328125 4.203125 39.90625 9.109375 
Q 43.5 14.015625 43.5 23.390625 
z
" id="DejaVuSerif-100"/>
      </defs>
      <use xlink:href="#DejaVuSerif-99"/>
      <use x="56.005859" xlink:href="#DejaVuSerif-104"/>
      <use x="120.410156" xlink:href="#DejaVuSerif-101"/>
      <use x="179.589844" xlink:href="#DejaVuSerif-99"/>
      <use x="235.595703" xlink:href="#DejaVuSerif-107"/>
      <use x="294.441406" xlink:href="#DejaVuSerif-45"/>
      <use x="328.230469" xlink:href="#DejaVuSerif-101"/>
      <use x="387.410156" xlink:href="#DejaVuSerif-108"/>
      <use x="419.392578" xlink:href="#DejaVuSerif-97"/>
      <use x="479.011719" xlink:href="#DejaVuSerif-112"/>
      <use x="543.025391" xlink:href="#DejaVuSerif-115"/>
      <use x="594.34375" xlink:href="#DejaVuSerif-101"/>
      <use x="653.523438" xlink:href="#DejaVuSerif-100"/>
     </g>
    </g>
   </g>
   <g id="patch_3">
    <path clip-path="url(#p4734e62049)" d="M 58.573188 337.66875 
L 92.285938 337.66875 
L 92.285938 44.14728 
L 58.573188 44.14728 
z
" style="fill:#5875a4;stroke:#ffffff;stroke-linejoin:miter;stroke-width:0.8;"/>
   </g>
   <g id="patch_4">
    <path clip-path="url(#p4734e62049)" d="M 142.855063 337.66875 
L 176.567813 337.66875 
L 176.567813 51.289366 
L 142.855063 51.289366 
z
" style="fill:#5875a4;stroke:#ffffff;stroke-linejoin:miter;stroke-width:0.8;"/>
   </g>
   <g id="patch_5">
    <path clip-path="url(#p4734e62049)" d="M 227.136937 337.66875 
L 260.849687 337.66875 
L 260.849687 49.992213 
L 227.136937 49.992213 
z
" style="fill:#5875a4;stroke:#ffffff;stroke-linejoin:miter;stroke-width:0.8;"/>
   </g>
   <g id="patch_6">
    <path clip-path="url(#p4734e62049)" d="M 311.418812 337.66875 
L 345.131562 337.66875 
L 345.131562 49.575631 
L 311.418812 49.575631 
z
" style="fill:#5875a4;stroke:#ffffff;stroke-linejoin:miter;stroke-width:0.8;"/>
   </g>
   <g id="patch_7">
    <path clip-path="url(#p4734e62049)" d="M 92.285938 337.66875 
L 125.998688 337.66875 
L 125.998688 37.762807 
L 92.285938 37.762807 
z
" style="fill:#cc8963;stroke:#ffffff;stroke-linejoin:miter;stroke-width:0.8;"/>
   </g>
   <g id="patch_8">
    <path clip-path="url(#p4734e62049)" d="M 176.567813 337.66875 
L 210.280563 337.66875 
L 210.280563 52.023818 
L 176.567813 52.023818 
z
" style="fill:#cc8963;stroke:#ffffff;stroke-linejoin:miter;stroke-width:0.8;"/>
   </g>
   <g id="patch_9">
    <path clip-path="url(#p4734e62049)" d="M 260.849688 337.66875 
L 294.562437 337.66875 
L 294.562437 50.273855 
L 260.849688 50.273855 
z
" style="fill:#cc8963;stroke:#ffffff;stroke-linejoin:miter;stroke-width:0.8;"/>
   </g>
   <g id="patch_10">
    <path clip-path="url(#p4734e62049)" d="M 345.131562 337.66875 
L 378.844312 337.66875 
L 378.844312 49.32833 
L 345.131562 49.32833 
z
" style="fill:#cc8963;stroke:#ffffff;stroke-linejoin:miter;stroke-width:0.8;"/>
   </g>
   <g id="line2d_7">
    <path clip-path="url(#p4734e62049)" d="M 75.429563 45.623216 
L 75.429563 41.863718 
" style="fill:none;stroke:#424242;stroke-linecap:round;stroke-width:2.16;"/>
   </g>
   <g id="line2d_8">
    <path clip-path="url(#p4734e62049)" d="M 159.711437 51.929554 
L 159.711437 50.575615 
" style="fill:none;stroke:#424242;stroke-linecap:round;stroke-width:2.16;"/>
   </g>
   <g id="line2d_9">
    <path clip-path="url(#p4734e62049)" d="M 243.993313 50.505425 
L 243.993313 49.386379 
" style="fill:none;stroke:#424242;stroke-linecap:round;stroke-width:2.16;"/>
   </g>
   <g id="line2d_10">
    <path clip-path="url(#p4734e62049)" d="M 328.275187 49.950288 
L 328.275187 49.183005 
" style="fill:none;stroke:#424242;stroke-linecap:round;stroke-width:2.16;"/>
   </g>
   <g id="line2d_11">
    <path clip-path="url(#p4734e62049)" d="M 109.142313 40.728279 
L 109.142313 34.440179 
" style="fill:none;stroke:#424242;stroke-linecap:round;stroke-width:2.16;"/>
   </g>
   <g id="line2d_12">
    <path clip-path="url(#p4734e62049)" d="M 193.424188 52.408479 
L 193.424188 51.626347 
" style="fill:none;stroke:#424242;stroke-linecap:round;stroke-width:2.16;"/>
   </g>
   <g id="line2d_13">
    <path clip-path="url(#p4734e62049)" d="M 277.706063 50.713925 
L 277.706063 49.836776 
" style="fill:none;stroke:#424242;stroke-linecap:round;stroke-width:2.16;"/>
   </g>
   <g id="line2d_14">
    <path clip-path="url(#p4734e62049)" d="M 361.987937 49.816308 
L 361.987937 48.769481 
" style="fill:none;stroke:#424242;stroke-linecap:round;stroke-width:2.16;"/>
   </g>
   <g id="patch_11">
    <path d="M 50.145 337.66875 
L 50.145 19.27875 
" style="fill:none;stroke:#ffffff;stroke-linecap:square;stroke-linejoin:miter;"/>
   </g>
   <g id="patch_12">
    <path d="M 50.145 337.66875 
L 387.2725 337.66875 
" style="fill:none;stroke:#ffffff;stroke-linecap:square;stroke-linejoin:miter;"/>
   </g>
   <g id="text_8">
    <!-- experiment = null_experiment -->
    <g style="fill:#262626;" transform="translate(156.929375 13.27875)scale(0.08 -0.08)">
     <defs>
      <path d="M 29.109375 31.6875 
L 39.984375 46.6875 
L 33.015625 46.6875 
L 33.015625 51.90625 
L 52.984375 51.90625 
L 52.984375 46.6875 
L 46.09375 46.6875 
L 32.171875 27.484375 
L 48.390625 5.171875 
L 55.171875 5.171875 
L 55.171875 0 
L 31.203125 0 
L 31.203125 5.171875 
L 37.796875 5.171875 
L 26.515625 20.703125 
L 15.1875 5.171875 
L 21.921875 5.171875 
L 21.921875 0 
L 2.203125 0 
L 2.203125 5.171875 
L 9.078125 5.171875 
L 23.390625 24.90625 
L 7.625 46.6875 
L 1.21875 46.6875 
L 1.21875 51.90625 
L 24.421875 51.90625 
L 24.421875 46.6875 
L 18.21875 46.6875 
z
" id="DejaVuSerif-120"/>
      <path d="M 47.796875 52 
L 47.796875 39.015625 
L 42.625 39.015625 
Q 42.390625 42.875 40.484375 44.78125 
Q 38.578125 46.6875 34.90625 46.6875 
Q 28.265625 46.6875 24.71875 42.09375 
Q 21.1875 37.5 21.1875 28.90625 
L 21.1875 5.171875 
L 31.59375 5.171875 
L 31.59375 0 
L 4.109375 0 
L 4.109375 5.171875 
L 12.203125 5.171875 
L 12.203125 46.78125 
L 3.609375 46.78125 
L 3.609375 51.90625 
L 21.1875 51.90625 
L 21.1875 42.671875 
Q 23.828125 48.09375 27.96875 50.703125 
Q 32.125 53.328125 38.09375 53.328125 
Q 40.28125 53.328125 42.703125 52.984375 
Q 45.125 52.640625 47.796875 52 
z
" id="DejaVuSerif-114"/>
      <path d="M 9.71875 68.015625 
Q 9.71875 70.265625 11.34375 71.921875 
Q 12.984375 73.578125 15.28125 73.578125 
Q 17.53125 73.578125 19.15625 71.921875 
Q 20.796875 70.265625 20.796875 68.015625 
Q 20.796875 65.71875 19.1875 64.109375 
Q 17.578125 62.5 15.28125 62.5 
Q 12.984375 62.5 11.34375 64.109375 
Q 9.71875 65.71875 9.71875 68.015625 
z
M 21.1875 5.171875 
L 29.6875 5.171875 
L 29.6875 0 
L 3.609375 0 
L 3.609375 5.171875 
L 12.203125 5.171875 
L 12.203125 46.6875 
L 3.609375 46.6875 
L 3.609375 51.90625 
L 21.1875 51.90625 
z
" id="DejaVuSerif-105"/>
      <path d="M 51.8125 41.796875 
Q 54.390625 47.515625 58.421875 50.421875 
Q 62.453125 53.328125 67.828125 53.328125 
Q 75.984375 53.328125 79.984375 48.265625 
Q 83.984375 43.21875 83.984375 33.015625 
L 83.984375 5.171875 
L 92.09375 5.171875 
L 92.09375 0 
L 67.1875 0 
L 67.1875 5.171875 
L 75 5.171875 
L 75 31.984375 
Q 75 39.9375 72.65625 43.3125 
Q 70.3125 46.6875 64.890625 46.6875 
Q 58.890625 46.6875 55.734375 42.140625 
Q 52.59375 37.59375 52.59375 28.90625 
L 52.59375 5.171875 
L 60.40625 5.171875 
L 60.40625 0 
L 35.796875 0 
L 35.796875 5.171875 
L 43.609375 5.171875 
L 43.609375 32.328125 
Q 43.609375 40.09375 41.265625 43.390625 
Q 38.921875 46.6875 33.5 46.6875 
Q 27.484375 46.6875 24.328125 42.140625 
Q 21.1875 37.59375 21.1875 28.90625 
L 21.1875 5.171875 
L 29 5.171875 
L 29 0 
L 4.109375 0 
L 4.109375 5.171875 
L 12.203125 5.171875 
L 12.203125 46.78125 
L 3.609375 46.78125 
L 3.609375 51.90625 
L 21.1875 51.90625 
L 21.1875 42.671875 
Q 23.6875 47.859375 27.53125 50.59375 
Q 31.390625 53.328125 36.28125 53.328125 
Q 42.328125 53.328125 46.375 50.3125 
Q 50.4375 47.3125 51.8125 41.796875 
z
" id="DejaVuSerif-109"/>
      <path d="M 4.109375 0 
L 4.109375 5.171875 
L 12.203125 5.171875 
L 12.203125 46.6875 
L 3.609375 46.6875 
L 3.609375 51.90625 
L 21.1875 51.90625 
L 21.1875 42.671875 
Q 23.6875 47.953125 27.65625 50.640625 
Q 31.640625 53.328125 36.921875 53.328125 
Q 45.515625 53.328125 49.5625 48.390625 
Q 53.609375 43.453125 53.609375 33.015625 
L 53.609375 5.171875 
L 61.625 5.171875 
L 61.625 0 
L 36.8125 0 
L 36.8125 5.171875 
L 44.578125 5.171875 
L 44.578125 30.171875 
Q 44.578125 39.703125 42.234375 43.234375 
Q 39.890625 46.78125 33.984375 46.78125 
Q 27.734375 46.78125 24.453125 42.203125 
Q 21.1875 37.640625 21.1875 28.90625 
L 21.1875 5.171875 
L 29 5.171875 
L 29 0 
z
" id="DejaVuSerif-110"/>
      <path d="M 10.796875 46.6875 
L 2.875 46.6875 
L 2.875 51.90625 
L 10.796875 51.90625 
L 10.796875 68.015625 
L 19.828125 68.015625 
L 19.828125 51.90625 
L 36.71875 51.90625 
L 36.71875 46.6875 
L 19.828125 46.6875 
L 19.828125 13.71875 
Q 19.828125 7.125 21.09375 5.265625 
Q 22.359375 3.421875 25.78125 3.421875 
Q 29.296875 3.421875 30.90625 5.484375 
Q 32.515625 7.5625 32.625 12.203125 
L 39.40625 12.203125 
Q 39.015625 5.125 35.546875 1.84375 
Q 32.078125 -1.421875 25 -1.421875 
Q 17.234375 -1.421875 14.015625 2.015625 
Q 10.796875 5.46875 10.796875 13.71875 
z
" id="DejaVuSerif-116"/>
      <path id="DejaVuSerif-32"/>
      <path d="M 10.59375 45.21875 
L 73.1875 45.21875 
L 73.1875 37.40625 
L 10.59375 37.40625 
z
M 10.59375 25.296875 
L 73.1875 25.296875 
L 73.1875 17.484375 
L 10.59375 17.484375 
z
" id="DejaVuSerif-61"/>
      <path d="M 35.40625 51.90625 
L 52.203125 51.90625 
L 52.203125 5.171875 
L 60.6875 5.171875 
L 60.6875 0 
L 43.21875 0 
L 43.21875 9.1875 
Q 40.71875 4 36.765625 1.28125 
Q 32.8125 -1.421875 27.59375 -1.421875 
Q 18.953125 -1.421875 14.875 3.484375 
Q 10.796875 8.40625 10.796875 18.890625 
L 10.796875 46.6875 
L 2.6875 46.6875 
L 2.6875 51.90625 
L 19.828125 51.90625 
L 19.828125 21.6875 
Q 19.828125 12.203125 22.140625 8.6875 
Q 24.46875 5.171875 30.421875 5.171875 
Q 36.671875 5.171875 39.9375 9.765625 
Q 43.21875 14.359375 43.21875 23.09375 
L 43.21875 46.6875 
L 35.40625 46.6875 
z
" id="DejaVuSerif-117"/>
      <path d="M 50 -19.671875 
L 50 -23.578125 
L 0 -23.578125 
L 0 -19.671875 
z
" id="DejaVuSerif-95"/>
     </defs>
     <use xlink:href="#DejaVuSerif-101"/>
     <use x="59.179688" xlink:href="#DejaVuSerif-120"/>
     <use x="115.576172" xlink:href="#DejaVuSerif-112"/>
     <use x="179.589844" xlink:href="#DejaVuSerif-101"/>
     <use x="238.769531" xlink:href="#DejaVuSerif-114"/>
     <use x="286.572266" xlink:href="#DejaVuSerif-105"/>
     <use x="318.554688" xlink:href="#DejaVuSerif-109"/>
     <use x="413.378906" xlink:href="#DejaVuSerif-101"/>
     <use x="472.558594" xlink:href="#DejaVuSerif-110"/>
     <use x="536.962891" xlink:href="#DejaVuSerif-116"/>
     <use x="577.148438" xlink:href="#DejaVuSerif-32"/>
     <use x="608.935547" xlink:href="#DejaVuSerif-61"/>
     <use x="692.724609" xlink:href="#DejaVuSerif-32"/>
     <use x="724.511719" xlink:href="#DejaVuSerif-110"/>
     <use x="788.916016" xlink:href="#DejaVuSerif-117"/>
     <use x="853.320312" xlink:href="#DejaVuSerif-108"/>
     <use x="885.302734" xlink:href="#DejaVuSerif-108"/>
     <use x="917.285156" xlink:href="#DejaVuSerif-95"/>
     <use x="967.285156" xlink:href="#DejaVuSerif-101"/>
     <use x="1026.464844" xlink:href="#DejaVuSerif-120"/>
     <use x="1082.861328" xlink:href="#DejaVuSerif-112"/>
     <use x="1146.875" xlink:href="#DejaVuSerif-101"/>
     <use x="1206.054688" xlink:href="#DejaVuSerif-114"/>
     <use x="1253.857422" xlink:href="#DejaVuSerif-105"/>
     <use x="1285.839844" xlink:href="#DejaVuSerif-109"/>
     <use x="1380.664062" xlink:href="#DejaVuSerif-101"/>
     <use x="1439.84375" xlink:href="#DejaVuSerif-110"/>
     <use x="1504.248047" xlink:href="#DejaVuSerif-116"/>
    </g>
   </g>
  </g>
  <g id="axes_2">
   <g id="patch_13">
    <path d="M 426.9625 337.66875 
L 764.09 337.66875 
L 764.09 19.27875 
L 426.9625 19.27875 
z
" style="fill:#eaeaf2;"/>
   </g>
   <g id="matplotlib.axis_3">
    <g id="xtick_5"/>
    <g id="xtick_6"/>
    <g id="xtick_7"/>
    <g id="xtick_8"/>
   </g>
   <g id="matplotlib.axis_4">
    <g id="ytick_7">
     <g id="line2d_15">
      <path clip-path="url(#p930685f025)" d="M 426.9625 337.66875 
L 764.09 337.66875 
" style="fill:none;stroke:#ffffff;stroke-linecap:round;stroke-width:0.8;"/>
     </g>
     <g id="text_9">
      <!-- 0.000 -->
      <g style="fill:#262626;" transform="translate(395.76 340.708125)scale(0.08 -0.08)">
       <use xlink:href="#DejaVuSerif-48"/>
       <use x="63.623047" xlink:href="#DejaVuSerif-46"/>
       <use x="95.410156" xlink:href="#DejaVuSerif-48"/>
       <use x="159.033203" xlink:href="#DejaVuSerif-48"/>
       <use x="222.65625" xlink:href="#DejaVuSerif-48"/>
      </g>
     </g>
    </g>
    <g id="ytick_8">
     <g id="line2d_16">
      <path clip-path="url(#p930685f025)" d="M 426.9625 292.190724 
L 764.09 292.190724 
" style="fill:none;stroke:#ffffff;stroke-linecap:round;stroke-width:0.8;"/>
     </g>
     <g id="text_10">
      <!-- 0.002 -->
      <g style="fill:#262626;" transform="translate(395.76 295.230099)scale(0.08 -0.08)">
       <use xlink:href="#DejaVuSerif-48"/>
       <use x="63.623047" xlink:href="#DejaVuSerif-46"/>
       <use x="95.410156" xlink:href="#DejaVuSerif-48"/>
       <use x="159.033203" xlink:href="#DejaVuSerif-48"/>
       <use x="222.65625" xlink:href="#DejaVuSerif-50"/>
      </g>
     </g>
    </g>
    <g id="ytick_9">
     <g id="line2d_17">
      <path clip-path="url(#p930685f025)" d="M 426.9625 246.712697 
L 764.09 246.712697 
" style="fill:none;stroke:#ffffff;stroke-linecap:round;stroke-width:0.8;"/>
     </g>
     <g id="text_11">
      <!-- 0.004 -->
      <g style="fill:#262626;" transform="translate(395.76 249.752072)scale(0.08 -0.08)">
       <use xlink:href="#DejaVuSerif-48"/>
       <use x="63.623047" xlink:href="#DejaVuSerif-46"/>
       <use x="95.410156" xlink:href="#DejaVuSerif-48"/>
       <use x="159.033203" xlink:href="#DejaVuSerif-48"/>
       <use x="222.65625" xlink:href="#DejaVuSerif-52"/>
      </g>
     </g>
    </g>
    <g id="ytick_10">
     <g id="line2d_18">
      <path clip-path="url(#p930685f025)" d="M 426.9625 201.234671 
L 764.09 201.234671 
" style="fill:none;stroke:#ffffff;stroke-linecap:round;stroke-width:0.8;"/>
     </g>
     <g id="text_12">
      <!-- 0.006 -->
      <g style="fill:#262626;" transform="translate(395.76 204.274046)scale(0.08 -0.08)">
       <defs>
        <path d="M 32.71875 3.421875 
Q 39.59375 3.421875 43.296875 8.46875 
Q 47.015625 13.53125 47.015625 23 
Q 47.015625 32.46875 43.296875 37.515625 
Q 39.59375 42.578125 32.71875 42.578125 
Q 25.734375 42.578125 22.0625 37.6875 
Q 18.40625 32.8125 18.40625 23.578125 
Q 18.40625 13.875 22.109375 8.640625 
Q 25.828125 3.421875 32.71875 3.421875 
z
M 16.796875 40.140625 
Q 20.125 43.796875 24.3125 45.59375 
Q 28.515625 47.40625 33.796875 47.40625 
Q 44.671875 47.40625 51 40.859375 
Q 57.328125 34.328125 57.328125 23 
Q 57.328125 11.921875 50.515625 5.25 
Q 43.703125 -1.421875 32.328125 -1.421875 
Q 19.96875 -1.421875 13.328125 7.78125 
Q 6.6875 17 6.6875 34.078125 
Q 6.6875 53.21875 14.546875 63.71875 
Q 22.40625 74.21875 36.71875 74.21875 
Q 40.578125 74.21875 44.828125 73.484375 
Q 49.078125 72.75 53.515625 71.296875 
L 53.515625 59.28125 
L 48 59.28125 
Q 47.40625 64.203125 44.234375 66.796875 
Q 41.0625 69.390625 35.6875 69.390625 
Q 26.21875 69.390625 21.578125 62.203125 
Q 16.9375 55.03125 16.796875 40.140625 
z
" id="DejaVuSerif-54"/>
       </defs>
       <use xlink:href="#DejaVuSerif-48"/>
       <use x="63.623047" xlink:href="#DejaVuSerif-46"/>
       <use x="95.410156" xlink:href="#DejaVuSerif-48"/>
       <use x="159.033203" xlink:href="#DejaVuSerif-48"/>
       <use x="222.65625" xlink:href="#DejaVuSerif-54"/>
      </g>
     </g>
    </g>
    <g id="ytick_11">
     <g id="line2d_19">
      <path clip-path="url(#p930685f025)" d="M 426.9625 155.756644 
L 764.09 155.756644 
" style="fill:none;stroke:#ffffff;stroke-linecap:round;stroke-width:0.8;"/>
     </g>
     <g id="text_13">
      <!-- 0.008 -->
      <g style="fill:#262626;" transform="translate(395.76 158.796019)scale(0.08 -0.08)">
       <defs>
        <path d="M 46.578125 19.921875 
Q 46.578125 27.734375 42.6875 32.046875 
Q 38.8125 36.375 31.78125 36.375 
Q 24.75 36.375 20.875 32.046875 
Q 17 27.734375 17 19.921875 
Q 17 12.0625 20.875 7.734375 
Q 24.75 3.421875 31.78125 3.421875 
Q 38.8125 3.421875 42.6875 7.734375 
Q 46.578125 12.0625 46.578125 19.921875 
z
M 44.578125 55.328125 
Q 44.578125 61.96875 41.203125 65.671875 
Q 37.84375 69.390625 31.78125 69.390625 
Q 25.78125 69.390625 22.390625 65.671875 
Q 19 61.96875 19 55.328125 
Q 19 48.640625 22.390625 44.921875 
Q 25.78125 41.21875 31.78125 41.21875 
Q 37.84375 41.21875 41.203125 44.921875 
Q 44.578125 48.640625 44.578125 55.328125 
z
M 39.3125 38.8125 
Q 47.609375 37.703125 52.25 32.6875 
Q 56.890625 27.6875 56.890625 19.921875 
Q 56.890625 9.671875 50.390625 4.125 
Q 43.890625 -1.421875 31.78125 -1.421875 
Q 19.734375 -1.421875 13.203125 4.125 
Q 6.6875 9.671875 6.6875 19.921875 
Q 6.6875 27.6875 11.328125 32.6875 
Q 15.96875 37.703125 24.3125 38.8125 
Q 16.9375 40.140625 13 44.40625 
Q 9.078125 48.6875 9.078125 55.328125 
Q 9.078125 64.109375 15.125 69.15625 
Q 21.1875 74.21875 31.78125 74.21875 
Q 42.390625 74.21875 48.4375 69.15625 
Q 54.5 64.109375 54.5 55.328125 
Q 54.5 48.6875 50.5625 44.40625 
Q 46.625 40.140625 39.3125 38.8125 
z
" id="DejaVuSerif-56"/>
       </defs>
       <use xlink:href="#DejaVuSerif-48"/>
       <use x="63.623047" xlink:href="#DejaVuSerif-46"/>
       <use x="95.410156" xlink:href="#DejaVuSerif-48"/>
       <use x="159.033203" xlink:href="#DejaVuSerif-48"/>
       <use x="222.65625" xlink:href="#DejaVuSerif-56"/>
      </g>
     </g>
    </g>
    <g id="ytick_12">
     <g id="line2d_20">
      <path clip-path="url(#p930685f025)" d="M 426.9625 110.278618 
L 764.09 110.278618 
" style="fill:none;stroke:#ffffff;stroke-linecap:round;stroke-width:0.8;"/>
     </g>
     <g id="text_14">
      <!-- 0.010 -->
      <g style="fill:#262626;" transform="translate(395.76 113.317993)scale(0.08 -0.08)">
       <use xlink:href="#DejaVuSerif-48"/>
       <use x="63.623047" xlink:href="#DejaVuSerif-46"/>
       <use x="95.410156" xlink:href="#DejaVuSerif-48"/>
       <use x="159.033203" xlink:href="#DejaVuSerif-49"/>
       <use x="222.65625" xlink:href="#DejaVuSerif-48"/>
      </g>
     </g>
    </g>
    <g id="ytick_13">
     <g id="line2d_21">
      <path clip-path="url(#p930685f025)" d="M 426.9625 64.800591 
L 764.09 64.800591 
" style="fill:none;stroke:#ffffff;stroke-linecap:round;stroke-width:0.8;"/>
     </g>
     <g id="text_15">
      <!-- 0.012 -->
      <g style="fill:#262626;" transform="translate(395.76 67.839966)scale(0.08 -0.08)">
       <use xlink:href="#DejaVuSerif-48"/>
       <use x="63.623047" xlink:href="#DejaVuSerif-46"/>
       <use x="95.410156" xlink:href="#DejaVuSerif-48"/>
       <use x="159.033203" xlink:href="#DejaVuSerif-49"/>
       <use x="222.65625" xlink:href="#DejaVuSerif-50"/>
      </g>
     </g>
    </g>
    <g id="ytick_14">
     <g id="line2d_22">
      <path clip-path="url(#p930685f025)" d="M 426.9625 19.322565 
L 764.09 19.322565 
" style="fill:none;stroke:#ffffff;stroke-linecap:round;stroke-width:0.8;"/>
     </g>
     <g id="text_16">
      <!-- 0.014 -->
      <g style="fill:#262626;" transform="translate(395.76 22.36194)scale(0.08 -0.08)">
       <use xlink:href="#DejaVuSerif-48"/>
       <use x="63.623047" xlink:href="#DejaVuSerif-46"/>
       <use x="95.410156" xlink:href="#DejaVuSerif-48"/>
       <use x="159.033203" xlink:href="#DejaVuSerif-49"/>
       <use x="222.65625" xlink:href="#DejaVuSerif-52"/>
      </g>
     </g>
    </g>
   </g>
   <g id="patch_14">
    <path clip-path="url(#p930685f025)" d="M 435.390687 337.66875 
L 469.103437 337.66875 
L 469.103437 126.592346 
L 435.390687 126.592346 
z
" style="fill:#5875a4;stroke:#ffffff;stroke-linejoin:miter;stroke-width:0.8;"/>
   </g>
   <g id="patch_15">
    <path clip-path="url(#p930685f025)" d="M 519.672562 337.66875 
L 553.385312 337.66875 
L 553.385312 61.9008 
L 519.672562 61.9008 
z
" style="fill:#5875a4;stroke:#ffffff;stroke-linejoin:miter;stroke-width:0.8;"/>
   </g>
   <g id="patch_16">
    <path clip-path="url(#p930685f025)" d="M 603.954438 337.66875 
L 637.667188 337.66875 
L 637.667188 39.383825 
L 603.954438 39.383825 
z
" style="fill:#5875a4;stroke:#ffffff;stroke-linejoin:miter;stroke-width:0.8;"/>
   </g>
   <g id="patch_17">
    <path clip-path="url(#p930685f025)" d="M 688.236312 337.66875 
L 721.949062 337.66875 
L 721.949062 35.067683 
L 688.236312 35.067683 
z
" style="fill:#5875a4;stroke:#ffffff;stroke-linejoin:miter;stroke-width:0.8;"/>
   </g>
   <g id="patch_18">
    <path clip-path="url(#p930685f025)" d="M 469.103437 337.66875 
L 502.816187 337.66875 
L 502.816187 128.171997 
L 469.103437 128.171997 
z
" style="fill:#cc8963;stroke:#ffffff;stroke-linejoin:miter;stroke-width:0.8;"/>
   </g>
   <g id="patch_19">
    <path clip-path="url(#p930685f025)" d="M 553.385312 337.66875 
L 587.098062 337.66875 
L 587.098062 60.768416 
L 553.385312 60.768416 
z
" style="fill:#cc8963;stroke:#ffffff;stroke-linejoin:miter;stroke-width:0.8;"/>
   </g>
   <g id="patch_20">
    <path clip-path="url(#p930685f025)" d="M 637.667187 337.66875 
L 671.379937 337.66875 
L 671.379937 38.958796 
L 637.667187 38.958796 
z
" style="fill:#cc8963;stroke:#ffffff;stroke-linejoin:miter;stroke-width:0.8;"/>
   </g>
   <g id="patch_21">
    <path clip-path="url(#p930685f025)" d="M 721.949063 337.66875 
L 755.661813 337.66875 
L 755.661813 40.378271 
L 721.949063 40.378271 
z
" style="fill:#cc8963;stroke:#ffffff;stroke-linejoin:miter;stroke-width:0.8;"/>
   </g>
   <g id="line2d_23">
    <path clip-path="url(#p930685f025)" d="M 452.247062 127.284902 
L 452.247062 125.737911 
" style="fill:none;stroke:#424242;stroke-linecap:round;stroke-width:2.16;"/>
   </g>
   <g id="line2d_24">
    <path clip-path="url(#p930685f025)" d="M 536.528937 62.726021 
L 536.528937 60.84438 
" style="fill:none;stroke:#424242;stroke-linecap:round;stroke-width:2.16;"/>
   </g>
   <g id="line2d_25">
    <path clip-path="url(#p930685f025)" d="M 620.810812 40.001649 
L 620.810812 38.589537 
" style="fill:none;stroke:#424242;stroke-linecap:round;stroke-width:2.16;"/>
   </g>
   <g id="line2d_26">
    <path clip-path="url(#p930685f025)" d="M 705.092688 35.681582 
L 705.092688 34.440179 
" style="fill:none;stroke:#424242;stroke-linecap:round;stroke-width:2.16;"/>
   </g>
   <g id="line2d_27">
    <path clip-path="url(#p930685f025)" d="M 485.959812 129.11983 
L 485.959812 127.028568 
" style="fill:none;stroke:#424242;stroke-linecap:round;stroke-width:2.16;"/>
   </g>
   <g id="line2d_28">
    <path clip-path="url(#p930685f025)" d="M 570.241687 61.212501 
L 570.241687 60.295839 
" style="fill:none;stroke:#424242;stroke-linecap:round;stroke-width:2.16;"/>
   </g>
   <g id="line2d_29">
    <path clip-path="url(#p930685f025)" d="M 654.523563 39.532601 
L 654.523563 38.334431 
" style="fill:none;stroke:#424242;stroke-linecap:round;stroke-width:2.16;"/>
   </g>
   <g id="line2d_30">
    <path clip-path="url(#p930685f025)" d="M 738.805438 40.794647 
L 738.805438 39.973091 
" style="fill:none;stroke:#424242;stroke-linecap:round;stroke-width:2.16;"/>
   </g>
   <g id="patch_22">
    <path d="M 426.9625 337.66875 
L 426.9625 19.27875 
" style="fill:none;stroke:#ffffff;stroke-linecap:square;stroke-linejoin:miter;"/>
   </g>
   <g id="patch_23">
    <path d="M 426.9625 337.66875 
L 764.09 337.66875 
" style="fill:none;stroke:#ffffff;stroke-linecap:square;stroke-linejoin:miter;"/>
   </g>
   <g id="text_17">
    <!-- experiment = single_bitvec_experiment -->
    <g style="fill:#262626;" transform="translate(515.0275 13.27875)scale(0.08 -0.08)">
     <defs>
      <path d="M 52.484375 46.6875 
L 52.484375 1.125 
Q 52.484375 -10.0625 46.328125 -16.140625 
Q 40.1875 -22.21875 28.8125 -22.21875 
Q 23.6875 -22.21875 19 -21.28125 
Q 14.3125 -20.359375 10.015625 -18.5 
L 10.015625 -7.625 
L 14.703125 -7.625 
Q 15.578125 -12.703125 18.84375 -15.046875 
Q 22.125 -17.390625 28.21875 -17.390625 
Q 36.140625 -17.390625 39.8125 -12.921875 
Q 43.5 -8.453125 43.5 1.125 
L 43.5 8.109375 
Q 40.875 3.21875 36.796875 0.890625 
Q 32.71875 -1.421875 26.703125 -1.421875 
Q 17.140625 -1.421875 11.0625 6.171875 
Q 4.984375 13.765625 4.984375 25.984375 
Q 4.984375 38.1875 11.03125 45.75 
Q 17.09375 53.328125 26.703125 53.328125 
Q 32.71875 53.328125 36.796875 51 
Q 40.875 48.6875 43.5 43.796875 
L 43.5 51.90625 
L 61.078125 51.90625 
L 61.078125 46.6875 
z
M 43.5 28.515625 
Q 43.5 37.84375 39.90625 42.765625 
Q 36.328125 47.703125 29.5 47.703125 
Q 22.5625 47.703125 19.015625 42.234375 
Q 15.484375 36.765625 15.484375 25.984375 
Q 15.484375 15.234375 19.015625 9.71875 
Q 22.5625 4.203125 29.5 4.203125 
Q 36.328125 4.203125 39.90625 9.109375 
Q 43.5 14.015625 43.5 23.390625 
z
" id="DejaVuSerif-103"/>
      <path d="M 11.53125 5.171875 
L 11.53125 70.796875 
L 2.875 70.796875 
L 2.875 75.984375 
L 20.515625 75.984375 
L 20.515625 43.796875 
Q 23.140625 48.6875 27.21875 51 
Q 31.296875 53.328125 37.3125 53.328125 
Q 46.875 53.328125 52.921875 45.75 
Q 58.984375 38.1875 58.984375 25.984375 
Q 58.984375 13.765625 52.921875 6.171875 
Q 46.875 -1.421875 37.3125 -1.421875 
Q 31.296875 -1.421875 27.21875 0.890625 
Q 23.140625 3.21875 20.515625 8.109375 
L 20.515625 0 
L 2.875 0 
L 2.875 5.171875 
z
M 20.515625 23.390625 
Q 20.515625 14.015625 24.09375 9.109375 
Q 27.6875 4.203125 34.515625 4.203125 
Q 41.40625 4.203125 44.9375 9.71875 
Q 48.484375 15.234375 48.484375 25.984375 
Q 48.484375 36.765625 44.9375 42.234375 
Q 41.40625 47.703125 34.515625 47.703125 
Q 27.6875 47.703125 24.09375 42.765625 
Q 20.515625 37.84375 20.515625 28.515625 
z
" id="DejaVuSerif-98"/>
      <path d="M 24.703125 0 
L 5.609375 46.6875 
L -0.296875 46.6875 
L -0.296875 51.90625 
L 23.578125 51.90625 
L 23.578125 46.6875 
L 15.28125 46.6875 
L 29.890625 10.984375 
L 44.484375 46.6875 
L 36.71875 46.6875 
L 36.71875 51.90625 
L 56.203125 51.90625 
L 56.203125 46.6875 
L 50.390625 46.6875 
L 31.296875 0 
z
" id="DejaVuSerif-118"/>
     </defs>
     <use xlink:href="#DejaVuSerif-101"/>
     <use x="59.179688" xlink:href="#DejaVuSerif-120"/>
     <use x="115.576172" xlink:href="#DejaVuSerif-112"/>
     <use x="179.589844" xlink:href="#DejaVuSerif-101"/>
     <use x="238.769531" xlink:href="#DejaVuSerif-114"/>
     <use x="286.572266" xlink:href="#DejaVuSerif-105"/>
     <use x="318.554688" xlink:href="#DejaVuSerif-109"/>
     <use x="413.378906" xlink:href="#DejaVuSerif-101"/>
     <use x="472.558594" xlink:href="#DejaVuSerif-110"/>
     <use x="536.962891" xlink:href="#DejaVuSerif-116"/>
     <use x="577.148438" xlink:href="#DejaVuSerif-32"/>
     <use x="608.935547" xlink:href="#DejaVuSerif-61"/>
     <use x="692.724609" xlink:href="#DejaVuSerif-32"/>
     <use x="724.511719" xlink:href="#DejaVuSerif-115"/>
     <use x="775.830078" xlink:href="#DejaVuSerif-105"/>
     <use x="807.8125" xlink:href="#DejaVuSerif-110"/>
     <use x="872.216797" xlink:href="#DejaVuSerif-103"/>
     <use x="936.230469" xlink:href="#DejaVuSerif-108"/>
     <use x="968.212891" xlink:href="#DejaVuSerif-101"/>
     <use x="1027.392578" xlink:href="#DejaVuSerif-95"/>
     <use x="1077.392578" xlink:href="#DejaVuSerif-98"/>
     <use x="1141.40625" xlink:href="#DejaVuSerif-105"/>
     <use x="1173.388672" xlink:href="#DejaVuSerif-116"/>
     <use x="1213.574219" xlink:href="#DejaVuSerif-118"/>
     <use x="1270.068359" xlink:href="#DejaVuSerif-101"/>
     <use x="1329.248047" xlink:href="#DejaVuSerif-99"/>
     <use x="1385.253906" xlink:href="#DejaVuSerif-95"/>
     <use x="1435.253906" xlink:href="#DejaVuSerif-101"/>
     <use x="1494.433594" xlink:href="#DejaVuSerif-120"/>
     <use x="1550.830078" xlink:href="#DejaVuSerif-112"/>
     <use x="1614.84375" xlink:href="#DejaVuSerif-101"/>
     <use x="1674.023438" xlink:href="#DejaVuSerif-114"/>
     <use x="1721.826172" xlink:href="#DejaVuSerif-105"/>
     <use x="1753.808594" xlink:href="#DejaVuSerif-109"/>
     <use x="1848.632812" xlink:href="#DejaVuSerif-101"/>
     <use x="1907.8125" xlink:href="#DejaVuSerif-110"/>
     <use x="1972.216797" xlink:href="#DejaVuSerif-116"/>
    </g>
   </g>
  </g>
  <g id="axes_3">
   <g id="patch_24">
    <path d="M 50.145 681.69875 
L 387.2725 681.69875 
L 387.2725 363.30875 
L 50.145 363.30875 
z
" style="fill:#eaeaf2;"/>
   </g>
   <g id="matplotlib.axis_5">
    <g id="xtick_9">
     <g id="text_18">
      <!-- xtime_branch -->
      <g style="fill:#262626;" transform="translate(64.732812 696.0775)scale(0.08 -0.08)">
       <use xlink:href="#DejaVuSerif-120"/>
       <use x="56.396484" xlink:href="#DejaVuSerif-116"/>
       <use x="96.582031" xlink:href="#DejaVuSerif-105"/>
       <use x="128.564453" xlink:href="#DejaVuSerif-109"/>
       <use x="223.388672" xlink:href="#DejaVuSerif-101"/>
       <use x="282.568359" xlink:href="#DejaVuSerif-95"/>
       <use x="332.568359" xlink:href="#DejaVuSerif-98"/>
       <use x="396.582031" xlink:href="#DejaVuSerif-114"/>
       <use x="444.384766" xlink:href="#DejaVuSerif-97"/>
       <use x="504.003906" xlink:href="#DejaVuSerif-110"/>
       <use x="568.408203" xlink:href="#DejaVuSerif-99"/>
       <use x="624.414062" xlink:href="#DejaVuSerif-104"/>
      </g>
     </g>
    </g>
    <g id="xtick_10">
     <g id="text_19">
      <!-- xtime_branchless -->
      <g style="fill:#262626;" transform="translate(141.262812 696.0775)scale(0.08 -0.08)">
       <use xlink:href="#DejaVuSerif-120"/>
       <use x="56.396484" xlink:href="#DejaVuSerif-116"/>
       <use x="96.582031" xlink:href="#DejaVuSerif-105"/>
       <use x="128.564453" xlink:href="#DejaVuSerif-109"/>
       <use x="223.388672" xlink:href="#DejaVuSerif-101"/>
       <use x="282.568359" xlink:href="#DejaVuSerif-95"/>
       <use x="332.568359" xlink:href="#DejaVuSerif-98"/>
       <use x="396.582031" xlink:href="#DejaVuSerif-114"/>
       <use x="444.384766" xlink:href="#DejaVuSerif-97"/>
       <use x="504.003906" xlink:href="#DejaVuSerif-110"/>
       <use x="568.408203" xlink:href="#DejaVuSerif-99"/>
       <use x="624.414062" xlink:href="#DejaVuSerif-104"/>
       <use x="688.818359" xlink:href="#DejaVuSerif-108"/>
       <use x="720.800781" xlink:href="#DejaVuSerif-101"/>
       <use x="779.980469" xlink:href="#DejaVuSerif-115"/>
       <use x="831.298828" xlink:href="#DejaVuSerif-115"/>
      </g>
     </g>
    </g>
    <g id="xtick_11">
     <g id="text_20">
      <!-- xtime_broadcasted -->
      <g style="fill:#262626;" transform="translate(222.507188 696.0775)scale(0.08 -0.08)">
       <defs>
        <path d="M 30.078125 3.421875 
Q 37.3125 3.421875 40.984375 9.125 
Q 44.671875 14.84375 44.671875 25.984375 
Q 44.671875 37.109375 40.984375 42.796875 
Q 37.3125 48.484375 30.078125 48.484375 
Q 22.859375 48.484375 19.171875 42.796875 
Q 15.484375 37.109375 15.484375 25.984375 
Q 15.484375 14.84375 19.1875 9.125 
Q 22.90625 3.421875 30.078125 3.421875 
z
M 30.078125 -1.421875 
Q 18.75 -1.421875 11.859375 6.078125 
Q 4.984375 13.578125 4.984375 25.984375 
Q 4.984375 38.375 11.84375 45.84375 
Q 18.703125 53.328125 30.078125 53.328125 
Q 41.453125 53.328125 48.3125 45.84375 
Q 55.171875 38.375 55.171875 25.984375 
Q 55.171875 13.578125 48.3125 6.078125 
Q 41.453125 -1.421875 30.078125 -1.421875 
z
" id="DejaVuSerif-111"/>
       </defs>
       <use xlink:href="#DejaVuSerif-120"/>
       <use x="56.396484" xlink:href="#DejaVuSerif-116"/>
       <use x="96.582031" xlink:href="#DejaVuSerif-105"/>
       <use x="128.564453" xlink:href="#DejaVuSerif-109"/>
       <use x="223.388672" xlink:href="#DejaVuSerif-101"/>
       <use x="282.568359" xlink:href="#DejaVuSerif-95"/>
       <use x="332.568359" xlink:href="#DejaVuSerif-98"/>
       <use x="396.582031" xlink:href="#DejaVuSerif-114"/>
       <use x="444.384766" xlink:href="#DejaVuSerif-111"/>
       <use x="504.589844" xlink:href="#DejaVuSerif-97"/>
       <use x="564.208984" xlink:href="#DejaVuSerif-100"/>
       <use x="628.222656" xlink:href="#DejaVuSerif-99"/>
       <use x="684.228516" xlink:href="#DejaVuSerif-97"/>
       <use x="743.847656" xlink:href="#DejaVuSerif-115"/>
       <use x="795.166016" xlink:href="#DejaVuSerif-116"/>
       <use x="835.351562" xlink:href="#DejaVuSerif-101"/>
       <use x="894.53125" xlink:href="#DejaVuSerif-100"/>
      </g>
     </g>
    </g>
    <g id="xtick_12">
     <g id="text_21">
      <!-- xtime_cancelled -->
      <g style="fill:#262626;" transform="translate(312.532812 696.0775)scale(0.08 -0.08)">
       <use xlink:href="#DejaVuSerif-120"/>
       <use x="56.396484" xlink:href="#DejaVuSerif-116"/>
       <use x="96.582031" xlink:href="#DejaVuSerif-105"/>
       <use x="128.564453" xlink:href="#DejaVuSerif-109"/>
       <use x="223.388672" xlink:href="#DejaVuSerif-101"/>
       <use x="282.568359" xlink:href="#DejaVuSerif-95"/>
       <use x="332.568359" xlink:href="#DejaVuSerif-99"/>
       <use x="388.574219" xlink:href="#DejaVuSerif-97"/>
       <use x="448.193359" xlink:href="#DejaVuSerif-110"/>
       <use x="512.597656" xlink:href="#DejaVuSerif-99"/>
       <use x="568.603516" xlink:href="#DejaVuSerif-101"/>
       <use x="627.783203" xlink:href="#DejaVuSerif-108"/>
       <use x="659.765625" xlink:href="#DejaVuSerif-108"/>
       <use x="691.748047" xlink:href="#DejaVuSerif-101"/>
       <use x="750.927734" xlink:href="#DejaVuSerif-100"/>
      </g>
     </g>
    </g>
    <g id="text_22">
     <!-- func -->
     <g style="fill:#262626;" transform="translate(209.835625 708.0425)scale(0.08 -0.08)">
      <defs>
       <path d="M 43.015625 63.71875 
L 38.28125 63.71875 
Q 38.234375 67.390625 36.203125 69.28125 
Q 34.1875 71.1875 30.328125 71.1875 
Q 25.296875 71.1875 23.234375 68.421875 
Q 21.1875 65.671875 21.1875 58.59375 
L 21.1875 51.90625 
L 35.6875 51.90625 
L 35.6875 46.6875 
L 21.1875 46.6875 
L 21.1875 5.171875 
L 32.71875 5.171875 
L 32.71875 0 
L 3.609375 0 
L 3.609375 5.171875 
L 12.203125 5.171875 
L 12.203125 46.6875 
L 3.609375 46.6875 
L 3.609375 51.90625 
L 12.203125 51.90625 
L 12.203125 58.40625 
Q 12.203125 67.09375 16.71875 71.53125 
Q 21.234375 75.984375 29.984375 75.984375 
Q 33.25 75.984375 36.515625 75.390625 
Q 39.796875 74.8125 43.015625 73.578125 
z
" id="DejaVuSerif-102"/>
      </defs>
      <use xlink:href="#DejaVuSerif-102"/>
      <use x="37.011719" xlink:href="#DejaVuSerif-117"/>
      <use x="101.416016" xlink:href="#DejaVuSerif-110"/>
      <use x="165.820312" xlink:href="#DejaVuSerif-99"/>
     </g>
    </g>
   </g>
   <g id="matplotlib.axis_6">
    <g id="ytick_15">
     <g id="line2d_31">
      <path clip-path="url(#p498aaddea6)" d="M 50.145 681.69875 
L 387.2725 681.69875 
" style="fill:none;stroke:#ffffff;stroke-linecap:round;stroke-width:0.8;"/>
     </g>
     <g id="text_23">
      <!-- 0 -->
      <g style="fill:#262626;" transform="translate(36.755 684.738125)scale(0.08 -0.08)">
       <use xlink:href="#DejaVuSerif-48"/>
      </g>
     </g>
    </g>
    <g id="ytick_16">
     <g id="line2d_32">
      <path clip-path="url(#p498aaddea6)" d="M 50.145 623.459481 
L 387.2725 623.459481 
" style="fill:none;stroke:#ffffff;stroke-linecap:round;stroke-width:0.8;"/>
     </g>
     <g id="text_24">
      <!-- 1 -->
      <g style="fill:#262626;" transform="translate(36.755 626.498856)scale(0.08 -0.08)">
       <use xlink:href="#DejaVuSerif-49"/>
      </g>
     </g>
    </g>
    <g id="ytick_17">
     <g id="line2d_33">
      <path clip-path="url(#p498aaddea6)" d="M 50.145 565.220213 
L 387.2725 565.220213 
" style="fill:none;stroke:#ffffff;stroke-linecap:round;stroke-width:0.8;"/>
     </g>
     <g id="text_25">
      <!-- 2 -->
      <g style="fill:#262626;" transform="translate(36.755 568.259588)scale(0.08 -0.08)">
       <use xlink:href="#DejaVuSerif-50"/>
      </g>
     </g>
    </g>
    <g id="ytick_18">
     <g id="line2d_34">
      <path clip-path="url(#p498aaddea6)" d="M 50.145 506.980944 
L 387.2725 506.980944 
" style="fill:none;stroke:#ffffff;stroke-linecap:round;stroke-width:0.8;"/>
     </g>
     <g id="text_26">
      <!-- 3 -->
      <g style="fill:#262626;" transform="translate(36.755 510.020319)scale(0.08 -0.08)">
       <use xlink:href="#DejaVuSerif-51"/>
      </g>
     </g>
    </g>
    <g id="ytick_19">
     <g id="line2d_35">
      <path clip-path="url(#p498aaddea6)" d="M 50.145 448.741675 
L 387.2725 448.741675 
" style="fill:none;stroke:#ffffff;stroke-linecap:round;stroke-width:0.8;"/>
     </g>
     <g id="text_27">
      <!-- 4 -->
      <g style="fill:#262626;" transform="translate(36.755 451.78105)scale(0.08 -0.08)">
       <use xlink:href="#DejaVuSerif-52"/>
      </g>
     </g>
    </g>
    <g id="ytick_20">
     <g id="line2d_36">
      <path clip-path="url(#p498aaddea6)" d="M 50.145 390.502406 
L 387.2725 390.502406 
" style="fill:none;stroke:#ffffff;stroke-linecap:round;stroke-width:0.8;"/>
     </g>
     <g id="text_28">
      <!-- 5 -->
      <g style="fill:#262626;" transform="translate(36.755 393.541781)scale(0.08 -0.08)">
       <use xlink:href="#DejaVuSerif-53"/>
      </g>
     </g>
    </g>
    <g id="text_29">
     <!-- check-elapsed -->
     <g style="fill:#262626;" transform="translate(31.09125 551.20625)rotate(-90)scale(0.08 -0.08)">
      <use xlink:href="#DejaVuSerif-99"/>
      <use x="56.005859" xlink:href="#DejaVuSerif-104"/>
      <use x="120.410156" xlink:href="#DejaVuSerif-101"/>
      <use x="179.589844" xlink:href="#DejaVuSerif-99"/>
      <use x="235.595703" xlink:href="#DejaVuSerif-107"/>
      <use x="294.441406" xlink:href="#DejaVuSerif-45"/>
      <use x="328.230469" xlink:href="#DejaVuSerif-101"/>
      <use x="387.410156" xlink:href="#DejaVuSerif-108"/>
      <use x="419.392578" xlink:href="#DejaVuSerif-97"/>
      <use x="479.011719" xlink:href="#DejaVuSerif-112"/>
      <use x="543.025391" xlink:href="#DejaVuSerif-115"/>
      <use x="594.34375" xlink:href="#DejaVuSerif-101"/>
      <use x="653.523438" xlink:href="#DejaVuSerif-100"/>
     </g>
    </g>
   </g>
   <g id="patch_25">
    <path clip-path="url(#p498aaddea6)" d="M 58.573188 681.69875 
L 92.285938 681.69875 
L 92.285938 401.882824 
L 58.573188 401.882824 
z
" style="fill:#5875a4;stroke:#ffffff;stroke-linejoin:miter;stroke-width:0.8;"/>
   </g>
   <g id="patch_26">
    <path clip-path="url(#p498aaddea6)" d="M 142.855063 681.69875 
L 176.567813 681.69875 
L 176.567813 579.993487 
L 142.855063 579.993487 
z
" style="fill:#5875a4;stroke:#ffffff;stroke-linejoin:miter;stroke-width:0.8;"/>
   </g>
   <g id="patch_27">
    <path clip-path="url(#p498aaddea6)" d="M 227.136937 681.69875 
L 260.849687 681.69875 
L 260.849687 574.763721 
L 227.136937 574.763721 
z
" style="fill:#5875a4;stroke:#ffffff;stroke-linejoin:miter;stroke-width:0.8;"/>
   </g>
   <g id="patch_28">
    <path clip-path="url(#p498aaddea6)" d="M 311.418812 681.69875 
L 345.131562 681.69875 
L 345.131562 574.893398 
L 311.418812 574.893398 
z
" style="fill:#5875a4;stroke:#ffffff;stroke-linejoin:miter;stroke-width:0.8;"/>
   </g>
   <g id="patch_29">
    <path clip-path="url(#p498aaddea6)" d="M 92.285938 681.69875 
L 125.998688 681.69875 
L 125.998688 380.047757 
L 92.285938 380.047757 
z
" style="fill:#cc8963;stroke:#ffffff;stroke-linejoin:miter;stroke-width:0.8;"/>
   </g>
   <g id="patch_30">
    <path clip-path="url(#p498aaddea6)" d="M 176.567813 681.69875 
L 210.280563 681.69875 
L 210.280563 579.54864 
L 176.567813 579.54864 
z
" style="fill:#cc8963;stroke:#ffffff;stroke-linejoin:miter;stroke-width:0.8;"/>
   </g>
   <g id="patch_31">
    <path clip-path="url(#p498aaddea6)" d="M 260.849688 681.69875 
L 294.562437 681.69875 
L 294.562437 576.145797 
L 260.849688 576.145797 
z
" style="fill:#cc8963;stroke:#ffffff;stroke-linejoin:miter;stroke-width:0.8;"/>
   </g>
   <g id="patch_32">
    <path clip-path="url(#p498aaddea6)" d="M 345.131562 681.69875 
L 378.844312 681.69875 
L 378.844312 574.7523 
L 345.131562 574.7523 
z
" style="fill:#cc8963;stroke:#ffffff;stroke-linejoin:miter;stroke-width:0.8;"/>
   </g>
   <g id="line2d_37">
    <path clip-path="url(#p498aaddea6)" d="M 75.429563 403.529353 
L 75.429563 400.35476 
" style="fill:none;stroke:#424242;stroke-linecap:round;stroke-width:2.16;"/>
   </g>
   <g id="line2d_38">
    <path clip-path="url(#p498aaddea6)" d="M 159.711437 580.259899 
L 159.711437 579.770901 
" style="fill:none;stroke:#424242;stroke-linecap:round;stroke-width:2.16;"/>
   </g>
   <g id="line2d_39">
    <path clip-path="url(#p498aaddea6)" d="M 243.993313 575.118148 
L 243.993313 574.510494 
" style="fill:none;stroke:#424242;stroke-linecap:round;stroke-width:2.16;"/>
   </g>
   <g id="line2d_40">
    <path clip-path="url(#p498aaddea6)" d="M 328.275187 575.13682 
L 328.275187 574.711979 
" style="fill:none;stroke:#424242;stroke-linecap:round;stroke-width:2.16;"/>
   </g>
   <g id="line2d_41">
    <path clip-path="url(#p498aaddea6)" d="M 109.142313 381.779105 
L 109.142313 378.470179 
" style="fill:none;stroke:#424242;stroke-linecap:round;stroke-width:2.16;"/>
   </g>
   <g id="line2d_42">
    <path clip-path="url(#p498aaddea6)" d="M 193.424188 579.811459 
L 193.424188 579.356918 
" style="fill:none;stroke:#424242;stroke-linecap:round;stroke-width:2.16;"/>
   </g>
   <g id="line2d_43">
    <path clip-path="url(#p498aaddea6)" d="M 277.706063 576.451727 
L 277.706063 575.9169 
" style="fill:none;stroke:#424242;stroke-linecap:round;stroke-width:2.16;"/>
   </g>
   <g id="line2d_44">
    <path clip-path="url(#p498aaddea6)" d="M 361.987937 574.933642 
L 361.987937 574.586711 
" style="fill:none;stroke:#424242;stroke-linecap:round;stroke-width:2.16;"/>
   </g>
   <g id="patch_33">
    <path d="M 50.145 681.69875 
L 50.145 363.30875 
" style="fill:none;stroke:#ffffff;stroke-linecap:square;stroke-linejoin:miter;"/>
   </g>
   <g id="patch_34">
    <path d="M 50.145 681.69875 
L 387.2725 681.69875 
" style="fill:none;stroke:#ffffff;stroke-linecap:square;stroke-linejoin:miter;"/>
   </g>
   <g id="text_30">
    <!-- experiment = mix_two_bitvec_experiment -->
    <g style="fill:#262626;" transform="translate(133.558125 357.30875)scale(0.08 -0.08)">
     <defs>
      <path d="M 48 51.90625 
L 61.28125 11.375 
L 73 46.6875 
L 65.484375 46.6875 
L 65.484375 51.90625 
L 84.28125 51.90625 
L 84.28125 46.6875 
L 78.515625 46.6875 
L 63.09375 0 
L 55.609375 0 
L 42.828125 38.8125 
L 29.984375 0 
L 22.796875 0 
L 7.421875 46.6875 
L 1.609375 46.6875 
L 1.609375 51.90625 
L 25.09375 51.90625 
L 25.09375 46.6875 
L 16.703125 46.6875 
L 28.328125 11.375 
L 41.703125 51.90625 
z
" id="DejaVuSerif-119"/>
     </defs>
     <use xlink:href="#DejaVuSerif-101"/>
     <use x="59.179688" xlink:href="#DejaVuSerif-120"/>
     <use x="115.576172" xlink:href="#DejaVuSerif-112"/>
     <use x="179.589844" xlink:href="#DejaVuSerif-101"/>
     <use x="238.769531" xlink:href="#DejaVuSerif-114"/>
     <use x="286.572266" xlink:href="#DejaVuSerif-105"/>
     <use x="318.554688" xlink:href="#DejaVuSerif-109"/>
     <use x="413.378906" xlink:href="#DejaVuSerif-101"/>
     <use x="472.558594" xlink:href="#DejaVuSerif-110"/>
     <use x="536.962891" xlink:href="#DejaVuSerif-116"/>
     <use x="577.148438" xlink:href="#DejaVuSerif-32"/>
     <use x="608.935547" xlink:href="#DejaVuSerif-61"/>
     <use x="692.724609" xlink:href="#DejaVuSerif-32"/>
     <use x="724.511719" xlink:href="#DejaVuSerif-109"/>
     <use x="819.335938" xlink:href="#DejaVuSerif-105"/>
     <use x="851.318359" xlink:href="#DejaVuSerif-120"/>
     <use x="907.714844" xlink:href="#DejaVuSerif-95"/>
     <use x="957.714844" xlink:href="#DejaVuSerif-116"/>
     <use x="997.900391" xlink:href="#DejaVuSerif-119"/>
     <use x="1083.496094" xlink:href="#DejaVuSerif-111"/>
     <use x="1143.701172" xlink:href="#DejaVuSerif-95"/>
     <use x="1193.701172" xlink:href="#DejaVuSerif-98"/>
     <use x="1257.714844" xlink:href="#DejaVuSerif-105"/>
     <use x="1289.697266" xlink:href="#DejaVuSerif-116"/>
     <use x="1329.882812" xlink:href="#DejaVuSerif-118"/>
     <use x="1386.376953" xlink:href="#DejaVuSerif-101"/>
     <use x="1445.556641" xlink:href="#DejaVuSerif-99"/>
     <use x="1501.5625" xlink:href="#DejaVuSerif-95"/>
     <use x="1551.5625" xlink:href="#DejaVuSerif-101"/>
     <use x="1610.742188" xlink:href="#DejaVuSerif-120"/>
     <use x="1667.138672" xlink:href="#DejaVuSerif-112"/>
     <use x="1731.152344" xlink:href="#DejaVuSerif-101"/>
     <use x="1790.332031" xlink:href="#DejaVuSerif-114"/>
     <use x="1838.134766" xlink:href="#DejaVuSerif-105"/>
     <use x="1870.117188" xlink:href="#DejaVuSerif-109"/>
     <use x="1964.941406" xlink:href="#DejaVuSerif-101"/>
     <use x="2024.121094" xlink:href="#DejaVuSerif-110"/>
     <use x="2088.525391" xlink:href="#DejaVuSerif-116"/>
    </g>
   </g>
  </g>
  <g id="axes_4">
   <g id="patch_35">
    <path d="M 426.9625 681.69875 
L 764.09 681.69875 
L 764.09 363.30875 
L 426.9625 363.30875 
z
" style="fill:#eaeaf2;"/>
   </g>
   <g id="matplotlib.axis_7">
    <g id="xtick_13">
     <g id="text_31">
      <!-- xtime_branch -->
      <g style="fill:#262626;" transform="translate(441.550312 696.0775)scale(0.08 -0.08)">
       <use xlink:href="#DejaVuSerif-120"/>
       <use x="56.396484" xlink:href="#DejaVuSerif-116"/>
       <use x="96.582031" xlink:href="#DejaVuSerif-105"/>
       <use x="128.564453" xlink:href="#DejaVuSerif-109"/>
       <use x="223.388672" xlink:href="#DejaVuSerif-101"/>
       <use x="282.568359" xlink:href="#DejaVuSerif-95"/>
       <use x="332.568359" xlink:href="#DejaVuSerif-98"/>
       <use x="396.582031" xlink:href="#DejaVuSerif-114"/>
       <use x="444.384766" xlink:href="#DejaVuSerif-97"/>
       <use x="504.003906" xlink:href="#DejaVuSerif-110"/>
       <use x="568.408203" xlink:href="#DejaVuSerif-99"/>
       <use x="624.414062" xlink:href="#DejaVuSerif-104"/>
      </g>
     </g>
    </g>
    <g id="xtick_14">
     <g id="text_32">
      <!-- xtime_branchless -->
      <g style="fill:#262626;" transform="translate(518.080312 696.0775)scale(0.08 -0.08)">
       <use xlink:href="#DejaVuSerif-120"/>
       <use x="56.396484" xlink:href="#DejaVuSerif-116"/>
       <use x="96.582031" xlink:href="#DejaVuSerif-105"/>
       <use x="128.564453" xlink:href="#DejaVuSerif-109"/>
       <use x="223.388672" xlink:href="#DejaVuSerif-101"/>
       <use x="282.568359" xlink:href="#DejaVuSerif-95"/>
       <use x="332.568359" xlink:href="#DejaVuSerif-98"/>
       <use x="396.582031" xlink:href="#DejaVuSerif-114"/>
       <use x="444.384766" xlink:href="#DejaVuSerif-97"/>
       <use x="504.003906" xlink:href="#DejaVuSerif-110"/>
       <use x="568.408203" xlink:href="#DejaVuSerif-99"/>
       <use x="624.414062" xlink:href="#DejaVuSerif-104"/>
       <use x="688.818359" xlink:href="#DejaVuSerif-108"/>
       <use x="720.800781" xlink:href="#DejaVuSerif-101"/>
       <use x="779.980469" xlink:href="#DejaVuSerif-115"/>
       <use x="831.298828" xlink:href="#DejaVuSerif-115"/>
      </g>
     </g>
    </g>
    <g id="xtick_15">
     <g id="text_33">
      <!-- xtime_broadcasted -->
      <g style="fill:#262626;" transform="translate(599.324687 696.0775)scale(0.08 -0.08)">
       <use xlink:href="#DejaVuSerif-120"/>
       <use x="56.396484" xlink:href="#DejaVuSerif-116"/>
       <use x="96.582031" xlink:href="#DejaVuSerif-105"/>
       <use x="128.564453" xlink:href="#DejaVuSerif-109"/>
       <use x="223.388672" xlink:href="#DejaVuSerif-101"/>
       <use x="282.568359" xlink:href="#DejaVuSerif-95"/>
       <use x="332.568359" xlink:href="#DejaVuSerif-98"/>
       <use x="396.582031" xlink:href="#DejaVuSerif-114"/>
       <use x="444.384766" xlink:href="#DejaVuSerif-111"/>
       <use x="504.589844" xlink:href="#DejaVuSerif-97"/>
       <use x="564.208984" xlink:href="#DejaVuSerif-100"/>
       <use x="628.222656" xlink:href="#DejaVuSerif-99"/>
       <use x="684.228516" xlink:href="#DejaVuSerif-97"/>
       <use x="743.847656" xlink:href="#DejaVuSerif-115"/>
       <use x="795.166016" xlink:href="#DejaVuSerif-116"/>
       <use x="835.351562" xlink:href="#DejaVuSerif-101"/>
       <use x="894.53125" xlink:href="#DejaVuSerif-100"/>
      </g>
     </g>
    </g>
    <g id="xtick_16">
     <g id="text_34">
      <!-- xtime_cancelled -->
      <g style="fill:#262626;" transform="translate(689.350313 696.0775)scale(0.08 -0.08)">
       <use xlink:href="#DejaVuSerif-120"/>
       <use x="56.396484" xlink:href="#DejaVuSerif-116"/>
       <use x="96.582031" xlink:href="#DejaVuSerif-105"/>
       <use x="128.564453" xlink:href="#DejaVuSerif-109"/>
       <use x="223.388672" xlink:href="#DejaVuSerif-101"/>
       <use x="282.568359" xlink:href="#DejaVuSerif-95"/>
       <use x="332.568359" xlink:href="#DejaVuSerif-99"/>
       <use x="388.574219" xlink:href="#DejaVuSerif-97"/>
       <use x="448.193359" xlink:href="#DejaVuSerif-110"/>
       <use x="512.597656" xlink:href="#DejaVuSerif-99"/>
       <use x="568.603516" xlink:href="#DejaVuSerif-101"/>
       <use x="627.783203" xlink:href="#DejaVuSerif-108"/>
       <use x="659.765625" xlink:href="#DejaVuSerif-108"/>
       <use x="691.748047" xlink:href="#DejaVuSerif-101"/>
       <use x="750.927734" xlink:href="#DejaVuSerif-100"/>
      </g>
     </g>
    </g>
    <g id="text_35">
     <!-- func -->
     <g style="fill:#262626;" transform="translate(586.653125 708.0425)scale(0.08 -0.08)">
      <use xlink:href="#DejaVuSerif-102"/>
      <use x="37.011719" xlink:href="#DejaVuSerif-117"/>
      <use x="101.416016" xlink:href="#DejaVuSerif-110"/>
      <use x="165.820312" xlink:href="#DejaVuSerif-99"/>
     </g>
    </g>
   </g>
   <g id="matplotlib.axis_8">
    <g id="ytick_21">
     <g id="line2d_45">
      <path clip-path="url(#p11af511bbb)" d="M 426.9625 681.69875 
L 764.09 681.69875 
" style="fill:none;stroke:#ffffff;stroke-linecap:round;stroke-width:0.8;"/>
     </g>
     <g id="text_36">
      <!-- 0 -->
      <g style="fill:#262626;" transform="translate(413.5725 684.738125)scale(0.08 -0.08)">
       <use xlink:href="#DejaVuSerif-48"/>
      </g>
     </g>
    </g>
    <g id="ytick_22">
     <g id="line2d_46">
      <path clip-path="url(#p11af511bbb)" d="M 426.9625 639.209848 
L 764.09 639.209848 
" style="fill:none;stroke:#ffffff;stroke-linecap:round;stroke-width:0.8;"/>
     </g>
     <g id="text_37">
      <!-- 50 -->
      <g style="fill:#262626;" transform="translate(408.4825 642.249223)scale(0.08 -0.08)">
       <use xlink:href="#DejaVuSerif-53"/>
       <use x="63.623047" xlink:href="#DejaVuSerif-48"/>
      </g>
     </g>
    </g>
    <g id="ytick_23">
     <g id="line2d_47">
      <path clip-path="url(#p11af511bbb)" d="M 426.9625 596.720945 
L 764.09 596.720945 
" style="fill:none;stroke:#ffffff;stroke-linecap:round;stroke-width:0.8;"/>
     </g>
     <g id="text_38">
      <!-- 100 -->
      <g style="fill:#262626;" transform="translate(403.3925 599.76032)scale(0.08 -0.08)">
       <use xlink:href="#DejaVuSerif-49"/>
       <use x="63.623047" xlink:href="#DejaVuSerif-48"/>
       <use x="127.246094" xlink:href="#DejaVuSerif-48"/>
      </g>
     </g>
    </g>
    <g id="ytick_24">
     <g id="line2d_48">
      <path clip-path="url(#p11af511bbb)" d="M 426.9625 554.232043 
L 764.09 554.232043 
" style="fill:none;stroke:#ffffff;stroke-linecap:round;stroke-width:0.8;"/>
     </g>
     <g id="text_39">
      <!-- 150 -->
      <g style="fill:#262626;" transform="translate(403.3925 557.271418)scale(0.08 -0.08)">
       <use xlink:href="#DejaVuSerif-49"/>
       <use x="63.623047" xlink:href="#DejaVuSerif-53"/>
       <use x="127.246094" xlink:href="#DejaVuSerif-48"/>
      </g>
     </g>
    </g>
    <g id="ytick_25">
     <g id="line2d_49">
      <path clip-path="url(#p11af511bbb)" d="M 426.9625 511.743141 
L 764.09 511.743141 
" style="fill:none;stroke:#ffffff;stroke-linecap:round;stroke-width:0.8;"/>
     </g>
     <g id="text_40">
      <!-- 200 -->
      <g style="fill:#262626;" transform="translate(403.3925 514.782516)scale(0.08 -0.08)">
       <use xlink:href="#DejaVuSerif-50"/>
       <use x="63.623047" xlink:href="#DejaVuSerif-48"/>
       <use x="127.246094" xlink:href="#DejaVuSerif-48"/>
      </g>
     </g>
    </g>
    <g id="ytick_26">
     <g id="line2d_50">
      <path clip-path="url(#p11af511bbb)" d="M 426.9625 469.254239 
L 764.09 469.254239 
" style="fill:none;stroke:#ffffff;stroke-linecap:round;stroke-width:0.8;"/>
     </g>
     <g id="text_41">
      <!-- 250 -->
      <g style="fill:#262626;" transform="translate(403.3925 472.293614)scale(0.08 -0.08)">
       <use xlink:href="#DejaVuSerif-50"/>
       <use x="63.623047" xlink:href="#DejaVuSerif-53"/>
       <use x="127.246094" xlink:href="#DejaVuSerif-48"/>
      </g>
     </g>
    </g>
    <g id="ytick_27">
     <g id="line2d_51">
      <path clip-path="url(#p11af511bbb)" d="M 426.9625 426.765336 
L 764.09 426.765336 
" style="fill:none;stroke:#ffffff;stroke-linecap:round;stroke-width:0.8;"/>
     </g>
     <g id="text_42">
      <!-- 300 -->
      <g style="fill:#262626;" transform="translate(403.3925 429.804711)scale(0.08 -0.08)">
       <use xlink:href="#DejaVuSerif-51"/>
       <use x="63.623047" xlink:href="#DejaVuSerif-48"/>
       <use x="127.246094" xlink:href="#DejaVuSerif-48"/>
      </g>
     </g>
    </g>
    <g id="ytick_28">
     <g id="line2d_52">
      <path clip-path="url(#p11af511bbb)" d="M 426.9625 384.276434 
L 764.09 384.276434 
" style="fill:none;stroke:#ffffff;stroke-linecap:round;stroke-width:0.8;"/>
     </g>
     <g id="text_43">
      <!-- 350 -->
      <g style="fill:#262626;" transform="translate(403.3925 387.315809)scale(0.08 -0.08)">
       <use xlink:href="#DejaVuSerif-51"/>
       <use x="63.623047" xlink:href="#DejaVuSerif-53"/>
       <use x="127.246094" xlink:href="#DejaVuSerif-48"/>
      </g>
     </g>
    </g>
   </g>
   <g id="patch_36">
    <path clip-path="url(#p11af511bbb)" d="M 435.390687 681.69875 
L 469.103437 681.69875 
L 469.103437 500.643873 
L 435.390687 500.643873 
z
" style="fill:#5875a4;stroke:#ffffff;stroke-linejoin:miter;stroke-width:0.8;"/>
   </g>
   <g id="patch_37">
    <path clip-path="url(#p11af511bbb)" d="M 519.672562 681.69875 
L 553.385312 681.69875 
L 553.385312 380.830522 
L 519.672562 380.830522 
z
" style="fill:#5875a4;stroke:#ffffff;stroke-linejoin:miter;stroke-width:0.8;"/>
   </g>
   <g id="patch_38">
    <path clip-path="url(#p11af511bbb)" d="M 603.954438 681.69875 
L 637.667188 681.69875 
L 637.667188 629.201525 
L 603.954438 629.201525 
z
" style="fill:#5875a4;stroke:#ffffff;stroke-linejoin:miter;stroke-width:0.8;"/>
   </g>
   <g id="patch_39">
    <path clip-path="url(#p11af511bbb)" d="M 688.236312 681.69875 
L 721.949062 681.69875 
L 721.949062 676.09862 
L 688.236312 676.09862 
z
" style="fill:#5875a4;stroke:#ffffff;stroke-linejoin:miter;stroke-width:0.8;"/>
   </g>
   <g id="patch_40">
    <path clip-path="url(#p11af511bbb)" d="M 469.103437 681.69875 
L 502.816187 681.69875 
L 502.816187 574.335949 
L 469.103437 574.335949 
z
" style="fill:#cc8963;stroke:#ffffff;stroke-linejoin:miter;stroke-width:0.8;"/>
   </g>
   <g id="patch_41">
    <path clip-path="url(#p11af511bbb)" d="M 553.385312 681.69875 
L 587.098062 681.69875 
L 587.098062 679.997992 
L 553.385312 679.997992 
z
" style="fill:#cc8963;stroke:#ffffff;stroke-linejoin:miter;stroke-width:0.8;"/>
   </g>
   <g id="patch_42">
    <path clip-path="url(#p11af511bbb)" d="M 637.667187 681.69875 
L 671.379937 681.69875 
L 671.379937 653.340196 
L 637.667187 653.340196 
z
" style="fill:#cc8963;stroke:#ffffff;stroke-linejoin:miter;stroke-width:0.8;"/>
   </g>
   <g id="patch_43">
    <path clip-path="url(#p11af511bbb)" d="M 721.949063 681.69875 
L 755.661813 681.69875 
L 755.661813 546.911229 
L 721.949063 546.911229 
z
" style="fill:#cc8963;stroke:#ffffff;stroke-linejoin:miter;stroke-width:0.8;"/>
   </g>
   <g id="line2d_53">
    <path clip-path="url(#p11af511bbb)" d="M 452.247062 502.276842 
L 452.247062 498.314782 
" style="fill:none;stroke:#424242;stroke-linecap:round;stroke-width:2.16;"/>
   </g>
   <g id="line2d_54">
    <path clip-path="url(#p11af511bbb)" d="M 536.528937 382.396521 
L 536.528937 378.470179 
" style="fill:none;stroke:#424242;stroke-linecap:round;stroke-width:2.16;"/>
   </g>
   <g id="line2d_55">
    <path clip-path="url(#p11af511bbb)" d="M 620.810812 629.28271 
L 620.810812 629.141687 
" style="fill:none;stroke:#424242;stroke-linecap:round;stroke-width:2.16;"/>
   </g>
   <g id="line2d_56">
    <path clip-path="url(#p11af511bbb)" d="M 705.092688 676.108204 
L 705.092688 676.088791 
" style="fill:none;stroke:#424242;stroke-linecap:round;stroke-width:2.16;"/>
   </g>
   <g id="line2d_57">
    <path clip-path="url(#p11af511bbb)" d="M 485.959812 574.525871 
L 485.959812 574.193125 
" style="fill:none;stroke:#424242;stroke-linecap:round;stroke-width:2.16;"/>
   </g>
   <g id="line2d_58">
    <path clip-path="url(#p11af511bbb)" d="M 570.241687 680.001342 
L 570.241687 679.994596 
" style="fill:none;stroke:#424242;stroke-linecap:round;stroke-width:2.16;"/>
   </g>
   <g id="line2d_59">
    <path clip-path="url(#p11af511bbb)" d="M 654.523563 653.374901 
L 654.523563 653.30503 
" style="fill:none;stroke:#424242;stroke-linecap:round;stroke-width:2.16;"/>
   </g>
   <g id="line2d_60">
    <path clip-path="url(#p11af511bbb)" d="M 738.805438 547.065603 
L 738.805438 546.79288 
" style="fill:none;stroke:#424242;stroke-linecap:round;stroke-width:2.16;"/>
   </g>
   <g id="patch_44">
    <path d="M 426.9625 681.69875 
L 426.9625 363.30875 
" style="fill:none;stroke:#ffffff;stroke-linecap:square;stroke-linejoin:miter;"/>
   </g>
   <g id="patch_45">
    <path d="M 426.9625 681.69875 
L 764.09 681.69875 
" style="fill:none;stroke:#ffffff;stroke-linecap:square;stroke-linejoin:miter;"/>
   </g>
   <g id="text_44">
    <!-- experiment = encrypt_rounds_experiment -->
    <g style="fill:#262626;" transform="translate(509.84875 357.30875)scale(0.08 -0.08)">
     <defs>
      <path d="M 21.578125 -9.515625 
L 25 -0.875 
L 5.609375 46.6875 
L -0.296875 46.6875 
L -0.296875 51.90625 
L 23.578125 51.90625 
L 23.578125 46.6875 
L 15.28125 46.6875 
L 29.890625 10.984375 
L 44.484375 46.6875 
L 36.71875 46.6875 
L 36.71875 51.90625 
L 56.203125 51.90625 
L 56.203125 46.6875 
L 50.390625 46.6875 
L 26.609375 -11.71875 
Q 24.171875 -17.78125 21.1875 -20 
Q 18.21875 -22.21875 12.796875 -22.21875 
Q 10.5 -22.21875 8.078125 -21.828125 
Q 5.671875 -21.4375 3.21875 -20.703125 
L 3.21875 -10.796875 
L 7.8125 -10.796875 
Q 8.109375 -14.109375 9.5 -15.546875 
Q 10.890625 -17 13.8125 -17 
Q 16.5 -17 18.140625 -15.5 
Q 19.78125 -14.015625 21.578125 -9.515625 
z
" id="DejaVuSerif-121"/>
     </defs>
     <use xlink:href="#DejaVuSerif-101"/>
     <use x="59.179688" xlink:href="#DejaVuSerif-120"/>
     <use x="115.576172" xlink:href="#DejaVuSerif-112"/>
     <use x="179.589844" xlink:href="#DejaVuSerif-101"/>
     <use x="238.769531" xlink:href="#DejaVuSerif-114"/>
     <use x="286.572266" xlink:href="#DejaVuSerif-105"/>
     <use x="318.554688" xlink:href="#DejaVuSerif-109"/>
     <use x="413.378906" xlink:href="#DejaVuSerif-101"/>
     <use x="472.558594" xlink:href="#DejaVuSerif-110"/>
     <use x="536.962891" xlink:href="#DejaVuSerif-116"/>
     <use x="577.148438" xlink:href="#DejaVuSerif-32"/>
     <use x="608.935547" xlink:href="#DejaVuSerif-61"/>
     <use x="692.724609" xlink:href="#DejaVuSerif-32"/>
     <use x="724.511719" xlink:href="#DejaVuSerif-101"/>
     <use x="783.691406" xlink:href="#DejaVuSerif-110"/>
     <use x="848.095703" xlink:href="#DejaVuSerif-99"/>
     <use x="904.101562" xlink:href="#DejaVuSerif-114"/>
     <use x="951.904297" xlink:href="#DejaVuSerif-121"/>
     <use x="1008.398438" xlink:href="#DejaVuSerif-112"/>
     <use x="1072.412109" xlink:href="#DejaVuSerif-116"/>
     <use x="1112.597656" xlink:href="#DejaVuSerif-95"/>
     <use x="1162.597656" xlink:href="#DejaVuSerif-114"/>
     <use x="1210.400391" xlink:href="#DejaVuSerif-111"/>
     <use x="1270.605469" xlink:href="#DejaVuSerif-117"/>
     <use x="1335.009766" xlink:href="#DejaVuSerif-110"/>
     <use x="1399.414062" xlink:href="#DejaVuSerif-100"/>
     <use x="1463.427734" xlink:href="#DejaVuSerif-115"/>
     <use x="1514.746094" xlink:href="#DejaVuSerif-95"/>
     <use x="1564.746094" xlink:href="#DejaVuSerif-101"/>
     <use x="1623.925781" xlink:href="#DejaVuSerif-120"/>
     <use x="1680.322266" xlink:href="#DejaVuSerif-112"/>
     <use x="1744.335938" xlink:href="#DejaVuSerif-101"/>
     <use x="1803.515625" xlink:href="#DejaVuSerif-114"/>
     <use x="1851.318359" xlink:href="#DejaVuSerif-105"/>
     <use x="1883.300781" xlink:href="#DejaVuSerif-109"/>
     <use x="1978.125" xlink:href="#DejaVuSerif-101"/>
     <use x="2037.304688" xlink:href="#DejaVuSerif-110"/>
     <use x="2101.708984" xlink:href="#DejaVuSerif-116"/>
    </g>
   </g>
  </g>
  <g id="legend_1">
   <g id="text_45">
    <!-- simplified -->
    <g style="fill:#262626;" transform="translate(720.892 349.359625)scale(0.096 -0.096)">
     <use xlink:href="#DejaVuSerif-115"/>
     <use x="51.318359" xlink:href="#DejaVuSerif-105"/>
     <use x="83.300781" xlink:href="#DejaVuSerif-109"/>
     <use x="178.125" xlink:href="#DejaVuSerif-112"/>
     <use x="242.138672" xlink:href="#DejaVuSerif-108"/>
     <use x="274.121094" xlink:href="#DejaVuSerif-105"/>
     <use x="306.103516" xlink:href="#DejaVuSerif-102"/>
     <use x="343.115234" xlink:href="#DejaVuSerif-105"/>
     <use x="375.097656" xlink:href="#DejaVuSerif-101"/>
     <use x="434.277344" xlink:href="#DejaVuSerif-100"/>
    </g>
   </g>
   <g id="patch_46">
    <path d="M 723.021 361.434875 
L 739.021 361.434875 
L 739.021 355.834875 
L 723.021 355.834875 
z
" style="fill:#5875a4;stroke:#ffffff;stroke-linejoin:miter;stroke-width:0.8;"/>
   </g>
   <g id="text_46">
    <!-- True -->
    <g style="fill:#262626;" transform="translate(745.421 361.434875)scale(0.08 -0.08)">
     <defs>
      <path d="M 19.09375 0 
L 19.09375 5.171875 
L 28.421875 5.171875 
L 28.421875 67.09375 
L 6.984375 67.09375 
L 6.984375 55.71875 
L 0.984375 55.71875 
L 0.984375 72.90625 
L 65.71875 72.90625 
L 65.71875 55.71875 
L 59.71875 55.71875 
L 59.71875 67.09375 
L 38.28125 67.09375 
L 38.28125 5.171875 
L 47.609375 5.171875 
L 47.609375 0 
z
" id="DejaVuSerif-84"/>
     </defs>
     <use xlink:href="#DejaVuSerif-84"/>
     <use x="66.699219" xlink:href="#DejaVuSerif-114"/>
     <use x="114.501953" xlink:href="#DejaVuSerif-117"/>
     <use x="178.90625" xlink:href="#DejaVuSerif-101"/>
    </g>
   </g>
   <g id="patch_47">
    <path d="M 723.021 373.177375 
L 739.021 373.177375 
L 739.021 367.577375 
L 723.021 367.577375 
z
" style="fill:#cc8963;stroke:#ffffff;stroke-linejoin:miter;stroke-width:0.8;"/>
   </g>
   <g id="text_47">
    <!-- False -->
    <g style="fill:#262626;" transform="translate(745.421 373.177375)scale(0.08 -0.08)">
     <defs>
      <path d="M 5.515625 0 
L 5.515625 5.171875 
L 14.796875 5.171875 
L 14.796875 67.671875 
L 5.515625 67.671875 
L 5.515625 72.90625 
L 65.1875 72.90625 
L 65.1875 56.6875 
L 59.1875 56.6875 
L 59.1875 66.890625 
L 24.703125 66.890625 
L 24.703125 42.484375 
L 49.609375 42.484375 
L 49.609375 51.609375 
L 55.609375 51.609375 
L 55.609375 27.390625 
L 49.609375 27.390625 
L 49.609375 36.53125 
L 24.703125 36.53125 
L 24.703125 5.171875 
L 36.375 5.171875 
L 36.375 0 
z
" id="DejaVuSerif-70"/>
     </defs>
     <use xlink:href="#DejaVuSerif-70"/>
     <use x="62.634766" xlink:href="#DejaVuSerif-97"/>
     <use x="122.253906" xlink:href="#DejaVuSerif-108"/>
     <use x="154.236328" xlink:href="#DejaVuSerif-115"/>
     <use x="205.554688" xlink:href="#DejaVuSerif-101"/>
    </g>
   </g>
  </g>
 </g>
 <defs>
  <clipPath id="p4734e62049">
   <rect height="318.39" width="337.1275" x="50.145" y="19.27875"/>
  </clipPath>
  <clipPath id="p930685f025">
   <rect height="318.39" width="337.1275" x="426.9625" y="19.27875"/>
  </clipPath>
  <clipPath id="p498aaddea6">
   <rect height="318.39" width="337.1275" x="50.145" y="363.30875"/>
  </clipPath>
  <clipPath id="p11af511bbb">
   <rect height="318.39" width="337.1275" x="426.9625" y="363.30875"/>
  </clipPath>
 </defs>
</svg>
