<?xml version="1.0" encoding="UTF-8" standalone="no"?><svg xmlns="http://www.w3.org/2000/svg" xmlns:xlink="http://www.w3.org/1999/xlink" contentScriptType="application/ecmascript" contentStyleType="text/css" height="199px" preserveAspectRatio="none" style="width:689px;height:199px;background:#FFFFFF;" version="1.1" viewBox="0 0 689 199" width="689px" zoomAndPan="magnify"><defs><filter height="300%" id="f6sauhxnll20b" width="300%" x="-1" y="-1"><feGaussianBlur result="blurOut" stdDeviation="2.0"/><feColorMatrix in="blurOut" result="blurOut2" type="matrix" values="0 0 0 0 0 0 0 0 0 0 0 0 0 0 0 0 0 0 .4 0"/><feOffset dx="4.0" dy="4.0" in="blurOut2" result="blurOut3"/><feBlend in="SourceGraphic" in2="blurOut3" mode="normal"/></filter></defs><g><!--MD5=[5d72adb4fa7b377dcbf7df092a6b03db]
cluster pandoc--><rect fill="#FEFECE" filter="url(#f6sauhxnll20b)" height="91" rx="12.5" ry="12.5" style="stroke:#A80036;stroke-width:1.5;" width="201" x="249" y="7"/><rect fill="#FFFFFF" height="58.2001" rx="12.5" ry="12.5" style="stroke:#FFFFFF;stroke-width:1.0;" width="195" x="252" y="36.7999"/><line style="stroke:#A80036;stroke-width:1.5;" x1="249" x2="450" y1="33.7999" y2="33.7999"/><text fill="#000000" font-family="sans-serif" font-size="14" lengthAdjust="spacing" textLength="48" x="325.5" y="24.0059">Pandoc</text><rect fill="#FEFECE" filter="url(#f6sauhxnll20b)" height="40" rx="12.5" ry="12.5" style="stroke:#A80036;stroke-width:1.5;" width="50" x="265" y="42"/><text fill="#000000" font-family="sans-serif" font-size="14" lengthAdjust="spacing" textLength="30" x="275" y="66.606">Json</text><rect fill="#FEFECE" filter="url(#f6sauhxnll20b)" height="40" rx="12.5" ry="12.5" style="stroke:#A80036;stroke-width:1.5;" width="50" x="384" y="42"/><text fill="#000000" font-family="sans-serif" font-size="14" lengthAdjust="spacing" textLength="30" x="394" y="66.606">Json</text><rect fill="#FEFECE" filter="url(#f6sauhxnll20b)" height="40" rx="12.5" ry="12.5" style="stroke:#A80036;stroke-width:1.5;" width="76" x="7" y="42"/><text fill="#000000" font-family="sans-serif" font-size="14" lengthAdjust="spacing" textLength="66" x="12" y="66.606">Markdown</text><rect fill="#FEFECE" filter="url(#f6sauhxnll20b)" height="40" rx="12.5" ry="12.5" style="stroke:#A80036;stroke-width:1.5;" width="76" x="154" y="42"/><text fill="#000000" font-family="sans-serif" font-size="14" lengthAdjust="spacing" textLength="66" x="159" y="66.606">Markdown</text><rect fill="#FEFECE" filter="url(#f6sauhxnll20b)" height="40" rx="12.5" ry="12.5" style="stroke:#A80036;stroke-width:1.5;" width="73" x="469.5" y="42"/><text fill="#000000" font-family="sans-serif" font-size="14" lengthAdjust="spacing" textLength="63" x="474.5" y="66.606">Tex/Latex</text><rect fill="#FEFECE" filter="url(#f6sauhxnll20b)" height="40" rx="12.5" ry="12.5" style="stroke:#A80036;stroke-width:1.5;" width="50" x="384" y="145"/><text fill="#000000" font-family="sans-serif" font-size="14" lengthAdjust="spacing" textLength="27" x="395.5" y="169.606">html</text><rect fill="#FEFECE" filter="url(#f6sauhxnll20b)" height="40" rx="12.5" ry="12.5" style="stroke:#A80036;stroke-width:1.5;" width="50" x="625" y="42"/><text fill="#000000" font-family="sans-serif" font-size="14" lengthAdjust="spacing" textLength="28" x="636" y="66.606">PDF</text><!--MD5=[ad7160f1bc88c0a3cdb4ce3e98fa9749]
link md1 to md2--><path d="M83.24,62 C103.32,62 127.99,62 148.76,62 " fill="none" id="md1-to-md2" style="stroke:#A80036;stroke-width:1.0;"/><polygon fill="#A80036" points="153.95,62,144.95,58,148.95,62,144.95,66,153.95,62" style="stroke:#A80036;stroke-width:1.0;"/><text fill="#000000" font-family="sans-serif" font-size="13" lengthAdjust="spacing" textLength="34" x="101.5" y="55.077">Jinja2</text><!--MD5=[274ab1f8e1655c76e9362607c055e3b9]
link js1 to js2--><path d="M315.24,62 C333.77,62 359.04,62 378.68,62 " fill="none" id="js1-to-js2" style="stroke:#A80036;stroke-width:1.0;stroke-dasharray:7.0,7.0;"/><polygon fill="#A80036" points="383.8,62,374.8,58,378.8,62,374.8,66,383.8,62" style="stroke:#A80036;stroke-width:1.0;"/><text fill="#000000" font-family="sans-serif" font-size="13" lengthAdjust="spacing" textLength="32" x="333.5" y="55.077">filters</text><!--MD5=[f2342839d97852b32e6376f5dfa59c7b]
link md2 to js1--><path d="M230.28,62 C240.08,62 249.88,62 259.68,62 " fill="none" id="md2-to-js1" style="stroke:#A80036;stroke-width:1.0;"/><polygon fill="#A80036" points="264.81,62,255.81,58,259.81,62,255.81,66,264.81,62" style="stroke:#A80036;stroke-width:1.0;"/><!--MD5=[744d4b60aafee918fb858394bfd92ff1]
link js2 to tex--><path d="M434.01,62 C444.07,62 454.12,62 464.18,62 " fill="none" id="js2-to-tex" style="stroke:#A80036;stroke-width:1.0;"/><polygon fill="#A80036" points="469.44,62,460.44,58,464.44,62,460.44,66,469.44,62" style="stroke:#A80036;stroke-width:1.0;"/><!--MD5=[64d3949f400b7ccf640402b73f1e8549]
link js2 to html--><path d="M409,82.47 C409,98.79 409,122.15 409,139.69 " fill="none" id="js2-to-html" style="stroke:#A80036;stroke-width:1.0;"/><polygon fill="#A80036" points="409,144.93,413,135.93,409,139.93,405,135.93,409,144.93" style="stroke:#A80036;stroke-width:1.0;"/><!--MD5=[1011089acb8d0ec7b0b94220dacd5d63]
link tex to PDF--><path d="M542.71,62 C566.47,62 597.04,62 619.47,62 " fill="none" id="tex-to-PDF" style="stroke:#A80036;stroke-width:1.0;"/><polygon fill="#A80036" points="624.7,62,615.7,58,619.7,62,615.7,66,624.7,62" style="stroke:#A80036;stroke-width:1.0;"/><text fill="#000000" font-family="sans-serif" font-size="13" lengthAdjust="spacing" textLength="46" x="560.75" y="55.077">pdflatex</text></g></svg>