<?xml version="1.0" encoding="UTF-8" standalone="no"?><svg xmlns="http://www.w3.org/2000/svg" xmlns:xlink="http://www.w3.org/1999/xlink" contentScriptType="application/ecmascript" contentStyleType="text/css" height="199px" preserveAspectRatio="none" style="width:709px;height:199px;background:#00000000;" version="1.1" viewBox="0 0 709 199" width="709px" zoomAndPan="magnify"><defs><filter height="300%" id="f1kbfltnyozl51" width="300%" x="-1" y="-1"><feGaussianBlur result="blurOut" stdDeviation="2.0"/><feColorMatrix in="blurOut" result="blurOut2" type="matrix" values="0 0 0 0 0 0 0 0 0 0 0 0 0 0 0 0 0 0 .4 0"/><feOffset dx="4.0" dy="4.0" in="blurOut2" result="blurOut3"/><feBlend in="SourceGraphic" in2="blurOut3" mode="normal"/></filter></defs><g><!--MD5=[5d72adb4fa7b377dcbf7df092a6b03db]
cluster pandoc--><rect fill="#FEFECE" filter="url(#f1kbfltnyozl51)" height="91" rx="12.5" ry="12.5" style="stroke:#A80036;stroke-width:1.5;" width="204" x="258.5" y="7"/><rect height="58.7031" rx="12.5" ry="12.5" style="stroke:#00000000;stroke-width:1.0;fill:none;" width="198" x="261.5" y="36.2969"/><line style="stroke:#A80036;stroke-width:1.5;fill:none;" x1="258.5" x2="462.5" y1="33.2969" y2="33.2969"/><text fill="#000000" font-family="sans-serif" font-size="14" lengthAdjust="spacing" textLength="52" x="334.5" y="23.9951">Pandoc</text><rect fill="#FEFECE" filter="url(#f1kbfltnyozl51)" height="40" rx="12.5" ry="12.5" style="stroke:#A80036;stroke-width:1.5;" width="50" x="274.5" y="42"/><text fill="#000000" font-family="sans-serif" font-size="14" lengthAdjust="spacing" textLength="29" x="285" y="66.8467">Json</text><rect fill="#FEFECE" filter="url(#f1kbfltnyozl51)" height="40" rx="12.5" ry="12.5" style="stroke:#A80036;stroke-width:1.5;" width="50" x="396.5" y="42"/><text fill="#000000" font-family="sans-serif" font-size="14" lengthAdjust="spacing" textLength="29" x="407" y="66.8467">Json</text><rect fill="#FEFECE" filter="url(#f1kbfltnyozl51)" height="40" rx="12.5" ry="12.5" style="stroke:#A80036;stroke-width:1.5;" width="81" x="7" y="42"/><text fill="#000000" font-family="sans-serif" font-size="14" lengthAdjust="spacing" textLength="71" x="12" y="66.8467">Markdown</text><rect fill="#FEFECE" filter="url(#f1kbfltnyozl51)" height="40" rx="12.5" ry="12.5" style="stroke:#A80036;stroke-width:1.5;" width="81" x="158" y="42"/><text fill="#000000" font-family="sans-serif" font-size="14" lengthAdjust="spacing" textLength="71" x="163" y="66.8467">Markdown</text><rect fill="#FEFECE" filter="url(#f1kbfltnyozl51)" height="40" rx="12.5" ry="12.5" style="stroke:#A80036;stroke-width:1.5;" width="76" x="481.5" y="42"/><text fill="#000000" font-family="sans-serif" font-size="14" lengthAdjust="spacing" textLength="66" x="486.5" y="66.8467">Tex/Latex</text><rect fill="#FEFECE" filter="url(#f1kbfltnyozl51)" height="40" rx="12.5" ry="12.5" style="stroke:#A80036;stroke-width:1.5;" width="50" x="396.5" y="145"/><text fill="#000000" font-family="sans-serif" font-size="14" lengthAdjust="spacing" textLength="30" x="406.5" y="169.8467">html</text><rect fill="#FEFECE" filter="url(#f1kbfltnyozl51)" height="40" rx="12.5" ry="12.5" style="stroke:#A80036;stroke-width:1.5;" width="50" x="645.5" y="42"/><text fill="#000000" font-family="sans-serif" font-size="14" lengthAdjust="spacing" textLength="28" x="656.5" y="66.8467">PDF</text><!--MD5=[ad7160f1bc88c0a3cdb4ce3e98fa9749]
link md1 to md2--><path d="M88.36,62 C108.25,62 132.23,62 152.73,62 " fill="none" id="md1-to-md2" style="stroke:#A80036;stroke-width:1.0;"/><polygon fill="#A80036" points="157.87,62,148.87,58,152.87,62,148.87,66,157.87,62" style="stroke:#A80036;stroke-width:1.0;"/><text fill="#000000" font-family="sans-serif" font-size="13" lengthAdjust="spacing" textLength="33" x="106.5" y="55.0669">Jinja2</text><!--MD5=[274ab1f8e1655c76e9362607c055e3b9]
link js1 to js2--><path d="M324.78,62 C344.08,62 370.75,62 391.2,62 " fill="none" id="js1-to-js2" style="stroke:#A80036;stroke-width:1.0;stroke-dasharray:7.0,7.0;"/><polygon fill="#A80036" points="396.25,62,387.25,58,391.25,62,387.25,66,396.25,62" style="stroke:#A80036;stroke-width:1.0;"/><text fill="#000000" font-family="sans-serif" font-size="13" lengthAdjust="spacing" textLength="35" x="343" y="55.0669">filters</text><!--MD5=[f2342839d97852b32e6376f5dfa59c7b]
link md2 to js1--><path d="M239.14,62 C249.04,62 258.95,62 268.85,62 " fill="none" id="md2-to-js1" style="stroke:#A80036;stroke-width:1.0;"/><polygon fill="#A80036" points="274.03,62,265.03,58,269.03,62,265.03,66,274.03,62" style="stroke:#A80036;stroke-width:1.0;"/><!--MD5=[744d4b60aafee918fb858394bfd92ff1]
link js2 to tex--><path d="M446.77,62 C456.6,62 466.44,62 476.28,62 " fill="none" id="js2-to-tex" style="stroke:#A80036;stroke-width:1.0;"/><polygon fill="#A80036" points="481.43,62,472.43,58,476.43,62,472.43,66,481.43,62" style="stroke:#A80036;stroke-width:1.0;"/><!--MD5=[64d3949f400b7ccf640402b73f1e8549]
link js2 to html--><path d="M421.5,82.47 C421.5,98.79 421.5,122.15 421.5,139.69 " fill="none" id="js2-to-html" style="stroke:#A80036;stroke-width:1.0;"/><polygon fill="#A80036" points="421.5,144.93,425.5,135.93,421.5,139.93,417.5,135.93,421.5,144.93" style="stroke:#A80036;stroke-width:1.0;"/><!--MD5=[1011089acb8d0ec7b0b94220dacd5d63]
link tex to PDF--><path d="M557.6,62 C583.11,62 616.23,62 639.99,62 " fill="none" id="tex-to-PDF" style="stroke:#A80036;stroke-width:1.0;"/><polygon fill="#A80036" points="645.22,62,636.22,58,640.22,62,636.22,66,645.22,62" style="stroke:#A80036;stroke-width:1.0;"/><text fill="#000000" font-family="sans-serif" font-size="13" lengthAdjust="spacing" textLength="51" x="576" y="55.0669">pdflatex</text></g></svg>