<?xml version="1.0" encoding="UTF-8" standalone="no"?><svg xmlns="http://www.w3.org/2000/svg" xmlns:xlink="http://www.w3.org/1999/xlink" contentScriptType="application/ecmascript" contentStyleType="text/css" height="432px" preserveAspectRatio="none" style="width:300px;height:432px;background:#00000000;" version="1.1" viewBox="0 0 300 432" width="300px" zoomAndPan="magnify"><defs><filter height="300%" id="f1a3bnkwaheg24" width="300%" x="-1" y="-1"><feGaussianBlur result="blurOut" stdDeviation="2.0"/><feColorMatrix in="blurOut" result="blurOut2" type="matrix" values="0 0 0 0 0 0 0 0 0 0 0 0 0 0 0 0 0 0 .4 0"/><feOffset dx="4.0" dy="4.0" in="blurOut2" result="blurOut3"/><feBlend in="SourceGraphic" in2="blurOut3" mode="normal"/></filter></defs><g><!--MD5=[322322ff1f1b812a623fdee1a571c9e1]
cluster app1--><rect fill="#FEFECE" filter="url(#f1a3bnkwaheg24)" height="172" rx="12.5" ry="12.5" style="stroke:#A80036;stroke-width:1.5;" width="82" x="108" y="7"/><rect height="139.7031" rx="12.5" ry="12.5" style="stroke:#00000000;stroke-width:1.0;fill:none;" width="76" x="111" y="36.2969"/><line style="stroke:#A80036;stroke-width:1.5;fill:none;" x1="108" x2="190" y1="33.2969" y2="33.2969"/><text fill="#000000" font-family="sans-serif" font-size="14" lengthAdjust="spacing" textLength="48" x="125" y="23.9951">AppVM</text><!--MD5=[dbca0685c89fa085bd9c3bb1e86763ff]
cluster proxy1--><rect fill="#FEFECE" filter="url(#f1a3bnkwaheg24)" height="192" rx="12.5" ry="12.5" style="stroke:#A80036;stroke-width:1.5;" width="207" x="7" y="228"/><rect height="159.7031" rx="12.5" ry="12.5" style="stroke:#00000000;stroke-width:1.0;fill:none;" width="201" x="10" y="257.2969"/><line style="stroke:#A80036;stroke-width:1.5;fill:none;" x1="7" x2="214" y1="254.2969" y2="254.2969"/><text fill="#000000" font-family="sans-serif" font-size="14" lengthAdjust="spacing" textLength="58" x="81.5" y="244.9951">ProxyVM</text><rect fill="#FEFECE" filter="url(#f1a3bnkwaheg24)" height="40" rx="12.5" ry="12.5" style="stroke:#A80036;stroke-width:1.5;" width="50" x="124" y="123"/><text fill="#000000" font-family="sans-serif" font-size="14" lengthAdjust="spacing" textLength="37" x="130.5" y="147.8467">route</text><ellipse cx="149" cy="52" fill="#000000" filter="url(#f1a3bnkwaheg24)" rx="10" ry="10" style="stroke:none;stroke-width:1.0;"/><rect fill="#FEFECE" filter="url(#f1a3bnkwaheg24)" height="40" rx="12.5" ry="12.5" style="stroke:#A80036;stroke-width:1.5;" width="50" x="23" y="364"/><text fill="#000000" font-family="sans-serif" font-size="14" lengthAdjust="spacing" textLength="37" x="29.5" y="388.8467">route</text><rect fill="#FEFECE" filter="url(#f1a3bnkwaheg24)" height="40" rx="12.5" ry="12.5" style="stroke:#A80036;stroke-width:1.5;" width="82" x="108" y="263"/><text fill="#000000" font-family="sans-serif" font-size="14" lengthAdjust="spacing" textLength="72" x="113" y="287.8467">prerouting</text><rect fill="#FEFECE" filter="url(#f1a3bnkwaheg24)" height="40" rx="12.5" ry="12.5" style="stroke:#A80036;stroke-width:1.5;" width="50" x="23" y="263"/><text fill="#000000" font-family="sans-serif" font-size="14" lengthAdjust="spacing" textLength="29" x="33.5" y="287.8467">filter</text><rect fill="#FEFECE" filter="url(#f1a3bnkwaheg24)" height="40" rx="12.5" ry="12.5" style="stroke:#A80036;stroke-width:1.5;" width="90" x="108" y="364"/><text fill="#000000" font-family="sans-serif" font-size="14" lengthAdjust="spacing" textLength="80" x="113" y="388.8467">postrouting</text><!--MD5=[0ea70c31daed3128f17267aa6faf77b8]
link *start*app1 to route--><path d="M149,62.19 C149,75.18 149,99.38 149,117.73 " fill="none" id="*start*app1-to-route" style="stroke:#A80036;stroke-width:1.0;"/><polygon fill="#A80036" points="149,122.74,153,113.74,149,117.74,145,113.74,149,122.74" style="stroke:#A80036;stroke-width:1.0;"/><!--MD5=[286459fe5198f66889982794a2e4379a]
link route to prerouting--><path d="M149,163.19 C149,187.91 149,230.88 149,257.81 " fill="none" id="route-to-prerouting" style="stroke:#A80036;stroke-width:1.0;stroke-dasharray:7.0,7.0;"/><polygon fill="#A80036" points="149,262.97,153,253.97,149,257.97,145,253.97,149,262.97" style="stroke:#A80036;stroke-width:1.0;"/><text fill="#000000" font-family="sans-serif" font-size="13" lengthAdjust="spacing" textLength="142" x="150" y="208.0669">ping from .7.27 to .8.8</text><!--MD5=[47f8f23170c63a171f20d462cdc7b1f1]
reverse link filter to prerouting--><path d="M78.39,283 C88.22,283 98.04,283 107.87,283 " fill="none" id="filter-backto-prerouting" style="stroke:#A80036;stroke-width:1.0;"/><polygon fill="#A80036" points="73.25,283,82.25,287,78.25,283,82.25,279,73.25,283" style="stroke:#A80036;stroke-width:1.0;"/><!--MD5=[b88b2d1c89dfc52d32c11d1fbc055972]
link filter to route2--><path d="M48,303.09 C48,318.98 48,341.69 48,358.84 " fill="none" id="filter-to-route2" style="stroke:#A80036;stroke-width:1.0;"/><polygon fill="#A80036" points="48,363.97,52,354.97,48,358.97,44,354.97,48,363.97" style="stroke:#A80036;stroke-width:1.0;"/><!--MD5=[b56da5d9c8c24b2481eeca7f8c81ac60]
link route2 to postrouting--><path d="M73.02,384 C82.86,384 92.71,384 102.55,384 " fill="none" id="route2-to-postrouting" style="stroke:#A80036;stroke-width:1.0;"/><polygon fill="#A80036" points="107.7,384,98.7,380,102.7,384,98.7,388,107.7,384" style="stroke:#A80036;stroke-width:1.0;"/></g></svg>