<?xml version="1.0" encoding="UTF-8" standalone="no"?><svg xmlns="http://www.w3.org/2000/svg" xmlns:xlink="http://www.w3.org/1999/xlink" contentScriptType="application/ecmascript" contentStyleType="text/css" height="432px" preserveAspectRatio="none" style="width:283px;height:432px;background:#00000000;" version="1.1" viewBox="0 0 283 432" width="283px" zoomAndPan="magnify"><defs><filter height="300%" id="f1a3bnkwaheg24" width="300%" x="-1" y="-1"><feGaussianBlur result="blurOut" stdDeviation="2.0"/><feColorMatrix in="blurOut" result="blurOut2" type="matrix" values="0 0 0 0 0 0 0 0 0 0 0 0 0 0 0 0 0 0 .4 0"/><feOffset dx="4.0" dy="4.0" in="blurOut2" result="blurOut3"/><feBlend in="SourceGraphic" in2="blurOut3" mode="normal"/></filter></defs><g><!--MD5=[322322ff1f1b812a623fdee1a571c9e1]
cluster app1--><rect fill="#FEFECE" filter="url(#f1a3bnkwaheg24)" height="172" rx="12.5" ry="12.5" style="stroke:#A80036;stroke-width:1.5;" width="82" x="105" y="7"/><rect height="139.2001" rx="12.5" ry="12.5" style="stroke:#00000000;stroke-width:1.0;fill:none;" width="76" x="108" y="36.7999"/><line style="stroke:#A80036;stroke-width:1.5;fill:none;" x1="105" x2="187" y1="33.7999" y2="33.7999"/><text fill="#000000" font-family="sans-serif" font-size="14" lengthAdjust="spacing" textLength="46" x="123" y="24.0059">AppVM</text><!--MD5=[dbca0685c89fa085bd9c3bb1e86763ff]
cluster proxy1--><rect fill="#FEFECE" filter="url(#f1a3bnkwaheg24)" height="192" rx="12.5" ry="12.5" style="stroke:#A80036;stroke-width:1.5;" width="199" x="7" y="228"/><rect height="159.2001" rx="12.5" ry="12.5" style="stroke:#00000000;stroke-width:1.0;fill:none;" width="193" x="10" y="257.7999"/><line style="stroke:#A80036;stroke-width:1.5;fill:none;" x1="7" x2="206" y1="254.7999" y2="254.7999"/><text fill="#000000" font-family="sans-serif" font-size="14" lengthAdjust="spacing" textLength="57" x="78" y="245.0059">ProxyVM</text><rect fill="#FEFECE" filter="url(#f1a3bnkwaheg24)" height="40" rx="12.5" ry="12.5" style="stroke:#A80036;stroke-width:1.5;" width="50" x="121" y="123"/><text fill="#000000" font-family="sans-serif" font-size="14" lengthAdjust="spacing" textLength="33" x="129.5" y="147.606">route</text><ellipse cx="146" cy="52" fill="#000000" filter="url(#f1a3bnkwaheg24)" rx="10" ry="10" style="stroke:none;stroke-width:1.0;"/><rect fill="#FEFECE" filter="url(#f1a3bnkwaheg24)" height="40" rx="12.5" ry="12.5" style="stroke:#A80036;stroke-width:1.5;" width="50" x="23" y="364"/><text fill="#000000" font-family="sans-serif" font-size="14" lengthAdjust="spacing" textLength="33" x="31.5" y="388.606">route</text><rect fill="#FEFECE" filter="url(#f1a3bnkwaheg24)" height="40" rx="12.5" ry="12.5" style="stroke:#A80036;stroke-width:1.5;" width="75" x="108.5" y="263"/><text fill="#000000" font-family="sans-serif" font-size="14" lengthAdjust="spacing" textLength="65" x="113.5" y="287.606">prerouting</text><rect fill="#FEFECE" filter="url(#f1a3bnkwaheg24)" height="40" rx="12.5" ry="12.5" style="stroke:#A80036;stroke-width:1.5;" width="50" x="23" y="263"/><text fill="#000000" font-family="sans-serif" font-size="14" lengthAdjust="spacing" textLength="27" x="34.5" y="287.606">filter</text><rect fill="#FEFECE" filter="url(#f1a3bnkwaheg24)" height="40" rx="12.5" ry="12.5" style="stroke:#A80036;stroke-width:1.5;" width="81" x="108.5" y="364"/><text fill="#000000" font-family="sans-serif" font-size="14" lengthAdjust="spacing" textLength="71" x="113.5" y="388.606">postrouting</text><!--MD5=[0ea70c31daed3128f17267aa6faf77b8]
link *start*app1 to route--><path d="M146,62.19 C146,75.18 146,99.38 146,117.73 " fill="none" id="*start*app1-to-route" style="stroke:#A80036;stroke-width:1.0;"/><polygon fill="#A80036" points="146,122.74,150,113.74,146,117.74,142,113.74,146,122.74" style="stroke:#A80036;stroke-width:1.0;"/><!--MD5=[286459fe5198f66889982794a2e4379a]
link route to prerouting--><path d="M146,163.19 C146,187.91 146,230.88 146,257.81 " fill="none" id="route-to-prerouting" style="stroke:#A80036;stroke-width:1.0;stroke-dasharray:7.0,7.0;"/><polygon fill="#A80036" points="146,262.97,150,253.97,146,257.97,142,253.97,146,262.97" style="stroke:#A80036;stroke-width:1.0;"/><text fill="#000000" font-family="sans-serif" font-size="13" lengthAdjust="spacing" textLength="128" x="147" y="208.077">ping from .7.27 to .8.8</text><!--MD5=[47f8f23170c63a171f20d462cdc7b1f1]
reverse link filter to prerouting--><path d="M78.5,283 C88.5,283 98.5,283 108.5,283 " fill="none" id="filter-backto-prerouting" style="stroke:#A80036;stroke-width:1.0;"/><polygon fill="#A80036" points="73.27,283,82.27,287,78.27,283,82.27,279,73.27,283" style="stroke:#A80036;stroke-width:1.0;"/><!--MD5=[b88b2d1c89dfc52d32c11d1fbc055972]
link filter to route2--><path d="M48,303.09 C48,318.98 48,341.69 48,358.84 " fill="none" id="filter-to-route2" style="stroke:#A80036;stroke-width:1.0;"/><polygon fill="#A80036" points="48,363.97,52,354.97,48,358.97,44,354.97,48,363.97" style="stroke:#A80036;stroke-width:1.0;"/><!--MD5=[b56da5d9c8c24b2481eeca7f8c81ac60]
link route2 to postrouting--><path d="M73.25,384 C83.25,384 93.24,384 103.24,384 " fill="none" id="route2-to-postrouting" style="stroke:#A80036;stroke-width:1.0;"/><polygon fill="#A80036" points="108.46,384,99.46,380,103.46,384,99.46,388,108.46,384" style="stroke:#A80036;stroke-width:1.0;"/></g></svg>