<svg xmlns="http://www.w3.org/2000/svg" xmlns:xlink="http://www.w3.org/1999/xlink" contentScriptType="application/ecmascript" contentStyleType="text/css" height="82px" preserveAspectRatio="none" style="width:236px;height:82px;background:#00000000;" version="1.1" viewBox="0 0 236 82" width="236px" zoomAndPan="magnify"><defs><filter height="300%" id="fsl8qk0bq0toy" width="300%" x="-1" y="-1"><feGaussianBlur result="blurOut" stdDeviation="2.0"/><feColorMatrix in="blurOut" result="blurOut2" type="matrix" values="0 0 0 0 0 0 0 0 0 0 0 0 0 0 0 0 0 0 .4 0"/><feOffset dx="4.0" dy="4.0" in="blurOut2" result="blurOut3"/><feBlend in="SourceGraphic" in2="blurOut3" mode="normal"/></filter></defs><g><rect fill="#FEFECE" filter="url(#fsl8qk0bq0toy)" height="40" rx="12.5" ry="12.5" style="stroke:#A80036;stroke-width:1.5;" width="52" x="80" y="28.75"/><svg x="85" y="38.75"><!--Generated by the Batik Graphics2D SVG Generator--><defs id="genericDefs"
  /><g
  ><g transform="scale(20,20) translate(0.2,0.6306)" style="font-size:1; text-rendering:geometricPrecision; color-rendering:optimizeQuality; image-rendering:optimizeQuality; font-family:&apos;jlm_cmmi10&apos;; color-interpolation:linearRGB;"
    ><path style="stroke:none;" d="M0.3906 -0.375 L0.3906 -0.375 Q0.375 -0.4219 0.2969 -0.4219 Q0.2188 -0.4219 0.1875 -0.3594 Q0.1875 -0.3438 0.1875 -0.3281 Q0.1875 -0.2969 0.2344 -0.2812 L0.2344 -0.2812 L0.2344 -0.2812 Q0.25 -0.2812 0.2656 -0.2656 Q0.3281 -0.25 0.3438 -0.2344 Q0.3594 -0.2344 0.3594 -0.2344 Q0.3906 -0.2031 0.3906 -0.1562 Q0.3906 -0.1094 0.3594 -0.0625 Q0.2969 0.0156 0.1875 0.0156 Q0.1094 0.0156 0.0625 -0.0469 Q0.0469 -0.0625 0.0469 -0.0938 Q0.0469 -0.1406 0.0938 -0.1562 Q0.0938 -0.1562 0.1094 -0.1562 Q0.1406 -0.1406 0.1406 -0.1094 Q0.1406 -0.0938 0.125 -0.0781 Q0.1094 -0.0625 0.0781 -0.0625 Q0.1094 -0.0156 0.2031 -0.0156 Q0.2969 -0.0156 0.3281 -0.0938 Q0.3438 -0.1094 0.3438 -0.125 Q0.3438 -0.1719 0.2812 -0.1875 L0.2812 -0.1875 L0.2812 -0.1875 Q0.2656 -0.1875 0.2344 -0.2031 Q0.1406 -0.2188 0.1406 -0.2812 Q0.125 -0.2812 0.125 -0.2969 Q0.125 -0.3438 0.1719 -0.3906 Q0.2188 -0.4375 0.2969 -0.4375 Q0.375 -0.4375 0.4062 -0.3906 Q0.4219 -0.375 0.4219 -0.3594 Q0.4219 -0.3125 0.3906 -0.2969 Q0.375 -0.2969 0.375 -0.2969 Q0.3438 -0.2969 0.3438 -0.3281 Q0.3438 -0.3594 0.375 -0.375 Q0.375 -0.375 0.3906 -0.375 Z"
    /></g
    ><g transform="matrix(20,0,0,20,0,0) translate(0.6687,0.6306)" style="font-size:1; text-rendering:geometricPrecision; color-rendering:optimizeQuality; image-rendering:optimizeQuality; font-family:&apos;jlm_cmmi10&apos;; color-interpolation:linearRGB;"
    ><path style="stroke:none;" d="M0.0938 -0.0625 L0.0938 -0.0625 L0.1406 -0.2969 Q0.1562 -0.3594 0.1562 -0.375 Q0.1562 -0.4219 0.125 -0.4219 Q0.0938 -0.4219 0.0625 -0.3281 Q0.0625 -0.3125 0.0625 -0.2969 Q0.0469 -0.2812 0.0469 -0.2812 Q0.0312 -0.2812 0.0312 -0.2812 Q0.0312 -0.2969 0.0469 -0.3594 Q0.0469 -0.375 0.0625 -0.3906 Q0.0781 -0.4375 0.125 -0.4375 Q0.125 -0.4375 0.1406 -0.4375 Q0.1875 -0.4375 0.2188 -0.3906 Q0.2188 -0.375 0.2188 -0.3594 Q0.2969 -0.4375 0.375 -0.4375 Q0.4375 -0.4375 0.4688 -0.4219 Q0.4844 -0.3906 0.5 -0.3438 Q0.5625 -0.4375 0.6562 -0.4375 Q0.75 -0.4375 0.7656 -0.375 L0.7656 -0.375 Q0.7812 -0.3594 0.7812 -0.3281 Q0.7812 -0.2812 0.7188 -0.1094 Q0.6875 -0.0781 0.6875 -0.0469 Q0.6875 -0.0156 0.7188 -0.0156 Q0.7812 -0.0156 0.8125 -0.125 L0.8281 -0.1406 Q0.8281 -0.1562 0.8281 -0.1562 L0.8281 -0.1562 L0.8438 -0.1562 Q0.8438 -0.1562 0.8438 -0.1406 Q0.8438 -0.125 0.8281 -0.0781 Q0.7812 0.0156 0.7188 0.0156 Q0.6719 0.0156 0.6406 -0.0312 Q0.6406 -0.0469 0.6406 -0.0781 Q0.6406 -0.0938 0.6406 -0.125 Q0.7031 -0.2969 0.7031 -0.3438 Q0.7031 -0.4219 0.6562 -0.4219 Q0.5625 -0.4219 0.5156 -0.3281 Q0.5 -0.2969 0.4844 -0.2812 Q0.4844 -0.2812 0.4375 -0.0469 Q0.4219 0 0.4062 0 L0.4062 0 L0.4062 0 Q0.3906 0.0156 0.3906 0.0156 Q0.3594 0 0.3594 -0.0156 L0.375 -0.0781 L0.3906 -0.1562 L0.4219 -0.2656 Q0.4375 -0.3281 0.4375 -0.3438 Q0.4375 -0.4219 0.375 -0.4219 Q0.2812 -0.4219 0.2344 -0.3125 Q0.2188 -0.3125 0.2188 -0.2969 L0.2031 -0.25 Q0.2031 -0.2188 0.1875 -0.1875 L0.1562 -0.0938 Q0.1406 -0.0156 0.1406 -0.0156 Q0.1406 0.0156 0.1094 0.0156 Q0.0781 0 0.0781 -0.0156 Q0.0781 -0.0156 0.0938 -0.0625 Z"
    /></g
    ><g transform="matrix(20,0,0,20,0,0) translate(1.5468,0.7806) scale(0.7,0.7)" style="font-size:1; text-rendering:geometricPrecision; color-rendering:optimizeQuality; image-rendering:optimizeQuality; font-family:&apos;jlm_cmr10&apos;; color-interpolation:linearRGB;"
    ><path style="stroke:none;" d="M0.2969 -0.6406 L0.2969 -0.0781 Q0.2969 -0.0469 0.3125 -0.0469 Q0.3281 -0.0312 0.3906 -0.0312 L0.4219 -0.0312 L0.4219 0 Q0.3906 0 0.25 0 Q0.125 0 0.0938 0 L0.0938 -0.0312 L0.125 -0.0312 Q0.2031 -0.0312 0.2188 -0.0469 L0.2188 -0.0469 Q0.2188 -0.0625 0.2188 -0.0781 L0.2188 -0.5938 Q0.1719 -0.5781 0.0938 -0.5781 L0.0938 -0.6094 Q0.2031 -0.6094 0.2656 -0.6719 Q0.2969 -0.6719 0.2969 -0.6562 L0.2969 -0.6562 L0.2969 -0.6562 Q0.2969 -0.6562 0.2969 -0.6406 Z"
    /></g
  ></g
></svg
>
<ellipse cx="16" cy="48.75" fill="#000000" filter="url(#fsl8qk0bq0toy)" rx="10" ry="10" style="stroke:none;stroke-width:1.0;"/><ellipse cx="214" cy="48.75" filter="url(#fsl8qk0bq0toy)" rx="10" ry="10" style="stroke:#000000;stroke-width:1.0;fill:none;"/><ellipse cx="214.5" cy="49.25" fill="#000000" rx="6" ry="6" style="stroke:none;stroke-width:1.0;"/><!--MD5=[3d2416266f95920db2c6e65a49de3d74]
link *start to *end--><path d="M24.19,42.54 C35.92,34.07 58.52,19.33 80.5,13.75 C110.65,6.1 120.37,6 150.5,13.75 C169.83,18.72 189.57,30.96 201.8,39.56 " fill="none" id="*start-to-*end" style="stroke:#A80036;stroke-width:1.0;"/><polygon fill="#A80036" points="205.95,42.54,200.9739,34.0407,201.8891,39.623,196.3067,40.5381,205.95,42.54" style="stroke:#A80036;stroke-width:1.0;"/><!--MD5=[d4b90d967af432f842dacf9527bf7a4d]
link *start to sm1--><path d="M26.32,48.75 C38.04,48.75 57.71,48.75 74.58,48.75 " fill="none" id="*start-to-sm1" style="stroke:#A80036;stroke-width:1.0;"/><polygon fill="#A80036" points="79.71,48.75,70.71,44.75,74.71,48.75,70.71,52.75,79.71,48.75" style="stroke:#A80036;stroke-width:1.0;"/><svg x="44.5" y="27.75"><!--Generated by the Batik Graphics2D SVG Generator--><defs id="genericDefs"
  /><g
  ><g transform="scale(20,20) translate(0.2,0.6306)" style="font-size:1; text-rendering:geometricPrecision; color-rendering:optimizeQuality; image-rendering:optimizeQuality; font-family:&apos;jlm_cmmi10&apos;; color-interpolation:linearRGB;"
    ><path style="stroke:none;" d="M0.2969 -0.2188 L0.2969 -0.2188 L0.1406 -0.2188 Q0.125 -0.1875 0.125 -0.1406 Q0.125 -0.0469 0.1875 -0.0156 Q0.2031 -0.0156 0.2344 -0.0156 Q0.2812 -0.0156 0.3281 -0.0469 Q0.3438 -0.0469 0.3438 -0.0469 Q0.3594 -0.0469 0.3594 -0.0469 Q0.3594 -0.0312 0.3125 -0.0156 Q0.2656 0.0156 0.2344 0.0156 Q0.125 0.0156 0.0781 -0.0625 Q0.0469 -0.1094 0.0469 -0.1719 Q0.0469 -0.2969 0.1406 -0.375 Q0.2188 -0.4375 0.3125 -0.4375 L0.3438 -0.4375 Q0.375 -0.4375 0.375 -0.4219 Q0.375 -0.4062 0.3438 -0.4062 L0.3125 -0.4062 Q0.2031 -0.4062 0.1562 -0.2812 Q0.1406 -0.2656 0.1406 -0.25 L0.2969 -0.25 Q0.3281 -0.25 0.3281 -0.25 Q0.3281 -0.2188 0.2969 -0.2188 Z"
    /></g
  ></g
></svg
>
<!--MD5=[2765a7ab0c0c4eabea3278de17792aec]
link sm1 to *end--><path d="M132.14,48.75 C152.9,48.75 181.21,48.75 198.51,48.75 " fill="none" id="sm1-to-*end" style="stroke:#A80036;stroke-width:1.0;"/><polygon fill="#A80036" points="203.93,48.75,194.93,44.75,198.93,48.75,194.93,52.75,203.93,48.75" style="stroke:#A80036;stroke-width:1.0;"/><svg x="159.5" y="27.75"><!--Generated by the Batik Graphics2D SVG Generator--><defs id="genericDefs"
  /><g
  ><g transform="scale(20,20) translate(0.2,0.6306)" style="font-size:1; text-rendering:geometricPrecision; color-rendering:optimizeQuality; image-rendering:optimizeQuality; font-family:&apos;jlm_cmmi10&apos;; color-interpolation:linearRGB;"
    ><path style="stroke:none;" d="M0.2969 -0.2188 L0.2969 -0.2188 L0.1406 -0.2188 Q0.125 -0.1875 0.125 -0.1406 Q0.125 -0.0469 0.1875 -0.0156 Q0.2031 -0.0156 0.2344 -0.0156 Q0.2812 -0.0156 0.3281 -0.0469 Q0.3438 -0.0469 0.3438 -0.0469 Q0.3594 -0.0469 0.3594 -0.0469 Q0.3594 -0.0312 0.3125 -0.0156 Q0.2656 0.0156 0.2344 0.0156 Q0.125 0.0156 0.0781 -0.0625 Q0.0469 -0.1094 0.0469 -0.1719 Q0.0469 -0.2969 0.1406 -0.375 Q0.2188 -0.4375 0.3125 -0.4375 L0.3438 -0.4375 Q0.375 -0.4375 0.375 -0.4219 Q0.375 -0.4062 0.3438 -0.4062 L0.3125 -0.4062 Q0.2031 -0.4062 0.1562 -0.2812 Q0.1406 -0.2656 0.1406 -0.25 L0.2969 -0.25 Q0.3281 -0.25 0.3281 -0.25 Q0.3281 -0.2188 0.2969 -0.2188 Z"
    /></g
  ></g
></svg
>
<!--MD5=[411047987966c3ac67397244b2c0217e]
reverse link sm1 to sm1--><path d="M137.37,41.47 C153.03,40.46 167,42.89 167,48.75 C167,55.27 149.69,57.54 132.02,55.55 " fill="none" id="sm1-backto-sm1" style="stroke:#A80036;stroke-width:1.0;"/><polygon fill="#A80036" points="132.02,41.95,141.3386,45.138,137.0004,41.5076,140.6308,37.1694,132.02,41.95" style="stroke:#A80036;stroke-width:1.0;"/></g></svg>