<?xml version="1.0" encoding="UTF-8" standalone="no"?><svg xmlns="http://www.w3.org/2000/svg" xmlns:xlink="http://www.w3.org/1999/xlink" contentScriptType="application/ecmascript" contentStyleType="text/css" height="297px" preserveAspectRatio="none" style="width:889px;height:297px;background:#00000000;" version="1.1" viewBox="0 0 889 297" width="889px" zoomAndPan="magnify"><defs><filter height="300%" id="fqg5u6kxw9j16" width="300%" x="-1" y="-1"><feGaussianBlur result="blurOut" stdDeviation="2.0"/><feColorMatrix in="blurOut" result="blurOut2" type="matrix" values="0 0 0 0 0 0 0 0 0 0 0 0 0 0 0 0 0 0 .4 0"/><feOffset dx="4.0" dy="4.0" in="blurOut2" result="blurOut3"/><feBlend in="SourceGraphic" in2="blurOut3" mode="normal"/></filter></defs><g><rect fill="#FEFECE" filter="url(#fqg5u6kxw9j16)" height="110.7996" rx="12.5" ry="12.5" style="stroke:#A80036;stroke-width:1.5;" width="156" x="217" y="55.87"/><text fill="#000000" font-family="sans-serif" font-size="14" lengthAdjust="spacing" textLength="103" x="243.5" y="73.8759">0) Create player</text><text fill="#000000" font-family="sans-serif" font-size="14" lengthAdjust="spacing" textLength="146" x="222" y="90.6759">1) Update player name</text><text fill="#000000" font-family="sans-serif" font-size="14" lengthAdjust="spacing" textLength="101" x="244.5" y="107.4758">2) Delete player</text><text fill="#000000" font-family="sans-serif" font-size="14" lengthAdjust="spacing" textLength="99" x="245.5" y="124.2757">3) Player attack</text><text fill="#000000" font-family="sans-serif" font-size="14" lengthAdjust="spacing" textLength="105" x="242.5" y="141.0757">4) Player defend</text><text fill="#000000" font-family="sans-serif" font-size="14" lengthAdjust="spacing" textLength="120" x="235" y="157.8756">5) Get current time</text><rect fill="#FEFECE" filter="url(#fqg5u6kxw9j16)" height="40" rx="12.5" ry="12.5" style="stroke:#A80036;stroke-width:1.5;" width="131" x="744.5" y="91.37"/><text fill="#000000" font-family="sans-serif" font-size="14" lengthAdjust="spacing" textLength="121" x="749.5" y="115.976">Enter player name:</text><rect fill="#FEFECE" filter="url(#fqg5u6kxw9j16)" height="40" rx="12.5" ry="12.5" style="stroke:#A80036;stroke-width:1.5;" width="181" x="528.5" y="91.37"/><text fill="#000000" font-family="sans-serif" font-size="14" lengthAdjust="spacing" textLength="171" x="533.5" y="115.976">User created, first delete it.</text><rect fill="#FEFECE" filter="url(#fqg5u6kxw9j16)" height="40" rx="12.5" ry="12.5" style="stroke:#A80036;stroke-width:1.5;" width="268" x="7" y="243.87"/><text fill="#000000" font-family="sans-serif" font-size="14" lengthAdjust="spacing" textLength="258" x="12" y="268.476">Monster %s defends with %d of defense.</text><rect fill="#FEFECE" filter="url(#fqg5u6kxw9j16)" height="40" rx="12.5" ry="12.5" style="stroke:#A80036;stroke-width:1.5;" width="279" x="310.5" y="243.87"/><text fill="#000000" font-family="sans-serif" font-size="14" lengthAdjust="spacing" textLength="269" x="315.5" y="268.476">Monster %s attack to %s with %d damage.</text><rect fill="#FEFECE" filter="url(#fqg5u6kxw9j16)" height="40" rx="12.5" ry="12.5" style="stroke:#A80036;stroke-width:1.5;" width="76" x="417" y="91.37"/><text fill="#000000" font-family="sans-serif" font-size="14" font-style="italic" lengthAdjust="spacing" textLength="66" x="422" y="117.32">timestamp</text><!--MD5=[a40938bba4da1779e94e1d92a45f4515]
link menu to askname--><path d="M373.2,66.61 C382.07,62.57 391.11,58.88 400,55.87 C495.88,23.42 525.45,8.47 625.5,23.87 C672.25,31.06 684.36,35.41 727,55.87 C745.57,64.78 764.78,77.38 780.04,88.32 " fill="none" id="menu-to-askname" style="stroke:#A80036;stroke-width:1.0;"/><polygon fill="#A80036" points="784.24,91.36,779.2979,82.8409,780.1908,88.4268,774.6048,89.3196,784.24,91.36" style="stroke:#A80036;stroke-width:1.0;"/><text fill="#000000" font-family="sans-serif" font-size="13" lengthAdjust="spacing" textLength="33" x="591.5" y="21.947">0 or 1</text><!--MD5=[e7acd6110aa33e6516d17cd9b7e23359]
link menu to usercreated--><path d="M365.47,55.86 C385.95,42.78 409.14,30.67 432.5,23.87 C493.87,6 560.46,55.73 595.06,87.38 " fill="none" id="menu-to-usercreated" style="stroke:#A80036;stroke-width:1.0;"/><polygon fill="#A80036" points="599.12,91.15,595.2521,82.0924,595.4581,87.7456,589.805,87.9515,599.12,91.15" style="stroke:#A80036;stroke-width:1.0;"/><text fill="#000000" font-family="sans-serif" font-size="13" lengthAdjust="spacing" textLength="33" x="433.5" y="21.947">0 or 1</text><!--MD5=[a41427b032eccb290f5ff01548d990d9]
link menu to monsterattack--><path d="M238.97,167.13 C213.33,192.19 184.33,220.52 164.58,239.83 " fill="none" id="menu-to-monsterattack" style="stroke:#A80036;stroke-width:1.0;"/><polygon fill="#A80036" points="160.76,243.56,169.9876,240.1175,164.3311,240.0604,164.3882,234.4038,160.76,243.56" style="stroke:#A80036;stroke-width:1.0;"/><text fill="#000000" font-family="sans-serif" font-size="13" lengthAdjust="spacing" textLength="33" x="206" y="209.947">3 or 4</text><!--MD5=[2b90273092cef4376a05ebbbda92a1fa]
link menu to monsterdefend--><path d="M351.4,167.13 C377.2,192.19 406.39,220.52 426.27,239.83 " fill="none" id="menu-to-monsterdefend" style="stroke:#A80036;stroke-width:1.0;"/><polygon fill="#A80036" points="430.11,243.56,426.4448,234.4185,426.5248,240.0748,420.8685,240.1548,430.11,243.56" style="stroke:#A80036;stroke-width:1.0;"/><text fill="#000000" font-family="sans-serif" font-size="13" lengthAdjust="spacing" textLength="33" x="396" y="209.947">3 or 4</text><!--MD5=[92ee1c1ff796b5c2f7dfd330988b2363]
link menu to tstmp--><path d="M373.13,111.37 C386.45,111.37 399.85,111.37 411.83,111.37 " fill="none" id="menu-to-tstmp" style="stroke:#A80036;stroke-width:1.0;"/><polygon fill="#A80036" points="416.88,111.37,407.88,107.37,411.88,111.37,407.88,115.37,416.88,111.37" style="stroke:#A80036;stroke-width:1.0;"/><text fill="#000000" font-family="sans-serif" font-size="13" lengthAdjust="spacing" textLength="7" x="391.5" y="104.447">5</text></g></svg>