<?xml version="1.0" encoding="UTF-8" standalone="no"?><svg xmlns="http://www.w3.org/2000/svg" xmlns:xlink="http://www.w3.org/1999/xlink" contentScriptType="application/ecmascript" contentStyleType="text/css" height="294px" preserveAspectRatio="none" style="width:949px;height:294px;background:#00000000;" version="1.1" viewBox="0 0 949 294" width="949px" zoomAndPan="magnify"><defs><filter height="300%" id="fqg5u6kxw9j16" width="300%" x="-1" y="-1"><feGaussianBlur result="blurOut" stdDeviation="2.0"/><feColorMatrix in="blurOut" result="blurOut2" type="matrix" values="0 0 0 0 0 0 0 0 0 0 0 0 0 0 0 0 0 0 .4 0"/><feOffset dx="4.0" dy="4.0" in="blurOut2" result="blurOut3"/><feBlend in="SourceGraphic" in2="blurOut3" mode="normal"/></filter></defs><g><rect fill="#FEFECE" filter="url(#fqg5u6kxw9j16)" height="107.7813" rx="12.5" ry="12.5" style="stroke:#A80036;stroke-width:1.5;" width="166" x="236.5" y="55.83"/><text fill="#000000" font-family="sans-serif" font-size="14" lengthAdjust="spacing" textLength="109" x="265" y="73.8251">0) Create player</text><text fill="#000000" font-family="sans-serif" font-size="14" lengthAdjust="spacing" textLength="156" x="241.5" y="90.122">1) Update player name</text><text fill="#000000" font-family="sans-serif" font-size="14" lengthAdjust="spacing" textLength="109" x="265" y="106.4189">2) Delete player</text><text fill="#000000" font-family="sans-serif" font-size="14" lengthAdjust="spacing" textLength="105" x="267" y="122.7157">3) Player attack</text><text fill="#000000" font-family="sans-serif" font-size="14" lengthAdjust="spacing" textLength="112" x="263.5" y="139.0126">4) Player defend</text><text fill="#000000" font-family="sans-serif" font-size="14" lengthAdjust="spacing" textLength="131" x="254" y="155.3095">5) Get current time</text><rect fill="#FEFECE" filter="url(#fqg5u6kxw9j16)" height="40" rx="12.5" ry="12.5" style="stroke:#A80036;stroke-width:1.5;" width="140" x="795.5" y="89.83"/><text fill="#000000" font-family="sans-serif" font-size="14" lengthAdjust="spacing" textLength="130" x="800.5" y="114.6767">Enter player name:</text><rect fill="#FEFECE" filter="url(#fqg5u6kxw9j16)" height="40" rx="12.5" ry="12.5" style="stroke:#A80036;stroke-width:1.5;" width="196" x="564.5" y="89.83"/><text fill="#000000" font-family="sans-serif" font-size="14" lengthAdjust="spacing" textLength="186" x="569.5" y="114.6767">User created, first delete it.</text><rect fill="#FEFECE" filter="url(#fqg5u6kxw9j16)" height="40" rx="12.5" ry="12.5" style="stroke:#A80036;stroke-width:1.5;" width="293" x="7" y="240.83"/><text fill="#000000" font-family="sans-serif" font-size="14" lengthAdjust="spacing" textLength="283" x="12" y="265.6767">Monster %s defends with %d of defense.</text><rect fill="#FEFECE" filter="url(#fqg5u6kxw9j16)" height="40" rx="12.5" ry="12.5" style="stroke:#A80036;stroke-width:1.5;" width="303" x="335" y="240.83"/><text fill="#000000" font-family="sans-serif" font-size="14" lengthAdjust="spacing" textLength="293" x="340" y="265.6767">Monster %s attack to %s with %d damage.</text><rect fill="#FEFECE" filter="url(#fqg5u6kxw9j16)" height="40" rx="12.5" ry="12.5" style="stroke:#A80036;stroke-width:1.5;" width="82" x="447.5" y="89.83"/><text fill="#000000" font-family="sans-serif" font-size="14" font-style="italic" lengthAdjust="spacing" textLength="72" x="452.5" y="114.6767">timestamp</text><!--MD5=[a40938bba4da1779e94e1d92a45f4515]
link menu to askname--><path d="M402.67,66.15 C411.91,62.27 421.3,58.73 430.5,55.83 C533.35,23.44 564.3,8.29 671,23.83 C720.33,31.02 733.03,35.39 778.5,55.83 C797.47,64.36 817.27,76.37 833.19,86.9 " fill="none" id="menu-to-askname" style="stroke:#A80036;stroke-width:1.0;"/><polygon fill="#A80036" points="837.57,89.83,832.3003,81.5095,833.4097,87.0565,827.8627,88.1659,837.57,89.83" style="stroke:#A80036;stroke-width:1.0;"/><text fill="#000000" font-family="sans-serif" font-size="13" lengthAdjust="spacing" textLength="37" x="633" y="21.8969">0 or 1</text><!--MD5=[e7acd6110aa33e6516d17cd9b7e23359]
link menu to usercreated--><path d="M393.26,55.68 C414.98,42.66 439.51,30.57 464,23.83 C528.81,6 600.02,55.14 637.01,86.32 " fill="none" id="menu-to-usercreated" style="stroke:#A80036;stroke-width:1.0;"/><polygon fill="#A80036" points="640.91,89.65,636.6634,80.7637,637.1077,86.4031,631.4683,86.8474,640.91,89.65" style="stroke:#A80036;stroke-width:1.0;"/><text fill="#000000" font-family="sans-serif" font-size="13" lengthAdjust="spacing" textLength="37" x="465" y="21.8969">0 or 1</text><!--MD5=[a41427b032eccb290f5ff01548d990d9]
link menu to monsterattack--><path d="M260.04,164.2 C232.19,189.2 200.48,217.66 178.95,236.98 " fill="none" id="menu-to-monsterattack" style="stroke:#A80036;stroke-width:1.0;"/><polygon fill="#A80036" points="175.05,240.48,184.4277,237.4703,178.7799,237.1502,179.1001,231.5024,175.05,240.48" style="stroke:#A80036;stroke-width:1.0;"/><text fill="#000000" font-family="sans-serif" font-size="13" lengthAdjust="spacing" textLength="37" x="228.5" y="206.8969">3 or 4</text><!--MD5=[2b90273092cef4376a05ebbbda92a1fa]
link menu to monsterdefend--><path d="M379.32,164.2 C407.34,189.2 439.23,217.66 460.89,236.98 " fill="none" id="menu-to-monsterdefend" style="stroke:#A80036;stroke-width:1.0;"/><polygon fill="#A80036" points="464.82,240.48,460.7699,231.5024,461.0901,237.1502,455.4423,237.4703,464.82,240.48" style="stroke:#A80036;stroke-width:1.0;"/><text fill="#000000" font-family="sans-serif" font-size="13" lengthAdjust="spacing" textLength="37" x="428.5" y="206.8969">3 or 4</text><!--MD5=[92ee1c1ff796b5c2f7dfd330988b2363]
link menu to tstmp--><path d="M402.51,109.83 C416.1,109.83 429.74,109.83 442.02,109.83 " fill="none" id="menu-to-tstmp" style="stroke:#A80036;stroke-width:1.0;"/><polygon fill="#A80036" points="447.2,109.83,438.2,105.83,442.2,109.83,438.2,113.83,447.2,109.83" style="stroke:#A80036;stroke-width:1.0;"/><text fill="#000000" font-family="sans-serif" font-size="13" lengthAdjust="spacing" textLength="8" x="421" y="102.8969">5</text></g></svg>