<?xml version="1.0" encoding="UTF-8" standalone="no"?>
<!DOCTYPE svg PUBLIC "-//W3C//DTD SVG 1.1//EN"
 "http://www.w3.org/Graphics/SVG/1.1/DTD/svg11.dtd">
<!-- Generated by graphviz version 2.43.0 (0)
 -->
<!-- Title: G Pages: 1 -->
<svg width="307pt" height="98pt"
 viewBox="0.00 0.00 307.00 98.00" xmlns="http://www.w3.org/2000/svg" xmlns:xlink="http://www.w3.org/1999/xlink">
<g id="graph0" class="graph" transform="scale(1 1) rotate(0) translate(4 94)">
<title>G</title>
<polygon fill="white" stroke="transparent" points="-4,4 -4,-94 303,-94 303,4 -4,4"/>
<!-- G -->
<g id="node1" class="node">
<title>G</title>
<ellipse fill="none" stroke="black" cx="27" cy="-45" rx="27" ry="18"/>
<text text-anchor="middle" x="27" y="-41.3" font-family="Times,serif" font-size="14.00">G</text>
</g>
<!-- G1 -->
<g id="node2" class="node">
<title>G1</title>
<ellipse fill="none" stroke="black" cx="142" cy="-45" rx="27" ry="18"/>
<text text-anchor="middle" x="142" y="-41.3" font-family="Times,serif" font-size="14.00">G1</text>
</g>
<!-- G&#45;&gt;G1 -->
<g id="edge1" class="edge">
<title>G&#45;&gt;G1</title>
<path fill="none" stroke="black" d="M54.21,-45C69.18,-45 88.19,-45 104.6,-45"/>
<polygon fill="black" stroke="black" points="104.93,-48.5 114.93,-45 104.93,-41.5 104.93,-48.5"/>
<text text-anchor="middle" x="84.5" y="-48.8" font-family="Times,serif" font-size="14.00">elim</text>
</g>
<!-- G2 -->
<g id="node3" class="node">
<title>G2</title>
<ellipse fill="none" stroke="black" cx="272" cy="-72" rx="27" ry="18"/>
<text text-anchor="middle" x="272" y="-68.3" font-family="Times,serif" font-size="14.00">G2</text>
</g>
<!-- G1&#45;&gt;G2 -->
<g id="edge2" class="edge">
<title>G1&#45;&gt;G2</title>
<path fill="none" stroke="black" d="M167.98,-50.27C187.37,-54.36 214.47,-60.08 236.01,-64.62"/>
<polygon fill="black" stroke="black" points="235.57,-68.1 246.08,-66.74 237.02,-61.25 235.57,-68.1"/>
<text text-anchor="middle" x="207" y="-65.8" font-family="Times,serif" font-size="14.00">split&#45;or</text>
</g>
<!-- G3 -->
<g id="node4" class="node">
<title>G3</title>
<ellipse fill="none" stroke="black" cx="272" cy="-18" rx="27" ry="18"/>
<text text-anchor="middle" x="272" y="-14.3" font-family="Times,serif" font-size="14.00">G3</text>
</g>
<!-- G1&#45;&gt;G3 -->
<g id="edge3" class="edge">
<title>G1&#45;&gt;G3</title>
<path fill="none" stroke="black" d="M167.64,-39.29C173.95,-37.86 180.72,-36.35 187,-35 203.07,-31.55 220.92,-27.91 236.02,-24.89"/>
<polygon fill="black" stroke="black" points="236.85,-28.29 245.97,-22.9 235.48,-21.42 236.85,-28.29"/>
<text text-anchor="middle" x="207" y="-38.8" font-family="Times,serif" font-size="14.00">split&#45;or</text>
</g>
</g>
</svg>
