<?xml version="1.0" encoding="UTF-8" standalone="no"?>
<!DOCTYPE svg PUBLIC "-//W3C//DTD SVG 1.1//EN"
 "http://www.w3.org/Graphics/SVG/1.1/DTD/svg11.dtd">
<!-- Generated by graphviz version 2.43.0 (0)
 -->
<!-- Title: G Pages: 1 -->
<svg width="325pt" height="98pt"
 viewBox="0.00 0.00 325.00 98.00" xmlns="http://www.w3.org/2000/svg" xmlns:xlink="http://www.w3.org/1999/xlink">
<g id="graph0" class="graph" transform="scale(1 1) rotate(0) translate(4 94)">
<title>G</title>
<polygon fill="white" stroke="transparent" points="-4,4 -4,-94 321,-94 321,4 -4,4"/>
<!-- G -->
<g id="node1" class="node">
<title>G</title>
<ellipse fill="none" stroke="black" cx="27" cy="-45" rx="27" ry="18"/>
<text text-anchor="middle" x="27" y="-41.3" font-family="Times,serif" font-size="14.00">G</text>
</g>
<!-- G1 -->
<g id="node2" class="node">
<title>G1</title>
<ellipse fill="none" stroke="black" cx="148" cy="-45" rx="27" ry="18"/>
<text text-anchor="middle" x="148" y="-41.3" font-family="Times,serif" font-size="14.00">G1</text>
</g>
<!-- G&#45;&gt;G1 -->
<g id="edge1" class="edge">
<title>G&#45;&gt;G1</title>
<path fill="none" stroke="black" d="M54.12,-45C70.78,-45 92.61,-45 110.92,-45"/>
<polygon fill="black" stroke="black" points="110.95,-48.5 120.95,-45 110.95,-41.5 110.95,-48.5"/>
<text text-anchor="middle" x="87.5" y="-48.8" font-family="Times,serif" font-size="14.00">elim</text>
</g>
<!-- G2 -->
<g id="node3" class="node">
<title>G2</title>
<ellipse fill="none" stroke="black" cx="290" cy="-72" rx="27" ry="18"/>
<text text-anchor="middle" x="290" y="-68.3" font-family="Times,serif" font-size="14.00">G2</text>
</g>
<!-- G1&#45;&gt;G2 -->
<g id="edge2" class="edge">
<title>G1&#45;&gt;G2</title>
<path fill="none" stroke="black" d="M174.03,-49.83C196.19,-54.1 228.78,-60.39 253.6,-65.17"/>
<polygon fill="black" stroke="black" points="253.23,-68.67 263.72,-67.12 254.56,-61.79 253.23,-68.67"/>
<text text-anchor="middle" x="219" y="-66.8" font-family="Times,serif" font-size="14.00">split&#45;or</text>
</g>
<!-- G3 -->
<g id="node4" class="node">
<title>G3</title>
<ellipse fill="none" stroke="black" cx="290" cy="-18" rx="27" ry="18"/>
<text text-anchor="middle" x="290" y="-14.3" font-family="Times,serif" font-size="14.00">G3</text>
</g>
<!-- G1&#45;&gt;G3 -->
<g id="edge3" class="edge">
<title>G1&#45;&gt;G3</title>
<path fill="none" stroke="black" d="M173.59,-38.48C179.89,-36.92 186.68,-35.31 193,-34 212.77,-29.89 235.01,-26.13 253.1,-23.29"/>
<polygon fill="black" stroke="black" points="253.88,-26.71 263.23,-21.72 252.81,-19.79 253.88,-26.71"/>
<text text-anchor="middle" x="219" y="-37.8" font-family="Times,serif" font-size="14.00">split&#45;or</text>
</g>
</g>
</svg>
