<?xml version="1.0" encoding="UTF-8" standalone="no"?>
<!DOCTYPE svg PUBLIC "-//W3C//DTD SVG 1.1//EN"
 "http://www.w3.org/Graphics/SVG/1.1/DTD/svg11.dtd">
<!-- Generated by graphviz version 2.43.0 (0)
 -->
<!-- Title: G Pages: 1 -->
<svg width="377pt" height="260pt"
 viewBox="0.00 0.00 377.00 260.00" xmlns="http://www.w3.org/2000/svg" xmlns:xlink="http://www.w3.org/1999/xlink">
<g id="graph0" class="graph" transform="scale(1 1) rotate(0) translate(4 256)">
<title>G</title>
<polygon fill="white" stroke="transparent" points="-4,4 -4,-256 373,-256 373,4 -4,4"/>
<!-- g1 -->
<g id="node1" class="node">
<title>g1</title>
<ellipse fill="none" stroke="black" cx="99" cy="-234" rx="27" ry="18"/>
<text text-anchor="middle" x="99" y="-230.3" font-family="Times,serif" font-size="14.00">g1</text>
</g>
<!-- g6 -->
<g id="node6" class="node">
<title>g6</title>
<ellipse fill="none" stroke="black" cx="85" cy="-162" rx="27" ry="18"/>
<text text-anchor="middle" x="85" y="-158.3" font-family="Times,serif" font-size="14.00">g6</text>
</g>
<!-- g1&#45;&gt;g6 -->
<g id="edge1" class="edge">
<title>g1&#45;&gt;g6</title>
<path fill="none" stroke="black" d="M95.61,-216.05C94.07,-208.35 92.21,-199.03 90.47,-190.36"/>
<polygon fill="black" stroke="black" points="93.85,-189.39 88.46,-180.28 86.98,-190.77 93.85,-189.39"/>
</g>
<!-- g2 -->
<g id="node2" class="node">
<title>g2</title>
<ellipse fill="none" stroke="black" cx="27" cy="-234" rx="27" ry="18"/>
<text text-anchor="middle" x="27" y="-230.3" font-family="Times,serif" font-size="14.00">g2</text>
</g>
<!-- g2&#45;&gt;g6 -->
<g id="edge2" class="edge">
<title>g2&#45;&gt;g6</title>
<path fill="none" stroke="black" d="M39.59,-217.81C47.26,-208.55 57.23,-196.52 65.86,-186.09"/>
<polygon fill="black" stroke="black" points="68.75,-188.09 72.44,-178.16 63.36,-183.63 68.75,-188.09"/>
</g>
<!-- g3 -->
<g id="node3" class="node">
<title>g3</title>
<ellipse fill="none" stroke="black" cx="198" cy="-234" rx="27" ry="18"/>
<text text-anchor="middle" x="198" y="-230.3" font-family="Times,serif" font-size="14.00">g3</text>
</g>
<!-- g7 -->
<g id="node7" class="node">
<title>g7</title>
<ellipse fill="none" stroke="black" cx="198" cy="-162" rx="27" ry="18"/>
<text text-anchor="middle" x="198" y="-158.3" font-family="Times,serif" font-size="14.00">g7</text>
</g>
<!-- g3&#45;&gt;g7 -->
<g id="edge3" class="edge">
<title>g3&#45;&gt;g7</title>
<path fill="none" stroke="black" d="M198,-215.7C198,-207.98 198,-198.71 198,-190.11"/>
<polygon fill="black" stroke="black" points="201.5,-190.1 198,-180.1 194.5,-190.1 201.5,-190.1"/>
</g>
<!-- g8 -->
<g id="node8" class="node">
<title>g8</title>
<ellipse fill="none" stroke="black" cx="270" cy="-162" rx="27" ry="18"/>
<text text-anchor="middle" x="270" y="-158.3" font-family="Times,serif" font-size="14.00">g8</text>
</g>
<!-- g3&#45;&gt;g8 -->
<g id="edge4" class="edge">
<title>g3&#45;&gt;g8</title>
<path fill="none" stroke="black" d="M212.57,-218.83C222.75,-208.94 236.52,-195.55 248.03,-184.36"/>
<polygon fill="black" stroke="black" points="250.47,-186.87 255.2,-177.38 245.59,-181.85 250.47,-186.87"/>
</g>
<!-- g4 -->
<g id="node4" class="node">
<title>g4</title>
<ellipse fill="none" stroke="black" cx="270" cy="-234" rx="27" ry="18"/>
<text text-anchor="middle" x="270" y="-230.3" font-family="Times,serif" font-size="14.00">g4</text>
</g>
<!-- g4&#45;&gt;g7 -->
<g id="edge5" class="edge">
<title>g4&#45;&gt;g7</title>
<path fill="none" stroke="black" d="M255.43,-218.83C245.25,-208.94 231.48,-195.55 219.97,-184.36"/>
<polygon fill="black" stroke="black" points="222.41,-181.85 212.8,-177.38 217.53,-186.87 222.41,-181.85"/>
</g>
<!-- g4&#45;&gt;g8 -->
<g id="edge6" class="edge">
<title>g4&#45;&gt;g8</title>
<path fill="none" stroke="black" d="M270,-215.7C270,-207.98 270,-198.71 270,-190.11"/>
<polygon fill="black" stroke="black" points="273.5,-190.1 270,-180.1 266.5,-190.1 273.5,-190.1"/>
</g>
<!-- g5 -->
<g id="node5" class="node">
<title>g5</title>
<ellipse fill="none" stroke="black" cx="342" cy="-234" rx="27" ry="18"/>
<text text-anchor="middle" x="342" y="-230.3" font-family="Times,serif" font-size="14.00">g5</text>
</g>
<!-- g14 -->
<g id="node9" class="node">
<title>g14</title>
<ellipse fill="none" stroke="black" cx="306" cy="-18" rx="27" ry="18"/>
<text text-anchor="middle" x="306" y="-14.3" font-family="Times,serif" font-size="14.00">g14</text>
</g>
<!-- g5&#45;&gt;g14 -->
<g id="edge7" class="edge">
<title>g5&#45;&gt;g14</title>
<path fill="none" stroke="black" d="M339.11,-215.85C332.87,-178.74 318.07,-90.75 310.55,-46.05"/>
<polygon fill="black" stroke="black" points="313.96,-45.22 308.85,-35.94 307.06,-46.38 313.96,-45.22"/>
</g>
<!-- g9 -->
<g id="node10" class="node">
<title>g9</title>
<ellipse fill="none" stroke="black" cx="126" cy="-90" rx="27" ry="18"/>
<text text-anchor="middle" x="126" y="-86.3" font-family="Times,serif" font-size="14.00">g9</text>
</g>
<!-- g6&#45;&gt;g9 -->
<g id="edge8" class="edge">
<title>g6&#45;&gt;g9</title>
<path fill="none" stroke="black" d="M94.51,-144.76C99.53,-136.19 105.8,-125.49 111.42,-115.9"/>
<polygon fill="black" stroke="black" points="114.51,-117.55 116.54,-107.15 108.47,-114.01 114.51,-117.55"/>
</g>
<!-- g12 -->
<g id="node11" class="node">
<title>g12</title>
<ellipse fill="none" stroke="black" cx="121" cy="-18" rx="27" ry="18"/>
<text text-anchor="middle" x="121" y="-14.3" font-family="Times,serif" font-size="14.00">g12</text>
</g>
<!-- g6&#45;&gt;g12 -->
<g id="edge9" class="edge">
<title>g6&#45;&gt;g12</title>
<path fill="none" stroke="black" d="M83.62,-143.86C82.68,-125.63 82.72,-96.15 90,-72 93.06,-61.85 98.42,-51.59 103.83,-42.83"/>
<polygon fill="black" stroke="black" points="106.85,-44.6 109.4,-34.32 101,-40.77 106.85,-44.6"/>
</g>
<!-- g10 -->
<g id="node12" class="node">
<title>g10</title>
<ellipse fill="none" stroke="black" cx="198" cy="-90" rx="27" ry="18"/>
<text text-anchor="middle" x="198" y="-86.3" font-family="Times,serif" font-size="14.00">g10</text>
</g>
<!-- g7&#45;&gt;g10 -->
<g id="edge10" class="edge">
<title>g7&#45;&gt;g10</title>
<path fill="none" stroke="black" d="M198,-143.7C198,-135.98 198,-126.71 198,-118.11"/>
<polygon fill="black" stroke="black" points="201.5,-118.1 198,-108.1 194.5,-118.1 201.5,-118.1"/>
</g>
<!-- g11 -->
<g id="node13" class="node">
<title>g11</title>
<ellipse fill="none" stroke="black" cx="270" cy="-90" rx="27" ry="18"/>
<text text-anchor="middle" x="270" y="-86.3" font-family="Times,serif" font-size="14.00">g11</text>
</g>
<!-- g7&#45;&gt;g11 -->
<g id="edge11" class="edge">
<title>g7&#45;&gt;g11</title>
<path fill="none" stroke="black" d="M212.57,-146.83C222.75,-136.94 236.52,-123.55 248.03,-112.36"/>
<polygon fill="black" stroke="black" points="250.47,-114.87 255.2,-105.38 245.59,-109.85 250.47,-114.87"/>
</g>
<!-- g13 -->
<g id="node14" class="node">
<title>g13</title>
<ellipse fill="none" stroke="black" cx="220" cy="-18" rx="27" ry="18"/>
<text text-anchor="middle" x="220" y="-14.3" font-family="Times,serif" font-size="14.00">g13</text>
</g>
<!-- g9&#45;&gt;g13 -->
<g id="edge12" class="edge">
<title>g9&#45;&gt;g13</title>
<path fill="none" stroke="black" d="M143.68,-75.83C157.95,-65.21 178.22,-50.11 194.29,-38.15"/>
<polygon fill="black" stroke="black" points="196.79,-40.65 202.72,-31.87 192.61,-35.04 196.79,-40.65"/>
</g>
<!-- g10&#45;&gt;g12 -->
<g id="edge13" class="edge">
<title>g10&#45;&gt;g12</title>
<path fill="none" stroke="black" d="M182.42,-74.83C171.39,-64.81 156.41,-51.19 144.01,-39.92"/>
<polygon fill="black" stroke="black" points="146.05,-37.04 136.3,-32.91 141.34,-42.22 146.05,-37.04"/>
</g>
<!-- g11&#45;&gt;g14 -->
<g id="edge15" class="edge">
<title>g11&#45;&gt;g14</title>
<path fill="none" stroke="black" d="M278.35,-72.76C282.71,-64.28 288.15,-53.71 293.04,-44.2"/>
<polygon fill="black" stroke="black" points="296.23,-45.64 297.7,-35.15 290.01,-42.44 296.23,-45.64"/>
</g>
<!-- g11&#45;&gt;g13 -->
<g id="edge14" class="edge">
<title>g11&#45;&gt;g13</title>
<path fill="none" stroke="black" d="M258.9,-73.46C252.49,-64.49 244.3,-53.02 237.08,-42.92"/>
<polygon fill="black" stroke="black" points="239.73,-40.59 231.07,-34.49 234.03,-44.66 239.73,-40.59"/>
</g>
</g>
</svg>
