<?xml version="1.0" encoding="UTF-8" standalone="no"?>
<!DOCTYPE svg PUBLIC "-//W3C//DTD SVG 1.1//EN"
 "http://www.w3.org/Graphics/SVG/1.1/DTD/svg11.dtd">
<!-- Generated by graphviz version 2.43.0 (0)
 -->
<!-- Title: G Pages: 1 -->
<svg width="378pt" height="260pt"
 viewBox="0.00 0.00 378.00 260.00" xmlns="http://www.w3.org/2000/svg" xmlns:xlink="http://www.w3.org/1999/xlink">
<g id="graph0" class="graph" transform="scale(1 1) rotate(0) translate(4 256)">
<title>G</title>
<!-- g1 -->
<g id="node1" class="node">
<title>g1</title>
<ellipse fill="none" stroke="black" cx="99" cy="-234" rx="27" ry="18"/>
<text text-anchor="middle" x="99" y="-230.3" font-family="Times,serif" font-size="14.00">g1</text>
</g>
<!-- g6 -->
<g id="node6" class="node">
<title>g6</title>
<ellipse fill="none" stroke="black" cx="84" cy="-162" rx="27" ry="18"/>
<text text-anchor="middle" x="84" y="-158.3" font-family="Times,serif" font-size="14.00">g6</text>
</g>
<!-- g1&#45;&gt;g6 -->
<g id="edge1" class="edge">
<title>g1&#45;&gt;g6</title>
<path fill="none" stroke="black" d="M95.37,-216.05C93.7,-208.26 91.68,-198.82 89.8,-190.08"/>
<polygon fill="black" stroke="black" points="93.22,-189.32 87.7,-180.28 86.37,-190.79 93.22,-189.32"/>
</g>
<!-- g2 -->
<g id="node2" class="node">
<title>g2</title>
<ellipse fill="none" stroke="black" cx="27" cy="-234" rx="27" ry="18"/>
<text text-anchor="middle" x="27" y="-230.3" font-family="Times,serif" font-size="14.00">g2</text>
</g>
<!-- g2&#45;&gt;g6 -->
<g id="edge2" class="edge">
<title>g2&#45;&gt;g6</title>
<path fill="none" stroke="black" d="M39.37,-217.81C46.91,-208.55 56.7,-196.52 65.19,-186.09"/>
<polygon fill="black" stroke="black" points="68.06,-188.12 71.66,-178.16 62.63,-183.7 68.06,-188.12"/>
</g>
<!-- g3 -->
<g id="node3" class="node">
<title>g3</title>
<ellipse fill="none" stroke="black" cx="199" cy="-234" rx="27" ry="18"/>
<text text-anchor="middle" x="199" y="-230.3" font-family="Times,serif" font-size="14.00">g3</text>
</g>
<!-- g7 -->
<g id="node7" class="node">
<title>g7</title>
<ellipse fill="none" stroke="black" cx="199" cy="-162" rx="27" ry="18"/>
<text text-anchor="middle" x="199" y="-158.3" font-family="Times,serif" font-size="14.00">g7</text>
</g>
<!-- g3&#45;&gt;g7 -->
<g id="edge3" class="edge">
<title>g3&#45;&gt;g7</title>
<path fill="none" stroke="black" d="M199,-215.7C199,-207.98 199,-198.71 199,-190.11"/>
<polygon fill="black" stroke="black" points="202.5,-190.1 199,-180.1 195.5,-190.1 202.5,-190.1"/>
</g>
<!-- g8 -->
<g id="node8" class="node">
<title>g8</title>
<ellipse fill="none" stroke="black" cx="271" cy="-162" rx="27" ry="18"/>
<text text-anchor="middle" x="271" y="-158.3" font-family="Times,serif" font-size="14.00">g8</text>
</g>
<!-- g3&#45;&gt;g8 -->
<g id="edge4" class="edge">
<title>g3&#45;&gt;g8</title>
<path fill="none" stroke="black" d="M213.57,-218.83C223.75,-208.94 237.52,-195.55 249.03,-184.36"/>
<polygon fill="black" stroke="black" points="251.47,-186.87 256.2,-177.38 246.59,-181.85 251.47,-186.87"/>
</g>
<!-- g4 -->
<g id="node4" class="node">
<title>g4</title>
<ellipse fill="none" stroke="black" cx="271" cy="-234" rx="27" ry="18"/>
<text text-anchor="middle" x="271" y="-230.3" font-family="Times,serif" font-size="14.00">g4</text>
</g>
<!-- g4&#45;&gt;g7 -->
<g id="edge5" class="edge">
<title>g4&#45;&gt;g7</title>
<path fill="none" stroke="black" d="M256.43,-218.83C246.25,-208.94 232.48,-195.55 220.97,-184.36"/>
<polygon fill="black" stroke="black" points="223.41,-181.85 213.8,-177.38 218.53,-186.87 223.41,-181.85"/>
</g>
<!-- g4&#45;&gt;g8 -->
<g id="edge6" class="edge">
<title>g4&#45;&gt;g8</title>
<path fill="none" stroke="black" d="M271,-215.7C271,-207.98 271,-198.71 271,-190.11"/>
<polygon fill="black" stroke="black" points="274.5,-190.1 271,-180.1 267.5,-190.1 274.5,-190.1"/>
</g>
<!-- g5 -->
<g id="node5" class="node">
<title>g5</title>
<ellipse fill="none" stroke="black" cx="343" cy="-234" rx="27" ry="18"/>
<text text-anchor="middle" x="343" y="-230.3" font-family="Times,serif" font-size="14.00">g5</text>
</g>
<!-- g14 -->
<g id="node9" class="node">
<title>g14</title>
<ellipse fill="none" stroke="black" cx="308" cy="-18" rx="28.7" ry="18"/>
<text text-anchor="middle" x="308" y="-14.3" font-family="Times,serif" font-size="14.00">g14</text>
</g>
<!-- g5&#45;&gt;g14 -->
<g id="edge7" class="edge">
<title>g5&#45;&gt;g14</title>
<path fill="none" stroke="black" d="M340.19,-215.85C334.13,-178.74 319.73,-90.75 312.42,-46.05"/>
<polygon fill="black" stroke="black" points="315.84,-45.24 310.77,-35.94 308.93,-46.37 315.84,-45.24"/>
</g>
<!-- g9 -->
<g id="node10" class="node">
<title>g9</title>
<ellipse fill="none" stroke="black" cx="125" cy="-90" rx="27" ry="18"/>
<text text-anchor="middle" x="125" y="-86.3" font-family="Times,serif" font-size="14.00">g9</text>
</g>
<!-- g6&#45;&gt;g9 -->
<g id="edge8" class="edge">
<title>g6&#45;&gt;g9</title>
<path fill="none" stroke="black" d="M93.51,-144.76C98.53,-136.19 104.8,-125.49 110.42,-115.9"/>
<polygon fill="black" stroke="black" points="113.51,-117.55 115.54,-107.15 107.47,-114.01 113.51,-117.55"/>
</g>
<!-- g12 -->
<g id="node11" class="node">
<title>g12</title>
<ellipse fill="none" stroke="black" cx="118" cy="-18" rx="28.7" ry="18"/>
<text text-anchor="middle" x="118" y="-14.3" font-family="Times,serif" font-size="14.00">g12</text>
</g>
<!-- g6&#45;&gt;g12 -->
<g id="edge9" class="edge">
<title>g6&#45;&gt;g12</title>
<path fill="none" stroke="black" d="M82.76,-143.9C81.94,-125.7 82.07,-96.25 89,-72 91.79,-62.22 96.63,-52.25 101.56,-43.63"/>
<polygon fill="black" stroke="black" points="104.67,-45.26 106.86,-34.89 98.68,-41.63 104.67,-45.26"/>
</g>
<!-- g10 -->
<g id="node12" class="node">
<title>g10</title>
<ellipse fill="none" stroke="black" cx="199" cy="-90" rx="28.7" ry="18"/>
<text text-anchor="middle" x="199" y="-86.3" font-family="Times,serif" font-size="14.00">g10</text>
</g>
<!-- g7&#45;&gt;g10 -->
<g id="edge10" class="edge">
<title>g7&#45;&gt;g10</title>
<path fill="none" stroke="black" d="M199,-143.7C199,-135.98 199,-126.71 199,-118.11"/>
<polygon fill="black" stroke="black" points="202.5,-118.1 199,-108.1 195.5,-118.1 202.5,-118.1"/>
</g>
<!-- g11 -->
<g id="node13" class="node">
<title>g11</title>
<ellipse fill="none" stroke="black" cx="274" cy="-90" rx="28.7" ry="18"/>
<text text-anchor="middle" x="274" y="-86.3" font-family="Times,serif" font-size="14.00">g11</text>
</g>
<!-- g7&#45;&gt;g11 -->
<g id="edge11" class="edge">
<title>g7&#45;&gt;g11</title>
<path fill="none" stroke="black" d="M214.18,-146.83C224.78,-136.94 239.13,-123.55 251.12,-112.36"/>
<polygon fill="black" stroke="black" points="253.67,-114.77 258.59,-105.38 248.89,-109.65 253.67,-114.77"/>
</g>
<!-- g13 -->
<g id="node14" class="node">
<title>g13</title>
<ellipse fill="none" stroke="black" cx="220" cy="-18" rx="28.7" ry="18"/>
<text text-anchor="middle" x="220" y="-14.3" font-family="Times,serif" font-size="14.00">g13</text>
</g>
<!-- g9&#45;&gt;g13 -->
<g id="edge12" class="edge">
<title>g9&#45;&gt;g13</title>
<path fill="none" stroke="black" d="M142.42,-76.16C156.84,-65.54 177.53,-50.29 193.92,-38.22"/>
<polygon fill="black" stroke="black" points="196.07,-40.98 202.04,-32.23 191.91,-35.35 196.07,-40.98"/>
</g>
<!-- g10&#45;&gt;g12 -->
<g id="edge13" class="edge">
<title>g10&#45;&gt;g12</title>
<path fill="none" stroke="black" d="M182.61,-74.83C170.89,-64.71 154.95,-50.93 141.83,-39.59"/>
<polygon fill="black" stroke="black" points="143.95,-36.8 134.09,-32.91 139.37,-42.09 143.95,-36.8"/>
</g>
<!-- g11&#45;&gt;g14 -->
<g id="edge15" class="edge">
<title>g11&#45;&gt;g14</title>
<path fill="none" stroke="black" d="M282.06,-72.41C286.08,-64.13 291.04,-53.92 295.54,-44.66"/>
<polygon fill="black" stroke="black" points="298.78,-45.99 300,-35.47 292.48,-42.94 298.78,-45.99"/>
</g>
<!-- g11&#45;&gt;g13 -->
<g id="edge14" class="edge">
<title>g11&#45;&gt;g13</title>
<path fill="none" stroke="black" d="M262.02,-73.46C255.02,-64.4 246.06,-52.79 238.21,-42.61"/>
<polygon fill="black" stroke="black" points="240.83,-40.27 231.95,-34.49 235.29,-44.55 240.83,-40.27"/>
</g>
</g>
</svg>
