<?xml version="1.0" encoding="UTF-8" standalone="no"?>
<!DOCTYPE svg PUBLIC "-//W3C//DTD SVG 1.1//EN"
 "http://www.w3.org/Graphics/SVG/1.1/DTD/svg11.dtd">
<!-- Generated by graphviz version 2.43.0 (0)
 -->
<!-- Title: G Pages: 1 -->
<svg width="163pt" height="77pt"
 viewBox="0.00 0.00 163.00 77.00" xmlns="http://www.w3.org/2000/svg" xmlns:xlink="http://www.w3.org/1999/xlink">
<g id="graph0" class="graph" transform="scale(1 1) rotate(0) translate(4 73)">
<title>G</title>
<polygon fill="white" stroke="transparent" points="-4,4 -4,-73 159,-73 159,4 -4,4"/>
<!-- 00 -->
<g id="node1" class="node">
<title>00</title>
<ellipse fill="none" stroke="black" cx="27" cy="-18" rx="27" ry="18"/>
<text text-anchor="middle" x="27" y="-14.3" font-family="Times,serif" font-size="14.00">00</text>
</g>
<!-- 00&#45;&gt;00 -->
<g id="edge2" class="edge">
<title>00&#45;&gt;00</title>
<path fill="none" stroke="black" d="M18.14,-35.04C16.33,-44.86 19.29,-54 27,-54 31.82,-54 34.78,-50.43 35.89,-45.35"/>
<polygon fill="black" stroke="black" points="39.38,-45.03 35.86,-35.04 32.38,-45.05 39.38,-45.03"/>
<text text-anchor="middle" x="27" y="-57.8" font-family="Times,serif" font-size="14.00"> 0</text>
</g>
<!-- 01 -->
<g id="node2" class="node">
<title>01</title>
<ellipse fill="none" stroke="black" cx="128" cy="-18" rx="27" ry="18"/>
<text text-anchor="middle" x="128" y="-14.3" font-family="Times,serif" font-size="14.00">01</text>
</g>
<!-- 00&#45;&gt;01 -->
<g id="edge1" class="edge">
<title>00&#45;&gt;01</title>
<path fill="none" stroke="black" d="M54.01,-18C65.18,-18 78.42,-18 90.54,-18"/>
<polygon fill="black" stroke="black" points="90.82,-21.5 100.82,-18 90.82,-14.5 90.82,-21.5"/>
<text text-anchor="middle" x="77.5" y="-21.8" font-family="Times,serif" font-size="14.00"> 1</text>
</g>
</g>
</svg>
