<?xml version="1.0" encoding="UTF-8" standalone="no"?>
<!DOCTYPE svg PUBLIC "-//W3C//DTD SVG 1.1//EN"
 "http://www.w3.org/Graphics/SVG/1.1/DTD/svg11.dtd">
<!-- Generated by graphviz version 2.43.0 (0)
 -->
<!-- Title: G Pages: 1 -->
<svg width="166pt" height="77pt"
 viewBox="0.00 0.00 166.00 77.00" xmlns="http://www.w3.org/2000/svg" xmlns:xlink="http://www.w3.org/1999/xlink">
<g id="graph0" class="graph" transform="scale(1 1) rotate(0) translate(4 73)">
<title>G</title>
<!-- 00 -->
<g id="node1" class="node">
<title>00</title>
<ellipse fill="none" stroke="black" cx="27" cy="-18" rx="27" ry="18"/>
<text text-anchor="middle" x="27" y="-14.3" font-family="Times,serif" font-size="14.00">00</text>
</g>
<!-- 00&#45;&gt;00 -->
<g id="edge2" class="edge">
<title>00&#45;&gt;00</title>
<path fill="none" stroke="black" d="M17.79,-35.04C15.91,-44.86 18.98,-54 27,-54 32.01,-54 35.09,-50.43 36.24,-45.35"/>
<polygon fill="black" stroke="black" points="39.74,-45.03 36.21,-35.04 32.74,-45.05 39.74,-45.03"/>
<text text-anchor="middle" x="27" y="-57.8" font-family="Times,serif" font-size="14.00"> 0</text>
</g>
<!-- 01 -->
<g id="node2" class="node">
<title>01</title>
<ellipse fill="none" stroke="black" cx="131" cy="-18" rx="27" ry="18"/>
<text text-anchor="middle" x="131" y="-14.3" font-family="Times,serif" font-size="14.00">01</text>
</g>
<!-- 00&#45;&gt;01 -->
<g id="edge1" class="edge">
<title>00&#45;&gt;01</title>
<path fill="none" stroke="black" d="M54,-18C66.02,-18 80.49,-18 93.57,-18"/>
<polygon fill="black" stroke="black" points="93.69,-21.5 103.69,-18 93.69,-14.5 93.69,-21.5"/>
<text text-anchor="middle" x="79" y="-21.8" font-family="Times,serif" font-size="14.00"> 1</text>
</g>
</g>
</svg>
