<?xml version="1.0" encoding="UTF-8" standalone="no"?>
<!DOCTYPE svg PUBLIC "-//W3C//DTD SVG 1.1//EN"
 "http://www.w3.org/Graphics/SVG/1.1/DTD/svg11.dtd">
<!-- Generated by graphviz version 2.43.0 (0)
 -->
<!-- Title: G Pages: 1 -->
<svg width="182pt" height="182pt"
 viewBox="0.00 0.00 181.51 181.51" xmlns="http://www.w3.org/2000/svg" xmlns:xlink="http://www.w3.org/1999/xlink">
<g id="graph0" class="graph" transform="scale(1 1) rotate(0) translate(4 177.51)">
<title>G</title>
<polygon fill="white" stroke="transparent" points="-4,4 -4,-177.51 177.51,-177.51 177.51,4 -4,4"/>
<!-- 11 -->
<g id="node1" class="node">
<title>11</title>
<ellipse fill="none" stroke="black" cx="86.75" cy="-18" rx="18" ry="18"/>
<text text-anchor="middle" x="86.75" y="-14.3" font-family="Times,serif" font-size="14.00">11</text>
</g>
<!-- 11&#45;&gt;11 -->
<g id="edge8" class="edge">
<title>11&#45;&gt;11</title>
<path fill="none" stroke="black" d="M103.79,-24.38C113.61,-25.68 122.75,-23.55 122.75,-18 122.75,-14.53 119.18,-12.4 114.11,-11.6"/>
<polygon fill="black" stroke="black" points="113.79,-8.1 103.79,-11.62 113.8,-15.1 113.79,-8.1"/>
<text text-anchor="middle" x="127.75" y="-14.3" font-family="Times,serif" font-size="14.00">1</text>
</g>
<!-- 10 -->
<g id="node2" class="node">
<title>10</title>
<ellipse fill="none" stroke="black" cx="18" cy="-86.75" rx="18" ry="18"/>
<text text-anchor="middle" x="18" y="-83.05" font-family="Times,serif" font-size="14.00">10</text>
</g>
<!-- 11&#45;&gt;10 -->
<g id="edge1" class="edge">
<title>11&#45;&gt;10</title>
<path fill="none" stroke="black" d="M73.82,-30.93C63.74,-41.02 49.56,-55.2 38.01,-66.74"/>
<polygon fill="black" stroke="black" points="35.47,-64.33 30.87,-73.88 40.42,-69.28 35.47,-64.33"/>
<text text-anchor="middle" x="41.92" y="-52.64" font-family="Times,serif" font-size="14.00">0 &#160;&#160;&#160;</text>
</g>
<!-- 00 -->
<g id="node3" class="node">
<title>00</title>
<ellipse fill="none" stroke="black" cx="86.75" cy="-155.51" rx="18" ry="18"/>
<text text-anchor="middle" x="86.75" y="-151.81" font-family="Times,serif" font-size="14.00">00</text>
</g>
<!-- 10&#45;&gt;00 -->
<g id="edge2" class="edge">
<title>10&#45;&gt;00</title>
<path fill="none" stroke="black" d="M30.93,-99.69C41.02,-109.77 55.2,-123.95 66.74,-135.5"/>
<polygon fill="black" stroke="black" points="64.33,-138.04 73.88,-142.64 69.28,-133.09 64.33,-138.04"/>
<text text-anchor="middle" x="43.84" y="-121.39" font-family="Times,serif" font-size="14.00">0</text>
</g>
<!-- 01 -->
<g id="node4" class="node">
<title>01</title>
<ellipse fill="none" stroke="black" cx="155.51" cy="-86.75" rx="18" ry="18"/>
<text text-anchor="middle" x="155.51" y="-83.05" font-family="Times,serif" font-size="14.00">01</text>
</g>
<!-- 10&#45;&gt;01 -->
<g id="edge6" class="edge">
<title>10&#45;&gt;01</title>
<path fill="none" stroke="black" d="M35.42,-91.43C58.64,-93.86 100.02,-94.16 127.61,-92.31"/>
<polygon fill="black" stroke="black" points="128.13,-95.78 137.8,-91.46 127.54,-88.8 128.13,-95.78"/>
<text text-anchor="middle" x="65.52" y="-95.67" font-family="Times,serif" font-size="14.00"> &#160;&#160;1 &#160;</text>
</g>
<!-- 00&#45;&gt;00 -->
<g id="edge7" class="edge">
<title>00&#45;&gt;00</title>
<path fill="none" stroke="black" d="M103.79,-161.89C113.61,-163.19 122.75,-161.06 122.75,-155.51 122.75,-152.04 119.18,-149.91 114.11,-149.11"/>
<polygon fill="black" stroke="black" points="113.79,-145.61 103.79,-149.13 113.8,-152.61 113.79,-145.61"/>
<text text-anchor="middle" x="127.75" y="-151.81" font-family="Times,serif" font-size="14.00">0</text>
</g>
<!-- 00&#45;&gt;01 -->
<g id="edge3" class="edge">
<title>00&#45;&gt;01</title>
<path fill="none" stroke="black" d="M99.69,-142.58C109.77,-132.49 123.95,-118.31 135.5,-106.77"/>
<polygon fill="black" stroke="black" points="138.04,-109.18 142.64,-99.63 133.09,-104.23 138.04,-109.18"/>
<text text-anchor="middle" x="110.59" y="-113.47" font-family="Times,serif" font-size="14.00">1 </text>
</g>
<!-- 01&#45;&gt;11 -->
<g id="edge4" class="edge">
<title>01&#45;&gt;11</title>
<path fill="none" stroke="black" d="M142.58,-73.82C132.49,-63.74 118.31,-49.56 106.77,-38.01"/>
<polygon fill="black" stroke="black" points="109.18,-35.47 99.63,-30.87 104.23,-40.42 109.18,-35.47"/>
<text text-anchor="middle" x="119.67" y="-59.72" font-family="Times,serif" font-size="14.00">1</text>
</g>
<!-- 01&#45;&gt;10 -->
<g id="edge5" class="edge">
<title>01&#45;&gt;10</title>
<path fill="none" stroke="black" d="M138.09,-82.08C114.87,-79.65 73.49,-79.35 45.9,-81.2"/>
<polygon fill="black" stroke="black" points="45.38,-77.73 35.71,-82.05 45.96,-84.71 45.38,-77.73"/>
<text text-anchor="middle" x="73.49" y="-70.44" font-family="Times,serif" font-size="14.00"> &#160;&#160;&#160;0 &#160;</text>
</g>
</g>
</svg>
