<?xml version="1.0" encoding="UTF-8"?>
<svg xmlns="http://www.w3.org/2000/svg" xmlns:xlink="http://www.w3.org/1999/xlink" width="535.275591pt" height="231.889764pt" viewBox="0 0 535.275591 231.889764" version="1.2">
<g id="surface424698">
<path style="fill:none;stroke-width:0.85;stroke-linecap:round;stroke-linejoin:round;stroke:rgb(100%,50.196078%,0%);stroke-opacity:1;comp-op:src;clip-to-self:true;stroke-miterlimit:10;" d="M 111.507813 144.859375 L 110.511719 145.855469 L 110.511719 147.347656 L 110.011719 147.84375 L 110.011719 159.292969 L 110.511719 159.792969 L 110.511719 161.285156 L 111.007813 161.785156 L 111.007813 162.777344 L 111.507813 163.277344 L 111.507813 164.273438 L 112.003906 164.273438 L 112.003906 165.269531 L 112.5 165.765625 L 112.5 166.265625 L 113 166.761719 L 113 167.257813 L 113.496094 167.257813 L 113.496094 167.757813 L 113.996094 168.253906 L 114.492188 168.753906 L 114.492188 169.25 L 114.992188 169.25 L 114.992188 169.75 L 115.488281 170.246094 L 115.988281 170.742188 L 115.988281 171.242188 L 116.484375 171.242188 L 116.484375 171.738281 L 116.980469 172.238281 L 117.480469 172.734375 L 117.976563 173.234375 L 117.976563 173.730469 L 118.476563 173.730469 L 118.476563 174.230469 L 118.972656 174.230469 L 118.972656 174.726563 L 119.472656 174.726563 L 119.472656 175.222656 L 119.96875 175.722656 L 120.464844 176.21875 L 120.464844 176.71875 L 120.964844 176.71875 L 120.964844 177.214844 L 121.460938 177.214844 L 121.960938 177.714844 L 121.960938 178.210938 L 122.457031 178.210938 L 122.457031 178.707031 L 122.957031 178.707031 L 122.957031 179.207031 "/>
<path style="fill:none;stroke-width:0.85;stroke-linecap:round;stroke-linejoin:round;stroke:rgb(100%,50.196078%,0%);stroke-opacity:1;comp-op:src;clip-to-self:true;stroke-miterlimit:10;" d="M 129.425781 186.175781 L 130.421875 187.667969 L 130.921875 188.167969 L 130.921875 188.664063 L 131.417969 188.664063 L 131.417969 189.660156 L 131.914063 189.660156 L 131.914063 190.65625 L 132.414063 190.65625 L 132.414063 191.652344 L 132.910156 191.652344 L 131.914063 191.652344 L 131.914063 191.152344 L 131.417969 191.152344 L 131.417969 190.65625 L 130.421875 190.65625 L 129.925781 190.15625 L 128.929688 190.15625 L 128.929688 190.65625 L 128.429688 190.65625 L 128.429688 191.152344 L 127.933594 191.152344 L 127.933594 192.648438 L 128.429688 193.144531 L 128.429688 193.640625 L 128.929688 194.140625 L 129.425781 194.140625 L 129.425781 194.636719 L 130.921875 194.636719 L 130.921875 194.140625 L 131.914063 194.140625 L 131.914063 193.640625 L 132.414063 193.640625 "/>
<path style="fill:none;stroke-width:0.85;stroke-linecap:round;stroke-linejoin:round;stroke:rgb(100%,50.196078%,0%);stroke-opacity:1;comp-op:src;clip-to-self:true;stroke-miterlimit:10;" d="M 133.90625 182.691406 L 136.394531 182.691406 L 136.394531 183.6875 L 135.898438 183.6875 L 135.898438 184.683594 L 135.402344 184.683594 L 135.402344 185.179688 L 134.902344 185.679688 L 134.902344 186.671875 L 134.40625 186.671875 L 134.40625 188.167969 L 136.394531 188.167969 L 136.394531 187.667969 L 137.390625 187.667969 L 137.890625 187.171875 L 138.386719 187.171875 "/>
<path style="fill:none;stroke-width:0.85;stroke-linecap:round;stroke-linejoin:round;stroke:rgb(0%,50.196078%,0%);stroke-opacity:1;comp-op:src;clip-to-self:true;stroke-miterlimit:10;" d="M 162.777344 147.347656 L 163.277344 149.339844 L 163.277344 150.832031 L 163.773438 151.328125 L 163.773438 154.816406 L 164.273438 155.3125 L 164.273438 157.304688 L 164.769531 158.300781 L 164.769531 160.289063 L 165.269531 161.285156 L 165.269531 161.785156 L 165.765625 162.28125 L 165.765625 164.273438 L 166.265625 164.769531 L 166.265625 165.765625 L 166.761719 166.265625 L 166.761719 167.757813 L 167.257813 168.753906 L 167.257813 169.75 L 167.757813 170.246094 L 167.757813 170.742188 L 168.253906 171.738281 L 168.253906 172.734375 L 168.753906 173.234375 L 168.753906 174.230469 L 169.25 174.726563 L 169.25 175.222656 L 169.75 175.722656 L 169.75 176.21875 L 170.246094 176.71875 L 170.246094 177.714844 L 170.742188 177.714844 L 171.242188 178.707031 L 171.242188 179.207031 L 171.738281 179.703125 L 171.738281 180.203125 L 172.238281 180.699219 L 172.238281 181.695313 L 172.734375 181.695313 L 172.734375 182.691406 L 173.234375 182.691406 L 173.234375 183.1875 L 173.730469 183.6875 L 173.730469 184.183594 L 174.230469 184.683594 L 174.230469 185.179688 L 174.726563 185.179688 L 174.726563 185.679688 L 175.222656 186.175781 L 175.222656 186.671875 L 175.722656 186.671875 L 175.722656 187.171875 L 176.21875 187.171875 L 176.21875 188.167969 L 176.71875 188.167969 "/>
<path style="fill:none;stroke-width:0.85;stroke-linecap:round;stroke-linejoin:round;stroke:rgb(0%,50.196078%,0%);stroke-opacity:1;comp-op:src;clip-to-self:true;stroke-miterlimit:10;" d="M 182.191406 185.679688 L 181.695313 191.652344 L 181.695313 192.148438 L 182.691406 192.148438 L 183.1875 191.652344 L 186.175781 191.652344 L 186.671875 192.148438 L 186.671875 193.640625 L 186.175781 193.640625 L 186.175781 194.140625 L 182.691406 194.140625 L 182.691406 193.640625 L 182.191406 193.640625 L 182.191406 192.648438 L 181.695313 192.648438 "/>
<path style="fill:none;stroke-width:0.85;stroke-linecap:round;stroke-linejoin:round;stroke:rgb(0%,50.196078%,0%);stroke-opacity:1;comp-op:src;clip-to-self:true;stroke-miterlimit:10;" d="M 184.683594 181.199219 L 186.671875 180.699219 L 187.171875 181.199219 L 187.667969 181.199219 L 187.667969 182.691406 L 187.171875 182.691406 L 187.171875 183.6875 L 186.671875 183.6875 L 186.671875 184.683594 L 186.175781 184.683594 L 186.175781 185.679688 L 185.679688 185.679688 L 185.679688 186.175781 L 188.664063 186.175781 L 188.664063 185.679688 "/>
<path style="fill:none;stroke-width:0.85;stroke-linecap:round;stroke-linejoin:round;stroke:rgb(0%,50.196078%,0%);stroke-opacity:1;comp-op:src;clip-to-self:true;stroke-miterlimit:10;" d="M 192.648438 191.652344 L 194.636719 192.148438 L 195.136719 191.652344 L 196.132813 191.652344 "/>
<path style="fill:none;stroke-width:0.85;stroke-linecap:round;stroke-linejoin:round;stroke:rgb(0%,50.196078%,0%);stroke-opacity:1;comp-op:src;clip-to-self:true;stroke-miterlimit:10;" d="M 201.605469 187.171875 L 203.101563 189.660156 L 203.101563 190.65625 L 203.597656 190.65625 L 203.597656 191.152344 L 204.097656 191.652344 L 204.097656 192.148438 L 203.597656 192.148438 L 203.597656 191.652344 L 201.605469 191.652344 L 201.605469 192.148438 L 200.613281 192.148438 L 200.613281 193.640625 L 201.109375 193.640625 L 201.109375 194.140625 L 203.597656 194.140625 L 203.597656 193.640625 L 204.097656 193.640625 L 204.097656 193.144531 "/>
<path style="fill:none;stroke-width:0.85;stroke-linecap:round;stroke-linejoin:round;stroke:rgb(0%,50.196078%,0%);stroke-opacity:1;comp-op:src;clip-to-self:true;stroke-miterlimit:10;" d="M 204.59375 181.695313 L 206.585938 182.691406 L 207.082031 182.691406 L 207.082031 183.6875 L 206.585938 184.183594 L 206.585938 185.179688 L 206.085938 185.179688 L 206.085938 186.175781 L 205.589844 186.175781 L 206.085938 186.671875 L 206.585938 186.671875 L 206.585938 187.171875 L 207.082031 187.171875 L 207.082031 186.671875 L 208.078125 186.671875 "/>
<path style="fill:none;stroke-width:0.85;stroke-linecap:round;stroke-linejoin:round;stroke:rgb(0%,0%,0%);stroke-opacity:1;comp-op:src;clip-to-self:true;stroke-miterlimit:10;" d="M 82.136719 73.175781 L 84.128906 70.6875 L 84.128906 70.1875 L 84.625 70.1875 L 84.625 69.691406 L 85.125 69.691406 L 85.125 69.195313 L 85.621094 68.695313 L 86.617188 67.699219 L 86.617188 67.203125 L 87.113281 67.203125 "/>
<path style="fill:none;stroke-width:0.85;stroke-linecap:round;stroke-linejoin:round;stroke:rgb(0%,0%,0%);stroke-opacity:1;comp-op:src;clip-to-self:true;stroke-miterlimit:10;" d="M 84.128906 69.195313 L 84.128906 72.679688 L 84.625 72.679688 L 84.625 78.652344 L 85.125 79.148438 L 84.625 79.148438 L 85.125 79.148438 L 85.125 80.144531 L 84.625 80.144531 L 85.125 80.144531 L 85.125 81.140625 L 84.625 81.140625 L 85.125 81.636719 L 85.125 93.085938 L 85.621094 93.085938 L 85.621094 101.050781 L 85.125 101.550781 L 85.125 114.992188 L 85.621094 114.992188 L 85.125 115.488281 L 85.125 118.972656 L 85.621094 119.472656 L 85.125 119.96875 L 85.125 122.957031 L 84.625 123.453125 L 84.625 126.9375 L 84.128906 126.9375 L 84.128906 128.429688 "/>
<path style="fill:none;stroke-width:0.85;stroke-linecap:round;stroke-linejoin:round;stroke:rgb(0%,0%,0%);stroke-opacity:1;comp-op:src;clip-to-self:true;stroke-miterlimit:10;" d="M 82.136719 128.929688 L 84.625 126.441406 L 84.625 125.941406 L 85.125 125.445313 L 85.621094 124.945313 L 85.621094 124.449219 L 86.117188 124.449219 L 86.117188 123.949219 L 86.617188 123.949219 L 86.617188 123.453125 L 87.113281 123.453125 L 87.113281 122.957031 "/>
<path style="fill:none;stroke-width:0.85;stroke-linecap:round;stroke-linejoin:round;stroke:rgb(0%,0%,0%);stroke-opacity:1;comp-op:src;clip-to-self:true;stroke-miterlimit:10;" d="M 54.257813 90.597656 L 54.257813 96.074219 L 54.757813 96.074219 L 54.757813 95.578125 L 55.253906 95.578125 L 55.753906 95.078125 L 56.25 95.078125 L 56.25 94.582031 L 57.746094 94.582031 L 58.242188 95.078125 L 58.738281 95.578125 L 58.738281 96.574219 L 58.242188 97.070313 L 57.246094 97.070313 L 57.246094 96.574219 L 56.75 96.574219 L 55.753906 95.578125 "/>
<path style="fill:none;stroke-width:0.85;stroke-linecap:round;stroke-linejoin:round;stroke:rgb(0%,0%,0%);stroke-opacity:1;comp-op:src;clip-to-self:true;stroke-miterlimit:10;" d="M 61.726563 94.082031 L 64.714844 94.082031 "/>
<path style="fill:none;stroke-width:0.85;stroke-linecap:round;stroke-linejoin:round;stroke:rgb(0%,0%,0%);stroke-opacity:1;comp-op:src;clip-to-self:true;stroke-miterlimit:10;" d="M 69.691406 90.597656 L 71.683594 92.589844 L 71.683594 93.085938 L 72.179688 93.085938 L 72.179688 93.585938 L 71.183594 93.585938 L 70.6875 94.082031 L 70.1875 94.082031 L 69.691406 94.582031 L 69.195313 94.582031 L 69.195313 95.078125 L 69.691406 95.078125 L 69.691406 96.074219 L 71.683594 96.074219 L 71.683594 95.578125 L 72.179688 95.578125 L 72.679688 95.078125 "/>
<path style="fill:none;stroke-width:0.85;stroke-linecap:round;stroke-linejoin:round;stroke:rgb(0%,0%,0%);stroke-opacity:1;comp-op:src;clip-to-self:true;stroke-miterlimit:10;" d="M 84.625 130.921875 L 84.625 134.40625 L 85.125 134.40625 L 85.125 139.878906 L 85.621094 139.878906 L 85.125 140.378906 L 85.621094 140.378906 L 85.621094 153.820313 L 85.125 153.820313 L 85.125 157.304688 "/>
<path style="fill:none;stroke-width:0.85;stroke-linecap:round;stroke-linejoin:round;stroke:rgb(0%,0%,0%);stroke-opacity:1;comp-op:src;clip-to-self:true;stroke-miterlimit:10;" d="M 83.628906 158.300781 L 85.125 156.308594 L 85.621094 156.308594 L 85.621094 155.808594 L 86.117188 155.3125 L 86.617188 154.816406 L 86.617188 154.316406 L 87.613281 153.320313 L 87.613281 152.824219 L 88.109375 152.824219 L 88.109375 152.324219 "/>
<path style="fill:none;stroke-width:0.85;stroke-linecap:round;stroke-linejoin:round;stroke:rgb(0%,0%,0%);stroke-opacity:1;comp-op:src;clip-to-self:true;stroke-miterlimit:10;" d="M 68.695313 139.878906 L 70.1875 141.375 L 70.6875 141.375 L 70.6875 141.871094 L 71.183594 141.871094 L 71.183594 142.867188 L 71.683594 142.867188 L 71.683594 143.363281 L 68.695313 143.363281 L 68.695313 144.359375 L 68.199219 144.359375 L 68.199219 144.859375 L 68.695313 145.355469 L 68.695313 145.855469 L 69.195313 145.855469 L 69.195313 146.351563 L 70.1875 146.351563 L 70.1875 145.855469 L 70.6875 145.855469 L 71.183594 145.355469 L 71.683594 144.859375 "/>
<path style="fill:none;stroke-width:0.85;stroke-linecap:round;stroke-linejoin:round;stroke:rgb(0%,0%,0%);stroke-opacity:1;comp-op:src;clip-to-self:true;stroke-miterlimit:10;" d="M 100.554688 50.773438 L 100.058594 51.769531 L 100.058594 52.765625 L 99.558594 52.765625 L 99.558594 53.761719 L 99.0625 54.257813 L 99.0625 54.757813 L 98.5625 55.253906 L 98.5625 56.25 L 98.066406 56.25 L 98.066406 57.246094 L 97.566406 57.746094 L 97.566406 58.242188 "/>
<path style="fill:none;stroke-width:0.85;stroke-linecap:round;stroke-linejoin:round;stroke:rgb(0%,0%,0%);stroke-opacity:1;comp-op:src;clip-to-self:true;stroke-miterlimit:10;" d="M 98.5625 55.753906 L 100.058594 56.25 L 105.035156 56.25 L 105.035156 55.753906 L 126.441406 55.753906 L 126.9375 55.253906 L 148.839844 55.253906 L 148.839844 55.753906 L 156.804688 55.753906 L 157.304688 56.25 L 161.785156 56.25 L 161.785156 56.75 L 165.765625 56.75 L 165.765625 57.246094 L 181.695313 57.246094 L 182.191406 56.75 L 183.6875 56.75 "/>
<path style="fill:none;stroke-width:0.85;stroke-linecap:round;stroke-linejoin:round;stroke:rgb(0%,0%,0%);stroke-opacity:1;comp-op:src;clip-to-self:true;stroke-miterlimit:10;" d="M 184.683594 54.257813 L 181.199219 61.230469 L 180.699219 61.230469 L 180.699219 61.726563 "/>
<path style="fill:none;stroke-width:0.85;stroke-linecap:round;stroke-linejoin:round;stroke:rgb(0%,0%,0%);stroke-opacity:1;comp-op:src;clip-to-self:true;stroke-miterlimit:10;" d="M 140.378906 42.808594 L 140.378906 48.285156 L 141.871094 48.285156 L 141.871094 47.789063 L 142.867188 47.789063 L 143.363281 47.289063 L 144.359375 47.289063 L 144.859375 47.789063 L 144.859375 48.285156 L 145.355469 48.285156 L 145.355469 48.785156 L 144.859375 49.28125 L 142.371094 49.28125 L 142.371094 48.785156 L 141.375 48.785156 L 140.875 48.285156 "/>
<path style="fill:none;stroke-width:0.85;stroke-linecap:round;stroke-linejoin:round;stroke:rgb(0%,0%,0%);stroke-opacity:1;comp-op:src;clip-to-self:true;stroke-miterlimit:10;" d="M 127.933594 166.761719 L 127.933594 166.265625 L 128.429688 166.265625 L 128.429688 164.769531 L 128.929688 164.769531 L 128.429688 165.269531 L 128.429688 166.265625 L 127.933594 166.265625 L 127.933594 167.257813 L 127.4375 167.757813 L 127.4375 168.753906 L 126.9375 168.753906 "/>
<path style="fill:none;stroke-width:0.85;stroke-linecap:round;stroke-linejoin:round;stroke:rgb(0%,0%,0%);stroke-opacity:1;comp-op:src;clip-to-self:true;stroke-miterlimit:10;" d="M 127.4375 167.257813 L 126.9375 169.75 L 126.441406 170.246094 L 126.441406 171.738281 L 125.941406 171.738281 "/>
<path style="fill:none;stroke-width:0.85;stroke-linecap:round;stroke-linejoin:round;stroke:rgb(0%,0%,0%);stroke-opacity:1;comp-op:src;clip-to-self:true;stroke-miterlimit:10;" d="M 127.4375 169.25 L 134.902344 169.25 L 135.402344 169.75 L 144.859375 169.75 L 144.859375 170.246094 L 156.308594 170.246094 L 156.804688 169.75 L 157.304688 170.246094 L 157.304688 169.75 L 182.191406 169.75 L 182.191406 169.25 L 182.191406 169.75 L 182.691406 169.25 L 186.671875 169.25 "/>
<path style="fill:none;stroke-width:0.85;stroke-linecap:round;stroke-linejoin:round;stroke:rgb(0%,0%,0%);stroke-opacity:1;comp-op:src;clip-to-self:true;stroke-miterlimit:10;" d="M 186.671875 166.265625 L 184.183594 172.238281 L 184.183594 172.734375 "/>
<path style="fill:none;stroke-width:0.85;stroke-linecap:round;stroke-linejoin:round;stroke:rgb(0%,0%,0%);stroke-opacity:1;comp-op:src;clip-to-self:true;stroke-miterlimit:10;" d="M 141.871094 161.785156 L 142.371094 163.773438 L 142.371094 164.769531 L 142.371094 164.273438 L 143.863281 164.273438 L 143.863281 163.773438 L 144.359375 163.773438 L 144.859375 164.273438 L 145.355469 164.273438 L 145.355469 164.769531 L 145.855469 164.769531 L 145.855469 165.765625 L 145.355469 166.265625 L 145.355469 166.761719 L 142.867188 166.761719 L 142.867188 166.265625 L 142.371094 166.265625 "/>
<path style="fill:none;stroke-width:0.85;stroke-linecap:round;stroke-linejoin:round;stroke:rgb(0%,0%,0%);stroke-opacity:1;comp-op:src;clip-to-self:true;stroke-miterlimit:10;" d="M 147.84375 164.769531 L 149.835938 164.273438 L 150.335938 164.273438 "/>
<path style="fill:none;stroke-width:0.85;stroke-linecap:round;stroke-linejoin:round;stroke:rgb(0%,0%,0%);stroke-opacity:1;comp-op:src;clip-to-self:true;stroke-miterlimit:10;" d="M 153.820313 161.785156 L 156.308594 164.273438 L 156.308594 164.769531 L 156.804688 164.769531 L 155.808594 164.769531 L 155.3125 164.273438 L 154.816406 164.273438 L 154.316406 164.769531 L 153.820313 164.769531 L 153.820313 165.269531 L 153.320313 165.269531 L 153.320313 165.765625 L 153.820313 165.765625 L 153.820313 166.265625 L 154.316406 166.265625 L 154.316406 166.761719 L 154.816406 166.761719 L 155.3125 167.257813 L 155.808594 167.257813 L 156.308594 166.761719 L 156.804688 166.761719 "/>
<path style="fill:none;stroke-width:0.85;stroke-linecap:round;stroke-linejoin:round;stroke:rgb(0%,0%,0%);stroke-opacity:1;comp-op:src;clip-to-self:true;stroke-miterlimit:10;" d="M 141.375 164.769531 L 141.375 164.769531 "/>
<path style="fill:none;stroke-width:0.85;stroke-linecap:round;stroke-linejoin:round;stroke:rgb(0%,0%,0%);stroke-opacity:1;comp-op:src;clip-to-self:true;stroke-miterlimit:10;" d="M 142.371094 163.277344 L 142.371094 166.265625 "/>
<path style="fill:none;stroke-width:0.85;stroke-linecap:round;stroke-linejoin:round;stroke:rgb(0%,0%,0%);stroke-opacity:1;comp-op:src;clip-to-self:true;stroke-miterlimit:10;" d="M 156.308594 164.273438 L 156.804688 165.765625 L 157.304688 165.765625 "/>
<path style="fill:none;stroke-width:0.85;stroke-linecap:round;stroke-linejoin:round;stroke:rgb(0%,0%,0%);stroke-opacity:1;comp-op:src;clip-to-self:true;stroke-miterlimit:10;" d="M 99.0625 69.691406 L 99.558594 70.1875 L 99.558594 73.671875 L 100.058594 73.671875 L 100.058594 74.171875 L 99.558594 74.171875 L 100.058594 74.667969 L 100.058594 80.644531 L 100.554688 80.644531 L 100.554688 93.585938 L 100.058594 94.082031 L 100.058594 97.070313 L 99.558594 97.566406 L 99.558594 112.003906 L 99.0625 112.5 L 99.0625 119.472656 L 99.558594 119.472656 L 99.558594 123.949219 L 100.058594 123.949219 L 100.058594 125.941406 "/>
<path style="fill:none;stroke-width:0.85;stroke-linecap:round;stroke-linejoin:round;stroke:rgb(0%,0%,0%);stroke-opacity:1;comp-op:src;clip-to-self:true;stroke-miterlimit:10;" d="M 99.558594 69.691406 L 122.457031 69.691406 L 122.957031 70.1875 L 124.945313 70.1875 L 124.945313 70.6875 L 127.4375 70.6875 L 127.4375 71.183594 L 145.855469 71.183594 L 145.855469 70.6875 L 147.347656 70.6875 L 147.84375 71.183594 L 147.84375 70.6875 L 148.839844 70.6875 L 148.839844 71.183594 L 154.316406 71.183594 L 154.316406 71.683594 "/>
<path style="fill:none;stroke-width:0.85;stroke-linecap:round;stroke-linejoin:round;stroke:rgb(0%,0%,0%);stroke-opacity:1;comp-op:src;clip-to-self:true;stroke-miterlimit:10;" d="M 100.058594 125.941406 L 99.558594 126.441406 L 99.558594 132.910156 L 100.058594 132.910156 L 100.058594 136.394531 L 99.558594 136.894531 L 99.558594 142.371094 L 99.0625 142.867188 L 99.0625 148.839844 L 98.5625 148.839844 L 98.5625 153.320313 L 99.0625 153.820313 L 100.058594 153.820313 L 100.058594 154.316406 L 101.550781 154.316406 "/>
<path style="fill:none;stroke-width:0.85;stroke-linecap:round;stroke-linejoin:round;stroke:rgb(0%,0%,0%);stroke-opacity:1;comp-op:src;clip-to-self:true;stroke-miterlimit:10;" d="M 153.320313 71.183594 L 154.816406 70.6875 L 156.308594 70.6875 L 156.308594 70.1875 L 161.285156 70.1875 L 161.785156 69.691406 L 167.257813 69.691406 L 167.757813 70.1875 L 179.703125 70.1875 L 179.703125 70.6875 L 181.695313 70.6875 L 181.695313 71.183594 L 184.183594 71.183594 L 184.183594 82.632813 L 184.683594 82.632813 L 184.683594 87.113281 L 185.179688 87.613281 L 185.179688 100.058594 L 184.683594 100.058594 L 185.179688 100.554688 L 185.179688 101.050781 L 184.683594 101.550781 L 184.683594 108.519531 L 184.183594 108.519531 L 184.183594 113.496094 L 183.6875 113.496094 L 183.6875 120.464844 L 183.1875 120.964844 L 183.1875 123.949219 L 183.6875 124.449219 L 183.6875 124.945313 L 183.1875 125.445313 L 183.6875 125.445313 L 183.6875 155.3125 L 183.1875 155.808594 "/>
<path style="fill:none;stroke-width:0.85;stroke-linecap:round;stroke-linejoin:round;stroke:rgb(0%,0%,0%);stroke-opacity:1;comp-op:src;clip-to-self:true;stroke-miterlimit:10;" d="M 100.554688 154.316406 L 102.546875 154.316406 L 102.546875 154.816406 L 109.015625 154.816406 L 109.015625 155.3125 L 111.507813 155.3125 L 111.507813 155.808594 L 115.988281 155.808594 L 115.988281 156.308594 L 120.464844 156.308594 L 120.464844 156.804688 L 124.449219 156.804688 L 124.449219 156.308594 L 147.347656 156.308594 L 147.347656 156.804688 L 180.203125 156.804688 L 180.699219 156.308594 L 183.1875 156.308594 L 183.6875 155.808594 L 184.183594 155.808594 "/>
<path style="fill:none;stroke-width:0.85;stroke-linecap:round;stroke-linejoin:round;stroke:rgb(100%,50.196078%,0%);stroke-opacity:1;comp-op:src;clip-to-self:true;stroke-miterlimit:10;" d="M 100.554688 126.441406 L 100.058594 126.9375 L 100.058594 129.925781 L 100.554688 130.421875 L 100.554688 132.910156 L 101.050781 132.910156 L 101.050781 139.878906 L 100.554688 139.878906 L 100.554688 142.867188 L 100.058594 142.867188 L 100.058594 147.84375 L 99.558594 147.84375 L 99.558594 151.328125 L 100.058594 151.328125 L 100.058594 152.324219 L 99.558594 152.824219 "/>
<path style="fill:none;stroke-width:0.85;stroke-linecap:round;stroke-linejoin:round;stroke:rgb(100%,50.196078%,0%);stroke-opacity:1;comp-op:src;clip-to-self:true;stroke-miterlimit:10;" d="M 98.5625 126.9375 L 102.046875 126.9375 L 102.546875 126.441406 L 106.527344 126.441406 L 106.527344 125.941406 L 116.484375 125.941406 L 116.980469 126.441406 L 116.980469 125.941406 L 117.480469 126.441406 L 123.453125 126.441406 L 123.949219 126.9375 L 128.429688 126.9375 L 128.429688 137.890625 L 127.933594 138.386719 L 127.933594 140.378906 L 128.429688 140.378906 L 127.933594 140.875 L 127.933594 149.339844 L 128.429688 149.339844 L 128.429688 153.320313 L 128.929688 153.320313 L 128.929688 155.3125 L 128.429688 155.808594 L 128.429688 156.308594 "/>
<path style="fill:none;stroke-width:0.85;stroke-linecap:round;stroke-linejoin:round;stroke:rgb(100%,50.196078%,0%);stroke-opacity:1;comp-op:src;clip-to-self:true;stroke-miterlimit:10;" d="M 99.0625 151.328125 L 99.0625 153.820313 L 99.558594 153.820313 L 99.558594 154.816406 L 100.058594 154.816406 L 100.058594 155.3125 L 101.050781 155.3125 L 101.550781 155.808594 L 108.519531 155.808594 L 108.519531 155.3125 L 113 155.3125 L 113 154.816406 L 115.988281 154.816406 L 115.988281 155.3125 L 126.441406 155.3125 L 126.9375 155.808594 L 126.9375 155.3125 L 127.4375 155.808594 L 127.933594 155.808594 "/>
<path style="fill:none;stroke-width:0.85;stroke-linecap:round;stroke-linejoin:round;stroke:rgb(100%,50.196078%,0%);stroke-opacity:1;comp-op:src;clip-to-self:true;stroke-miterlimit:10;" d="M 101.550781 132.414063 L 103.542969 131.417969 L 105.035156 129.925781 L 105.53125 129.925781 L 106.527344 128.929688 L 107.027344 128.929688 L 107.523438 128.429688 L 108.023438 128.429688 "/>
<path style="fill:none;stroke-width:0.85;stroke-linecap:round;stroke-linejoin:round;stroke:rgb(100%,50.196078%,0%);stroke-opacity:1;comp-op:src;clip-to-self:true;stroke-miterlimit:10;" d="M 101.550781 138.386719 L 104.039063 137.390625 L 104.039063 136.894531 L 104.539063 136.894531 L 105.035156 136.394531 L 105.53125 135.898438 L 106.03125 135.402344 L 106.527344 135.402344 L 107.027344 134.902344 L 107.523438 134.902344 L 107.523438 134.40625 L 108.023438 133.90625 L 108.519531 133.90625 L 109.015625 133.410156 L 109.515625 133.410156 L 110.011719 132.910156 L 110.511719 132.414063 L 111.007813 132.414063 L 112.003906 131.417969 L 112.5 131.417969 L 113 130.921875 L 113.496094 130.921875 L 113.496094 130.421875 L 114.492188 130.421875 L 114.992188 129.925781 L 115.988281 129.925781 "/>
<path style="fill:none;stroke-width:0.85;stroke-linecap:round;stroke-linejoin:round;stroke:rgb(100%,50.196078%,0%);stroke-opacity:1;comp-op:src;clip-to-self:true;stroke-miterlimit:10;" d="M 102.546875 144.859375 L 105.035156 142.867188 L 105.53125 142.867188 L 106.03125 142.371094 L 106.527344 141.871094 L 107.027344 141.375 L 107.523438 140.875 L 108.023438 140.378906 L 108.519531 139.878906 L 109.015625 139.382813 L 109.515625 138.886719 L 110.011719 138.886719 L 111.007813 137.890625 L 111.507813 137.890625 L 112.003906 137.390625 L 113.496094 135.898438 L 113.996094 135.898438 L 114.492188 135.402344 L 114.492188 134.902344 L 114.992188 134.902344 L 115.488281 134.40625 L 115.988281 134.40625 L 115.988281 133.90625 L 116.484375 133.90625 L 116.980469 133.410156 L 116.980469 132.910156 L 117.976563 132.910156 L 117.976563 132.414063 L 118.476563 132.414063 L 118.476563 131.914063 L 118.972656 131.914063 L 118.972656 131.417969 L 119.472656 131.417969 L 119.96875 130.921875 "/>
<path style="fill:none;stroke-width:0.85;stroke-linecap:round;stroke-linejoin:round;stroke:rgb(100%,50.196078%,0%);stroke-opacity:1;comp-op:src;clip-to-self:true;stroke-miterlimit:10;" d="M 106.527344 148.34375 L 109.015625 146.351563 L 109.515625 146.351563 L 110.011719 145.855469 L 110.011719 145.355469 L 111.007813 144.859375 L 111.007813 144.359375 L 111.507813 143.863281 L 112.003906 143.363281 L 112.5 143.363281 L 113 142.867188 L 113 142.371094 L 113.496094 141.871094 L 114.492188 141.375 L 115.988281 139.878906 L 116.484375 139.878906 L 116.980469 139.382813 L 116.980469 138.886719 L 117.480469 138.886719 L 117.976563 138.386719 L 118.476563 138.386719 L 118.972656 137.890625 L 118.972656 137.390625 L 119.472656 137.390625 L 119.472656 136.894531 L 119.96875 136.894531 L 120.464844 136.394531 L 120.964844 136.394531 L 120.964844 135.898438 L 121.460938 135.898438 "/>
<path style="fill:none;stroke-width:0.85;stroke-linecap:round;stroke-linejoin:round;stroke:rgb(100%,50.196078%,0%);stroke-opacity:1;comp-op:src;clip-to-self:true;stroke-miterlimit:10;" d="M 114.492188 148.839844 L 115.988281 147.347656 L 116.484375 147.347656 L 116.484375 146.851563 L 116.980469 146.851563 L 116.980469 146.351563 L 117.480469 146.351563 L 117.480469 145.855469 L 117.976563 145.855469 L 117.976563 145.355469 L 118.476563 144.859375 L 118.972656 144.359375 L 119.472656 143.863281 L 119.96875 143.363281 L 119.96875 142.867188 L 120.464844 142.867188 L 120.464844 142.371094 L 120.964844 142.371094 L 120.964844 141.871094 L 121.960938 140.875 L 122.457031 140.875 "/>
<path style="fill:none;stroke-width:0.85;stroke-linecap:round;stroke-linejoin:round;stroke:rgb(100%,50.196078%,0%);stroke-opacity:1;comp-op:src;clip-to-self:true;stroke-miterlimit:10;" d="M 119.96875 150.832031 L 121.960938 149.339844 L 122.457031 148.839844 L 122.457031 148.34375 L 122.957031 148.34375 L 122.957031 147.84375 L 123.453125 147.84375 L 123.453125 147.347656 L 123.949219 147.347656 L 123.949219 146.851563 "/>
<path style="fill:none;stroke-width:0.85;stroke-linecap:round;stroke-linejoin:round;stroke:rgb(0%,50.196078%,0%);stroke-opacity:1;comp-op:src;clip-to-self:true;stroke-miterlimit:10;" d="M 106.03125 87.613281 L 117.976563 77.65625 L 118.476563 77.160156 L 118.972656 76.660156 "/>
<path style="fill:none;stroke-width:0.85;stroke-linecap:round;stroke-linejoin:round;stroke:rgb(0%,50.196078%,0%);stroke-opacity:1;comp-op:src;clip-to-self:true;stroke-miterlimit:10;" d="M 105.035156 104.039063 L 130.921875 82.136719 L 131.417969 81.636719 L 132.414063 81.140625 L 133.90625 80.144531 L 134.40625 79.648438 L 134.902344 79.148438 L 135.402344 78.652344 L 135.898438 78.652344 L 136.394531 78.152344 L 136.894531 78.152344 L 136.894531 77.65625 "/>
<path style="fill:none;stroke-width:0.85;stroke-linecap:round;stroke-linejoin:round;stroke:rgb(0%,50.196078%,0%);stroke-opacity:1;comp-op:src;clip-to-self:true;stroke-miterlimit:10;" d="M 111.507813 116.980469 L 149.339844 85.125 L 150.335938 84.625 L 150.832031 84.128906 L 151.828125 83.628906 L 152.324219 83.132813 L 154.316406 81.636719 L 154.816406 81.140625 L 155.3125 81.140625 L 156.308594 80.144531 "/>
<path style="fill:none;stroke-width:0.85;stroke-linecap:round;stroke-linejoin:round;stroke:rgb(0%,50.196078%,0%);stroke-opacity:1;comp-op:src;clip-to-self:true;stroke-miterlimit:10;" d="M 133.410156 123.453125 L 168.253906 89.105469 "/>
<path style="fill:none;stroke-width:0.85;stroke-linecap:round;stroke-linejoin:round;stroke:rgb(0%,50.196078%,0%);stroke-opacity:1;comp-op:src;clip-to-self:true;stroke-miterlimit:10;" d="M 137.890625 137.890625 L 138.886719 138.386719 L 139.382813 137.890625 L 139.878906 137.890625 L 141.871094 135.898438 L 142.867188 135.402344 L 143.363281 134.40625 L 144.359375 133.90625 L 144.859375 133.410156 L 145.855469 132.414063 L 146.851563 131.914063 L 147.347656 130.921875 L 148.34375 130.421875 L 149.835938 129.425781 L 150.832031 128.429688 L 151.828125 127.4375 L 152.824219 126.9375 L 154.816406 124.945313 L 156.308594 123.949219 L 157.304688 123.453125 L 158.300781 122.457031 L 159.292969 121.960938 L 160.289063 120.964844 L 161.285156 120.464844 L 162.777344 119.472656 L 163.277344 118.476563 L 164.273438 117.976563 L 165.269531 117.480469 L 165.765625 116.980469 L 166.761719 115.988281 L 167.757813 115.488281 L 169.75 113.496094 "/>
<path style="fill:none;stroke-width:0.85;stroke-linecap:round;stroke-linejoin:round;stroke:rgb(0%,50.196078%,0%);stroke-opacity:1;comp-op:src;clip-to-self:true;stroke-miterlimit:10;" d="M 147.347656 149.835938 L 175.222656 126.9375 "/>
<path style="fill:none;stroke-width:0.85;stroke-linecap:round;stroke-linejoin:round;stroke:rgb(0%,50.196078%,0%);stroke-opacity:1;comp-op:src;clip-to-self:true;stroke-miterlimit:10;" d="M 164.273438 151.828125 L 165.765625 150.832031 L 166.265625 150.335938 L 166.761719 150.335938 L 166.761719 149.835938 L 167.257813 149.339844 L 167.757813 149.339844 L 167.757813 148.839844 L 168.253906 148.839844 L 168.253906 148.34375 L 168.753906 148.34375 L 169.25 147.84375 L 170.246094 147.347656 L 170.246094 146.851563 L 170.742188 146.351563 L 171.738281 145.855469 L 172.734375 144.859375 L 173.234375 144.859375 L 173.730469 144.359375 L 174.230469 143.863281 L 174.726563 143.363281 L 175.222656 143.363281 L 175.722656 142.867188 L 176.21875 142.371094 L 176.71875 142.371094 L 176.71875 141.871094 "/>
<path style="fill:none;stroke-width:0.85;stroke-linecap:round;stroke-linejoin:round;stroke:rgb(0%,0%,0%);stroke-opacity:1;comp-op:src;clip-to-self:true;stroke-miterlimit:10;" d="M 226.996094 68.695313 L 227.492188 69.195313 L 227.492188 72.679688 L 227.992188 72.679688 L 227.992188 73.175781 L 227.492188 73.175781 L 227.992188 73.671875 L 227.992188 79.648438 L 228.488281 79.648438 L 228.488281 92.589844 L 227.992188 93.085938 L 227.992188 96.074219 L 227.492188 96.574219 L 227.492188 111.007813 L 226.996094 111.507813 L 226.996094 118.476563 L 227.492188 118.476563 L 227.492188 122.957031 L 227.992188 122.957031 L 227.992188 124.945313 "/>
<path style="fill:none;stroke-width:0.85;stroke-linecap:round;stroke-linejoin:round;stroke:rgb(0%,0%,0%);stroke-opacity:1;comp-op:src;clip-to-self:true;stroke-miterlimit:10;" d="M 227.492188 68.695313 L 250.390625 68.695313 L 250.890625 69.195313 L 252.878906 69.195313 L 252.878906 69.691406 L 255.371094 69.691406 L 255.371094 70.1875 L 273.789063 70.1875 L 273.789063 69.691406 L 275.28125 69.691406 L 275.777344 70.1875 L 275.777344 69.691406 L 276.773438 69.691406 L 276.773438 70.1875 L 282.25 70.1875 L 282.25 70.6875 "/>
<path style="fill:none;stroke-width:0.85;stroke-linecap:round;stroke-linejoin:round;stroke:rgb(0%,0%,0%);stroke-opacity:1;comp-op:src;clip-to-self:true;stroke-miterlimit:10;" d="M 227.992188 124.945313 L 227.492188 125.445313 L 227.492188 131.914063 L 227.992188 131.914063 L 227.992188 135.402344 L 227.492188 135.898438 L 227.492188 141.375 L 226.996094 141.871094 L 226.996094 147.84375 L 226.496094 147.84375 L 226.496094 152.324219 L 226.996094 152.824219 L 227.992188 152.824219 L 227.992188 153.320313 L 229.484375 153.320313 "/>
<path style="fill:none;stroke-width:0.85;stroke-linecap:round;stroke-linejoin:round;stroke:rgb(0%,0%,0%);stroke-opacity:1;comp-op:src;clip-to-self:true;stroke-miterlimit:10;" d="M 281.253906 70.1875 L 282.746094 69.691406 L 284.242188 69.691406 L 284.242188 69.195313 L 289.21875 69.195313 L 289.71875 68.695313 L 295.191406 68.695313 L 295.691406 69.195313 L 307.636719 69.195313 L 307.636719 69.691406 L 309.628906 69.691406 L 309.628906 70.1875 L 312.117188 70.1875 L 312.117188 81.636719 L 312.617188 81.636719 L 312.617188 86.117188 L 313.113281 86.617188 L 313.113281 99.0625 L 312.617188 99.0625 L 313.113281 99.558594 L 313.113281 100.058594 L 312.617188 100.554688 L 312.617188 107.523438 L 312.117188 107.523438 L 312.117188 112.5 L 311.621094 112.5 L 311.621094 119.472656 L 311.121094 119.96875 L 311.121094 122.957031 L 311.621094 123.453125 L 311.621094 123.949219 L 311.121094 124.449219 L 311.621094 124.449219 L 311.621094 154.316406 L 311.121094 154.816406 "/>
<path style="fill:none;stroke-width:0.85;stroke-linecap:round;stroke-linejoin:round;stroke:rgb(0%,0%,0%);stroke-opacity:1;comp-op:src;clip-to-self:true;stroke-miterlimit:10;" d="M 228.488281 153.320313 L 230.480469 153.320313 L 230.480469 153.820313 L 236.949219 153.820313 L 236.949219 154.316406 L 239.441406 154.316406 L 239.441406 154.816406 L 243.921875 154.816406 L 243.921875 155.3125 L 248.398438 155.3125 L 248.398438 155.808594 L 252.382813 155.808594 L 252.382813 155.3125 L 275.28125 155.3125 L 275.28125 155.808594 L 308.136719 155.808594 L 308.632813 155.3125 L 311.121094 155.3125 L 311.621094 154.816406 L 312.117188 154.816406 "/>
<path style="fill:none;stroke-width:0.85;stroke-linecap:round;stroke-linejoin:round;stroke:rgb(100%,50.196078%,0%);stroke-opacity:1;comp-op:src;clip-to-self:true;stroke-miterlimit:10;" d="M 228.488281 125.445313 L 227.992188 125.941406 L 227.992188 128.929688 L 228.488281 129.425781 L 228.488281 131.914063 L 228.984375 131.914063 L 228.984375 138.886719 L 228.488281 138.886719 L 228.488281 141.871094 L 227.992188 141.871094 L 227.992188 146.851563 L 227.492188 146.851563 L 227.492188 150.335938 L 227.992188 150.335938 L 227.992188 151.328125 L 227.492188 151.828125 "/>
<path style="fill:none;stroke-width:0.85;stroke-linecap:round;stroke-linejoin:round;stroke:rgb(100%,50.196078%,0%);stroke-opacity:1;comp-op:src;clip-to-self:true;stroke-miterlimit:10;" d="M 226.496094 125.941406 L 229.980469 125.941406 L 230.480469 125.445313 L 234.460938 125.445313 L 234.460938 124.945313 L 244.417969 124.945313 L 244.914063 125.445313 L 244.914063 124.945313 L 245.414063 125.445313 L 251.386719 125.445313 L 251.882813 125.941406 L 253.875 125.941406 "/>
<path style="fill:none;stroke-width:0.85;stroke-linecap:round;stroke-linejoin:round;stroke:rgb(100%,50.196078%,0%);stroke-opacity:1;comp-op:src;clip-to-self:true;stroke-miterlimit:10;" d="M 256.363281 127.933594 L 256.363281 136.894531 L 255.867188 137.390625 L 255.867188 139.382813 L 256.363281 139.382813 L 255.867188 139.878906 L 255.867188 148.34375 L 256.363281 148.34375 L 256.363281 152.324219 L 256.863281 152.324219 L 256.863281 154.316406 L 256.363281 154.816406 L 256.363281 155.3125 "/>
<path style="fill:none;stroke-width:0.85;stroke-linecap:round;stroke-linejoin:round;stroke:rgb(100%,50.196078%,0%);stroke-opacity:1;comp-op:src;clip-to-self:true;stroke-miterlimit:10;" d="M 226.996094 150.335938 L 226.996094 152.824219 L 227.492188 152.824219 L 227.492188 153.820313 L 227.992188 153.820313 L 227.992188 154.316406 L 228.984375 154.316406 L 229.484375 154.816406 L 236.453125 154.816406 L 236.453125 154.316406 L 240.933594 154.316406 L 240.933594 153.820313 L 243.921875 153.820313 L 243.921875 154.316406 L 254.375 154.316406 L 254.871094 154.816406 L 254.871094 154.316406 L 255.371094 154.816406 L 255.867188 154.816406 "/>
<path style="fill:none;stroke-width:0.85;stroke-linecap:round;stroke-linejoin:round;stroke:rgb(100%,50.196078%,0%);stroke-opacity:1;comp-op:src;clip-to-self:true;stroke-miterlimit:10;" d="M 230.480469 143.863281 L 232.96875 141.871094 L 233.464844 141.871094 L 233.964844 141.375 L 234.460938 140.875 L 234.960938 140.378906 L 235.457031 139.878906 L 235.957031 139.382813 L 236.453125 138.886719 L 236.949219 138.386719 L 237.449219 137.890625 L 237.945313 137.890625 L 238.941406 136.894531 L 239.441406 136.894531 L 239.9375 136.394531 L 240.433594 135.898438 L 240.933594 135.402344 L 241.429688 134.902344 L 241.929688 134.902344 L 242.425781 134.40625 L 242.425781 133.90625 L 242.925781 133.90625 L 243.421875 133.410156 L 243.921875 133.410156 L 243.921875 132.910156 L 244.417969 132.910156 L 244.914063 132.414063 L 244.914063 131.914063 L 245.910156 131.914063 L 245.910156 131.417969 L 246.410156 131.417969 L 246.410156 130.921875 L 246.90625 130.921875 L 246.90625 130.421875 L 247.40625 130.421875 L 247.902344 129.925781 "/>
<path style="fill:none;stroke-width:0.85;stroke-linecap:round;stroke-linejoin:round;stroke:rgb(0%,50.196078%,0%);stroke-opacity:1;comp-op:src;clip-to-self:true;stroke-miterlimit:10;" d="M 265.824219 136.894531 L 266.820313 137.390625 L 267.316406 136.894531 L 267.8125 136.894531 L 268.808594 135.898438 L 269.308594 135.402344 L 269.804688 134.902344 L 270.800781 134.40625 L 271.296875 133.410156 L 272.292969 132.910156 L 272.792969 132.414063 L 273.789063 131.417969 L 274.785156 130.921875 L 275.28125 129.925781 L 276.277344 129.425781 L 277.769531 128.429688 L 278.765625 127.4375 L 279.761719 126.441406 L 280.757813 125.941406 L 281.753906 124.945313 L 282.746094 123.949219 L 284.242188 122.957031 L 285.238281 122.457031 L 286.234375 121.460938 L 287.226563 120.964844 L 288.222656 119.96875 L 289.21875 119.472656 L 290.710938 118.476563 L 291.210938 117.480469 L 292.207031 116.980469 L 293.203125 116.484375 L 294.695313 114.992188 L 295.691406 114.492188 L 297.683594 112.5 "/>
<path style="fill:none;stroke-width:0.85;stroke-linecap:round;stroke-linejoin:round;stroke:rgb(0%,50.196078%,0%);stroke-opacity:1;comp-op:src;clip-to-self:true;stroke-miterlimit:10;" d="M 275.28125 148.839844 L 303.15625 125.941406 "/>
<path style="fill:none;stroke-width:0.85;stroke-linecap:round;stroke-linejoin:round;stroke:rgb(0%,50.196078%,0%);stroke-opacity:1;comp-op:src;clip-to-self:true;stroke-miterlimit:10;" d="M 292.207031 150.832031 L 293.699219 149.835938 L 294.199219 149.339844 L 294.695313 149.339844 L 294.695313 148.839844 L 295.191406 148.34375 L 295.691406 148.34375 L 295.691406 147.84375 L 296.1875 147.84375 L 296.1875 147.347656 L 296.6875 147.347656 L 297.183594 146.851563 L 298.179688 146.351563 L 298.179688 145.855469 L 298.675781 145.355469 L 299.671875 144.859375 L 300.667969 143.863281 L 301.167969 143.863281 L 301.664063 143.363281 L 302.160156 142.867188 L 302.660156 142.371094 L 303.15625 142.371094 L 304.152344 141.375 L 304.652344 141.375 L 304.652344 140.875 "/>
<path style="fill:none;stroke-width:0.85;stroke-linecap:round;stroke-linejoin:round;stroke:rgb(100%,0%,0%);stroke-opacity:1;comp-op:src;clip-to-self:true;stroke-dasharray:6,3;stroke-miterlimit:10;" d="M 255.371094 125.445313 L 255.867188 124.945313 L 255.867188 120.464844 L 256.363281 120.464844 L 256.363281 111.507813 L 255.867188 111.507813 L 255.867188 107.027344 L 255.371094 106.527344 L 255.371094 96.074219 L 255.867188 96.074219 L 255.867188 88.109375 L 255.371094 88.109375 L 255.371094 74.667969 L 255.867188 74.667969 L 255.867188 67.699219 L 255.371094 67.699219 "/>
<path style="fill:none;stroke-width:0.85;stroke-linecap:round;stroke-linejoin:round;stroke:rgb(0%,50.196078%,0%);stroke-opacity:1;comp-op:src;clip-to-self:true;stroke-miterlimit:10;" d="M 263.832031 117.976563 L 292.207031 92.09375 L 292.703125 91.59375 L 293.203125 91.097656 "/>
<path style="fill:none;stroke-width:0.85;stroke-linecap:round;stroke-linejoin:round;stroke:rgb(0%,50.196078%,0%);stroke-opacity:1;comp-op:src;clip-to-self:true;stroke-miterlimit:10;" d="M 264.828125 95.078125 L 263.832031 95.578125 L 264.328125 95.078125 L 264.328125 94.582031 L 265.324219 93.585938 L 265.824219 93.585938 L 266.320313 92.589844 L 266.820313 92.09375 L 267.316406 91.59375 L 267.8125 91.097656 L 268.3125 90.101563 L 268.808594 89.601563 L 269.308594 89.105469 L 270.304688 88.609375 L 270.800781 87.613281 L 271.296875 87.113281 L 271.796875 86.617188 L 273.789063 84.625 L 274.785156 84.128906 L 275.28125 83.628906 L 276.277344 83.132813 L 276.773438 82.632813 L 277.273438 81.636719 L 277.769531 81.636719 L 278.269531 81.140625 L 279.261719 80.644531 L 281.253906 78.652344 L 281.753906 78.652344 L 282.25 78.152344 L 282.746094 77.65625 L 283.246094 77.160156 L 283.742188 77.160156 L 284.242188 76.164063 L 284.738281 76.164063 L 285.238281 75.664063 L 286.730469 74.667969 L 287.226563 74.171875 L 287.726563 74.171875 L 287.726563 73.671875 "/>
<path style="fill:none;stroke-width:0.85;stroke-linecap:round;stroke-linejoin:round;stroke:rgb(0%,50.196078%,0%);stroke-opacity:1;comp-op:src;clip-to-self:true;stroke-miterlimit:10;" d="M 233.964844 115.988281 L 235.957031 113.996094 L 236.453125 113.496094 L 236.949219 113 L 237.449219 113 L 237.449219 112.5 L 237.945313 112.003906 L 238.445313 111.507813 L 238.941406 111.507813 L 238.941406 111.007813 L 239.441406 110.511719 L 239.9375 110.011719 L 240.433594 109.515625 L 240.933594 109.515625 L 241.429688 109.015625 L 241.929688 108.519531 L 242.425781 108.023438 L 242.925781 108.023438 L 243.421875 107.523438 L 243.421875 107.027344 L 243.921875 106.527344 L 244.417969 106.527344 L 245.414063 105.53125 L 245.910156 105.53125 L 245.910156 105.035156 L 246.410156 104.539063 L 246.90625 104.539063 L 247.902344 103.542969 L 248.398438 103.042969 L 248.898438 102.546875 L 249.394531 102.546875 L 249.394531 102.046875 L 249.894531 102.046875 L 249.894531 101.550781 L 250.390625 101.550781 L 251.882813 100.058594 "/>
<path style="fill:none;stroke-width:0.85;stroke-linecap:round;stroke-linejoin:round;stroke:rgb(0%,50.196078%,0%);stroke-opacity:1;comp-op:src;clip-to-self:true;stroke-miterlimit:10;" d="M 233.464844 103.042969 L 249.894531 87.613281 L 250.390625 87.613281 L 250.390625 87.113281 "/>
<path style="fill:none;stroke-width:0.85;stroke-linecap:round;stroke-linejoin:round;stroke:rgb(0%,50.196078%,0%);stroke-opacity:1;comp-op:src;clip-to-self:true;stroke-miterlimit:10;" d="M 234.960938 86.617188 L 246.410156 77.160156 L 246.90625 76.660156 "/>
<path style="fill:none;stroke-width:0.85;stroke-linecap:round;stroke-linejoin:round;stroke:rgb(100%,50.196078%,0%);stroke-opacity:1;comp-op:src;clip-to-self:true;stroke-miterlimit:10;" d="M 229.484375 131.417969 L 231.476563 130.421875 L 231.972656 129.925781 L 232.46875 129.425781 L 232.96875 128.929688 L 233.464844 128.929688 L 234.460938 127.933594 L 234.960938 127.933594 L 235.457031 127.4375 L 235.957031 127.4375 "/>
<path style="fill:none;stroke-width:0.85;stroke-linecap:round;stroke-linejoin:round;stroke:rgb(100%,50.196078%,0%);stroke-opacity:1;comp-op:src;clip-to-self:true;stroke-miterlimit:10;" d="M 229.484375 137.390625 L 231.972656 136.394531 L 231.972656 135.898438 L 232.46875 135.898438 L 232.96875 135.402344 L 233.464844 134.902344 L 233.964844 134.40625 L 234.460938 134.40625 L 234.960938 133.90625 L 235.457031 133.90625 L 235.457031 133.410156 L 235.957031 132.910156 L 236.453125 132.910156 L 236.949219 132.414063 L 237.449219 132.414063 L 237.945313 131.914063 L 238.445313 131.417969 L 238.941406 131.417969 L 239.441406 130.921875 L 239.9375 130.421875 L 240.433594 130.421875 L 240.933594 129.925781 L 241.429688 129.925781 L 241.429688 129.425781 L 242.425781 129.425781 L 242.925781 128.929688 L 243.921875 128.929688 "/>
<path style="fill:none;stroke-width:0.85;stroke-linecap:round;stroke-linejoin:round;stroke:rgb(100%,50.196078%,0%);stroke-opacity:1;comp-op:src;clip-to-self:true;stroke-miterlimit:10;" d="M 234.460938 147.347656 L 236.949219 145.355469 L 237.449219 145.355469 L 237.945313 144.859375 L 237.945313 144.359375 L 238.941406 143.863281 L 238.941406 143.363281 L 239.441406 142.867188 L 239.9375 142.371094 L 240.433594 142.371094 L 240.933594 141.871094 L 240.933594 141.375 L 241.429688 140.875 L 242.425781 140.378906 L 243.421875 139.382813 L 243.921875 138.886719 L 244.417969 138.886719 L 244.914063 138.386719 L 244.914063 137.890625 L 245.414063 137.890625 L 245.910156 137.390625 L 246.410156 137.390625 L 246.90625 136.894531 L 246.90625 136.394531 L 247.40625 136.394531 L 247.40625 135.898438 L 247.902344 135.898438 L 248.398438 135.402344 L 248.898438 135.402344 L 248.898438 134.902344 L 249.394531 134.902344 "/>
<path style="fill:none;stroke-width:0.85;stroke-linecap:round;stroke-linejoin:round;stroke:rgb(100%,50.196078%,0%);stroke-opacity:1;comp-op:src;clip-to-self:true;stroke-miterlimit:10;" d="M 242.425781 147.84375 L 243.921875 146.351563 L 244.417969 146.351563 L 244.417969 145.855469 L 244.914063 145.855469 L 244.914063 145.355469 L 245.414063 145.355469 L 245.414063 144.859375 L 245.910156 144.859375 L 245.910156 144.359375 L 246.410156 143.863281 L 246.90625 143.363281 L 247.40625 142.867188 L 247.902344 142.371094 L 247.902344 141.871094 L 248.398438 141.871094 L 248.398438 141.375 L 248.898438 141.375 L 248.898438 140.875 L 249.894531 139.878906 L 250.390625 139.878906 "/>
<path style="fill:none;stroke-width:0.85;stroke-linecap:round;stroke-linejoin:round;stroke:rgb(100%,50.196078%,0%);stroke-opacity:1;comp-op:src;clip-to-self:true;stroke-miterlimit:10;" d="M 247.902344 149.835938 L 249.894531 148.34375 L 250.390625 147.84375 L 250.390625 147.347656 L 250.890625 147.347656 L 250.890625 146.851563 L 251.386719 146.851563 L 251.386719 146.351563 L 251.882813 146.351563 L 251.882813 145.855469 "/>
<path style="fill:none;stroke-width:0.85;stroke-linecap:round;stroke-linejoin:round;stroke:rgb(0%,0%,0%);stroke-opacity:1;comp-op:src;clip-to-self:true;stroke-miterlimit:10;" d="M 220.027344 98.066406 L 218.035156 97.070313 L 217.535156 96.574219 L 217.039063 96.074219 L 216.542969 96.074219 L 216.542969 95.578125 L 216.042969 95.078125 L 216.042969 94.582031 L 215.546875 94.582031 L 215.046875 94.082031 L 215.046875 93.585938 L 214.550781 93.085938 L 214.050781 92.589844 L 214.050781 92.09375 L 213.554688 92.09375 L 213.554688 91.097656 L 212.558594 90.101563 L 212.558594 89.601563 L 212.0625 89.105469 L 212.0625 88.609375 L 211.5625 87.613281 L 211.066406 87.113281 L 211.066406 86.117188 L 210.566406 85.621094 L 210.566406 84.625 L 210.070313 84.128906 L 210.070313 83.628906 L 209.570313 82.632813 L 209.570313 82.136719 L 209.074219 81.140625 L 209.074219 80.144531 L 208.578125 79.148438 L 208.578125 77.65625 L 208.078125 77.160156 L 208.078125 76.164063 L 207.582031 75.167969 L 207.582031 67.699219 L 208.078125 67.699219 L 208.078125 65.710938 L 208.578125 65.210938 L 208.578125 64.714844 L 209.074219 64.214844 L 209.074219 63.71875 L 209.570313 62.722656 L 209.570313 62.222656 L 210.070313 61.726563 L 210.070313 61.230469 L 210.566406 60.730469 L 211.066406 60.234375 L 211.5625 59.734375 L 212.0625 58.738281 L 212.558594 58.242188 L 212.558594 57.746094 L 213.054688 57.246094 L 213.054688 56.75 L 215.046875 54.757813 L 215.046875 54.257813 L 215.546875 54.257813 L 216.042969 53.761719 L 216.542969 53.265625 L 216.542969 52.765625 L 217.039063 52.765625 L 219.03125 50.773438 L 219.527344 50.773438 L 220.027344 50.277344 L 220.027344 49.78125 L 220.523438 49.78125 L 221.519531 48.785156 L 222.015625 48.785156 L 223.511719 47.289063 L 224.007813 47.289063 L 224.507813 46.792969 L 225.003906 46.296875 L 225.5 46.296875 L 225.5 45.796875 L 226.496094 45.300781 L 226.996094 45.300781 L 227.492188 44.800781 L 228.488281 44.304688 L 228.984375 44.304688 L 229.484375 43.804688 L 229.980469 43.804688 L 230.480469 43.308594 L 231.476563 43.308594 L 232.46875 42.808594 L 232.46875 42.3125 L 232.96875 42.3125 L 233.964844 41.816406 L 234.460938 41.816406 L 234.960938 41.316406 L 235.957031 41.316406 L 236.453125 40.820313 L 237.449219 40.820313 L 237.449219 40.320313 L 238.445313 40.320313 L 238.941406 39.824219 L 241.429688 39.824219 L 241.929688 39.324219 L 244.417969 39.324219 L 245.414063 38.828125 L 253.378906 38.828125 L 253.875 39.324219 L 256.363281 39.324219 L 256.363281 39.824219 L 258.355469 39.824219 L 258.855469 40.320313 L 259.847656 40.320313 L 259.847656 40.820313 L 260.84375 40.820313 L 260.84375 41.316406 L 261.839844 41.316406 L 262.339844 41.816406 L 262.835938 41.816406 L 262.835938 42.3125 L 263.832031 42.3125 L 263.832031 42.808594 L 264.828125 42.808594 L 264.828125 43.308594 L 265.324219 43.308594 L 265.824219 43.804688 L 266.320313 43.804688 L 266.820313 44.304688 L 267.316406 44.304688 L 267.8125 44.800781 L 268.3125 44.800781 L 268.3125 45.300781 L 269.308594 45.300781 L 269.308594 45.796875 L 270.304688 45.796875 L 270.304688 46.296875 L 270.800781 46.296875 L 270.800781 46.792969 L 271.296875 46.792969 L 271.296875 47.289063 L 271.796875 47.289063 L 271.796875 47.789063 L 272.292969 47.789063 L 272.292969 48.285156 L 272.792969 48.285156 L 272.792969 48.785156 L 273.289063 48.785156 L 273.289063 49.28125 L 273.789063 49.28125 L 273.789063 49.78125 L 274.285156 49.78125 L 274.285156 50.277344 L 274.785156 50.277344 L 274.785156 50.773438 L 275.28125 50.773438 L 275.28125 51.273438 L 275.777344 51.273438 L 275.777344 52.269531 L 276.277344 52.269531 L 276.277344 52.765625 L 276.773438 52.765625 L 276.773438 53.761719 L 277.273438 53.761719 L 277.273438 54.757813 L 277.769531 54.757813 L 277.769531 55.753906 L 278.269531 55.753906 L 278.269531 56.75 "/>
<path style="fill:none;stroke-width:0.85;stroke-linecap:round;stroke-linejoin:round;stroke:rgb(0%,0%,0%);stroke-opacity:1;comp-op:src;clip-to-self:true;stroke-miterlimit:10;" d="M 275.28125 56.75 L 276.773438 58.242188 L 277.273438 58.242188 L 277.273438 58.738281 L 278.269531 58.738281 L 278.269531 59.238281 L 278.765625 58.738281 L 279.261719 58.738281 L 279.261719 58.242188 L 279.761719 58.242188 L 279.761719 57.746094 L 280.257813 57.246094 L 280.257813 56.75 L 280.757813 56.75 L 280.757813 56.25 L 281.253906 55.753906 L 281.253906 55.253906 L 281.753906 55.253906 L 281.753906 54.757813 "/>
<path style="fill:none;stroke-width:0.85;stroke-linecap:round;stroke-linejoin:round;stroke:rgb(0%,0%,0%);stroke-opacity:1;comp-op:src;clip-to-self:true;stroke-miterlimit:10;" d="M 242.425781 53.265625 L 241.429688 54.257813 L 240.933594 53.761719 L 240.433594 53.761719 L 240.433594 53.265625 L 239.9375 53.265625 L 239.9375 52.269531 L 239.441406 52.269531 L 239.441406 47.289063 L 239.9375 47.289063 L 239.9375 46.296875 L 240.433594 46.296875 L 240.433594 45.796875 L 240.933594 45.796875 L 240.933594 45.300781 L 241.929688 45.300781 L 241.929688 44.800781 L 243.921875 44.800781 L 243.921875 45.300781 L 244.914063 45.300781 L 244.914063 45.796875 L 245.414063 45.796875 L 245.414063 46.296875 L 245.910156 46.296875 L 245.910156 47.289063 L 246.410156 47.289063 L 246.410156 49.28125 L 246.90625 49.28125 "/>
<path style="fill:none;stroke-width:0.85;stroke-linecap:round;stroke-linejoin:round;stroke:rgb(0%,0%,0%);stroke-opacity:1;comp-op:src;clip-to-self:true;stroke-miterlimit:10;" d="M 244.417969 48.785156 L 244.914063 50.277344 L 244.914063 50.773438 L 245.910156 50.773438 L 245.910156 50.277344 L 246.410156 49.78125 L 246.410156 49.28125 L 246.90625 49.28125 L 246.90625 48.785156 L 247.40625 48.285156 L 247.40625 47.789063 "/>
<path style="fill:none;stroke-width:0.85;stroke-linecap:round;stroke-linejoin:round;stroke:rgb(0%,0%,0%);stroke-opacity:1;comp-op:src;clip-to-self:true;stroke-miterlimit:10;" d="M 385.292969 71.183594 L 401.222656 71.183594 L 401.222656 70.6875 L 402.714844 70.6875 L 403.214844 71.183594 L 403.214844 70.6875 L 404.210938 70.6875 L 404.210938 71.183594 L 409.6875 71.183594 L 409.6875 71.683594 "/>
<path style="fill:none;stroke-width:0.85;stroke-linecap:round;stroke-linejoin:round;stroke:rgb(0%,0%,0%);stroke-opacity:1;comp-op:src;clip-to-self:true;stroke-miterlimit:10;" d="M 354.929688 127.4375 L 354.929688 132.910156 L 355.425781 132.910156 L 355.425781 136.394531 L 354.929688 136.894531 L 354.929688 142.371094 L 354.429688 142.867188 L 354.429688 148.839844 L 353.933594 148.839844 L 353.933594 153.320313 L 354.429688 153.820313 L 355.425781 153.820313 L 355.425781 154.316406 L 356.917969 154.316406 "/>
<path style="fill:none;stroke-width:0.85;stroke-linecap:round;stroke-linejoin:round;stroke:rgb(0%,0%,0%);stroke-opacity:1;comp-op:src;clip-to-self:true;stroke-miterlimit:10;" d="M 408.691406 71.183594 L 410.183594 70.6875 L 411.675781 70.6875 L 411.675781 70.1875 L 416.65625 70.1875 L 417.152344 69.691406 L 422.628906 69.691406 L 423.125 70.1875 L 435.074219 70.1875 L 435.074219 70.6875 L 437.066406 70.6875 L 437.066406 71.183594 L 439.554688 71.183594 L 439.554688 82.632813 L 440.050781 82.632813 L 440.050781 87.113281 L 440.550781 87.613281 L 440.550781 100.058594 L 440.050781 100.058594 L 440.550781 100.554688 L 440.550781 101.050781 L 440.050781 101.550781 L 440.050781 108.519531 L 439.554688 108.519531 L 439.554688 113.496094 L 439.054688 113.496094 L 439.054688 120.464844 L 438.558594 120.964844 L 438.558594 123.949219 L 439.054688 124.449219 L 439.054688 124.945313 L 438.558594 125.445313 L 439.054688 125.445313 L 439.054688 155.3125 L 438.558594 155.808594 "/>
<path style="fill:none;stroke-width:0.85;stroke-linecap:round;stroke-linejoin:round;stroke:rgb(0%,0%,0%);stroke-opacity:1;comp-op:src;clip-to-self:true;stroke-miterlimit:10;" d="M 355.925781 154.316406 L 357.914063 154.316406 L 357.914063 154.816406 L 364.386719 154.816406 L 364.386719 155.3125 L 366.875 155.3125 L 366.875 155.808594 L 371.355469 155.808594 L 371.355469 156.308594 L 375.835938 156.308594 L 375.835938 156.804688 L 379.816406 156.804688 L 379.816406 156.308594 L 402.714844 156.308594 L 402.714844 156.804688 L 435.570313 156.804688 L 436.070313 156.308594 L 438.558594 156.308594 L 439.054688 155.808594 L 439.554688 155.808594 "/>
<path style="fill:none;stroke-width:0.85;stroke-linecap:round;stroke-linejoin:round;stroke:rgb(100%,50.196078%,0%);stroke-opacity:1;comp-op:src;clip-to-self:true;stroke-miterlimit:10;" d="M 355.925781 126.441406 L 355.425781 126.9375 L 355.425781 129.925781 L 355.925781 130.421875 L 355.925781 132.910156 L 356.421875 132.910156 L 356.421875 139.878906 L 355.925781 139.878906 L 355.925781 142.867188 L 355.425781 142.867188 L 355.425781 147.84375 L 354.929688 147.84375 L 354.929688 151.328125 L 355.425781 151.328125 L 355.425781 152.324219 L 354.929688 152.824219 "/>
<path style="fill:none;stroke-width:0.85;stroke-linecap:round;stroke-linejoin:round;stroke:rgb(100%,50.196078%,0%);stroke-opacity:1;comp-op:src;clip-to-self:true;stroke-miterlimit:10;" d="M 360.902344 126.441406 L 361.898438 126.441406 "/>
<path style="fill:none;stroke-width:0.85;stroke-linecap:round;stroke-linejoin:round;stroke:rgb(100%,50.196078%,0%);stroke-opacity:1;comp-op:src;clip-to-self:true;stroke-miterlimit:10;" d="M 365.382813 125.941406 L 371.851563 125.941406 L 372.351563 126.441406 L 372.351563 125.941406 L 372.847656 126.441406 L 378.824219 126.441406 L 379.320313 126.9375 L 381.3125 126.9375 "/>
<path style="fill:none;stroke-width:0.85;stroke-linecap:round;stroke-linejoin:round;stroke:rgb(100%,50.196078%,0%);stroke-opacity:1;comp-op:src;clip-to-self:true;stroke-miterlimit:10;" d="M 383.800781 128.929688 L 383.800781 137.890625 L 383.304688 138.386719 L 383.304688 140.378906 L 383.800781 140.378906 L 383.304688 140.875 L 383.304688 149.339844 L 383.800781 149.339844 L 383.800781 153.320313 L 384.296875 153.320313 L 384.296875 155.3125 L 383.800781 155.808594 L 383.800781 156.308594 "/>
<path style="fill:none;stroke-width:0.85;stroke-linecap:round;stroke-linejoin:round;stroke:rgb(100%,50.196078%,0%);stroke-opacity:1;comp-op:src;clip-to-self:true;stroke-miterlimit:10;" d="M 354.429688 151.328125 L 354.429688 153.820313 L 354.929688 153.820313 L 354.929688 154.816406 L 355.425781 154.816406 L 355.425781 155.3125 L 356.421875 155.3125 L 356.917969 155.808594 L 363.890625 155.808594 L 363.890625 155.3125 L 368.367188 155.3125 L 368.367188 154.816406 L 371.355469 154.816406 L 371.355469 155.3125 L 381.808594 155.3125 L 382.308594 155.808594 L 382.308594 155.3125 L 382.804688 155.808594 L 383.304688 155.808594 "/>
<path style="fill:none;stroke-width:0.85;stroke-linecap:round;stroke-linejoin:round;stroke:rgb(100%,50.196078%,0%);stroke-opacity:1;comp-op:src;clip-to-self:true;stroke-miterlimit:10;" d="M 357.914063 144.859375 L 360.402344 142.867188 L 360.902344 142.867188 L 364.882813 138.886719 L 365.382813 138.886719 L 365.878906 138.386719 L 366.378906 137.890625 L 366.875 137.890625 L 367.871094 136.894531 L 368.367188 136.394531 L 368.867188 135.898438 L 369.363281 135.898438 L 369.863281 135.402344 L 369.863281 134.902344 L 370.359375 134.902344 L 370.859375 134.40625 L 371.355469 134.40625 L 371.355469 133.90625 L 371.851563 133.90625 L 372.351563 133.410156 L 372.351563 132.910156 L 373.347656 132.910156 L 373.347656 132.414063 L 373.84375 132.414063 L 373.84375 131.914063 L 374.34375 131.914063 L 374.34375 131.417969 L 374.839844 131.417969 L 375.339844 130.921875 "/>
<path style="fill:none;stroke-width:0.85;stroke-linecap:round;stroke-linejoin:round;stroke:rgb(0%,50.196078%,0%);stroke-opacity:1;comp-op:src;clip-to-self:true;stroke-miterlimit:10;" d="M 393.257813 137.890625 L 394.253906 138.386719 L 394.753906 137.890625 L 395.25 137.890625 L 395.746094 137.390625 L 396.246094 136.894531 L 396.742188 136.394531 L 397.242188 135.898438 L 398.238281 135.402344 L 398.734375 134.40625 L 399.730469 133.90625 L 401.222656 132.414063 L 402.21875 131.914063 L 402.714844 130.921875 L 403.710938 130.421875 L 405.207031 129.425781 L 407.195313 127.4375 L 408.191406 126.9375 L 410.183594 124.945313 L 411.675781 123.949219 L 412.671875 123.453125 L 413.667969 122.457031 L 414.664063 121.960938 L 415.660156 120.964844 L 416.65625 120.464844 L 418.148438 119.472656 L 418.644531 118.476563 L 419.640625 117.976563 L 420.636719 117.480469 L 422.128906 115.988281 L 423.125 115.488281 L 423.625 114.992188 L 424.121094 114.492188 L 424.621094 113.996094 L 425.117188 113.496094 "/>
<path style="fill:none;stroke-width:0.85;stroke-linecap:round;stroke-linejoin:round;stroke:rgb(0%,50.196078%,0%);stroke-opacity:1;comp-op:src;clip-to-self:true;stroke-miterlimit:10;" d="M 402.714844 149.835938 L 430.59375 126.9375 "/>
<path style="fill:none;stroke-width:0.85;stroke-linecap:round;stroke-linejoin:round;stroke:rgb(0%,50.196078%,0%);stroke-opacity:1;comp-op:src;clip-to-self:true;stroke-miterlimit:10;" d="M 419.640625 151.828125 L 421.136719 150.832031 L 421.632813 150.335938 L 422.128906 150.335938 L 422.128906 149.835938 L 422.628906 149.339844 L 423.125 149.339844 L 423.125 148.839844 L 423.625 148.839844 L 423.625 148.34375 L 424.121094 148.34375 L 424.621094 147.84375 L 425.617188 147.347656 L 425.617188 146.851563 L 426.113281 146.351563 L 427.109375 145.855469 L 427.605469 145.355469 L 428.105469 144.859375 L 428.601563 144.859375 L 429.597656 143.863281 L 430.09375 143.363281 L 430.59375 143.363281 L 431.089844 142.867188 L 431.589844 142.371094 L 432.085938 142.371094 L 432.085938 141.871094 "/>
<path style="fill:none;stroke-width:0.85;stroke-linecap:round;stroke-linejoin:round;stroke:rgb(100%,0%,0%);stroke-opacity:1;comp-op:src;clip-to-self:true;stroke-dasharray:6,3;stroke-miterlimit:10;" d="M 382.804688 126.441406 L 383.304688 125.941406 L 383.304688 121.460938 L 383.800781 121.460938 L 383.800781 112.5 L 383.304688 112.5 L 383.304688 108.023438 L 382.804688 107.523438 L 382.804688 97.070313 L 383.304688 97.070313 L 383.304688 89.105469 L 382.804688 89.105469 L 382.804688 79.648438 "/>
<path style="fill:none;stroke-width:0.85;stroke-linecap:round;stroke-linejoin:round;stroke:rgb(0%,50.196078%,0%);stroke-opacity:1;comp-op:src;clip-to-self:true;stroke-miterlimit:10;" d="M 391.265625 118.972656 L 419.640625 93.085938 L 420.140625 92.589844 L 420.636719 92.09375 "/>
<path style="fill:none;stroke-width:0.85;stroke-linecap:round;stroke-linejoin:round;stroke:rgb(0%,50.196078%,0%);stroke-opacity:1;comp-op:src;clip-to-self:true;stroke-miterlimit:10;" d="M 392.261719 96.074219 L 391.265625 96.574219 L 391.765625 96.074219 L 391.765625 95.578125 L 392.261719 95.078125 L 392.761719 94.582031 L 393.257813 94.582031 L 393.757813 93.585938 L 394.253906 93.085938 L 394.753906 92.589844 L 395.25 92.09375 L 395.746094 91.097656 L 396.742188 90.101563 L 397.738281 89.601563 L 398.238281 88.609375 L 398.734375 88.109375 L 401.222656 85.621094 L 402.21875 85.125 L 402.714844 84.625 L 403.710938 84.128906 L 404.210938 83.628906 L 404.707031 82.632813 L 405.207031 82.632813 L 405.703125 82.136719 L 406.699219 81.636719 L 407.195313 81.140625 L 407.695313 80.644531 L 408.191406 80.144531 L 408.691406 79.648438 L 409.1875 79.648438 L 410.183594 78.652344 L 410.679688 78.152344 L 411.179688 78.152344 L 411.675781 77.160156 L 412.175781 77.160156 L 412.671875 76.660156 L 414.167969 75.664063 L 414.664063 75.167969 L 415.160156 75.167969 L 415.160156 74.667969 "/>
<path style="fill:none;stroke-width:0.85;stroke-linecap:round;stroke-linejoin:round;stroke:rgb(100%,50.196078%,0%);stroke-opacity:1;comp-op:src;clip-to-self:true;stroke-miterlimit:10;" d="M 356.917969 132.414063 L 358.910156 131.417969 L 359.410156 130.921875 L 359.90625 130.421875 L 360.402344 129.925781 L 360.902344 129.925781 L 361.398438 129.425781 L 361.898438 128.929688 L 362.394531 128.929688 L 362.894531 128.429688 L 363.390625 128.429688 "/>
<path style="fill:none;stroke-width:0.85;stroke-linecap:round;stroke-linejoin:round;stroke:rgb(100%,50.196078%,0%);stroke-opacity:1;comp-op:src;clip-to-self:true;stroke-miterlimit:10;" d="M 356.917969 138.386719 L 359.410156 137.390625 L 359.410156 136.894531 L 359.90625 136.894531 L 360.402344 136.394531 L 360.902344 135.898438 L 361.398438 135.402344 L 361.898438 135.402344 L 362.394531 134.902344 L 362.894531 134.902344 L 362.894531 134.40625 L 363.390625 133.90625 L 363.890625 133.90625 L 364.386719 133.410156 L 364.882813 133.410156 L 365.878906 132.414063 L 366.378906 132.414063 L 366.875 131.914063 L 367.375 131.417969 L 367.871094 131.417969 L 368.367188 130.921875 L 368.867188 130.921875 L 368.867188 130.421875 L 369.863281 130.421875 L 370.359375 129.925781 L 371.355469 129.925781 "/>
<path style="fill:none;stroke-width:0.85;stroke-linecap:round;stroke-linejoin:round;stroke:rgb(100%,50.196078%,0%);stroke-opacity:1;comp-op:src;clip-to-self:true;stroke-miterlimit:10;" d="M 361.898438 148.34375 L 364.386719 146.351563 L 364.882813 146.351563 L 365.382813 145.855469 L 365.382813 145.355469 L 366.378906 144.859375 L 366.378906 144.359375 L 367.375 143.363281 L 367.871094 143.363281 L 368.367188 142.867188 L 368.367188 142.371094 L 368.867188 141.871094 L 369.863281 141.375 L 370.359375 140.875 L 370.859375 140.378906 L 371.355469 139.878906 L 371.851563 139.878906 L 372.351563 139.382813 L 372.351563 138.886719 L 372.847656 138.886719 L 373.347656 138.386719 L 373.84375 138.386719 L 374.34375 137.890625 L 374.34375 137.390625 L 374.839844 137.390625 L 374.839844 136.894531 L 375.339844 136.894531 L 375.835938 136.394531 L 376.332031 136.394531 L 376.332031 135.898438 L 376.832031 135.898438 "/>
<path style="fill:none;stroke-width:0.85;stroke-linecap:round;stroke-linejoin:round;stroke:rgb(100%,50.196078%,0%);stroke-opacity:1;comp-op:src;clip-to-self:true;stroke-miterlimit:10;" d="M 369.863281 148.839844 L 371.355469 147.347656 L 371.851563 147.347656 L 371.851563 146.851563 L 372.351563 146.851563 L 372.351563 146.351563 L 372.847656 146.351563 L 372.847656 145.855469 L 373.347656 145.855469 L 373.347656 145.355469 L 375.339844 143.363281 L 375.339844 142.867188 L 375.835938 142.867188 L 375.835938 142.371094 L 376.332031 142.371094 L 376.332031 141.871094 L 376.832031 141.375 L 377.328125 140.875 L 377.828125 140.875 "/>
<path style="fill:none;stroke-width:0.85;stroke-linecap:round;stroke-linejoin:round;stroke:rgb(100%,50.196078%,0%);stroke-opacity:1;comp-op:src;clip-to-self:true;stroke-miterlimit:10;" d="M 375.339844 150.832031 L 377.328125 149.339844 L 377.828125 148.839844 L 377.828125 148.34375 L 378.324219 148.34375 L 378.324219 147.84375 L 378.824219 147.84375 L 378.824219 147.347656 L 379.320313 147.347656 L 379.320313 146.851563 "/>
<path style="fill:none;stroke-width:0.85;stroke-linecap:round;stroke-linejoin:round;stroke:rgb(100%,0%,0%);stroke-opacity:1;comp-op:src;clip-to-self:true;stroke-miterlimit:10;" d="M 382.804688 72.179688 L 382.804688 74.171875 L 382.804688 72.679688 L 382.308594 73.175781 L 382.308594 75.167969 L 382.804688 74.667969 L 382.804688 73.175781 "/>
<path style="fill:none;stroke-width:0.85;stroke-linecap:round;stroke-linejoin:round;stroke:rgb(100%,0%,0%);stroke-opacity:1;comp-op:src;clip-to-self:true;stroke-dasharray:6,3;stroke-miterlimit:10;" d="M 382.308594 70.6875 L 383.304688 69.691406 L 385.292969 69.691406 L 385.792969 69.195313 L 391.265625 69.195313 L 391.265625 69.691406 L 397.242188 69.691406 L 397.738281 70.1875 L 411.179688 70.1875 L 411.179688 69.691406 L 417.652344 69.691406 L 418.148438 69.195313 L 427.109375 69.195313 L 427.605469 68.695313 L 427.605469 69.195313 L 428.105469 68.695313 L 428.105469 69.195313 L 435.074219 69.195313 L 435.074219 69.691406 L 438.558594 69.691406 L 438.558594 70.1875 L 439.554688 70.1875 "/>
<path style="fill:none;stroke-width:0.85;stroke-linecap:round;stroke-linejoin:round;stroke:rgb(0%,0%,0%);stroke-opacity:1;comp-op:src;clip-to-self:true;stroke-miterlimit:10;" d="M 439.054688 41.816406 L 439.054688 44.304688 L 439.554688 44.800781 L 439.554688 49.78125 L 440.050781 49.78125 L 440.050781 53.761719 L 440.550781 54.257813 L 440.550781 54.757813 L 440.050781 55.253906 L 440.050781 55.753906 L 440.550781 56.25 L 440.050781 56.25 L 440.050781 62.222656 L 439.554688 62.222656 L 439.554688 66.703125 L 439.054688 66.703125 L 439.054688 68.695313 L 439.554688 68.695313 L 439.554688 69.691406 "/>
<path style="fill:none;stroke-width:0.85;stroke-linecap:round;stroke-linejoin:round;stroke:rgb(0%,0%,0%);stroke-opacity:1;comp-op:src;clip-to-self:true;stroke-miterlimit:10;" d="M 382.804688 41.316406 L 385.292969 41.316406 L 385.292969 41.816406 L 390.769531 41.816406 L 391.265625 42.3125 L 398.238281 42.3125 L 398.238281 42.808594 L 399.730469 42.808594 L 400.226563 42.3125 L 400.226563 42.808594 L 409.6875 42.808594 L 409.6875 42.3125 L 416.15625 42.3125 L 416.15625 41.816406 L 424.621094 41.816406 L 424.621094 41.316406 L 431.089844 41.316406 L 431.089844 41.816406 L 435.074219 41.816406 L 435.570313 42.3125 L 438.558594 42.3125 "/>
<path style="fill:none;stroke-width:0.85;stroke-linecap:round;stroke-linejoin:round;stroke:rgb(100%,50.196078%,0%);stroke-opacity:1;comp-op:src;clip-to-self:true;stroke-miterlimit:10;" d="M 382.804688 42.3125 L 382.804688 52.269531 L 383.304688 52.269531 L 382.804688 52.765625 L 383.304688 52.765625 L 383.304688 53.761719 "/>
<path style="fill:none;stroke-width:0.85;stroke-linecap:round;stroke-linejoin:round;stroke:rgb(100%,50.196078%,0%);stroke-opacity:1;comp-op:src;clip-to-self:true;stroke-miterlimit:10;" d="M 382.804688 43.804688 L 382.804688 63.21875 "/>
<path style="fill:none;stroke-width:0.85;stroke-linecap:round;stroke-linejoin:round;stroke:rgb(100%,50.196078%,0%);stroke-opacity:1;comp-op:src;clip-to-self:true;stroke-miterlimit:10;" d="M 382.308594 59.238281 L 382.804688 62.222656 L 382.804688 67.699219 "/>
<path style="fill:none;stroke-width:0.85;stroke-linecap:round;stroke-linejoin:round;stroke:rgb(0%,50.196078%,0%);stroke-opacity:1;comp-op:src;clip-to-self:true;stroke-miterlimit:10;" d="M 389.773438 53.761719 L 399.230469 62.722656 L 399.730469 62.722656 L 399.730469 63.21875 L 400.226563 63.21875 L 400.226563 63.71875 "/>
<path style="fill:none;stroke-width:0.85;stroke-linecap:round;stroke-linejoin:round;stroke:rgb(0%,50.196078%,0%);stroke-opacity:1;comp-op:src;clip-to-self:true;stroke-miterlimit:10;" d="M 399.730469 46.792969 L 415.660156 59.734375 L 416.15625 60.234375 L 416.65625 60.730469 L 417.152344 61.230469 "/>
<path style="fill:none;stroke-width:0.85;stroke-linecap:round;stroke-linejoin:round;stroke:rgb(0%,50.196078%,0%);stroke-opacity:1;comp-op:src;clip-to-self:true;stroke-miterlimit:10;" d="M 417.652344 46.792969 L 420.636719 48.785156 L 420.636719 49.28125 L 421.136719 49.78125 L 421.632813 49.78125 L 421.632813 50.277344 L 422.128906 50.773438 L 422.628906 50.773438 L 422.628906 51.273438 L 423.125 51.273438 L 423.125 51.769531 L 423.625 51.769531 L 423.625 52.269531 L 424.121094 52.269531 L 424.621094 52.765625 L 424.621094 53.265625 L 425.117188 53.761719 L 425.617188 54.257813 L 426.113281 54.757813 L 427.605469 56.25 L 428.105469 56.25 L 428.105469 56.75 L 428.601563 56.75 L 428.601563 57.246094 L 429.101563 57.246094 L 429.101563 57.746094 "/>
<path style="fill:none;stroke-width:0.85;stroke-linecap:round;stroke-linejoin:round;stroke:rgb(0%,0%,0%);stroke-opacity:1;comp-op:src;clip-to-self:true;stroke-miterlimit:10;" d="M 383.800781 165.269531 L 383.800781 166.761719 L 383.304688 166.761719 L 383.304688 167.257813 L 382.804688 167.757813 L 382.804688 169.25 L 382.308594 169.25 L 382.308594 170.246094 L 381.808594 170.246094 L 381.808594 171.242188 L 381.3125 171.242188 "/>
<path style="fill:none;stroke-width:0.85;stroke-linecap:round;stroke-linejoin:round;stroke:rgb(0%,0%,0%);stroke-opacity:1;comp-op:src;clip-to-self:true;stroke-miterlimit:10;" d="M 381.3125 168.753906 L 383.304688 168.253906 L 394.253906 168.253906 L 394.753906 168.753906 L 401.722656 168.753906 L 401.722656 168.253906 L 404.210938 168.253906 L 404.707031 168.753906 L 423.125 168.753906 L 423.125 168.253906 L 423.125 168.753906 L 423.625 168.753906 L 424.121094 168.253906 L 424.121094 168.753906 L 424.621094 168.253906 L 440.050781 168.253906 L 440.050781 168.753906 L 441.046875 168.753906 "/>
<path style="fill:none;stroke-width:0.85;stroke-linecap:round;stroke-linejoin:round;stroke:rgb(0%,0%,0%);stroke-opacity:1;comp-op:src;clip-to-self:true;stroke-miterlimit:10;" d="M 441.542969 166.265625 L 438.558594 171.242188 L 438.058594 171.242188 "/>
<path style="fill:none;stroke-width:0.85;stroke-linecap:round;stroke-linejoin:round;stroke:rgb(0%,0%,0%);stroke-opacity:1;comp-op:src;clip-to-self:true;stroke-miterlimit:10;" d="M 401.222656 174.726563 L 401.222656 177.214844 L 400.726563 177.714844 L 400.726563 178.707031 L 402.21875 178.707031 L 402.21875 178.210938 L 402.714844 178.210938 L 402.714844 177.714844 L 403.710938 177.714844 L 403.710938 177.214844 L 404.707031 177.214844 L 405.207031 177.714844 L 405.703125 177.714844 L 405.703125 178.707031 L 405.207031 178.707031 L 405.207031 179.207031 L 403.214844 179.207031 L 402.714844 178.707031 L 402.21875 178.707031 "/>
<path style="fill:none;stroke-width:0.85;stroke-linecap:round;stroke-linejoin:round;stroke:rgb(0%,0%,0%);stroke-opacity:1;comp-op:src;clip-to-self:true;stroke-miterlimit:10;" d="M 408.691406 176.21875 L 411.675781 176.21875 "/>
<path style="fill:none;stroke-width:0.85;stroke-linecap:round;stroke-linejoin:round;stroke:rgb(0%,0%,0%);stroke-opacity:1;comp-op:src;clip-to-self:true;stroke-miterlimit:10;" d="M 416.15625 173.730469 L 417.652344 175.222656 L 417.652344 175.722656 L 418.148438 175.722656 L 417.652344 175.722656 L 417.652344 176.21875 L 416.15625 176.21875 L 416.15625 176.71875 L 415.660156 176.71875 L 415.660156 177.214844 L 415.160156 177.214844 L 415.160156 177.714844 L 415.660156 178.210938 L 417.152344 178.210938 L 417.652344 177.714844 "/>
<path style="fill:none;stroke-width:0.85;stroke-linecap:round;stroke-linejoin:round;stroke:rgb(0%,0%,0%);stroke-opacity:1;comp-op:src;clip-to-self:true;stroke-miterlimit:10;" d="M 366.378906 42.808594 L 367.871094 41.816406 L 368.367188 41.316406 L 368.867188 41.316406 L 368.867188 40.820313 L 369.363281 40.820313 L 369.363281 40.320313 L 370.359375 40.320313 L 370.359375 39.824219 L 370.859375 39.824219 L 370.859375 39.324219 "/>
<path style="fill:none;stroke-width:0.85;stroke-linecap:round;stroke-linejoin:round;stroke:rgb(0%,0%,0%);stroke-opacity:1;comp-op:src;clip-to-self:true;stroke-miterlimit:10;" d="M 368.367188 40.320313 L 368.867188 42.808594 L 368.867188 44.800781 L 368.367188 45.300781 L 368.367188 54.257813 L 367.871094 54.257813 L 367.871094 57.746094 L 368.367188 57.746094 L 367.871094 58.242188 L 368.367188 58.738281 L 367.871094 58.738281 L 367.871094 59.238281 L 368.367188 59.238281 L 368.367188 59.734375 L 367.871094 59.734375 L 368.367188 59.734375 L 368.367188 60.234375 L 367.871094 60.234375 L 368.367188 60.234375 L 367.871094 60.730469 L 367.871094 62.222656 L 368.367188 62.222656 L 367.871094 62.722656 L 368.367188 62.722656 L 367.871094 63.21875 L 368.367188 63.71875 L 368.367188 64.714844 L 367.871094 64.714844 L 367.871094 65.710938 L 368.367188 65.710938 L 368.367188 68.199219 "/>
<path style="fill:none;stroke-width:0.85;stroke-linecap:round;stroke-linejoin:round;stroke:rgb(0%,0%,0%);stroke-opacity:1;comp-op:src;clip-to-self:true;stroke-miterlimit:10;" d="M 366.378906 71.683594 L 367.871094 69.691406 L 368.367188 69.195313 L 368.367188 68.695313 L 368.867188 68.695313 L 368.867188 68.199219 L 369.363281 68.199219 L 369.363281 67.699219 L 369.863281 67.699219 L 369.863281 67.203125 L 370.359375 66.703125 L 370.859375 66.207031 L 370.859375 65.710938 "/>
<path style="fill:none;stroke-width:0.85;stroke-linecap:round;stroke-linejoin:round;stroke:rgb(0%,0%,0%);stroke-opacity:1;comp-op:src;clip-to-self:true;stroke-miterlimit:10;" d="M 356.917969 52.765625 L 359.410156 54.257813 L 359.410156 54.757813 L 359.90625 54.757813 L 359.90625 55.253906 L 360.402344 55.253906 L 359.90625 55.753906 L 359.90625 55.253906 L 357.417969 55.253906 L 357.417969 55.753906 L 356.917969 55.753906 L 356.917969 56.25 L 356.421875 56.25 L 356.421875 57.746094 L 357.417969 57.746094 L 357.417969 58.242188 L 358.414063 58.242188 L 358.414063 57.746094 L 358.910156 57.746094 L 359.410156 57.246094 L 359.90625 57.246094 L 360.902344 56.25 "/>
<path style="fill:none;stroke-width:0.85;stroke-linecap:round;stroke-linejoin:round;stroke:rgb(0%,0%,0%);stroke-opacity:1;comp-op:src;clip-to-self:true;stroke-miterlimit:10;" d="M 451.5 72.179688 L 454.984375 69.691406 L 455.484375 69.195313 L 455.980469 69.195313 L 455.980469 68.695313 L 456.480469 68.199219 L 457.472656 68.199219 "/>
<path style="fill:none;stroke-width:0.85;stroke-linecap:round;stroke-linejoin:round;stroke:rgb(0%,0%,0%);stroke-opacity:1;comp-op:src;clip-to-self:true;stroke-miterlimit:10;" d="M 453.988281 70.1875 L 453.988281 76.164063 L 454.488281 76.164063 L 454.488281 88.109375 L 453.988281 88.609375 L 453.988281 89.105469 L 454.488281 89.105469 L 454.488281 89.601563 L 453.988281 89.601563 L 453.988281 96.074219 L 453.492188 96.074219 L 453.492188 101.550781 L 452.996094 102.046875 L 452.996094 108.023438 L 453.492188 108.023438 L 453.492188 112.5 L 453.988281 112.5 L 453.988281 113.996094 "/>
<path style="fill:none;stroke-width:0.85;stroke-linecap:round;stroke-linejoin:round;stroke:rgb(0%,0%,0%);stroke-opacity:1;comp-op:src;clip-to-self:true;stroke-miterlimit:10;" d="M 453.988281 112.003906 L 453.988281 114.992188 L 453.492188 115.488281 L 453.492188 127.4375 L 452.996094 127.4375 L 452.996094 145.355469 L 453.492188 145.855469 L 453.492188 154.816406 L 453.988281 154.816406 L 453.988281 155.808594 "/>
<path style="fill:none;stroke-width:0.85;stroke-linecap:round;stroke-linejoin:round;stroke:rgb(0%,0%,0%);stroke-opacity:1;comp-op:src;clip-to-self:true;stroke-miterlimit:10;" d="M 451.5 156.804688 L 451.5 158.300781 L 453.492188 156.308594 L 453.988281 155.808594 L 454.488281 155.3125 L 455.484375 154.316406 L 455.484375 153.820313 L 455.980469 153.820313 L 456.480469 153.320313 "/>
<path style="fill:none;stroke-width:0.85;stroke-linecap:round;stroke-linejoin:round;stroke:rgb(0%,0%,0%);stroke-opacity:1;comp-op:src;clip-to-self:true;stroke-miterlimit:10;" d="M 459.964844 102.046875 L 459.964844 107.027344 L 460.460938 107.523438 L 460.957031 107.523438 L 460.957031 107.027344 L 461.953125 107.027344 L 461.953125 106.527344 L 463.449219 106.527344 L 463.449219 107.027344 L 463.945313 107.027344 L 463.945313 109.015625 L 463.449219 109.015625 L 463.449219 109.515625 L 461.457031 109.515625 L 461.457031 109.015625 L 459.964844 109.015625 "/>
<path style="fill:none;stroke-width:0.85;stroke-linecap:round;stroke-linejoin:round;stroke:rgb(0%,50.196078%,0%);stroke-opacity:1;comp-op:src;clip-to-self:true;stroke-miterlimit:10;" d="M 394.753906 146.851563 L 394.253906 147.84375 L 393.757813 148.34375 L 393.757813 148.839844 L 393.257813 149.339844 L 393.257813 149.835938 L 392.761719 149.835938 L 392.761719 150.832031 L 392.261719 150.832031 L 392.261719 152.324219 L 391.765625 152.324219 L 391.765625 153.820313 L 391.265625 153.820313 L 391.265625 155.3125 L 390.769531 155.808594 L 390.769531 157.800781 L 390.273438 157.800781 L 390.273438 159.792969 L 389.773438 160.289063 L 389.773438 162.28125 L 389.277344 162.777344 L 389.277344 164.769531 L 388.777344 165.269531 L 388.777344 167.757813 L 388.28125 168.753906 L 388.28125 171.738281 L 387.78125 172.238281 L 387.78125 177.214844 L 388.28125 177.714844 L 388.28125 184.683594 L 388.777344 185.179688 L 388.777344 187.171875 L 389.277344 187.667969 L 389.277344 188.664063 L 389.773438 189.164063 "/>
<path style="fill:none;stroke-width:0.85;stroke-linecap:round;stroke-linejoin:round;stroke:rgb(0%,50.196078%,0%);stroke-opacity:1;comp-op:src;clip-to-self:true;stroke-miterlimit:10;" d="M 388.777344 188.167969 L 389.277344 189.164063 L 389.277344 190.15625 L 389.773438 190.65625 L 389.773438 191.152344 L 390.273438 191.652344 L 390.273438 192.148438 L 390.769531 192.648438 L 390.769531 193.144531 L 391.265625 193.640625 "/>
<path style="fill:none;stroke-width:0.85;stroke-linecap:round;stroke-linejoin:round;stroke:rgb(0%,50.196078%,0%);stroke-opacity:1;comp-op:src;clip-to-self:true;stroke-miterlimit:10;" d="M 394.753906 201.109375 L 395.25 204.59375 L 395.25 205.589844 L 399.230469 205.589844 L 399.230469 206.085938 L 399.730469 206.085938 L 399.730469 207.582031 L 399.230469 207.582031 L 399.230469 208.078125 L 398.734375 208.078125 L 398.734375 208.578125 L 396.246094 208.578125 L 395.746094 208.078125 "/>
<path style="fill:none;stroke-width:0.85;stroke-linecap:round;stroke-linejoin:round;stroke:rgb(0%,50.196078%,0%);stroke-opacity:1;comp-op:src;clip-to-self:true;stroke-miterlimit:10;" d="M 400.226563 200.613281 L 403.214844 200.613281 L 402.714844 201.109375 L 402.714844 202.105469 L 402.21875 202.105469 L 402.21875 202.601563 L 401.722656 203.101563 L 401.722656 204.097656 L 402.714844 204.097656 L 403.214844 203.597656 L 403.710938 203.597656 "/>
<path style="fill:none;stroke-width:0.85;stroke-linecap:round;stroke-linejoin:round;stroke:rgb(0%,50.196078%,0%);stroke-opacity:1;comp-op:src;clip-to-self:true;stroke-miterlimit:10;" d="M 407.195313 206.085938 L 410.183594 206.085938 "/>
<path style="fill:none;stroke-width:0.85;stroke-linecap:round;stroke-linejoin:round;stroke:rgb(0%,50.196078%,0%);stroke-opacity:1;comp-op:src;clip-to-self:true;stroke-miterlimit:10;" d="M 415.160156 202.105469 L 417.152344 204.097656 L 417.652344 204.097656 L 417.652344 205.09375 L 418.148438 205.09375 L 418.148438 205.589844 L 417.652344 206.085938 L 415.660156 206.085938 L 415.660156 206.585938 L 415.160156 206.585938 L 414.664063 207.082031 L 414.664063 208.078125 L 415.160156 208.078125 L 415.160156 208.578125 L 416.15625 208.578125 L 416.65625 208.078125 L 417.152344 208.078125 L 417.652344 207.582031 L 418.148438 207.082031 "/>
<path style="fill:none;stroke-width:0.85;stroke-linecap:round;stroke-linejoin:round;stroke:rgb(0%,50.196078%,0%);stroke-opacity:1;comp-op:src;clip-to-self:true;stroke-miterlimit:10;" d="M 418.148438 199.117188 L 420.636719 198.621094 L 420.636719 199.117188 L 421.136719 199.117188 L 421.136719 200.113281 L 420.636719 200.113281 L 420.636719 201.109375 L 420.140625 201.109375 L 420.140625 202.105469 L 421.632813 202.105469 "/>
<path style="fill:none;stroke-width:0.85;stroke-linecap:round;stroke-linejoin:round;stroke:rgb(0%,50.196078%,0%);stroke-opacity:1;comp-op:src;clip-to-self:true;stroke-miterlimit:10;" d="M 426.113281 209.074219 L 429.101563 208.578125 L 430.09375 208.578125 "/>
<path style="fill:none;stroke-width:0.85;stroke-linecap:round;stroke-linejoin:round;stroke:rgb(0%,50.196078%,0%);stroke-opacity:1;comp-op:src;clip-to-self:true;stroke-miterlimit:10;" d="M 426.609375 206.585938 L 429.597656 206.085938 L 430.09375 206.085938 "/>
<path style="fill:none;stroke-width:0.85;stroke-linecap:round;stroke-linejoin:round;stroke:rgb(0%,50.196078%,0%);stroke-opacity:1;comp-op:src;clip-to-self:true;stroke-miterlimit:10;" d="M 439.554688 201.109375 L 439.554688 207.082031 L 440.550781 207.082031 L 440.550781 206.585938 L 441.542969 206.585938 L 441.542969 206.085938 L 443.535156 206.085938 L 443.535156 207.082031 L 443.039063 207.082031 L 443.039063 207.582031 L 442.042969 207.582031 L 442.042969 208.078125 L 440.550781 208.078125 "/>
<path style="fill:none;stroke-width:0.85;stroke-linecap:round;stroke-linejoin:round;stroke:rgb(0%,50.196078%,0%);stroke-opacity:1;comp-op:src;clip-to-self:true;stroke-miterlimit:10;" d="M 446.023438 205.09375 L 448.515625 204.59375 L 449.011719 204.59375 "/>
<path style="fill:none;stroke-width:0.85;stroke-linecap:round;stroke-linejoin:round;stroke:rgb(0%,50.196078%,0%);stroke-opacity:1;comp-op:src;clip-to-self:true;stroke-miterlimit:10;" d="M 453.988281 201.109375 L 455.484375 203.101563 L 455.980469 203.101563 L 455.980469 204.097656 L 454.488281 204.097656 L 454.488281 204.59375 L 453.492188 204.59375 L 453.492188 205.09375 L 452.996094 205.09375 L 452.996094 205.589844 L 452.496094 205.589844 L 452.496094 206.085938 L 452.996094 206.085938 L 452.996094 206.585938 L 454.984375 206.585938 L 454.984375 206.085938 L 455.980469 206.085938 "/>
<path style="fill:none;stroke-width:0.85;stroke-linecap:round;stroke-linejoin:round;stroke:rgb(0%,50.196078%,0%);stroke-opacity:1;comp-op:src;clip-to-self:true;stroke-miterlimit:10;" d="M 439.054688 193.640625 L 437.5625 195.632813 L 437.5625 196.132813 L 437.066406 196.132813 L 437.066406 197.128906 L 436.566406 197.625 L 436.566406 199.117188 L 436.070313 199.617188 L 436.070313 203.597656 L 435.570313 204.097656 L 435.570313 210.566406 L 436.070313 210.566406 L 436.070313 212.558594 L 436.566406 213.054688 L 436.566406 213.554688 L 437.066406 213.554688 L 437.066406 214.050781 L 437.5625 214.550781 "/>
<path style="fill:none;stroke-width:0.85;stroke-linecap:round;stroke-linejoin:round;stroke:rgb(0%,50.196078%,0%);stroke-opacity:1;comp-op:src;clip-to-self:true;stroke-miterlimit:10;" d="M 457.972656 192.648438 L 457.972656 194.140625 L 458.46875 194.636719 L 458.46875 195.632813 L 458.96875 196.132813 L 458.96875 197.625 L 459.464844 198.121094 L 459.464844 209.570313 L 458.96875 210.070313 L 458.96875 212.0625 L 458.46875 212.0625 L 458.46875 213.554688 L 457.972656 213.554688 L 457.972656 214.550781 L 457.472656 214.550781 L 457.472656 215.046875 "/>
<path style="fill:none;stroke-width:0.85;stroke-linecap:round;stroke-linejoin:round;stroke:rgb(0%,50.196078%,0%);stroke-opacity:1;comp-op:src;clip-to-self:true;stroke-miterlimit:10;" d="M 465.4375 194.636719 L 463.945313 198.121094 L 463.945313 198.621094 L 463.449219 199.117188 L 463.449219 200.613281 L 462.949219 201.109375 L 462.949219 205.589844 L 462.453125 206.085938 L 462.453125 206.585938 L 462.949219 207.082031 L 462.949219 210.070313 L 463.449219 210.566406 L 463.449219 211.066406 L 463.945313 211.5625 L 463.945313 212.0625 L 464.445313 212.0625 L 464.445313 212.558594 "/>
<path style="fill:none;stroke-width:0.85;stroke-linecap:round;stroke-linejoin:round;stroke:rgb(0%,50.196078%,0%);stroke-opacity:1;comp-op:src;clip-to-self:true;stroke-miterlimit:10;" d="M 468.921875 198.621094 L 467.929688 204.59375 L 467.929688 205.589844 L 468.425781 205.589844 L 468.921875 205.09375 L 469.917969 205.09375 L 469.917969 204.59375 L 471.414063 204.59375 L 471.414063 205.09375 L 471.910156 205.09375 L 471.910156 206.085938 L 471.414063 206.085938 L 471.414063 206.585938 L 469.421875 206.585938 L 468.921875 206.085938 L 468.425781 206.085938 "/>
<path style="fill:none;stroke-width:0.85;stroke-linecap:round;stroke-linejoin:round;stroke:rgb(0%,50.196078%,0%);stroke-opacity:1;comp-op:src;clip-to-self:true;stroke-miterlimit:10;" d="M 476.390625 201.109375 L 476.886719 205.09375 L 476.886719 206.085938 "/>
<path style="fill:none;stroke-width:0.85;stroke-linecap:round;stroke-linejoin:round;stroke:rgb(0%,50.196078%,0%);stroke-opacity:1;comp-op:src;clip-to-self:true;stroke-miterlimit:10;" d="M 474.898438 204.097656 L 478.382813 203.597656 L 479.378906 203.597656 "/>
<path style="fill:none;stroke-width:0.85;stroke-linecap:round;stroke-linejoin:round;stroke:rgb(0%,50.196078%,0%);stroke-opacity:1;comp-op:src;clip-to-self:true;stroke-miterlimit:10;" d="M 482.363281 201.109375 L 484.355469 203.597656 L 484.355469 205.09375 L 482.363281 205.09375 L 482.363281 205.589844 L 481.367188 205.589844 L 481.367188 206.085938 L 480.871094 206.085938 L 480.871094 207.082031 L 482.363281 207.082031 L 482.863281 206.585938 L 483.359375 206.585938 L 483.359375 206.085938 L 483.859375 206.085938 "/>
<path style="fill:none;stroke-width:0.85;stroke-linecap:round;stroke-linejoin:round;stroke:rgb(0%,50.196078%,0%);stroke-opacity:1;comp-op:src;clip-to-self:true;stroke-miterlimit:10;" d="M 486.347656 195.632813 L 487.34375 197.128906 L 487.34375 197.625 L 487.839844 197.625 L 487.839844 198.621094 L 488.335938 199.117188 L 488.335938 200.113281 L 488.835938 200.613281 L 488.835938 206.585938 L 488.335938 206.585938 L 488.335938 208.578125 L 487.839844 208.578125 L 487.839844 210.070313 L 487.34375 210.070313 L 487.34375 210.566406 L 486.84375 212.0625 L 486.347656 212.558594 L 486.347656 213.054688 "/>
</g>
</svg>
